<?xml version="1.0" standalone="no"?>
<!DOCTYPE svg PUBLIC "-//W3C//DTD SVG 1.1//EN" "http://www.w3.org/Graphics/SVG/1.1/DTD/svg11.dtd" >
<svg xmlns="http://www.w3.org/2000/svg" xmlns:xlink="http://www.w3.org/1999/xlink" version="1.1">
<metadata>
Created by FontForge 20170731 at Wed Jul 24 11:47:46 2002
 By Aleksey,,,
Futura is a registered trademark of Fundicion Tipografica Neufville S. A.
</metadata>
<defs>
<font id="FuturaLT-HeavyOblique" horiz-adv-x="578" >
  <font-face 
    font-family="Futura LT"
    font-weight="800"
    font-style="oblique"
    font-stretch="normal"
    units-per-em="1000"
    panose-1="2 0 9 3 0 0 0 0 0 0"
    ascent="800"
    descent="-200"
    x-height="491"
    cap-height="754"
    bbox="-147 -264 1205.62 1002"
    underline-thickness="50"
    underline-position="-200"
    slope="-9"
    unicode-range="U+0020-FFFD"
  />
<missing-glyph horiz-adv-x="289" 
 />
    <glyph glyph-name=".notdef" unicode="&#xfffd;" horiz-adv-x="289" 
 />
    <glyph glyph-name=".null" horiz-adv-x="0" 
 />
    <glyph glyph-name="nonmarkingreturn" horiz-adv-x="333" 
 />
    <glyph glyph-name="space" unicode=" " horiz-adv-x="289" 
 />
    <glyph glyph-name="exclam" unicode="!" horiz-adv-x="325" 
d="M187 158q37 0 59 -25.5t16 -62.5t-36.5 -63.5t-67 -26.5t-58.5 26.5t-16 63.5t36 62.5t67 25.5zM125 217l85 537h142l-85 -537h-142z" />
    <glyph glyph-name="quotedbl" unicode="&#x22;" horiz-adv-x="488" 
d="M207 754h120l-70 -328h-84zM399 754h120l-70 -328h-84z" />
    <glyph glyph-name="numbersign" unicode="#" 
d="M326 726h106l-71 -203h101l71 203h105l-71 -203h80l-18 -113h-98l-44 -124h94l-18 -113h-118l-60 -173h-106l60 173h-101l-60 -173h-106l60 173h-91l18 113h113l44 124h-96l18 113h117zM322 410l-44 -124h102l46 124h-104z" />
    <glyph glyph-name="dollar" unicode="$" 
d="M252 -100l15 95q-76 9 -119.5 43.5t-70.5 104.5l102 86q38 -107 123 -107q43 0 75 29t38 72q4 22 -1.5 39t-22.5 31t-30.5 22t-41.5 21q-17 9 -26 13q-29 15 -48 29t-38 36.5t-25.5 54.5t0.5 73q13 84 68 141t138 72l14 93h73l-15 -94q50 -6 85 -26.5t61 -59.5l-82 -95
q-38 61 -102 61q-34 0 -63 -22.5t-34 -56.5q-2 -15 2 -28t11 -21.5t22 -19t25.5 -16t32 -16t31.5 -16.5q29 -15 49 -30.5t38.5 -39t24.5 -57t-1 -76.5q-14 -88 -73 -153t-146 -82l-16 -100h-73z" />
    <glyph glyph-name="percent" unicode="%" horiz-adv-x="772" 
d="M306.5 774q76.5 0 120 -50.5t30.5 -128.5q-12 -77 -71 -127.5t-136 -50.5t-120 50.5t-31 127.5q13 78 72 128.5t135.5 50.5zM293.5 693q-35.5 0 -62.5 -30.5t-33 -67.5t11.5 -67t53 -30t62.5 30t33 67t-11.5 67.5t-53 30.5zM677 780l62 -34l-527 -777l-63 35zM640.5 337
q76.5 0 119.5 -50.5t31 -128.5q-12 -77 -71 -127.5t-136.5 -50.5t-120 50.5t-30.5 127.5q12 78 71.5 128.5t136 50.5zM627.5 256q-35.5 0 -62.5 -30.5t-33 -67.5t11.5 -67t53 -30t62.5 30t33 67t-11.5 67.5t-53 30.5z" />
    <glyph glyph-name="ampersand" unicode="&#x26;" horiz-adv-x="702" 
d="M411 177l-92 157q-29 -19 -46.5 -33t-35.5 -38t-22 -50q-6 -37 15.5 -69t58.5 -32q21 0 45.5 11.5t38 22t38.5 31.5zM369 543l28 -51l28 21q48 36 55 82q5 29 -7.5 51.5t-39.5 22.5q-29 0 -49 -20.5t-24 -49.5q-5 -30 9 -56zM531 0l-49 76q-125 -96 -231 -96
q-96 0 -148.5 62.5t-37.5 157.5q19 122 140 196l50 31q-48 85 -36 160q13 83 76 135t146 52t129.5 -51.5t33.5 -134.5q-16 -101 -153 -182l84 -135l91 97l80 -87l-99 -109l103 -172h-179z" />
    <glyph glyph-name="quotesingle" unicode="'" horiz-adv-x="296" 
d="M207 754h120l-70 -328h-84z" />
    <glyph glyph-name="parenleft" unicode="(" horiz-adv-x="271" 
d="M307 832l77 -58q-112 -186 -154 -450q-19 -101 -17.5 -229t28.5 -220l-95 -59q-25 71 -33.5 162.5t-4.5 177.5t18 174q21 131 67 264.5t114 237.5z" />
    <glyph glyph-name="parenright" unicode=")" horiz-adv-x="271" 
d="M133 774l95 58q34 -104 38 -245t-17 -257q-21 -137 -67 -273.5t-115 -240.5l-77 59q57 92 96 211.5t57 237.5q42 264 -10 450z" />
    <glyph glyph-name="asterisk" unicode="*" horiz-adv-x="417" 
d="M285 754h86l-18 -101l86 52l25 -67l-89 -50l73 -50l-46 -67l-69 52l-14 -99h-86l19 99l-86 -52l-26 67l87 50l-72 50l46 67l71 -52z" />
    <glyph glyph-name="plus" unicode="+" 
d="M311 512h118l-31 -197h197l-19 -118h-197l-31 -197h-118l31 197h-197l19 118h197z" />
    <glyph glyph-name="comma" unicode="," horiz-adv-x="289" 
d="M160 156l125 -14l-191 -301l-91 11z" />
    <glyph glyph-name="hyphenminus" unicode="-" horiz-adv-x="330" 
d="M103 378h244l-18 -115h-244z" />
    <glyph glyph-name="period" unicode="." horiz-adv-x="289" 
d="M170 158q37 0 59 -25.5t16 -62.5t-36.5 -63.5t-67 -26.5t-58.5 26.5t-16 63.5t36 62.5t67 25.5z" />
    <glyph glyph-name="slash" unicode="/" horiz-adv-x="539" 
d="M539 848l92 -35l-523 -975l-91 35z" />
    <glyph glyph-name="zero" unicode="0" 
d="M412 774q48 0 86.5 -18t62.5 -49.5t39.5 -70.5t21 -84.5t4.5 -89.5t-7 -86q-9 -51 -25.5 -103t-45.5 -105.5t-65.5 -94.5t-88 -67t-108.5 -26q-48 0 -86.5 18t-62 49t-39.5 70.5t-21.5 84.5t-5 88.5t7.5 85.5q8 51 24.5 103.5t45.5 106.5t65.5 95t88 67t109.5 26z
M391 646q-36 0 -67.5 -30t-51.5 -76.5t-32 -86.5t-17 -75q-6 -34 -6.5 -74.5t4.5 -87.5t27 -77.5t58 -30.5q37 0 68.5 30.5t51.5 77.5t31.5 87t17.5 75q5 35 6 75t-4 86.5t-27 76.5t-59 30z" />
    <glyph glyph-name="one" unicode="1" 
d="M343 626h-99l20 128h246l-119 -754h-147z" />
    <glyph glyph-name="two" unicode="2" 
d="M309 128h247l-20 -128h-508l230 242l14 14q37 38 59.5 62.5t57 65.5t54.5 76.5t24 63.5q7 45 -13.5 83.5t-64.5 38.5q-46 0 -77 -40.5t-36 -88.5h-156q26 114 101.5 185.5t187.5 71.5q103 0 162.5 -70t43.5 -173q-12 -75 -55.5 -138t-118.5 -136z" />
    <glyph glyph-name="three" unicode="3" 
d="M287 557h-140q26 99 96 158t170 59q98 0 148 -58t35 -155q-8 -47 -32.5 -90t-64.5 -67q45 -21 61 -73.5t7 -110.5q-17 -109 -98 -174.5t-191 -65.5q-103 0 -163 68t-49 170h148q-6 -47 18.5 -78.5t71.5 -31.5t80 36.5t40 84.5q8 49 -15.5 86.5t-71.5 33.5l-27 -2l17 105
h16q46 0 75 28t37 76q6 40 -12.5 68t-58.5 28q-36 0 -62.5 -28.5t-34.5 -66.5z" />
    <glyph glyph-name="four" unicode="4" 
d="M513 251h80l-19 -118h-80l-21 -133h-138l21 133h-332l11 66l426 569h134zM375 251l47 300h-2l-206 -300h161z" />
    <glyph glyph-name="five" unicode="5" 
d="M598 626h-224l-44 -115l38 2q108 0 163.5 -76.5t38.5 -185.5q-19 -121 -107.5 -196t-209.5 -75q-136 0 -208 100l64 126q23 -44 63.5 -71t90.5 -27q60 0 104.5 44t54.5 105q10 62 -26 106t-98 44q-31 0 -66 -13.5t-62 -35.5h-23l143 396h328z" />
    <glyph glyph-name="six" unicode="6" 
d="M437 785l96 -78l-190 -219l2 -2q26 10 61 10q66 0 112.5 -35.5t64 -92t7.5 -122.5q-18 -116 -105 -191t-203 -75q-113 0 -177 72t-47 184q19 115 132 252zM300 100q53 0 92.5 43t48.5 97q9 55 -17.5 98t-79 43t-93 -43.5t-49.5 -97.5q-8 -54 18.5 -97t79.5 -43z" />
    <glyph glyph-name="seven" unicode="7" 
d="M458 626h-316l20 128h539l-535 -774l-110 69z" />
    <glyph glyph-name="eight" unicode="8" 
d="M341.5 333q-43.5 0 -75 -35.5t-39.5 -80.5q-7 -45 14 -80t64 -35t75 35t39 80q8 45 -13 80.5t-64.5 35.5zM229 393q-42 23 -61.5 68.5t-10.5 97.5q15 95 87.5 155t167 60t148.5 -60t39 -155q-9 -52 -42.5 -97.5t-83.5 -68.5q57 -23 80 -74t12 -118q-16 -98 -98 -159.5
t-181.5 -61.5t-162 61.5t-46.5 159.5q11 67 50 118t102 74zM394 664q-39 0 -68 -32.5t-35 -72.5q-7 -41 12 -73.5t58 -32.5t68 32.5t36 73.5q6 40 -13 72.5t-58 32.5z" />
    <glyph glyph-name="nine" unicode="9" 
d="M259 -32l-96 79l190 219l-2 2q-28 -11 -60 -11q-67 0 -113.5 35.5t-64 92t-7.5 122.5q19 117 105.5 192t203.5 75q113 0 177 -72t46 -185q-18 -115 -132 -252zM396.5 654q-52.5 0 -92.5 -43t-48.5 -98t17.5 -98t79 -43t93.5 43.5t49 97.5t-18.5 97.5t-79.5 43.5z" />
    <glyph glyph-name="colon" unicode=":" horiz-adv-x="289" 
d="M170 158q37 0 59 -25.5t16 -62.5t-36.5 -63.5t-67 -26.5t-58.5 26.5t-16 63.5t36 62.5t67 25.5zM227 518q37 0 59 -25.5t16 -62.5t-36 -63.5t-67 -26.5t-59 26.5t-16 63.5t36 62.5t67 25.5z" />
    <glyph glyph-name="semicolon" unicode=";" horiz-adv-x="289" 
d="M150 156l125 -14l-191 -301l-91 11zM267 518q37 0 59 -25.5t16 -62.5t-36 -63.5t-67 -26.5t-59 26.5t-16 63.5t36 62.5t67 25.5z" />
    <glyph glyph-name="less" unicode="&#x3c;" 
d="M64 196l19 120l541 182l-20 -126l-343 -115l-1 -2l307 -115l-20 -126z" />
    <glyph glyph-name="equal" unicode="=" 
d="M83 315l19 118h512l-19 -118h-512zM46 79l18 118h512l-18 -118h-512z" />
    <glyph glyph-name="greater" unicode="&#x3e;" 
d="M595 316l-19 -120l-541 -182l20 126l343 115l1 2l-307 115l20 126z" />
    <glyph glyph-name="question" unicode="?" horiz-adv-x="487" 
d="M189 257l31 199q16 -4 36 -4q53 0 95 30t50 82q6 33 -8.5 60.5t-46.5 27.5q-31 0 -53 -24.5t-27 -57.5l-2 -12h-146q10 90 82.5 153t164.5 63t143.5 -61.5t37.5 -153.5q-12 -74 -66 -132t-128 -74l-23 -96h-140zM245 158q37 0 59 -25.5t16 -62.5t-36.5 -63.5t-67 -26.5
t-58.5 26.5t-16 63.5t36 62.5t67 25.5z" />
    <glyph glyph-name="at" unicode="@" horiz-adv-x="975" 
d="M649 372q17 60 -6 90.5t-77 30.5q-58 0 -98 -43.5t-49 -103.5q-8 -47 11 -77.5t64 -30.5q117 0 155 134zM695 507l24 63h71l-91 -260q-1 -2 -2 -6q-4 -12 -6.5 -18t-5.5 -17.5t-3.5 -17.5t0.5 -13t5.5 -10.5t11.5 -3.5q36 0 79 60t54 134q20 125 -42 197.5t-179 72.5
q-125 0 -223 -89.5t-119 -221.5q-11 -68 5 -126.5t53 -98.5t91 -63t117 -23q122 0 187 43l66 -60q-69 -35 -130 -52t-150 -17q-107 0 -187.5 51t-118 142.5t-19.5 203.5q17 111 82.5 202.5t161 143t201.5 51.5q139 0 221 -88q96 -97 75 -232q-21 -133 -96 -214
q-42 -46 -86 -68t-82 -20q-21 1 -32.5 17t-11.5 45q-72 -62 -146 -62q-67 0 -108.5 55t-29.5 132q15 96 83.5 168t158.5 72q78 0 121 -72z" />
    <glyph glyph-name="A" unicode="A" horiz-adv-x="676" 
d="M495 159h-262l-87 -159h-155l417 774h114l163 -774h-157zM473 279l-50 274h-2l-127 -274h179z" />
    <glyph glyph-name="B" unicode="B" horiz-adv-x="553" 
d="M253 328l-33 -210h31q27 0 46 1.5t40.5 8t36 18t25.5 32t16 48.5q4 28 -2.5 48t-18 30.5t-33.5 16t-39 6.5t-45 1h-24zM54 0l119 754h183q110 0 160.5 -48.5t33.5 -156.5q-7 -44 -30 -84.5t-59 -61.5q41 -8 66.5 -38t32.5 -69t0 -82q-17 -106 -92 -160t-183 -54h-231z
M302 636l-31 -196h18q56 0 84.5 21.5t37.5 77.5q9 54 -15 75.5t-75 21.5h-19z" />
    <glyph glyph-name="C" unicode="C" horiz-adv-x="601" 
d="M674 730l-28 -176q-25 38 -65.5 59t-88.5 21q-67 0 -125 -38.5t-92.5 -96.5t-45.5 -125q-10 -65 7 -122t62.5 -94.5t111.5 -37.5q46 0 94 22t86 58l-28 -175q-102 -45 -178 -45q-103 0 -180 54.5t-110.5 144t-16.5 192.5q12 80 51 153.5t96 128.5t132.5 88t156.5 33
q87 0 161 -44z" />
    <glyph glyph-name="D" unicode="D" horiz-adv-x="646" 
d="M54 0l119 754h210q107 0 183 -49.5t107.5 -135.5t14.5 -193q-26 -161 -145.5 -268.5t-279.5 -107.5h-209zM300 626l-79 -498h24q251 0 291 249q19 123 -34 186t-178 63h-24z" />
    <glyph glyph-name="E" unicode="E" horiz-adv-x="488" 
d="M543 626h-243l-26 -166h234l-20 -128h-234l-33 -204h243l-20 -128h-390l119 754h390z" />
    <glyph glyph-name="F" unicode="F" horiz-adv-x="463" 
d="M527 626h-227l-26 -166h213l-20 -128h-213l-53 -332h-147l119 754h374z" />
    <glyph glyph-name="G" unicode="G" horiz-adv-x="739" 
d="M459 401h325l-3 -19q-13 -82 -45.5 -153t-82.5 -127.5t-122 -89t-157 -32.5q-80 0 -143.5 32.5t-100.5 86.5t-51 125.5t-2 149.5q13 80 50.5 153t93 127.5t130.5 87t158 32.5q96 0 167.5 -47t101.5 -133l-141 -70q-15 53 -55.5 86.5t-97.5 33.5q-51 0 -96.5 -24.5
t-77 -64t-52.5 -86.5t-29 -95q-4 -38 -3 -75.5t14 -71.5t33 -60t53 -41.5t74 -15.5q69 0 127.5 51t72.5 120h-160z" />
    <glyph glyph-name="H" unicode="H" horiz-adv-x="674" 
d="M273 457h272l47 297h147l-119 -754h-147l53 337h-272l-53 -337h-147l119 754h147z" />
    <glyph glyph-name="I" unicode="I" horiz-adv-x="254" 
d="M320 754l-119 -754h-147l119 754h147z" />
    <glyph glyph-name="J" unicode="J" horiz-adv-x="389" 
d="M458 754l-78 -498q-11 -65 -25.5 -107.5t-49.5 -83.5q-71 -85 -182 -85q-40 0 -76 20t-61 51l111 108q3 -18 17.5 -33.5t31.5 -15.5q13 0 24.5 6t19.5 13.5t15 22t10.5 25t8 29.5t6 27.5t4 26.5t3.5 21l74 473h147z" />
    <glyph glyph-name="K" unicode="K" horiz-adv-x="620" 
d="M272 436l283 318h181l-341 -348l238 -406h-189l-187 339h-2l-54 -339h-147l119 754h147l-50 -318h2z" />
    <glyph glyph-name="L" unicode="L" horiz-adv-x="402" 
d="M320 754l-99 -626h208l-20 -128h-355l119 754h147z" />
    <glyph glyph-name="M" unicode="M" horiz-adv-x="836" 
d="M677 0l14 468h-2l-247 -478h-51l-89 478h-2l-141 -468h-148l250 774h104l107 -497l257 497h106l-10 -774h-148z" />
    <glyph glyph-name="N" unicode="N" horiz-adv-x="759" 
d="M54 0l123 774h106l313 -527h2l80 507h147l-121 -769h-106l-314 527h-2l-81 -512h-147z" />
    <glyph glyph-name="O" unicode="O" horiz-adv-x="782" 
d="M824 378q-13 -83 -51 -156t-94 -126.5t-131.5 -84.5t-159.5 -31q-112 0 -189.5 53.5t-108 143.5t-12.5 201q18 112 78 201.5t153.5 142t204 52.5t187.5 -52.5t109 -142t14 -201.5zM673 384q10 62 -7 117.5t-63 91.5t-112.5 36t-124 -36t-91.5 -91.5t-44 -117.5
q-4 -35 -4 -71t12.5 -70t32.5 -60t56 -42t83 -16q58 0 106.5 23.5t79.5 62.5t50 83t26 90z" />
    <glyph glyph-name="P" unicode="P" horiz-adv-x="528" 
d="M246 282l-45 -282h-147l119 754h200q261 0 224 -234q-18 -119 -89.5 -178.5t-188.5 -59.5h-73zM301 632l-36 -228h30q71 0 106.5 24t46.5 93q5 35 -1 58t-24 34t-40 15t-56 4h-26z" />
    <glyph glyph-name="Q" unicode="Q" horiz-adv-x="782" 
d="M775 -17l-150 -15l-42 63q-85 -51 -195 -51q-107 0 -184.5 54.5t-110 145t-15.5 198.5q12 79 51.5 151t96 126t132 86.5t156.5 32.5q107 0 184.5 -55t110 -145.5t15.5 -195.5q-25 -158 -132 -273zM546 302l55 -76q28 29 46.5 71.5t25.5 84.5q9 62 -9 119t-63.5 95
t-109.5 38q-68 0 -126 -39.5t-92 -99t-45 -126.5q-10 -64 6 -119.5t61.5 -91.5t114.5 -36q41 0 83 25l-101 143z" />
    <glyph glyph-name="R" unicode="R" horiz-adv-x="558" 
d="M401 318l163 -318h-178l-135 304h-2l-48 -304h-147l119 754h199q118 0 176.5 -55.5t39.5 -171.5q-12 -76 -62 -136.5t-125 -72.5zM301 634l-36 -227h19q67 0 107 25.5t50 90.5t-21.5 88t-98.5 23h-20z" />
    <glyph glyph-name="S" unicode="S" horiz-adv-x="526" 
d="M587 690l-85 -102q-36 62 -103 62q-36 0 -68 -24.5t-38 -60.5q-4 -25 9.5 -44.5t38 -32t54.5 -25.5t59 -30.5t51.5 -41t33 -63t2.5 -90.5q-19 -115 -97 -186.5t-192 -71.5q-144 0 -209 147l110 93q8 -46 40.5 -78t77.5 -32q44 0 76 32t39 77q3 21 -2 38.5t-13 28.5
t-25 22t-28 16t-33 13q-7 3 -11 5q-37 17 -62 33.5t-45.5 40.5t-27.5 57t0 75q15 95 88 160.5t168 65.5q52 0 108.5 -23.5t83.5 -60.5z" />
    <glyph glyph-name="T" unicode="T" horiz-adv-x="451" 
d="M398 626l-99 -626h-147l99 626h-152l20 128h451l-20 -128h-152z" />
    <glyph glyph-name="U" unicode="U" horiz-adv-x="660" 
d="M98 303l71 451h147l-66 -422q-5 -28 -7 -49.5t-2.5 -49.5t5.5 -48.5t17 -39t32.5 -28t51.5 -9.5q36 0 64 15t45 36t30 54.5t18.5 59t11.5 59.5l66 422h147l-71 -451q-11 -71 -36 -128.5t-64.5 -102t-98 -68.5t-132.5 -24t-125.5 24.5t-76 68t-32.5 102.5t5 128z" />
    <glyph glyph-name="V" unicode="V" horiz-adv-x="639" 
d="M263 754l101 -508h2l248 508h158l-415 -774h-86l-166 774h158z" />
    <glyph glyph-name="W" unicode="W" horiz-adv-x="977" 
d="M259 754l71 -514h2l233 524h87l73 -524h2l229 514h154l-376 -769h-108l-72 493h-2l-220 -493h-108l-119 769h154z" />
    <glyph glyph-name="X" unicode="X" horiz-adv-x="623" 
d="M296 399l-147 355h174l83 -234l147 234h174l-265 -355l169 -399h-171l-108 276l-188 -276h-172z" />
    <glyph glyph-name="Y" unicode="Y" horiz-adv-x="587" 
d="M273 346l-170 408h171l91 -262l185 262h172l-302 -408l-55 -346h-147z" />
    <glyph glyph-name="Z" unicode="Z" horiz-adv-x="575" 
d="M259 128h313l-20 -128h-547l431 626h-281l20 128h514z" />
    <glyph glyph-name="bracketleft" unicode="[" horiz-adv-x="288" 
d="M270 754l-119 -754h92l-14 -91h-198l148 936h198l-15 -91h-92z" />
    <glyph glyph-name="backslash" unicode="\" horiz-adv-x="539" 
d="M164 848h112l234 -848h-112z" />
    <glyph glyph-name="bracketright" unicode="]" horiz-adv-x="288" 
d="M137 0l119 754h-92l15 91h198l-148 -936h-198l14 91h92z" />
    <glyph glyph-name="asciicircum" unicode="^" 
d="M85 329l260 425h124l128 -425h-129l-82 283l-172 -283h-129z" />
    <glyph glyph-name="underscore" unicode="_" horiz-adv-x="500" 
d="M488 -75l-8 -50h-500l8 50h500z" />
    <glyph glyph-name="grave" unicode="`" horiz-adv-x="380" 
d="M192 712l112 62l93 -168l-78 -44z" />
    <glyph glyph-name="a" unicode="a" horiz-adv-x="565" 
d="M592 491l-78 -491h-138l7 45h-2q-27 -29 -65.5 -45t-77.5 -16q-69 0 -115.5 38.5t-62.5 98t-6 127.5q11 66 46 124.5t93.5 96.5t125.5 38q39 0 73 -16t54 -46l8 46h138zM290 108q51 0 91 42.5t48 95.5t-18 95t-77.5 42t-90.5 -42t-47 -95t17.5 -95.5t76.5 -42.5z" />
    <glyph glyph-name="b" unicode="b" horiz-adv-x="565" 
d="M50 0l134 848h140l-63 -402q28 28 67 44.5t78 16.5q67 0 113.5 -38t63.5 -96.5t6 -124.5q-11 -69 -46 -128t-94 -97.5t-129 -38.5q-38 0 -71.5 16.5t-49.5 45.5h-2l-7 -46h-140zM309 108q51 0 90.5 42.5t47.5 95.5t-17.5 95t-77 42t-90.5 -42t-47 -95t17.5 -95.5
t76.5 -42.5z" />
    <glyph glyph-name="c" unicode="c" horiz-adv-x="421" 
d="M459 476l-21 -135q-40 48 -95 48q-57 0 -97.5 -44t-50.5 -102q-9 -60 20 -100.5t87 -40.5q56 0 106 47l-22 -135q-59 -30 -126 -30q-106 0 -164.5 76t-41.5 184q17 111 101.5 187t194.5 76q64 0 109 -31z" />
    <glyph glyph-name="d" unicode="d" horiz-adv-x="565" 
d="M375 0l7 46h-2q-26 -29 -64 -45.5t-78 -16.5q-69 0 -115.5 38.5t-62.5 98t-6 127.5q11 66 46 124.5t93.5 96.5t125.5 38q39 0 72.5 -16t52.5 -45h2l63 402h140l-134 -848h-140zM290 108q51 0 90.5 42.5t47.5 95.5t-17.5 95t-77 42t-90.5 -42t-47 -95t17.5 -95.5
t76.5 -42.5z" />
    <glyph glyph-name="e" unicode="e" horiz-adv-x="501" 
d="M521 223h-323q-3 -32 -0.5 -61.5t22.5 -50t54 -20.5q62 0 105 67l126 -21q-37 -73 -103 -113t-145 -40q-112 0 -167 71.5t-37 185.5q19 117 92.5 191.5t187.5 74.5q78 0 126 -36.5t62.5 -95.5t2.5 -135zM216 310h187q1 41 -19 70t-58 29q-40 0 -69 -28.5t-41 -70.5z" />
    <glyph glyph-name="f" unicode="f" horiz-adv-x="303" 
d="M254 373l-59 -373h-140l59 373h-47l19 118h47l23 144q7 47 23.5 86t42.5 71t65.5 50t88.5 18q37 0 65 -16l-20 -125q-31 17 -54 17q-12 0 -21.5 -4t-16 -9t-12 -15.5t-8.5 -16.5t-6.5 -20.5t-4.5 -19.5t-3 -20t-3 -16l-19 -124h112l-19 -118h-112z" />
    <glyph glyph-name="g" unicode="g" horiz-adv-x="562" 
d="M590 491l-73 -461q-47 -292 -285 -292q-61 0 -111.5 23t-80.5 70.5t-23 110.5h148q-1 -39 21.5 -62.5t61.5 -23.5q29 0 50.5 10.5t33.5 24t21.5 38.5t13 42t8.5 46l5 32h-2q-27 -30 -66 -47.5t-79 -17.5q-69 0 -114.5 37.5t-60.5 95t-5 125.5q11 69 46.5 128.5t94.5 98
t129 38.5q37 0 69 -17t48 -46h2l8 47h140zM290 108q51 0 90 42t47.5 95t-17 95.5t-77 42.5t-90.5 -42.5t-47.5 -95.5t17.5 -95t77 -42z" />
    <glyph glyph-name="h" unicode="h" horiz-adv-x="540" 
d="M184 848h140l-63 -398h2q51 57 137 57q170 0 138 -207l-48 -300h-140l41 260q1 2 1 6q3 20 4.5 30.5t2.5 28.5t-2.5 28t-9.5 21t-19 16t-31 5q-24 0 -42.5 -11t-29 -25t-19 -38t-11.5 -39t-7 -39l-38 -243h-140z" />
    <glyph glyph-name="i" unicode="i" horiz-adv-x="253" 
d="M275 491l-78 -491h-140l78 491h140zM250.5 780q34.5 0 55 -24.5t14.5 -58.5q-5 -35 -33 -59t-62.5 -24t-55 24.5t-15.5 58.5q6 34 34 58.5t62.5 24.5z" />
    <glyph glyph-name="j" unicode="j" horiz-adv-x="253" 
d="M275 491l-120 -753h-140l120 753h140zM250.5 780q34.5 0 55 -24.5t14.5 -58.5q-5 -35 -33 -59t-62.5 -24t-55 24.5t-15.5 58.5q6 34 34 58.5t62.5 24.5z" />
    <glyph glyph-name="k" unicode="k" horiz-adv-x="526" 
d="M324 848l-85 -537h2l176 180h182l-241 -216l179 -275h-184l-128 209h-2l-33 -209h-140l134 848h140z" />
    <glyph glyph-name="l" unicode="l" horiz-adv-x="239" 
d="M324 848l-134 -848h-140l134 848h140z" />
    <glyph glyph-name="m" unicode="m" horiz-adv-x="802" 
d="M268 491l-7 -44h2q24 28 59 44t70 16q94 0 129 -77q28 36 70 56.5t85 20.5q156 0 124 -201l-48 -306h-140l41 258q0 2 1 6q3 17 4 27t2.5 28t-1.5 29t-7.5 23t-16 18t-26.5 6q-19 0 -33.5 -7t-24.5 -22t-17 -28t-12.5 -35t-7.5 -32.5t-5 -29.5l-38 -241h-140l39 249
q1 3 2 10q3 18 4.5 28.5t3 29t-1 30t-8 24t-16.5 18.5t-27 6q-22 0 -38.5 -11t-26 -24.5t-17 -37t-10 -37.5t-6.5 -37q0 -5 -1 -7l-38 -241h-140l78 491h140z" />
    <glyph glyph-name="n" unicode="n" horiz-adv-x="540" 
d="M268 491l-7 -45h2q50 61 137 61q170 0 138 -207l-48 -300h-140l41 260q1 2 1 6q3 20 4.5 30.5t2.5 28.5t-2.5 28t-9.5 21t-19 16t-31 5q-24 0 -42.5 -11t-29 -25t-19 -38t-11.5 -39t-7 -39l-38 -243h-140l78 491h140z" />
    <glyph glyph-name="o" unicode="o" horiz-adv-x="548" 
d="M354.5 507q114.5 0 174.5 -73.5t42 -188.5t-101.5 -188t-198 -73t-174.5 73t-42 188t101.5 188.5t198 73.5zM334.5 383q-51.5 0 -90.5 -42t-47 -96q-9 -53 17 -95t77 -42t90 42t48 95q8 54 -17.5 96t-77 42z" />
    <glyph glyph-name="p" unicode="p" horiz-adv-x="565" 
d="M268 491l-7 -45q28 28 67 44.5t78 16.5q67 0 113.5 -38t63.5 -96.5t6 -124.5q-11 -69 -46 -128t-94 -97.5t-129 -38.5q-38 0 -71.5 16.5t-49.5 45.5h-2l-49 -308h-140l120 753h140zM309 108q51 0 90.5 42.5t47.5 95.5t-17.5 95t-77 42t-90.5 -42t-47 -95t17.5 -95.5
t76.5 -42.5z" />
    <glyph glyph-name="q" unicode="q" horiz-adv-x="565" 
d="M290 108q51 0 90.5 42.5t47.5 95.5t-17.5 95t-77 42t-90.5 -42t-47 -95t17.5 -95.5t76.5 -42.5zM593 491l-120 -753h-140l49 308h-2q-26 -29 -64 -45.5t-78 -16.5q-69 0 -115.5 38.5t-62.5 98t-6 127.5q11 66 46 124.5t93.5 96.5t125.5 38q39 0 72.5 -16t52.5 -45h2l7 45
h140z" />
    <glyph glyph-name="r" unicode="r" horiz-adv-x="367" 
d="M268 491l-8 -51h2q54 67 132 67q27 0 56 -12l-37 -130q-23 18 -55 18q-28 0 -50 -10t-35.5 -25t-23.5 -38t-15 -43t-9 -46l-35 -221h-140l78 491h140z" />
    <glyph glyph-name="s" unicode="s" horiz-adv-x="410" 
d="M434 456l-73 -81q-30 34 -68 34q-18 0 -34 -12t-19 -30q-2 -10 2 -18.5t14.5 -15t20 -11t27 -11.5t26.5 -12q44 -20 66 -51.5t13 -89.5q-13 -79 -75.5 -126.5t-143.5 -47.5q-49 0 -91.5 21.5t-68.5 60.5l78 83q42 -57 95 -57q23 0 41.5 14.5t22.5 38.5q2 12 -1 21.5
t-14 17.5t-18.5 12t-26.5 12t-26 11q-43 20 -64.5 48t-13.5 81q11 69 62 114t119 45q42 0 84 -13t66 -38z" />
    <glyph glyph-name="t" unicode="t" horiz-adv-x="274" 
d="M266 373l-59 -373h-140l59 373h-48l19 118h48l26 166h140l-26 -166h86l-19 -118h-86z" />
    <glyph glyph-name="u" unicode="u" horiz-adv-x="535" 
d="M125 491h140l-42 -266q-4 -29 -4.5 -56.5t15.5 -47t49 -19.5q25 0 44 10.5t29.5 30.5t16.5 38.5t10 43.5l42 266h140l-46 -289q-17 -108 -81 -163t-173.5 -55t-156 55t-29.5 163z" />
    <glyph glyph-name="v" unicode="v" horiz-adv-x="488" 
d="M214 491l71 -277l145 277h153l-306 -501h-72l-145 501h154z" />
    <glyph glyph-name="w" unicode="w" horiz-adv-x="783" 
d="M213 491l57 -283l167 299h67l73 -303l150 287h152l-308 -501h-71l-57 299l-165 -299h-72l-146 501h153z" />
    <glyph glyph-name="x" unicode="x" horiz-adv-x="549" 
d="M234 267l-133 224h170l71 -127l98 127h172l-210 -224l165 -267h-172l-99 171l-140 -171h-174z" />
    <glyph glyph-name="y" unicode="y" horiz-adv-x="520" 
d="M203 75l-143 416h159l73 -279l170 279h156l-477 -753h-154z" />
    <glyph glyph-name="z" unicode="z" horiz-adv-x="481" 
d="M251 118h233l-19 -118h-466l310 373h-212l19 118h443z" />
    <glyph glyph-name="braceleft" unicode="{" horiz-adv-x="389" 
d="M116 300l11 73q80 33 99 151l29 182q9 55 44 93.5t62 38.5h92l-15 -91h-40q-11 0 -18.5 -4.5t-11.5 -15t-6 -18.5t-4 -24l-29 -177q-6 -40 -20.5 -73t-33 -53.5t-29 -30t-20.5 -15.5q5 -4 11.5 -10t16.5 -20.5t15 -33t9 -46.5t-3 -61l-28 -177q-6 -25 -3 -43.5t24 -18.5
h40l-14 -91h-92q-26 0 -49.5 38.5t-14.5 93.5l29 182q18 118 -51 151z" />
    <glyph glyph-name="bar" unicode="|" horiz-adv-x="538" 
d="M453 786l-159 -1000h-118l159 1000h118z" />
    <glyph glyph-name="braceright" unicode="}" horiz-adv-x="389" 
d="M380 373l-11 -73q-81 -33 -99 -151l-29 -182q-9 -55 -44.5 -93.5t-61.5 -38.5h-92l14 91h40q11 0 18.5 4.5t12 15t6.5 18.5t4 24l28 177q6 40 21 73.5t33 53t29 29.5t20 15q-4 3 -8.5 7.5t-13 15.5t-14 23.5t-11.5 32t-5.5 41.5t3.5 52l29 177q6 25 2.5 43.5t-24.5 18.5
h-40l15 91h92q26 0 49.5 -38.5t14.5 -93.5l-29 -182q-19 -118 51 -151z" />
    <glyph glyph-name="asciitilde" unicode="~" 
d="M503 363l85 -90q-18 -25 -26.5 -36.5t-30 -36t-37.5 -36.5t-38 -23t-42 -11q-11 0 -21.5 2t-17.5 4.5t-17.5 8.5t-15 9t-15 10.5t-13.5 9.5q-9 6 -30.5 23t-34.5 23.5t-25 6.5q-24 0 -68 -77l-85 88q9 10 35 41.5t43.5 50t45 36t52.5 17.5q47 0 104 -51q19 -19 43 -33
t43 -14q26 0 66 78z" />
    <glyph glyph-name="nbspace" unicode="&#xa0;" horiz-adv-x="289" 
 />
    <glyph glyph-name="exclamdown" unicode="&#xa1;" horiz-adv-x="325" 
d="M243.5 514q36.5 0 58.5 -25.5t16.5 -62.5t-36 -63.5t-67 -26.5t-58.5 26.5t-16.5 63.5t36 62.5t67 25.5zM49 -264l85 537h142l-85 -537h-142z" />
    <glyph glyph-name="cent" unicode="&#xa2;" 
d="M504 724l-14 -87q55 -10 79 -25l-22 -141q-20 26 -40.5 38t-52.5 12q-57 0 -97.5 -43.5t-49.5 -101.5q-10 -57 18 -98t85 -41q29 0 57.5 13.5t47.5 36.5h2l-22 -141q-41 -20 -87 -25l-15 -93h-73l15 91q-63 5 -106 44t-58.5 95.5t-5.5 120.5q16 102 84 175t168 86l14 84
h73z" />
    <glyph glyph-name="sterling" unicode="&#xa3;" 
d="M119 0l-106 19q29 61 71.5 102.5t97.5 43.5q16 30 20 59q7 43 -8 84h-131l10 66h93q-28 82 -17 153q18 108 101 177.5t192 69.5q226 0 197 -258l-150 -17l7 34q10 43 -13 80.5t-65 37.5q-49 0 -82.5 -38.5t-41.5 -89.5q-9 -55 20 -139l3 -10h136l-10 -66h-112
q0 -34 -9 -78q-2 -13 -7.5 -38t-8.5 -38l63 -27q36 -16 61 -16q38 0 64 59l100 -22q-28 -71 -70.5 -113.5t-107.5 -42.5q-42 0 -115 29q-70 29 -107 29q-51 0 -75 -50z" />
    <glyph glyph-name="currency" unicode="&#xa4;" 
d="M542 330h-289q1 23 4 44q3 18 6 27h308l26 66h-311q35 75 94 118q62 49 140 49q80 0 126 -49l56 145q-74 44 -161 44q-136 0 -251 -89q-111 -86 -160 -218h-72l-26 -66h79q-3 -10 -6 -30q-3 -15 -5 -41h-64l-26 -66h92q13 -122 96 -202q85 -82 214 -82q69 0 143 32
l26 165q-34 -30 -65 -43q-35 -14 -78 -14q-69 0 -116 42q-45 38 -61 102h255z" />
    <glyph glyph-name="yen" unicode="&#xa5;" 
d="M366 492l180 262h171l-222 -305h134l-10 -66h-175l-27 -37l-6 -36h196l-10 -66h-196l-39 -244h-147l39 244h-196l10 66h196l6 36l-18 37h-172l10 66h134l-126 305h171z" />
    <glyph glyph-name="brokenbar" unicode="&#xa6;" horiz-adv-x="538" 
d="M354 161l-40 -250h-118l40 250h118zM433 661l-40 -250h-118l40 250h118z" />
    <glyph glyph-name="section" unicode="&#xa7;" horiz-adv-x="577" 
d="M290 342l126 -85q42 31 49 78q1 7 1 13t-0.5 11t-3 10.5t-3.5 8.5t-6 8t-6.5 7t-8 7t-8 6t-9.5 6t-9 6l-127 87q-20 -13 -34.5 -34t-17.5 -42q-1 -7 -1 -14t0.5 -12t3 -10.5t4.5 -9t6.5 -8.5t7 -7.5t8.5 -6.5t8.5 -6t9.5 -6.5t10 -6.5zM590 684h-125q1 31 -15.5 52
t-48.5 21q-28 0 -48.5 -22.5t-25.5 -51.5q-3 -18 1 -32.5t17.5 -27t21 -18t27.5 -17.5l98 -60q29 -18 46.5 -31.5t34 -33.5t21.5 -46t0 -59q-7 -44 -33 -87t-63 -73q16 -23 21 -58t0 -65q-14 -90 -85 -148.5t-170 -58.5q-104 0 -161.5 63t-35.5 168h138q-8 -46 13 -82
t66 -36q36 0 62.5 26.5t32.5 62.5q3 18 -1 32.5t-17.5 27.5t-21.5 18.5t-29 17.5l-121 72q-51 30 -73 66.5t-13 94.5q15 91 100 163q-25 49 -15 112q13 83 79 134.5t150 51.5q83 0 133 -47.5t40 -128.5z" />
    <glyph glyph-name="dieresis" unicode="&#xa8;" horiz-adv-x="400" 
d="M216 762q33 0 52.5 -23.5t14.5 -56.5t-32.5 -56.5t-60.5 -23.5t-52.5 23.5t-14.5 56.5t32.5 56.5t60.5 23.5zM427 762q33 0 52.5 -23.5t14.5 -56.5t-32.5 -56.5t-60.5 -23.5t-52.5 23.5t-14.5 56.5t32.5 56.5t60.5 23.5z" />
    <glyph glyph-name="copyright" unicode="&#xa9;" horiz-adv-x="800" 
d="M397 -20q-108 0 -190.5 53t-120.5 144t-20.5 200t84 200t165.5 144t207.5 53t190.5 -53t120 -144t20.5 -200t-84 -200t-165.5 -144t-207 -53zM509 688q-129 0 -232.5 -89.5t-124.5 -221.5t54.5 -221.5t204 -89.5t232.5 89.5t125 221.5t-54.5 221.5t-204.5 89.5zM675 459
h-88q-3 37 -33 57t-69 20q-59 0 -105.5 -47.5t-56.5 -108.5t21.5 -108.5t90.5 -47.5q40 0 76 20t51 57h88q-26 -73 -87 -118t-141 -45q-95 0 -148 71t-37 171t91 171t171 71q80 0 126.5 -45t49.5 -118z" />
    <glyph glyph-name="ordfeminine" unicode="&#xaa;" horiz-adv-x="339" 
d="M453 764l-47 -294h-89l5 27h-2q-35 -37 -92 -37q-67 0 -99.5 47.5t-22.5 110.5q10 62 57.5 109t113.5 47q55 0 83 -37l4 27h89zM260.5 534q33.5 0 59 26t30.5 57q5 32 -12.5 57.5t-51 25.5t-58.5 -25.5t-30 -57.5q-5 -31 12 -57t50.5 -26z" />
    <glyph glyph-name="guillemotleft" unicode="&#xab;" horiz-adv-x="514" 
d="M390 320l96 -182l-96 -58l-121 240l197 243l77 -56zM190 320l96 -182l-96 -58l-121 240l197 243l77 -56z" />
    <glyph glyph-name="logicalnot" unicode="&#xac;" 
d="M449 142l28 173h-394l19 118h512l-47 -291h-118z" />
    <glyph glyph-name="registered" unicode="&#xae;" horiz-adv-x="800" 
d="M397 -20q-108 0 -190.5 53t-120.5 144t-20.5 200t84 200t165.5 144t207.5 53t190.5 -53t120 -144t20.5 -200t-84 -200t-165.5 -144t-207 -53zM509 688q-129 0 -232.5 -89.5t-124.5 -221.5t54.5 -221.5t204 -89.5t232.5 89.5t125 221.5t-54.5 221.5t-204.5 89.5zM536 337
l74 -164h-94l-70 164h-72l-26 -164h-86l66 412h200q39 0 64.5 -4.5t46.5 -17.5t28 -38.5t1 -65.5q-18 -114 -132 -122zM386 411h116q38 0 58 11.5t25 43.5q2 11 -1 19t-10.5 12.5t-14.5 7.5t-20 4.5t-20.5 1.5h-21.5h-95z" />
    <glyph glyph-name="macron" unicode="&#xaf;" horiz-adv-x="400" 
d="M128 754h382l-14 -88h-382z" />
    <glyph glyph-name="degree" unicode="&#xb0;" horiz-adv-x="400" 
d="M449 624q-10 -62 -61 -106t-113 -44t-99 44t-27 106q9 61 60 105.5t114 44.5q61 0 98.5 -44t27.5 -106zM311 706q-34 0 -62 -24t-32 -58q-5 -35 15 -58.5t55 -23.5q34 0 61 24t33 58q5 34 -15.5 58t-54.5 24z" />
    <glyph glyph-name="plusminus" unicode="&#xb1;" 
d="M33 0l19 118h512l-19 -118h-512zM330 630h118l-27 -172h197l-19 -118h-197l-27 -172h-118l27 172h-197l19 118h197z" />
    <glyph glyph-name="twosuperior" unicode="&#xb2;" horiz-adv-x="346" 
d="M238 379h160l-12 -77h-330l148 145q1 1 19 18.5t24 24t22.5 24t24.5 28t19 25t16.5 26.5t7.5 23q5 33 -8.5 53.5t-43.5 20.5t-49.5 -24.5t-22.5 -53.5h-101q15 68 63.5 111t121.5 43q67 0 106.5 -42t29.5 -103q-7 -46 -35 -83.5t-76 -81.5z" />
    <glyph glyph-name="threesuperior" unicode="&#xb3;" horiz-adv-x="346" 
d="M222 644h-91q16 60 61 95t110 35q63 0 96.5 -34.5t23.5 -92.5q-4 -28 -20 -54t-42 -41q30 -13 40.5 -44t5.5 -66q-10 -66 -62 -105t-124 -39q-67 0 -106 41t-33 102h96q-3 -28 13 -47t46.5 -19t51.5 22t26 50q4 29 -11.5 51.5t-46.5 20.5l-18 -1l10 63h11q30 0 48.5 17
t23.5 46q4 24 -8.5 40.5t-38.5 16.5q-24 0 -41 -17t-21 -40z" />
    <glyph glyph-name="acute" unicode="&#xb4;" horiz-adv-x="380" 
d="M322 774l92 -62l-175 -150l-64 44z" />
    <glyph glyph-name="paragraph" unicode="&#xb6;" horiz-adv-x="577" 
d="M677 754l-14 -94h-61l-129 -813h-104l129 813h-62l-129 -813h-104l69 436q-86 0 -133.5 57t-38.5 157q5 61 40.5 120t93.5 98t121 39h322z" />
    <glyph glyph-name="periodcentered" unicode="&#xb7;" horiz-adv-x="289" 
d="M199.5 345q36.5 0 59 -25.5t16.5 -62.5t-36.5 -63.5t-67 -26.5t-58.5 26.5t-16 63.5t36 62.5t66.5 25.5z" />
    <glyph glyph-name="cedilla" unicode="&#xb8;" horiz-adv-x="380" 
d="M190 -20l84 -47l-138 -139l-68 38z" />
    <glyph glyph-name="onesuperior" unicode="&#xb9;" horiz-adv-x="346" 
d="M264 678h-64l12 76h160l-71 -452h-96z" />
    <glyph glyph-name="ordmasculine" unicode="&#xba;" horiz-adv-x="339" 
d="M293 774q74 0 114 -44t29 -113t-64.5 -113t-128.5 -44t-114.5 44t-28.5 113t65 113t128 44zM280.5 700q-33.5 0 -58 -25t-29.5 -57t11.5 -58t50 -26t58.5 26t30 58t-12 57t-50.5 25z" />
    <glyph glyph-name="guillemotright" unicode="&#xbb;" horiz-adv-x="514" 
d="M72 138l154 182l-95 187l95 56l121 -243l-197 -240zM272 138l154 182l-95 187l95 56l121 -243l-197 -240z" />
    <glyph glyph-name="onequarter" unicode="&#xbc;" horiz-adv-x="867" 
d="M707 780l62 -34l-527 -777l-63 35zM211 678h-64l12 76h160l-71 -452h-96zM799 151h52l-11 -71h-52l-13 -80h-90l13 80h-215l6 39l272 342h87zM709 151l28 180h-2l-131 -180h105z" />
    <glyph glyph-name="onehalf" unicode="&#xbd;" horiz-adv-x="867" 
d="M661 780l62 -34l-527 -777l-63 35zM211 678h-64l12 76h160l-71 -452h-96zM679 77h160l-12 -77h-330l148 145q1 1 19 18.5t24 24t23 24t24.5 28t18.5 25t16.5 26.5t7.5 23q5 33 -8.5 53.5t-43 20.5t-49.5 -24.5t-23 -53.5h-101q16 68 64.5 111t120.5 43q67 0 106.5 -42
t30.5 -103q-8 -46 -36 -83.5t-76 -81.5z" />
    <glyph glyph-name="threequarters" unicode="&#xbe;" horiz-adv-x="867" 
d="M759 780l62 -34l-527 -777l-63 35zM799 151h52l-11 -71h-52l-13 -80h-90l13 80h-215l6 39l272 342h87zM709 151l28 180h-2l-131 -180h105zM251 644h-91q16 60 61 95t110 35q63 0 96.5 -34.5t23.5 -92.5q-4 -28 -20 -54t-42 -41q30 -13 40.5 -44t5.5 -66q-10 -66 -62 -105
t-124 -39q-67 0 -106 41t-33 102h96q-3 -28 13 -47t46.5 -19t51.5 22t26 50q4 29 -11.5 51.5t-46.5 20.5l-18 -1l10 63h11q30 0 48.5 17t23.5 46q4 24 -8.5 40.5t-38.5 16.5q-24 0 -41 -17t-21 -40z" />
    <glyph glyph-name="questiondown" unicode="&#xbf;" horiz-adv-x="487" 
d="M379 253l-31 -199q-16 4 -36 4q-53 0 -95 -30t-51 -82q-5 -34 9 -61t47 -27q31 0 52.5 24.5t26.5 57.5l2 12h146q-9 -90 -81.5 -153t-164.5 -63t-143.5 61.5t-37.5 153.5q12 74 66 132t128 74l23 96h140zM348.5 514q36.5 0 58.5 -25.5t16.5 -62.5t-36 -63.5t-67 -26.5
t-58.5 26.5t-16.5 63.5t36 62.5t67 25.5z" />
    <glyph glyph-name="Agrave" unicode="&#xc0;" horiz-adv-x="676" 
d="M495 159h-262l-87 -159h-155l417 774h114l163 -774h-157zM473 279l-50 274h-2l-127 -274h179zM351 940l112 62l93 -168l-78 -44z" />
    <glyph glyph-name="Aacute" unicode="&#xc1;" horiz-adv-x="676" 
d="M495 159h-262l-87 -159h-155l417 774h114l163 -774h-157zM473 279l-50 274h-2l-127 -274h179zM536 1002l92 -62l-175 -150l-64 44z" />
    <glyph glyph-name="Acircumflex" unicode="&#xc2;" horiz-adv-x="676" 
d="M495 159h-262l-87 -159h-155l417 774h114l163 -774h-157zM473 279l-50 274h-2l-127 -274h179zM302 848l195 154l145 -154l-70 -66l-94 104l-126 -104z" />
    <glyph glyph-name="Atilde" unicode="&#xc3;" horiz-adv-x="676" 
d="M495 159h-262l-87 -159h-155l417 774h114l163 -774h-157zM473 279l-50 274h-2l-127 -274h179zM362 832h-82q12 51 48 95t83 44q24 0 73 -21q7 -3 18 -7.5t17 -7.5t13.5 -5t13.5 -2q13 0 24 7t15 13t15 22h83q-19 -57 -55.5 -99t-88.5 -42q-21 0 -65.5 22t-62.5 22
q-31 0 -49 -41z" />
    <glyph glyph-name="Adieresis" unicode="&#xc4;" horiz-adv-x="676" 
d="M495 159h-262l-87 -159h-155l417 774h114l163 -774h-157zM473 279l-50 274h-2l-127 -274h179zM390 990q33 0 52.5 -23.5t14.5 -56.5t-32.5 -56.5t-60.5 -23.5t-52.5 23.5t-14.5 56.5t32.5 56.5t60.5 23.5zM601 990q33 0 52.5 -23.5t14.5 -56.5t-32.5 -56.5t-60.5 -23.5
t-52.5 23.5t-14.5 56.5t32.5 56.5t60.5 23.5z" />
    <glyph glyph-name="Aring" unicode="&#xc5;" horiz-adv-x="676" 
d="M495 159h-262l-87 -159h-155l417 774h114l163 -774h-157zM473 279l-50 274h-2l-127 -274h179zM496.5 1002q41.5 0 66 -29.5t18.5 -70.5q-7 -42 -41 -71.5t-75 -29.5t-66 29.5t-18 71.5q6 41 40 70.5t75.5 29.5zM487 943q-17 0 -30.5 -12t-16.5 -29t7 -29.5t27 -12.5
t31 12.5t17 29.5t-7.5 29t-27.5 12z" />
    <glyph glyph-name="AE" unicode="&#xc6;" horiz-adv-x="921" 
d="M492 159h-261l-84 -159h-156l412 754h372l26 -128h-250l35 -167h246l25 -128h-246l43 -203h250l25 -128h-403zM471 279l-52 256h-2l-124 -256h178z" />
    <glyph glyph-name="Ccedilla" unicode="&#xc7;" horiz-adv-x="601" 
d="M674 730l-28 -176q-25 38 -65.5 59t-88.5 21q-67 0 -125 -38.5t-92.5 -96.5t-45.5 -125q-10 -65 7 -122t62.5 -94.5t111.5 -37.5q46 0 94 22t86 58l-28 -175q-102 -45 -178 -45q-103 0 -180 54.5t-110.5 144t-16.5 192.5q12 80 51 153.5t96 128.5t132.5 88t156.5 33
q87 0 161 -44zM301 -20l84 -47l-138 -139l-68 38z" />
    <glyph glyph-name="Egrave" unicode="&#xc8;" horiz-adv-x="488" 
d="M543 626h-243l-26 -166h234l-20 -128h-234l-33 -204h243l-20 -128h-390l119 754h390zM257 940l112 62l93 -168l-78 -44z" />
    <glyph glyph-name="Eacute" unicode="&#xc9;" horiz-adv-x="488" 
d="M543 626h-243l-26 -166h234l-20 -128h-234l-33 -204h243l-20 -128h-390l119 754h390zM442 1002l92 -62l-175 -150l-64 44z" />
    <glyph glyph-name="Ecircumflex" unicode="&#xca;" horiz-adv-x="488" 
d="M543 626h-243l-26 -166h234l-20 -128h-234l-33 -204h243l-20 -128h-390l119 754h390zM208 848l195 154l145 -154l-70 -66l-94 104l-126 -104z" />
    <glyph glyph-name="Edieresis" unicode="&#xcb;" horiz-adv-x="488" 
d="M543 626h-243l-26 -166h234l-20 -128h-234l-33 -204h243l-20 -128h-390l119 754h390zM296 990q33 0 52.5 -23.5t14.5 -56.5t-32.5 -56.5t-60.5 -23.5t-52.5 23.5t-14.5 56.5t32.5 56.5t60.5 23.5zM507 990q33 0 52.5 -23.5t14.5 -56.5t-32.5 -56.5t-60.5 -23.5
t-52.5 23.5t-14.5 56.5t32.5 56.5t60.5 23.5z" />
    <glyph glyph-name="Igrave" unicode="&#xcc;" horiz-adv-x="254" 
d="M320 754l-119 -754h-147l119 754h147zM150 940l112 62l93 -168l-78 -44z" />
    <glyph glyph-name="Iacute" unicode="&#xcd;" horiz-adv-x="254" 
d="M320 754l-119 -754h-147l119 754h147zM310 1002l92 -62l-175 -150l-64 44z" />
    <glyph glyph-name="Icircumflex" unicode="&#xce;" horiz-adv-x="254" 
d="M320 754l-119 -754h-147l119 754h147zM91 848l195 154l145 -154l-70 -66l-94 104l-126 -104z" />
    <glyph glyph-name="Idieresis" unicode="&#xcf;" horiz-adv-x="254" 
d="M320 754l-119 -754h-147l119 754h147zM179 990q33 0 52.5 -23.5t14.5 -56.5t-32.5 -56.5t-60.5 -23.5t-52.5 23.5t-14.5 56.5t32.5 56.5t60.5 23.5zM390 990q33 0 52.5 -23.5t14.5 -56.5t-32.5 -56.5t-60.5 -23.5t-52.5 23.5t-14.5 56.5t32.5 56.5t60.5 23.5z" />
    <glyph glyph-name="Eth" unicode="&#xd0;" horiz-adv-x="646" 
d="M54 0l53 337h-72l19 120h72l47 297h210q107 0 183 -49.5t107.5 -135.5t14.5 -193q-26 -161 -145.5 -268.5t-279.5 -107.5h-209zM300 626l-27 -169h113l-19 -120h-113l-33 -209h24q251 0 291 249q19 123 -34 186t-178 63h-24z" />
    <glyph glyph-name="Ntilde" unicode="&#xd1;" horiz-adv-x="759" 
d="M54 0l123 774h106l313 -527h2l80 507h147l-121 -769h-106l-314 527h-2l-81 -512h-147zM404 832h-82q12 51 48 95t83 44q24 0 73 -21q7 -3 18 -7.5t17 -7.5t13.5 -5t13.5 -2q13 0 24 7t15 13t15 22h83q-19 -57 -55.5 -99t-88.5 -42q-21 0 -65.5 22t-62.5 22q-31 0 -49 -41
z" />
    <glyph glyph-name="Ograve" unicode="&#xd2;" horiz-adv-x="782" 
d="M824 378q-13 -83 -51 -156t-94 -126.5t-131.5 -84.5t-159.5 -31q-112 0 -189.5 53.5t-108 143.5t-12.5 201q18 112 78 201.5t153.5 142t204 52.5t187.5 -52.5t109 -142t14 -201.5zM673 384q10 62 -7 117.5t-63 91.5t-112.5 36t-124 -36t-91.5 -91.5t-44 -117.5
q-4 -35 -4 -71t12.5 -70t32.5 -60t56 -42t83 -16q58 0 106.5 23.5t79.5 62.5t50 83t26 90zM404 940l112 62l93 -168l-78 -44z" />
    <glyph glyph-name="Oacute" unicode="&#xd3;" horiz-adv-x="782" 
d="M824 378q-13 -83 -51 -156t-94 -126.5t-131.5 -84.5t-159.5 -31q-112 0 -189.5 53.5t-108 143.5t-12.5 201q18 112 78 201.5t153.5 142t204 52.5t187.5 -52.5t109 -142t14 -201.5zM673 384q10 62 -7 117.5t-63 91.5t-112.5 36t-124 -36t-91.5 -91.5t-44 -117.5
q-4 -35 -4 -71t12.5 -70t32.5 -60t56 -42t83 -16q58 0 106.5 23.5t79.5 62.5t50 83t26 90zM589 1002l92 -62l-175 -150l-64 44z" />
    <glyph glyph-name="Ocircumflex" unicode="&#xd4;" horiz-adv-x="782" 
d="M824 378q-13 -83 -51 -156t-94 -126.5t-131.5 -84.5t-159.5 -31q-112 0 -189.5 53.5t-108 143.5t-12.5 201q18 112 78 201.5t153.5 142t204 52.5t187.5 -52.5t109 -142t14 -201.5zM673 384q10 62 -7 117.5t-63 91.5t-112.5 36t-124 -36t-91.5 -91.5t-44 -117.5
q-4 -35 -4 -71t12.5 -70t32.5 -60t56 -42t83 -16q58 0 106.5 23.5t79.5 62.5t50 83t26 90zM355 848l195 154l145 -154l-70 -66l-94 104l-126 -104z" />
    <glyph glyph-name="Otilde" unicode="&#xd5;" horiz-adv-x="782" 
d="M824 378q-13 -83 -51 -156t-94 -126.5t-131.5 -84.5t-159.5 -31q-112 0 -189.5 53.5t-108 143.5t-12.5 201q18 112 78 201.5t153.5 142t204 52.5t187.5 -52.5t109 -142t14 -201.5zM673 384q10 62 -7 117.5t-63 91.5t-112.5 36t-124 -36t-91.5 -91.5t-44 -117.5
q-4 -35 -4 -71t12.5 -70t32.5 -60t56 -42t83 -16q58 0 106.5 23.5t79.5 62.5t50 83t26 90zM415 832h-82q12 51 48 95t83 44q24 0 73 -21q7 -3 18 -7.5t17 -7.5t13.5 -5t13.5 -2q13 0 24 7t15 13t15 22h83q-19 -57 -55.5 -99t-88.5 -42q-21 0 -65.5 22t-62.5 22
q-31 0 -49 -41z" />
    <glyph glyph-name="Odieresis" unicode="&#xd6;" horiz-adv-x="782" 
d="M824 378q-13 -83 -51 -156t-94 -126.5t-131.5 -84.5t-159.5 -31q-112 0 -189.5 53.5t-108 143.5t-12.5 201q18 112 78 201.5t153.5 142t204 52.5t187.5 -52.5t109 -142t14 -201.5zM673 384q10 62 -7 117.5t-63 91.5t-112.5 36t-124 -36t-91.5 -91.5t-44 -117.5
q-4 -35 -4 -71t12.5 -70t32.5 -60t56 -42t83 -16q58 0 106.5 23.5t79.5 62.5t50 83t26 90zM443 990q33 0 52.5 -23.5t14.5 -56.5t-32.5 -56.5t-60.5 -23.5t-52.5 23.5t-14.5 56.5t32.5 56.5t60.5 23.5zM654 990q33 0 52.5 -23.5t14.5 -56.5t-32.5 -56.5t-60.5 -23.5
t-52.5 23.5t-14.5 56.5t32.5 56.5t60.5 23.5z" />
    <glyph glyph-name="multiply" unicode="&#xd7;" 
d="M101 428l97 84l146 -173l198 173l71 -84l-199 -172l144 -172l-97 -84l-145 173l-199 -173l-71 84l201 172z" />
    <glyph glyph-name="Oslash" unicode="&#xd8;" horiz-adv-x="782" 
d="M664 504l-375 -338q46 -41 122 -41q58 0 106.5 23.5t79.5 62.5t50 83t26 90q10 65 -9 120zM238 247l374 339q-48 43 -121 43q-67 0 -124.5 -36t-91.5 -91.5t-44 -117.5q-12 -75 7 -137zM1 33l110 99q-56 103 -33 246q18 112 78 201.5t153.5 142t204.5 52.5q135 0 219 -78
l101 90l66 -68l-109 -98q55 -102 33 -242q-13 -83 -51 -156t-94 -126.5t-131.5 -84.5t-159.5 -31q-135 0 -219 77l-105 -95z" />
    <glyph glyph-name="Ugrave" unicode="&#xd9;" horiz-adv-x="660" 
d="M98 303l71 451h147l-66 -422q-5 -28 -7 -49.5t-2.5 -49.5t5.5 -48.5t17 -39t32.5 -28t51.5 -9.5q36 0 64 15t45 36t30 54.5t18.5 59t11.5 59.5l66 422h147l-71 -451q-11 -71 -36 -128.5t-64.5 -102t-98 -68.5t-132.5 -24t-125.5 24.5t-76 68t-32.5 102.5t5 128zM318 940
l112 62l93 -168l-78 -44z" />
    <glyph glyph-name="Uacute" unicode="&#xda;" horiz-adv-x="660" 
d="M98 303l71 451h147l-66 -422q-5 -28 -7 -49.5t-2.5 -49.5t5.5 -48.5t17 -39t32.5 -28t51.5 -9.5q36 0 64 15t45 36t30 54.5t18.5 59t11.5 59.5l66 422h147l-71 -451q-11 -71 -36 -128.5t-64.5 -102t-98 -68.5t-132.5 -24t-125.5 24.5t-76 68t-32.5 102.5t5 128zM548 1002
l92 -62l-175 -150l-64 44z" />
    <glyph glyph-name="Ucircumflex" unicode="&#xdb;" horiz-adv-x="660" 
d="M98 303l71 451h147l-66 -422q-5 -28 -7 -49.5t-2.5 -49.5t5.5 -48.5t17 -39t32.5 -28t51.5 -9.5q36 0 64 15t45 36t30 54.5t18.5 59t11.5 59.5l66 422h147l-71 -451q-11 -71 -36 -128.5t-64.5 -102t-98 -68.5t-132.5 -24t-125.5 24.5t-76 68t-32.5 102.5t5 128zM294 848
l195 154l145 -154l-70 -66l-94 104l-126 -104z" />
    <glyph glyph-name="Udieresis" unicode="&#xdc;" horiz-adv-x="660" 
d="M98 303l71 451h147l-66 -422q-5 -28 -7 -49.5t-2.5 -49.5t5.5 -48.5t17 -39t32.5 -28t51.5 -9.5q36 0 64 15t45 36t30 54.5t18.5 59t11.5 59.5l66 422h147l-71 -451q-11 -71 -36 -128.5t-64.5 -102t-98 -68.5t-132.5 -24t-125.5 24.5t-76 68t-32.5 102.5t5 128zM390 990
q33 0 52.5 -23.5t14.5 -56.5t-32.5 -56.5t-60.5 -23.5t-52.5 23.5t-14.5 56.5t32.5 56.5t60.5 23.5zM601 990q33 0 52.5 -23.5t14.5 -56.5t-32.5 -56.5t-60.5 -23.5t-52.5 23.5t-14.5 56.5t32.5 56.5t60.5 23.5z" />
    <glyph glyph-name="Yacute" unicode="&#xdd;" horiz-adv-x="587" 
d="M273 346l-170 408h171l91 -262l185 262h172l-302 -408l-55 -346h-147zM527 1002l92 -62l-175 -150l-64 44z" />
    <glyph glyph-name="Thorn" unicode="&#xde;" horiz-adv-x="528" 
d="M227 162l-26 -162h-147l119 754h147l-19 -120h53q261 0 224 -234q-18 -119 -89.5 -178.5t-188.5 -59.5h-73zM282 512l-36 -228h30q71 0 106.5 24t46.5 93q5 35 -1 58t-24 34t-40 15t-56 4h-26z" />
    <glyph glyph-name="germandbls" unicode="&#xdf;" horiz-adv-x="561" 
d="M50 0l96 604q19 119 83 187.5t179 68.5q98 0 149.5 -60t36.5 -158q-16 -102 -102 -162q61 -28 83.5 -89.5t10.5 -136.5q-19 -122 -106.5 -196t-210.5 -74h-20l20 122q64 -2 112.5 43t58.5 111q11 66 -23 108t-100 43l19 118q49 -1 82 30t41 81q7 41 -12 69.5t-59 28.5
q-17 0 -31 -6t-24 -14.5t-18.5 -24.5t-13.5 -27.5t-9.5 -32t-6.5 -30.5t-5 -31.5t-4 -25.5l-86 -546h-140z" />
    <glyph glyph-name="agrave" unicode="&#xe0;" horiz-adv-x="565" 
d="M592 491l-78 -491h-138l7 45h-2q-27 -29 -65.5 -45t-77.5 -16q-69 0 -115.5 38.5t-62.5 98t-6 127.5q11 66 46 124.5t93.5 96.5t125.5 38q39 0 73 -16t54 -46l8 46h138zM290 108q51 0 91 42.5t48 95.5t-18 95t-77.5 42t-90.5 -42t-47 -95t17.5 -95.5t76.5 -42.5zM245 712
l112 62l93 -168l-78 -44z" />
    <glyph glyph-name="aacute" unicode="&#xe1;" horiz-adv-x="565" 
d="M592 491l-78 -491h-138l7 45h-2q-27 -29 -65.5 -45t-77.5 -16q-69 0 -115.5 38.5t-62.5 98t-6 127.5q11 66 46 124.5t93.5 96.5t125.5 38q39 0 73 -16t54 -46l8 46h138zM290 108q51 0 91 42.5t48 95.5t-18 95t-77.5 42t-90.5 -42t-47 -95t17.5 -95.5t76.5 -42.5zM455 774
l92 -62l-175 -150l-64 44z" />
    <glyph glyph-name="acircumflex" unicode="&#xe2;" horiz-adv-x="565" 
d="M592 491l-78 -491h-138l7 45h-2q-27 -29 -65.5 -45t-77.5 -16q-69 0 -115.5 38.5t-62.5 98t-6 127.5q11 66 46 124.5t93.5 96.5t125.5 38q39 0 73 -16t54 -46l8 46h138zM290 108q51 0 91 42.5t48 95.5t-18 95t-77.5 42t-90.5 -42t-47 -95t17.5 -95.5t76.5 -42.5zM211 620
l195 154l145 -154l-70 -66l-94 104l-126 -104z" />
    <glyph glyph-name="atilde" unicode="&#xe3;" horiz-adv-x="565" 
d="M592 491l-78 -491h-138l7 45h-2q-27 -29 -65.5 -45t-77.5 -16q-69 0 -115.5 38.5t-62.5 98t-6 127.5q11 66 46 124.5t93.5 96.5t125.5 38q39 0 73 -16t54 -46l8 46h138zM290 108q51 0 91 42.5t48 95.5t-18 95t-77.5 42t-90.5 -42t-47 -95t17.5 -95.5t76.5 -42.5zM271 604
h-82q12 51 47.5 95t83.5 44q24 0 73 -21l17.5 -7.5t17 -7.5t14 -5t13.5 -2q13 0 24 7t15 13t15 22h83q-19 -57 -56 -99t-88 -42q-21 0 -65.5 22t-62.5 22q-31 0 -49 -41z" />
    <glyph glyph-name="adieresis" unicode="&#xe4;" horiz-adv-x="565" 
d="M592 491l-78 -491h-138l7 45h-2q-27 -29 -65.5 -45t-77.5 -16q-69 0 -115.5 38.5t-62.5 98t-6 127.5q11 66 46 124.5t93.5 96.5t125.5 38q39 0 73 -16t54 -46l8 46h138zM290 108q51 0 91 42.5t48 95.5t-18 95t-77.5 42t-90.5 -42t-47 -95t17.5 -95.5t76.5 -42.5zM299 762
q33 0 52.5 -23.5t14.5 -56.5t-32.5 -56.5t-60.5 -23.5t-52.5 23.5t-14.5 56.5t32.5 56.5t60.5 23.5zM510 762q33 0 52.5 -23.5t14.5 -56.5t-32.5 -56.5t-60.5 -23.5t-52.5 23.5t-14.5 56.5t32.5 56.5t60.5 23.5z" />
    <glyph glyph-name="aring" unicode="&#xe5;" horiz-adv-x="565" 
d="M592 491l-78 -491h-138l7 45h-2q-27 -29 -65.5 -45t-77.5 -16q-69 0 -115.5 38.5t-62.5 98t-6 127.5q11 66 46 124.5t93.5 96.5t125.5 38q39 0 73 -16t54 -46l8 46h138zM290 108q51 0 91 42.5t48 95.5t-18 95t-77.5 42t-90.5 -42t-47 -95t17.5 -95.5t76.5 -42.5z
M405.5 774q41.5 0 66 -29.5t18.5 -70.5q-7 -42 -41 -71.5t-75.5 -29.5t-66 29.5t-17.5 71.5q6 41 40 70.5t75.5 29.5zM396 715q-17 0 -31 -12t-16 -29q-3 -17 7 -29.5t27 -12.5t31 12.5t17 29.5q2 17 -8 29t-27 12z" />
    <glyph glyph-name="ae" unicode="&#xe6;" horiz-adv-x="792" 
d="M505 310h187q1 41 -19 70t-58 29q-40 0 -69 -28.5t-41 -70.5zM256 217q-31 0 -56.5 -18t-30.5 -49q-5 -32 16.5 -49.5t55.5 -17.5q31 0 60 19t34 49q5 32 -20 49t-59 17zM812 223h-323q-3 -32 -0.5 -61.5t22.5 -50t54 -20.5q62 0 105 67l126 -21q-37 -73 -103 -113
t-145 -40q-55 0 -98.5 20t-63.5 61q-36 -39 -86.5 -60t-101.5 -21q-80 0 -128 41.5t-36 119.5q12 76 73.5 118.5t138.5 42.5q65 0 110 -27l3 16q8 52 -18 78.5t-79 26.5q-60 0 -123 -22l17 109q83 20 140 20q49 0 91 -18.5t58 -56.5q35 36 82.5 55.5t96.5 19.5
q78 0 126 -36.5t62.5 -95.5t2.5 -135z" />
    <glyph glyph-name="ccedilla" unicode="&#xe7;" horiz-adv-x="421" 
d="M459 476l-21 -135q-40 48 -95 48q-57 0 -97.5 -44t-50.5 -102q-9 -60 20 -100.5t87 -40.5q56 0 106 47l-22 -135q-59 -30 -126 -30q-106 0 -164.5 76t-41.5 184q17 111 101.5 187t194.5 76q64 0 109 -31zM211 -20l84 -47l-138 -139l-68 38z" />
    <glyph glyph-name="egrave" unicode="&#xe8;" horiz-adv-x="501" 
d="M521 223h-323q-3 -32 -0.5 -61.5t22.5 -50t54 -20.5q62 0 105 67l126 -21q-37 -73 -103 -113t-145 -40q-112 0 -167 71.5t-37 185.5q19 117 92.5 191.5t187.5 74.5q78 0 126 -36.5t62.5 -95.5t2.5 -135zM216 310h187q1 41 -19 70t-58 29q-40 0 -69 -28.5t-41 -70.5z
M213 712l112 62l93 -168l-78 -44z" />
    <glyph glyph-name="eacute" unicode="&#xe9;" horiz-adv-x="501" 
d="M521 223h-323q-3 -32 -0.5 -61.5t22.5 -50t54 -20.5q62 0 105 67l126 -21q-37 -73 -103 -113t-145 -40q-112 0 -167 71.5t-37 185.5q19 117 92.5 191.5t187.5 74.5q78 0 126 -36.5t62.5 -95.5t2.5 -135zM216 310h187q1 41 -19 70t-58 29q-40 0 -69 -28.5t-41 -70.5z
M423 774l92 -62l-175 -150l-64 44z" />
    <glyph glyph-name="ecircumflex" unicode="&#xea;" horiz-adv-x="501" 
d="M521 223h-323q-3 -32 -0.5 -61.5t22.5 -50t54 -20.5q62 0 105 67l126 -21q-37 -73 -103 -113t-145 -40q-112 0 -167 71.5t-37 185.5q19 117 92.5 191.5t187.5 74.5q78 0 126 -36.5t62.5 -95.5t2.5 -135zM216 310h187q1 41 -19 70t-58 29q-40 0 -69 -28.5t-41 -70.5z
M179 620l195 154l145 -154l-70 -66l-94 104l-126 -104z" />
    <glyph glyph-name="edieresis" unicode="&#xeb;" horiz-adv-x="501" 
d="M521 223h-323q-3 -32 -0.5 -61.5t22.5 -50t54 -20.5q62 0 105 67l126 -21q-37 -73 -103 -113t-145 -40q-112 0 -167 71.5t-37 185.5q19 117 92.5 191.5t187.5 74.5q78 0 126 -36.5t62.5 -95.5t2.5 -135zM216 310h187q1 41 -19 70t-58 29q-40 0 -69 -28.5t-41 -70.5z
M267 762q33 0 52.5 -23.5t14.5 -56.5t-32.5 -56.5t-60.5 -23.5t-52.5 23.5t-14.5 56.5t32.5 56.5t60.5 23.5zM478 762q33 0 52.5 -23.5t14.5 -56.5t-32.5 -56.5t-60.5 -23.5t-52.5 23.5t-14.5 56.5t32.5 56.5t60.5 23.5z" />
    <glyph glyph-name="igrave" unicode="&#xec;" horiz-adv-x="253" 
d="M275 491l-78 -491h-140l78 491h140zM104 712l112 62l93 -168l-78 -44z" />
    <glyph glyph-name="iacute" unicode="&#xed;" horiz-adv-x="253" 
d="M275 491l-78 -491h-140l78 491h140zM284 774l92 -62l-175 -150l-64 44z" />
    <glyph glyph-name="icircumflex" unicode="&#xee;" horiz-adv-x="253" 
d="M275 491l-78 -491h-140l78 491h140zM55 620l195 154l145 -154l-70 -66l-94 104l-126 -104z" />
    <glyph glyph-name="idieresis" unicode="&#xef;" horiz-adv-x="253" 
d="M275 491l-78 -491h-140l78 491h140zM143 762q33 0 52.5 -23.5t14.5 -56.5t-32.5 -56.5t-60.5 -23.5t-52.5 23.5t-14.5 56.5t32.5 56.5t60.5 23.5zM354 762q33 0 52.5 -23.5t14.5 -56.5t-32.5 -56.5t-60.5 -23.5t-52.5 23.5t-14.5 56.5t32.5 56.5t60.5 23.5z" />
    <glyph glyph-name="eth" unicode="&#xf0;" horiz-adv-x="548" 
d="M198 786l110 75q49 -43 92 -92l132 76l50 -60l-132 -77q18 -24 28.5 -39t28.5 -44.5t29 -54.5t23 -62t17 -72.5t5 -81t-8 -93.5q-10 -63 -35 -112.5t-56.5 -79.5t-70 -50t-73 -27.5t-67.5 -7.5q-108 0 -171.5 71t-44.5 191q18 115 99 186t184 71q37 0 77 -15
q-27 80 -82 152l-132 -77l-50 61l132 76q-39 45 -85 86zM334.5 383q-51.5 0 -90.5 -42t-47 -96q-9 -53 17 -95t77 -42t90 42t48 95q8 54 -17.5 96t-77 42z" />
    <glyph glyph-name="ntilde" unicode="&#xf1;" horiz-adv-x="540" 
d="M268 491l-7 -45h2q50 61 137 61q170 0 138 -207l-48 -300h-140l41 260q1 2 1 6q3 20 4.5 30.5t2.5 28.5t-2.5 28t-9.5 21t-19 16t-31 5q-24 0 -42.5 -11t-29 -25t-19 -38t-11.5 -39t-7 -39l-38 -243h-140l78 491h140zM258 604h-82q12 51 47.5 95t83.5 44q24 0 73 -21
l17.5 -7.5t17 -7.5t14 -5t13.5 -2q13 0 24 7t15 13t15 22h83q-19 -57 -56 -99t-88 -42q-21 0 -65.5 22t-62.5 22q-31 0 -49 -41z" />
    <glyph glyph-name="ograve" unicode="&#xf2;" horiz-adv-x="548" 
d="M354.5 507q114.5 0 174.5 -73.5t42 -188.5t-101.5 -188t-198 -73t-174.5 73t-42 188t101.5 188.5t198 73.5zM334.5 383q-51.5 0 -90.5 -42t-47 -96q-9 -53 17 -95t77 -42t90 42t48 95q8 54 -17.5 96t-77 42zM236 712l112 62l93 -168l-78 -44z" />
    <glyph glyph-name="oacute" unicode="&#xf3;" horiz-adv-x="548" 
d="M354.5 507q114.5 0 174.5 -73.5t42 -188.5t-101.5 -188t-198 -73t-174.5 73t-42 188t101.5 188.5t198 73.5zM334.5 383q-51.5 0 -90.5 -42t-47 -96q-9 -53 17 -95t77 -42t90 42t48 95q8 54 -17.5 96t-77 42zM446 774l92 -62l-175 -150l-64 44z" />
    <glyph glyph-name="ocircumflex" unicode="&#xf4;" horiz-adv-x="548" 
d="M354.5 507q114.5 0 174.5 -73.5t42 -188.5t-101.5 -188t-198 -73t-174.5 73t-42 188t101.5 188.5t198 73.5zM334.5 383q-51.5 0 -90.5 -42t-47 -96q-9 -53 17 -95t77 -42t90 42t48 95q8 54 -17.5 96t-77 42zM202 620l195 154l145 -154l-70 -66l-94 104l-126 -104z" />
    <glyph glyph-name="otilde" unicode="&#xf5;" horiz-adv-x="548" 
d="M354.5 507q114.5 0 174.5 -73.5t42 -188.5t-101.5 -188t-198 -73t-174.5 73t-42 188t101.5 188.5t198 73.5zM334.5 383q-51.5 0 -90.5 -42t-47 -96q-9 -53 17 -95t77 -42t90 42t48 95q8 54 -17.5 96t-77 42zM262 604h-82q12 51 47.5 95t83.5 44q24 0 73 -21l17.5 -7.5
t17 -7.5t14 -5t13.5 -2q13 0 24 7t15 13t15 22h83q-19 -57 -56 -99t-88 -42q-21 0 -65.5 22t-62.5 22q-31 0 -49 -41z" />
    <glyph glyph-name="odieresis" unicode="&#xf6;" horiz-adv-x="548" 
d="M354.5 507q114.5 0 174.5 -73.5t42 -188.5t-101.5 -188t-198 -73t-174.5 73t-42 188t101.5 188.5t198 73.5zM334.5 383q-51.5 0 -90.5 -42t-47 -96q-9 -53 17 -95t77 -42t90 42t48 95q8 54 -17.5 96t-77 42zM290 762q33 0 52.5 -23.5t14.5 -56.5t-32.5 -56.5t-60.5 -23.5
t-52.5 23.5t-14.5 56.5t32.5 56.5t60.5 23.5zM501 762q33 0 52.5 -23.5t14.5 -56.5t-32.5 -56.5t-60.5 -23.5t-52.5 23.5t-14.5 56.5t32.5 56.5t60.5 23.5z" />
    <glyph glyph-name="divide" unicode="&#xf7;" 
d="M312 146q34 0 54.5 -24.5t15.5 -58.5q-5 -35 -33.5 -59t-63 -24t-54.5 24.5t-15 58.5t33.5 58.5t62.5 24.5zM373.5 532q34.5 0 54.5 -24.5t15 -58.5q-5 -35 -33.5 -59t-63 -24t-54.5 24.5t-15 58.5t33.5 58.5t63 24.5zM64 197l19 118h512l-19 -118h-512z" />
    <glyph glyph-name="oslash" unicode="&#xf8;" horiz-adv-x="564" 
d="M201 181l202 172q-27 30 -68 30q-52 0 -91 -42t-47 -96q-5 -33 4 -64zM429 295l-196 -167q24 -20 58 -20q51 0 90 42t48 95q4 24 0 50zM-4 10l84 72q-40 66 -25 163q18 115 101.5 188.5t197.5 73.5q99 0 158 -55l86 74l47 -50l-92 -80q31 -65 18 -151
q-18 -115 -101.5 -188t-198.5 -73q-89 0 -145 46l-83 -71z" />
    <glyph glyph-name="ugrave" unicode="&#xf9;" horiz-adv-x="535" 
d="M125 491h140l-42 -266q-4 -29 -4.5 -56.5t15.5 -47t49 -19.5q25 0 44 10.5t29.5 30.5t16.5 38.5t10 43.5l42 266h140l-46 -289q-17 -108 -81 -163t-173.5 -55t-156 55t-29.5 163zM230 712l112 62l93 -168l-78 -44z" />
    <glyph glyph-name="uacute" unicode="&#xfa;" horiz-adv-x="535" 
d="M125 491h140l-42 -266q-4 -29 -4.5 -56.5t15.5 -47t49 -19.5q25 0 44 10.5t29.5 30.5t16.5 38.5t10 43.5l42 266h140l-46 -289q-17 -108 -81 -163t-173.5 -55t-156 55t-29.5 163zM440 774l92 -62l-175 -150l-64 44z" />
    <glyph glyph-name="ucircumflex" unicode="&#xfb;" horiz-adv-x="535" 
d="M125 491h140l-42 -266q-4 -29 -4.5 -56.5t15.5 -47t49 -19.5q25 0 44 10.5t29.5 30.5t16.5 38.5t10 43.5l42 266h140l-46 -289q-17 -108 -81 -163t-173.5 -55t-156 55t-29.5 163zM196 620l195 154l145 -154l-70 -66l-94 104l-126 -104z" />
    <glyph glyph-name="udieresis" unicode="&#xfc;" horiz-adv-x="535" 
d="M125 491h140l-42 -266q-4 -29 -4.5 -56.5t15.5 -47t49 -19.5q25 0 44 10.5t29.5 30.5t16.5 38.5t10 43.5l42 266h140l-46 -289q-17 -108 -81 -163t-173.5 -55t-156 55t-29.5 163zM284 762q33 0 52.5 -23.5t14.5 -56.5t-32.5 -56.5t-60.5 -23.5t-52.5 23.5t-14.5 56.5
t32.5 56.5t60.5 23.5zM495 762q33 0 52.5 -23.5t14.5 -56.5t-32.5 -56.5t-60.5 -23.5t-52.5 23.5t-14.5 56.5t32.5 56.5t60.5 23.5z" />
    <glyph glyph-name="yacute" unicode="&#xfd;" horiz-adv-x="520" 
d="M203 75l-143 416h159l73 -279l170 279h156l-477 -753h-154zM447 774l92 -62l-175 -150l-64 44z" />
    <glyph glyph-name="thorn" unicode="&#xfe;" horiz-adv-x="565" 
d="M324 848l-63 -402q28 28 67 44.5t78 16.5q67 0 113.5 -38t63.5 -96.5t6 -124.5q-11 -69 -46 -128t-94 -97.5t-129 -38.5q-38 0 -71.5 16.5t-49.5 45.5h-2l-49 -308h-140l176 1110h140zM309 108q51 0 90.5 42.5t47.5 95.5t-17.5 95t-77 42t-90.5 -42t-47 -95t17.5 -95.5
t76.5 -42.5z" />
    <glyph glyph-name="ydieresis" unicode="&#xff;" horiz-adv-x="520" 
d="M203 75l-143 416h159l73 -279l170 279h156l-477 -753h-154zM284 762q33 0 52.5 -23.5t14.5 -56.5t-32.5 -56.5t-60.5 -23.5t-52.5 23.5t-14.5 56.5t32.5 56.5t60.5 23.5zM495 762q33 0 52.5 -23.5t14.5 -56.5t-32.5 -56.5t-60.5 -23.5t-52.5 23.5t-14.5 56.5t32.5 56.5
t60.5 23.5z" />
    <glyph glyph-name="dotlessi" unicode="&#x131;" horiz-adv-x="253" 
d="M275 491l-78 -491h-140l78 491h140z" />
    <glyph glyph-name="Lslash" unicode="&#x141;" horiz-adv-x="434" 
d="M54 254l20 124l80 50l51 326h147l-36 -230l118 73l-20 -126l-118 -72l-43 -271h208l-20 -128h-355l48 303z" />
    <glyph glyph-name="lslash" unicode="&#x142;" horiz-adv-x="283" 
d="M72 0l59 374l-82 -50l17 106l82 50l58 368h140l-44 -279l81 49l-17 -106l-81 -49l-73 -463h-140z" />
    <glyph glyph-name="OE" unicode="&#x152;" horiz-adv-x="1039" 
d="M856 626l-26 -167h227l-21 -128h-227l-32 -203h238l-20 -128h-384l13 85q-107 -105 -247 -105q-76 0 -139 34t-101.5 89.5t-54.5 127t-5 144.5q12 75 50.5 147.5t94.5 128t129.5 89.5t151.5 34q67 0 123.5 -27.5t88.5 -77.5h2l13 85h384l-20 -128h-238zM477 629
q-65 0 -122 -37.5t-92 -95t-46 -121.5q-10 -63 7.5 -119.5t63 -93.5t109.5 -37q65 0 122.5 37t93 94t44.5 119q11 64 -6.5 121.5t-63.5 95t-110 37.5z" />
    <glyph glyph-name="oe" unicode="&#x153;" horiz-adv-x="873" 
d="M584 310h187q1 41 -19 70t-58 29q-40 0 -69 -28.5t-41 -70.5zM332.5 383q-51.5 0 -90.5 -42t-47 -96q-9 -53 17 -95t77 -42t90 42t48 95q8 54 -17.5 96t-77 42zM894 223h-323q-3 -32 -0.5 -61.5t22.5 -50t54 -20.5q62 0 105 67l126 -21q-37 -73 -103 -113t-145 -40
q-123 0 -168 85q-77 -85 -193 -85q-114 0 -174 73t-42 188t101.5 188.5t197.5 73.5q108 0 166 -82q72 82 188 82q78 0 126 -36.5t62.5 -95.5t2.5 -135z" />
    <glyph glyph-name="Scaron" unicode="&#x160;" horiz-adv-x="526" 
d="M587 690l-85 -102q-36 62 -103 62q-36 0 -68 -24.5t-38 -60.5q-4 -25 9.5 -44.5t38 -32t54.5 -25.5t59 -30.5t51.5 -41t33 -63t2.5 -90.5q-19 -115 -97 -186.5t-192 -71.5q-144 0 -209 147l110 93q8 -46 40.5 -78t77.5 -32q44 0 76 32t39 77q3 21 -2 38.5t-13 28.5
t-25 22t-28 16t-33 13q-7 3 -11 5q-37 17 -62 33.5t-45.5 40.5t-27.5 57t0 75q15 95 88 160.5t168 65.5q52 0 108.5 -23.5t83.5 -60.5zM247 937l71 65l101 -104l136 104l49 -65l-203 -155z" />
    <glyph glyph-name="scaron" unicode="&#x161;" horiz-adv-x="410" 
d="M434 456l-73 -81q-30 34 -68 34q-18 0 -34 -12t-19 -30q-2 -10 2 -18.5t14.5 -15t20 -11t27 -11.5t26.5 -12q44 -20 66 -51.5t13 -89.5q-13 -79 -75.5 -126.5t-143.5 -47.5q-49 0 -91.5 21.5t-68.5 60.5l78 83q42 -57 95 -57q23 0 41.5 14.5t22.5 38.5q2 12 -1 21.5
t-14 17.5t-18.5 12t-26.5 12t-26 11q-43 20 -64.5 48t-13.5 81q11 69 62 114t119 45q42 0 84 -13t66 -38zM138 709l71 65l101 -104l136 104l49 -65l-203 -155z" />
    <glyph glyph-name="Ydieresis" unicode="&#x178;" horiz-adv-x="587" 
d="M273 346l-170 408h171l91 -262l185 262h172l-302 -408l-55 -346h-147zM346 990q33 0 52.5 -23.5t14.5 -56.5t-32.5 -56.5t-60.5 -23.5t-52.5 23.5t-14.5 56.5t32.5 56.5t60.5 23.5zM557 990q33 0 52.5 -23.5t14.5 -56.5t-32.5 -56.5t-60.5 -23.5t-52.5 23.5t-14.5 56.5
t32.5 56.5t60.5 23.5z" />
    <glyph glyph-name="Zcaron" unicode="&#x17d;" horiz-adv-x="575" 
d="M259 128h313l-20 -128h-547l431 626h-281l20 128h514zM272 937l71 65l101 -104l136 104l49 -65l-203 -155z" />
    <glyph glyph-name="zcaron" unicode="&#x17e;" horiz-adv-x="481" 
d="M251 118h233l-19 -118h-466l310 373h-212l19 118h443zM182 709l71 65l101 -104l136 104l49 -65l-203 -155z" />
    <glyph glyph-name="florin" unicode="&#x192;" 
d="M461 504h107l-22 -72h-108l-93 -291q-13 -42 -24 -71.5t-27.5 -64t-33 -58t-40.5 -46.5t-51.5 -36.5t-63.5 -22t-79 -8.5l-56 4l40 126l33 -2q70 0 106 49q27 38 62 151l85 270h-60l22 72h62l37 115q16 48 35 84t47 66t67 46t88 16q50 0 84 -21l-39 -121q-27 17 -56 17
q-14 0 -26 -5t-22 -17t-16 -20.5t-13.5 -27.5t-9.5 -24.5t-8 -24.5z" />
    <glyph glyph-name="circumflex" unicode="&#x2c6;" horiz-adv-x="400" 
d="M128 620l195 154l145 -154l-70 -66l-94 104l-126 -104z" />
    <glyph glyph-name="caron" unicode="&#x2c7;" horiz-adv-x="400" 
d="M133 709l71 65l101 -104l136 104l49 -65l-203 -155z" />
    <glyph glyph-name="breve" unicode="&#x2d8;" horiz-adv-x="400" 
d="M146 754h98q5 -71 64 -71t86 71h98q-17 -70 -72 -113t-125 -43t-111.5 43t-37.5 113z" />
    <glyph glyph-name="dotaccent" unicode="&#x2d9;" horiz-adv-x="380" 
d="M311 762q33 0 52.5 -23.5t14.5 -56.5t-32.5 -56.5t-60.5 -23.5t-52.5 23.5t-14.5 56.5t32.5 56.5t60.5 23.5z" />
    <glyph glyph-name="ring" unicode="&#x2da;" horiz-adv-x="380" 
d="M312.5 774q41.5 0 66 -29.5t18.5 -70.5q-7 -42 -41 -71.5t-75.5 -29.5t-66 29.5t-17.5 71.5q6 41 40 70.5t75.5 29.5zM303 715q-17 0 -31 -12t-16 -29q-3 -17 7 -29.5t27 -12.5t31 12.5t17 29.5q2 17 -8 29t-27 12z" />
    <glyph glyph-name="ogonek" unicode="&#x2db;" horiz-adv-x="380" 
d="M170 -20h70v-2q-60 -35 -67 -80q-3 -19 7 -32.5t30 -13.5q24 0 50 16l-26 -75q-29 -18 -72 -18q-40 0 -65.5 23.5t-19.5 62.5q6 35 31.5 66.5t61.5 52.5z" />
    <glyph glyph-name="tilde" unicode="&#x2dc;" horiz-adv-x="400" 
d="M188 604h-82q12 51 47.5 95t83.5 44q24 0 73 -21l17.5 -7.5t17 -7.5t14 -5t13.5 -2q13 0 24 7t15 13t15 22h83q-19 -57 -56 -99t-88 -42q-21 0 -65.5 22t-62.5 22q-31 0 -49 -41z" />
    <glyph glyph-name="hungarumlaut" unicode="&#x2dd;" horiz-adv-x="420" 
d="M248 774l92 -62l-175 -150l-64 44zM437 774l92 -62l-175 -150l-64 44z" />
    <glyph glyph-name="mu" unicode="&#x3bc;" horiz-adv-x="535" 
d="M125 491h140l-42 -266q-4 -29 -4.5 -56.5t15.5 -47t49 -19.5q25 0 44 10.5t29.5 30.5t16.5 38.5t10 43.5l42 266h140l-46 -289q-17 -108 -81 -163t-174 -55q-7 0 -13.5 1t-11.5 1.5t-11 3.5t-8.5 4t-8.5 5t-7 4.5t-8 5.5l-7 5l-44 -276h-140z" />
    <glyph glyph-name="endash" unicode="&#x2013;" horiz-adv-x="500" 
d="M60 378h500l-18 -115h-500z" />
    <glyph glyph-name="emdash" unicode="&#x2014;" horiz-adv-x="1000" 
d="M190 378h740l-18 -115h-740z" />
    <glyph glyph-name="quoteleft" unicode="&#x2018;" horiz-adv-x="296" 
d="M232 459l-127 14l192 301l91 -11z" />
    <glyph glyph-name="quoteright" unicode="&#x2019;" horiz-adv-x="296" 
d="M262 774l125 -15l-191 -300l-92 11z" />
    <glyph glyph-name="quotesinglbase" unicode="&#x201a;" horiz-adv-x="296" 
d="M164 156l125 -14l-191 -301l-91 11z" />
    <glyph glyph-name="quotedblleft" unicode="&#x201c;" horiz-adv-x="488" 
d="M423 459l-127 14l192 301l91 -11zM232 459l-127 14l192 301l91 -11z" />
    <glyph glyph-name="quotedblright" unicode="&#x201d;" horiz-adv-x="488" 
d="M262 774l125 -15l-191 -300l-92 11zM453 774l125 -15l-191 -300l-92 11z" />
    <glyph glyph-name="quotedblbase" unicode="&#x201e;" horiz-adv-x="488" 
d="M164 156l125 -14l-191 -301l-91 11zM355 156l125 -14l-191 -301l-91 11z" />
    <glyph glyph-name="dagger" unicode="&#x2020;" horiz-adv-x="577" 
d="M357 848h131l-38 -240h162l-18 -116h-162l-93 -589h-131l93 589h-162l18 116h162z" />
    <glyph glyph-name="daggerdbl" unicode="&#x2021;" horiz-adv-x="577" 
d="M357 848h131l-33 -211h162l-18 -116h-162l-22 -133h162l-18 -116h-162l-58 -368h-131l58 368h-162l18 116h162l22 133h-162l18 116h162z" />
    <glyph glyph-name="bullet" unicode="&#x2022;" horiz-adv-x="577" 
d="M318 189q-78 0 -124.5 55t-33.5 133q11 79 75 134t142.5 55t125 -55t34.5 -134q-13 -78 -77 -133t-142 -55z" />
    <glyph glyph-name="ellipsis" unicode="&#x2026;" horiz-adv-x="1000" 
d="M192.5 161q36.5 0 58.5 -25.5t16.5 -62.5t-36 -63.5t-67 -26.5t-58.5 26.5t-16.5 63.5t36 62.5t67 25.5zM525 158q37 0 59 -25.5t16 -62.5t-36.5 -63.5t-67 -26.5t-58.5 26.5t-16 63.5t36 62.5t67 25.5zM858 158q37 0 59 -25.5t16 -62.5t-36.5 -63.5t-67 -26.5
t-58.5 26.5t-16 63.5t36 62.5t67 25.5z" />
    <glyph glyph-name="perthousand" unicode="&#x2030;" horiz-adv-x="1200" 
d="M324.5 774q76.5 0 120 -50.5t30.5 -128.5q-12 -77 -71 -127.5t-136 -50.5t-120 50.5t-31 127.5q13 78 72 128.5t135.5 50.5zM311.5 693q-35.5 0 -62.5 -30.5t-33 -67.5t11.5 -67t53 -30t62.5 30t33 67t-11.5 67.5t-53 30.5zM694 780l62 -34l-527 -777l-63 35zM657.5 337
q76.5 0 119.5 -50.5t31 -128.5q-12 -77 -71 -127.5t-136.5 -50.5t-120 50.5t-30.5 127.5q12 78 71.5 128.5t136 50.5zM644.5 256q-35.5 0 -62.5 -30.5t-33 -67.5t11.5 -67t53 -30t62.5 30t33 67t-11.5 67.5t-53 30.5zM1052.5 337q76.5 0 119.5 -50.5t31 -128.5
q-12 -77 -71 -127.5t-136.5 -50.5t-120 50.5t-30.5 127.5q12 78 71.5 128.5t136 50.5zM1039.5 256q-35.5 0 -62.5 -30.5t-33 -67.5t11.5 -67t53 -30t62.5 30t33 67t-11.5 67.5t-53 30.5z" />
    <glyph glyph-name="guilsinglleft" unicode="&#x2039;" horiz-adv-x="314" 
d="M190 320l96 -182l-96 -58l-121 240l197 243l77 -56z" />
    <glyph glyph-name="guilsinglright" unicode="&#x203a;" horiz-adv-x="314" 
d="M72 138l154 182l-95 187l95 56l121 -243l-197 -240z" />
    <glyph glyph-name="fraction" unicode="&#x2044;" horiz-adv-x="179" 
d="M381 780l62 -34l-527 -777l-63 35z" />
    <glyph glyph-name="Euro" unicode="&#x20ac;" 
d="M542 330h-289q1 23 4 44q3 18 6 27h308l26 66h-311q35 75 94 118q62 49 140 49q80 0 126 -49l56 145q-74 44 -161 44q-136 0 -251 -89q-111 -86 -160 -218h-72l-26 -66h79q-3 -10 -6 -30q-3 -15 -5 -41h-64l-26 -66h92q13 -122 96 -202q85 -82 214 -82q69 0 143 32
l26 165q-34 -30 -65 -43q-35 -14 -78 -14q-69 0 -116 42q-45 38 -61 102h255z" />
    <glyph glyph-name="trademark" unicode="&#x2122;" horiz-adv-x="1000" 
d="M501 754l-11 -75h-127l-55 -346h-86l55 346h-127l11 75h340zM1077 754l-66 -421h-86l53 335h-2l-175 -335h-83l-65 335h-2l-53 -335h-86l66 421h149l55 -275h2l145 275h148z" />
    <glyph glyph-name="minus" unicode="&#x2212;" 
d="M64 197l19 118h512l-19 -118h-512z" />
    <glyph glyph-name="fi" unicode="&#xfb01;" horiz-adv-x="544" 
d="M254 373l-59 -373h-140l59 373h-47l19 118h47l23 144q7 47 23.5 86t42.5 71t65.5 50t88.5 18q37 0 65 -16l-20 -125q-31 17 -54 17q-12 0 -21.5 -4t-16 -9t-12 -15.5t-8.5 -16.5t-6.5 -20.5t-4.5 -19.5t-3 -20t-3 -16l-19 -124h112l-19 -118h-112zM565 491l-78 -491h-140
l78 491h140zM540.5 780q34.5 0 55 -24.5t14.5 -58.5q-5 -35 -33 -59t-62.5 -24t-55 24t-15.5 59q6 34 34 58.5t62.5 24.5z" />
    <glyph glyph-name="fl" unicode="&#xfb02;" horiz-adv-x="543" 
d="M627 848l-134 -848h-140l134 848h140zM254 373l-59 -373h-140l59 373h-47l19 118h47l23 144q7 47 23.5 86t42.5 71t65.5 50t88.5 18q37 0 65 -16l-20 -125q-31 17 -54 17q-12 0 -21.5 -4t-16 -9t-12 -15.5t-8.5 -16.5t-6.5 -20.5t-4.5 -19.5t-3 -20t-3 -16l-19 -124h112
l-19 -118h-112z" />
    <glyph glyph-name="hyphen" horiz-adv-x="330" 
d="M103 378h244l-18 -115h-244z" />
    <glyph glyph-name="oldcurrency" 
d="M376.5 550q86.5 0 133.5 -44l71 57l62 -74l-68 -55q29 -57 16.5 -134t-59.5 -134l52 -55l-86 -74l-53 57q-62 -44 -148.5 -44t-133.5 44l-71 -57l-62 74l68 55q-29 57 -16.5 134t59.5 134l-52 55l86 74l53 -57q62 44 148.5 44zM312 146q67 0 120 44.5t64 109.5
q10 68 -28 111t-107 43t-121 -43t-62 -111q-11 -65 28 -109.5t106 -44.5z" />
    </font>
</defs>
</svg>
