<?xml version="1.0" standalone="no"?>
<!DOCTYPE svg PUBLIC "-//W3C//DTD SVG 1.1//EN" "http://www.w3.org/Graphics/SVG/1.1/DTD/svg11.dtd" >
<svg xmlns="http://www.w3.org/2000/svg" xmlns:xlink="http://www.w3.org/1999/xlink" version="1.1">
<metadata>
Created by FontForge 20170731 at Wed Jul 24 11:47:44 2002
 By Aleksey,,,
Copyright (c) 1987, 1991, 1992, 1993 Adobe Systems Incorporated. All Rights Reserved.Futura is a registered trademark of Fundicion Tipografica Neufville S.A.
</metadata>
<defs>
<font id="FuturaLT-CondensedOblique" horiz-adv-x="411" >
  <font-face 
    font-family="Futura LT"
    font-weight="500"
    font-style="oblique"
    font-stretch="condensed"
    units-per-em="1000"
    panose-1="2 0 6 6 0 0 0 0 0 0"
    ascent="800"
    descent="-200"
    x-height="505"
    cap-height="754"
    bbox="-157 -216 917 969"
    underline-thickness="50"
    underline-position="-200"
    slope="-9"
    unicode-range="U+0020-FFFD"
  />
<missing-glyph horiz-adv-x="205" 
 />
    <glyph glyph-name=".notdef" unicode="&#xfffd;" horiz-adv-x="205" 
 />
    <glyph glyph-name=".null" horiz-adv-x="0" 
 />
    <glyph glyph-name="nonmarkingreturn" horiz-adv-x="333" 
 />
    <glyph glyph-name="space" unicode=" " horiz-adv-x="205" 
 />
    <glyph glyph-name="exclam" unicode="!" horiz-adv-x="252" 
d="M196 754h100l-90 -573h-100zM124.5 -8q-24.5 0 -39.5 17.5t-11 42.5t24.5 42.5t45 17.5t39.5 -17.5t11 -42.5t-24.5 -42.5t-45 -17.5z" />
    <glyph glyph-name="quotedbl" unicode="&#x22;" horiz-adv-x="250" 
d="M113 528l23 226h86l-47 -226h-62zM244 528l23 226h86l-47 -226h-62z" />
    <glyph glyph-name="numbersign" unicode="#" 
d="M-12 0l121 258h-107l26 59h108l58 124h-109l26 59h109l119 254h55l-118 -254h88l117 254h56l-118 -254h111l-26 -59h-112l-58 -124h112l-24 -59h-115l-120 -258h-55l120 258h-87l-122 -258h-55zM192 317h87l58 124h-88z" />
    <glyph glyph-name="dollar" unicode="$" 
d="M312 819h45l-11 -65q56 -4 89.5 -32t39.5 -79l-84 -46q-1 32 -22 52.5t-55 20.5q-43 0 -66.5 -27t-30.5 -71q-2 -12 -2 -23.5t0.5 -20t5 -18t7 -15.5t10 -14t11.5 -12.5t14.5 -12.5t15 -11t17 -12t17.5 -12q24 -17 38.5 -28t29.5 -26t22 -29t12.5 -33t5 -42t-5.5 -52
q-30 -194 -188 -211l-11 -67h-45l11 67q-58 5 -88.5 32t-40.5 82l89 40q8 -70 74 -70q83 0 101 113q3 16 2.5 29t-1.5 23t-6 19.5t-9 15.5t-13.5 14t-14.5 12t-18.5 13.5t-19.5 14.5q-22 15 -36.5 26t-30 25t-24.5 26.5t-17 29t-11 34t-2.5 40t4.5 48.5q12 77 59 128.5
t122 58.5z" />
    <glyph glyph-name="percent" unicode="%" horiz-adv-x="553" 
d="M270 763q24 0 41 -8t26 -22.5t13.5 -31t4.5 -39t-1.5 -39.5t-4.5 -39q-5 -26 -9.5 -46.5t-15 -47t-24 -44t-36 -29.5t-51.5 -12q-24 0 -41 8t-26 23t-13.5 31.5t-4.5 38.5t1.5 39.5t5.5 38.5q4 27 8.5 47.5t15 46.5t24 43.5t36 29.5t51.5 12zM458 349q24 0 41 -8
t26 -22.5t14 -31t5 -39t-2 -39.5t-5 -39q-4 -26 -9 -46.5t-15.5 -47t-24 -44t-36 -29.5t-50.5 -12q-24 0 -41.5 8t-26 23t-13.5 31.5t-5 38.5t2 39.5t5 38.5q4 27 9 47.5t15.5 46.5t24 43.5t36 29.5t50.5 12zM551 754h62l-493 -754h-62zM449 289q-7 0 -13.5 -3t-11.5 -9
t-9.5 -12.5t-7.5 -16.5t-5.5 -17t-4.5 -18.5t-3 -16.5t-2.5 -14.5t-1.5 -10.5t-1.5 -10.5t-2.5 -15t-2.5 -17t-1.5 -18.5t0.5 -17t2.5 -16.5t5 -13t8.5 -9.5t12.5 -3t13.5 3t11.5 9.5t9.5 13t7.5 16.5t5.5 17t4.5 18.5t3 17t2.5 15t1.5 10.5t1.5 10.5t2.5 14.5t2.5 16.5
t1.5 18.5t-0.5 17t-2.5 16.5t-5 12.5t-8.5 9t-12.5 3zM222.5 465q7.5 0 14 3t11.5 9t9 12.5t7.5 16.5t5.5 17.5t4.5 18.5t3.5 16.5t2 15t1.5 10.5t2 10.5t2 15t2 16.5t1.5 18v17t-2 16.5t-5 13t-8.5 9.5t-13 3t-14 -3t-11.5 -9.5t-9 -13t-7.5 -16.5t-5.5 -17t-4.5 -18
t-3.5 -16.5t-2 -15t-1.5 -10.5t-2 -10.5t-2 -15t-2 -16.5t-1.5 -18.5v-17.5t2 -16.5t5 -12.5t8.5 -9t13 -3z" />
    <glyph glyph-name="ampersand" unicode="&#x26;" horiz-adv-x="494" 
d="M360 0l-27 59q-28 -33 -65 -51t-76 -18q-71 0 -111 56.5t-28 131.5q16 97 137 202q-45 91 -32 177q10 63 57 103.5t110 40.5q65 0 99 -36t23 -100q-8 -56 -45 -101.5t-98 -97.5l73 -164l76 88l56 -52l-98 -112l60 -126h-111zM302 128l-76 174q-34 -30 -52.5 -57
t-23.5 -63q-7 -42 12 -74t56 -32q45 0 84 52zM274 441l6 6q26 22 39 35t28 36.5t18 46.5q5 26 -7 43t-38 17q-25 0 -45 -20.5t-24 -45.5q-3 -8 -2 -21t1.5 -20.5t4.5 -20t6 -19t6.5 -19t6.5 -18.5z" />
    <glyph glyph-name="quotesingle" unicode="'" horiz-adv-x="250" 
d="M178 528l23 226h86l-47 -226h-62z" />
    <glyph glyph-name="parenleft" unicode="(" horiz-adv-x="276" 
d="M251 764l89 -23q-123 -228 -150 -403q-33 -203 19 -427l-97 -24q-54 219 -18 445q36 227 157 432z" />
    <glyph glyph-name="parenright" unicode=")" horiz-adv-x="276" 
d="M288 332q-36 -226 -160 -445l-89 24q122 224 155 427q27 175 -24 403l97 23q57 -205 21 -432z" />
    <glyph glyph-name="asterisk" unicode="*" horiz-adv-x="357" 
d="M276 754h39l-21 -133l122 70l16 -34l-126 -66l105 -64l-26 -34l-100 67l-17 -129h-43l25 132l-120 -70l-18 34l124 64l-104 60l25 36l102 -66z" />
    <glyph glyph-name="plus" unicode="+" horiz-adv-x="500" 
d="M261 291l34 216h70l-34 -216h172l-11 -70h-172l-35 -219h-70l35 219h-171l11 70h171z" />
    <glyph glyph-name="comma" unicode="," horiz-adv-x="205" 
d="M93 106l77 -25l-139 -265l-49 14z" />
    <glyph glyph-name="hyphen" unicode="-" horiz-adv-x="242" 
d="M79 297h178l-12 -76h-178z" />
    <glyph glyph-name="period" unicode="." horiz-adv-x="205" 
d="M102 -8q-25 0 -40 18t-11 43q4 24 24.5 41.5t45 17.5t39.5 -17.5t11 -41.5q-4 -25 -24 -43t-45 -18z" />
    <glyph glyph-name="slash" unicode="/" horiz-adv-x="407" 
d="M489 830h79l-532 -933h-81z" />
    <glyph glyph-name="zero" unicode="0" 
d="M327 763q28 0 49.5 -9t36 -22.5t24 -37t14.5 -44t6 -52t0.5 -53t-4.5 -55.5t-6.5 -50.5t-7.5 -46.5q-1 -11 -2 -16t-3 -16q-4 -30 -7 -46.5t-10 -50.5t-13 -55.5t-17 -53t-22.5 -52t-28 -44t-35.5 -37t-44 -22.5t-52.5 -9t-49.5 9t-36.5 22.5t-24 37t-14.5 44t-6 52t0 53
t4.5 55.5t6 50.5t7.5 46.5q2 11 3 16t2 16q5 30 7.5 46.5t9.5 50.5t13 55.5t17 53t22.5 52t28.5 44t36 37t43.5 22.5t52.5 9zM339 377q7 45 11.5 77t8 69t2.5 61.5t-5.5 46t-15.5 32t-27 10.5q-20 0 -37 -16.5t-28.5 -41.5t-22 -67t-17.5 -79t-15 -92q-8 -45 -12.5 -77
t-8 -69t-2.5 -61.5t5.5 -46t15.5 -32t28 -10.5q20 0 36.5 16.5t28 41.5t22.5 67t17.5 79t15.5 92z" />
    <glyph glyph-name="one" unicode="1" 
d="M202 754h172l-119 -754h-98l106 667h-74z" />
    <glyph glyph-name="two" unicode="2" 
d="M128 509l4 27q6 41 13.5 70t22 61t34.5 51.5t52 32t75 12.5q90 0 121.5 -47t16.5 -139q-19 -125 -188 -368l-83 -122h187l-14 -87h-332l244 387q74 122 85 196q6 37 -5.5 63.5t-46.5 26.5q-14 0 -25.5 -6t-19.5 -18t-14 -22.5t-10 -28t-6 -26.5t-4 -25.5t-2 -17.5l-3 -20
h-102z" />
    <glyph glyph-name="three" unicode="3" 
d="M237 347h-29l14 90h12q62 0 86.5 25t34.5 90q3 18 4.5 29t1.5 30.5t-3.5 31t-14 21t-26.5 9.5q-59 0 -75 -98l-4 -23h-96l2 7q6 38 13 65.5t20.5 55t32.5 45t48.5 28t69.5 10.5q46 0 75.5 -15t41.5 -41.5t14.5 -62t-5.5 -76.5q-5 -33 -11 -55.5t-18 -50t-33 -45.5
t-50 -27l-1 -2q38 -10 55.5 -38t16.5 -62.5t-6 -73.5q-35 -223 -208 -223q-84 0 -114.5 44.5t-17.5 130.5l4 23h96l-4 -24q-6 -36 5.5 -60t44.5 -24q17 0 31 6.5t23 19.5t16 25t11.5 31.5t6.5 30t5 28.5q4 33 4 61.5t-18.5 46.5t-54.5 17z" />
    <glyph glyph-name="four" unicode="4" 
d="M449 754l-74 -473h48l-12 -74h-48l-33 -207h-98l33 207h-203l13 86l276 461h98zM277 281l50 320h-2l-172 -320h124z" />
    <glyph glyph-name="five" unicode="5" 
d="M240 754h240l-13 -87h-163l-54 -190q98 4 138.5 -54t24.5 -158q-9 -55 -27.5 -101.5t-48 -86.5t-76 -63t-103.5 -23q-50 0 -113 31l41 89q1 -1 7.5 -4.5t8 -4.5t7 -4.5t8 -4.5l7.5 -3t8.5 -3t8 -2.5t9 -2t9.5 -1t10 -0.5q31 0 57 16.5t42 43t26 53.5t14 55
q11 69 -14.5 108.5t-92.5 39.5q-25 0 -63 -9z" />
    <glyph glyph-name="six" unicode="6" 
d="M315 754h108l-198 -322l2 -2q43 34 82 34q31 0 52 -10.5t31.5 -31t16.5 -42t5 -51.5t-3.5 -52t-6.5 -50q-6 -40 -13.5 -69.5t-22.5 -63t-35 -54.5t-53 -35t-75 -14q-36 0 -62 10.5t-40 30.5t-22 42.5t-8.5 54t2 58t7.5 59.5q11 69 29.5 128.5t51 122.5t56.5 103.5
t74 118.5q15 23 22 35zM302 226v4q3 18 4.5 28.5t3 30t0 32t-5.5 26t-14 20.5t-24 7q-8 0 -12.5 -0.5t-16.5 -8t-20.5 -21t-18.5 -44t-17 -73.5q-23 -146 39 -146q59 0 82 145z" />
    <glyph glyph-name="seven" unicode="7" 
d="M157 754h337l-348 -754h-108l316 667h-210z" />
    <glyph glyph-name="eight" unicode="8" 
d="M197 408v2q-79 27 -56 168q13 87 54.5 136t124.5 49q90 0 119.5 -45t14.5 -140q-23 -141 -109 -169v-1q27 -7 43 -26t20 -47t3 -53t-6 -56q-6 -39 -14 -69t-23.5 -62.5t-36 -54t-53 -35.5t-73.5 -14q-49 0 -80 19t-42 49.5t-13 70.5t7 82q3 24 6 39.5t9.5 39t15 39.5
t20.5 33t29.5 28.5t39.5 16.5zM218 81q62 0 82 126q2 15 2.5 19.5t3 22t2 25.5t-0.5 23t-3.5 23t-8.5 17.5t-13.5 13.5t-20.5 4q-17 0 -31 -11t-22 -25t-14.5 -37t-9 -36t-5.5 -33q-1 -4 -1 -6q-20 -126 40 -126zM278 453q17 0 31 12.5t22 32.5t12.5 36.5t7.5 33.5
q17 105 -38 105q-56 0 -73 -105q-2 -20 -4 -45.5t8.5 -47.5t33.5 -22z" />
    <glyph glyph-name="nine" unicode="9" 
d="M211 0h-109l200 315l-2 2q-36 -30 -81 -30q-28 0 -48.5 9.5t-31 27.5t-16.5 38.5t-6.5 47t1.5 48.5t6 48q5 30 9 51.5t12.5 50t18 49t25 42t34 34.5t45 21.5t58.5 8.5t55.5 -8.5t38.5 -21.5t24 -34t12 -41.5t2.5 -48.5t-3 -50.5t-7.5 -51.5q-18 -114 -58.5 -203
t-120.5 -214zM265 377q17 0 31.5 11t22.5 25t14.5 37t9 36t5.5 34q1 5 1 7q24 146 -37 146q-15 0 -27 -7.5t-20.5 -23t-14.5 -29t-10.5 -35t-6.5 -31t-4.5 -26.5t-4 -26.5t-3 -30t0 -33t5.5 -26.5t13.5 -21t24.5 -7z" />
    <glyph glyph-name="colon" unicode=":" horiz-adv-x="205" 
d="M102 -8q-25 0 -40 18t-11 43q4 24 24.5 41.5t45 17.5t39.5 -17.5t11 -41.5q-4 -25 -24 -43t-45 -18zM165 392q-25 0 -39.5 18t-10.5 43q4 24 24 41.5t45 17.5t40 -17.5t11 -41.5q-4 -25 -24.5 -43t-45.5 -18z" />
    <glyph glyph-name="semicolon" unicode=";" horiz-adv-x="205" 
d="M94 106l77 -25l-138 -265l-50 14zM165 392q-25 0 -39.5 18t-10.5 43q4 24 24 41.5t45 17.5t40 -17.5t11 -41.5q-4 -25 -24.5 -43t-45.5 -18z" />
    <glyph glyph-name="less" unicode="&#x3c;" horiz-adv-x="500" 
d="M79 222l10 64l450 232l-12 -73l-365 -191l305 -191l-12 -73z" />
    <glyph glyph-name="equal" unicode="=" horiz-adv-x="500" 
d="M518 384l-11 -70h-413l11 70h413zM488 194l-11 -70h-413l11 70h413z" />
    <glyph glyph-name="greater" unicode="&#x3e;" horiz-adv-x="500" 
d="M502 286l-10 -64l-450 -232l12 73l365 191l-305 191l12 73z" />
    <glyph glyph-name="question" unicode="?" horiz-adv-x="341" 
d="M239 178h-88l36 227l23 -1q21 0 37 7.5t25 17.5t15.5 29t9.5 32t6 37q1 3 3 14.5t3 19t3 21.5t2 23v21.5t-2.5 20.5t-6.5 15.5t-11 11.5t-16 4q-15 0 -26 -7.5t-17 -23t-8 -26t-5 -28.5q-1 -5 -1 -7l-3 -18h-94l2 12q6 35 11.5 58t17.5 49t28 41.5t43 25.5t62 10
q29 0 51 -6.5t36 -17.5t22 -28.5t11.5 -35t3 -43t-3 -46t-7.5 -49.5q-4 -26 -7 -42t-10 -43t-17 -44.5t-23.5 -35.5t-34 -26.5t-44.5 -8.5zM164.5 -8q-24.5 0 -39.5 17.5t-11 42.5t24.5 42.5t45 17.5t39.5 -17.5t11 -42.5t-24.5 -42.5t-45 -17.5z" />
    <glyph glyph-name="at" unicode="@" horiz-adv-x="800" 
d="M631 540l22 48h69l-153 -309q-19 -36 -21 -52q-2 -13 5 -21.5t20 -8.5q24 0 54.5 17t61 47.5t55.5 79t33 104.5q13 79 -18.5 138.5t-92.5 89t-139 29.5q-139 0 -246.5 -95.5t-129.5 -233.5q-21 -135 58.5 -228t216.5 -93q81 0 158.5 33.5t130.5 95.5h63
q-63 -88 -161.5 -139.5t-200.5 -51.5q-109 0 -191 52.5t-118.5 142.5t-18.5 196q17 104 83.5 192.5t164.5 139.5t204 51q69 0 129 -24t102 -66t61.5 -103t8.5 -130q-7 -46 -33.5 -98t-64.5 -96.5t-89.5 -73.5t-102.5 -29q-29 0 -52 13.5t-28 39.5q-27 -24 -61.5 -37.5
t-67.5 -13.5q-63 0 -95.5 44.5t-22.5 108.5q9 51 36 105.5t66.5 100t92.5 74.5t107 29q38 0 66 -17.5t39 -50.5zM367 211q36 0 73 30t64.5 72.5t46 86t23.5 74.5q5 30 -10.5 49.5t-46.5 19.5q-50 0 -97.5 -41t-76 -95t-36.5 -103q-6 -40 9 -66.5t51 -26.5z" />
    <glyph glyph-name="A" unicode="A" horiz-adv-x="414" 
d="M287 754h79l43 -754h-101l-5 147h-150l-51 -147h-98zM301 225l-3 109l5 274h-2l-120 -383h120z" />
    <glyph glyph-name="B" unicode="B" horiz-adv-x="418" 
d="M181 0h-120l119 754h125q98 0 128.5 -50t13.5 -152q-4 -31 -12 -55t-21.5 -48t-35.5 -40t-52 -24v-2q57 -19 73 -63t5 -114q-17 -107 -69 -156.5t-154 -49.5zM210 342l-41 -257q62 -3 90.5 27.5t38.5 96.5q11 69 -6 101.5t-82 31.5zM350 556q8 50 -7.5 82t-63.5 31h-17
l-39 -247q64 -3 90 31t37 103z" />
    <glyph glyph-name="C" unicode="C" horiz-adv-x="369" 
d="M471 742l-15 -91q-35 19 -61 19q-29 0 -53.5 -12t-42 -30t-32.5 -46.5t-24 -52t-17 -58t-11.5 -53t-7.5 -46.5q-4 -26 -7 -47.5t-4.5 -53t0.5 -55.5t9 -50t19 -43t33 -28t49 -11q32 0 63 15l-14 -88q-36 -21 -84 -21q-231 0 -171 375q6 38 12.5 70t19 74.5t27 76.5
t37 68.5t49 57.5t63.5 37.5t79 14.5q49 0 84 -22z" />
    <glyph glyph-name="D" unicode="D" horiz-adv-x="466" 
d="M180 754h112q25 0 40.5 -0.5t38.5 -4.5t37 -11t32 -21t27.5 -33.5t18.5 -49t11 -67t-1 -89.5t-13 -114q-9 -57 -21 -104t-25 -82.5t-31 -62.5t-34 -46t-39.5 -32t-43.5 -20t-49 -11t-52 -5t-58 -1h-69zM377 364q1 6 3 20q4 24 6 37t5 38.5t3.5 40.5t0.5 37.5t-4 37
t-9.5 32t-15.5 28t-23.5 19.5t-32.5 12.5t-43 2.5l-93 -584q26 -1 48 4t39 12.5t31.5 22.5t24 27.5t18.5 35t14 37.5t10.5 41.5t8 41t6.5 42.5z" />
    <glyph glyph-name="E" unicode="E" horiz-adv-x="347" 
d="M180 754h269l-13 -87h-169l-38 -237h151l-14 -87h-151l-40 -256h169l-14 -87h-269z" />
    <glyph glyph-name="F" unicode="F" horiz-adv-x="342" 
d="M180 754h271l-13 -87h-171l-38 -237h154l-14 -87h-154l-54 -343h-100z" />
    <glyph glyph-name="G" unicode="G" horiz-adv-x="460" 
d="M301 398h184l-2 -12q-2 -11 -7 -45.5t-7.5 -51.5t-9.5 -51.5t-13 -53.5t-17 -49t-23 -47.5t-29 -38.5t-36.5 -32t-45 -19t-55.5 -8q-37 0 -65 10.5t-46 28t-29 46t-15 59t-2 72.5t6 80.5t12 88.5q8 51 15.5 88.5t19 80.5t24.5 73.5t32 59.5t41.5 47t53.5 29t67 11
q78 0 115 -38t45 -116l-102 -39q0 23 -2.5 37.5t-9.5 30t-21.5 23.5t-36.5 8q-20 0 -36 -8.5t-29 -28t-22 -41.5t-18 -59.5t-15 -71t-14 -85.5q-12 -76 -16 -131t-1 -85.5t12.5 -48t20 -22.5t25.5 -5q16 0 26 2t24.5 12t24.5 28.5t21.5 55t19.5 88.5l6 41h-84z" />
    <glyph glyph-name="H" unicode="H" horiz-adv-x="473" 
d="M180 754h100l-46 -294h151l46 294h100l-119 -754h-100l59 373h-151l-59 -373h-100z" />
    <glyph glyph-name="I" unicode="I" horiz-adv-x="222" 
d="M280 754l-119 -754h-100l119 754h100z" />
    <glyph glyph-name="J" unicode="J" horiz-adv-x="303" 
d="M361 754l-89 -567q-6 -36 -13 -62t-20 -53t-31.5 -44t-47.5 -27.5t-68 -10.5q-50 0 -82 20l16 102q39 -26 62 -26q19 0 33.5 6.5t22.5 15.5t14.5 25.5t8.5 27.5t5 31l89 562h100z" />
    <glyph glyph-name="K" unicode="K" horiz-adv-x="424" 
d="M180 754h102l-57 -362l198 362h103l-205 -365l98 -389h-115l-80 382l-61 -382h-102z" />
    <glyph glyph-name="L" unicode="L" horiz-adv-x="331" 
d="M180 754h100l-105 -667h168l-14 -87h-268z" />
    <glyph glyph-name="M" unicode="M" horiz-adv-x="561" 
d="M205 754h86l21 -544h2l8 31l59 181l117 332h88l-49 -754h-98l27 281l16 140l13 99h-2l-34 -108l-143 -412h-69l-15 520h-2l-111 -520h-95z" />
    <glyph glyph-name="N" unicode="N" horiz-adv-x="472" 
d="M232 579l-2 -49l-25 -253l-44 -277h-100l119 754h96l86 -573l2 2l24 302l42 269h100l-119 -754h-93l-84 581z" />
    <glyph glyph-name="O" unicode="O" horiz-adv-x="476" 
d="M359 764q31 0 56 -9.5t42 -23.5t28 -37.5t17 -45.5t8 -54t1.5 -55.5t-4 -58t-6 -54t-7.5 -49.5q-7 -40 -11.5 -65t-15.5 -70t-22.5 -75t-32 -66.5t-44 -58.5t-57.5 -37t-75 -15q-31 0 -56 9.5t-41.5 23.5t-28 37.5t-17.5 45.5t-8 54t-1.5 55.5t4 58t6.5 54t8 49.5
q6 40 10.5 65t15.5 70t23 75t32 66.5t44 58.5t58 37t74 15zM344 670q-28 0 -50.5 -22t-38 -66t-26.5 -90.5t-21 -114.5q-7 -44 -11 -77.5t-6.5 -69t0 -60.5t9 -45.5t19.5 -30.5t32 -10q29 0 51 22t38 66t26.5 90.5t21.5 114.5q7 44 11 77.5t6.5 69t0 60.5t-9 45.5t-20 30.5
t-32.5 10z" />
    <glyph glyph-name="P" unicode="P" horiz-adv-x="388" 
d="M161 0h-100l119 754h120q18 0 30 -0.5t29 -2.5t29 -6t26 -11.5t23 -17.5t17.5 -25.5t12 -35t3 -45.5t-5.5 -58q-18 -117 -77 -169.5t-173 -48.5zM281 669h-14l-40 -250q61 -4 90.5 27t39.5 98q20 125 -76 125z" />
    <glyph glyph-name="Q" unicode="Q" horiz-adv-x="479" 
d="M455 -12l-72 -46l-41 79q-42 -31 -106 -31q-31 0 -56 9.5t-41.5 23.5t-28 37.5t-17.5 45.5t-8 54t-1.5 55.5t4 58t6.5 54t8 49.5q6 40 10.5 65t15.5 70t23 75t32 66.5t44 58.5t58 37t74 15q31 0 56 -9.5t42 -23.5t28 -37.5t17 -45.5t8 -54t1.5 -55.5t-4 -58t-6 -54
t-7.5 -49.5q-32 -202 -92 -295zM344 670q-28 0 -50.5 -22t-38 -66t-26.5 -90.5t-21 -114.5q-7 -44 -11 -77.5t-6.5 -69t0 -60.5t9 -45.5t19.5 -30.5t32 -10q27 0 44 16l-49 91l69 48l29 -54h2q29 112 42 192q7 44 11 77.5t6.5 69t0 60.5t-9 45.5t-20 30.5t-32.5 10z" />
    <glyph glyph-name="R" unicode="R" horiz-adv-x="416" 
d="M61 0l119 754h120q16 0 26.5 -0.5t26.5 -2.5t27 -5t25 -10t23 -16.5t17.5 -24.5t12 -33.5t4 -44t-4.5 -56.5q-5 -30 -14.5 -59t-25 -58.5t-40.5 -50.5t-55 -26l81 -367h-104l-78 369h-2l-58 -369h-100zM228 420q99 -7 119 119q5 37 5.5 66t-16.5 47t-53 17h-16z" />
    <glyph glyph-name="S" unicode="S" horiz-adv-x="354" 
d="M411 739l-17 -101q-39 32 -80 32q-40 0 -69 -28.5t-35 -68.5q-7 -46 15 -82l63 -83q48 -59 65.5 -104.5t6.5 -116.5q-13 -83 -70.5 -140t-138.5 -57q-65 0 -104 36l16 101q47 -39 93 -39q44 0 70.5 30t34.5 75q4 30 -3 57.5t-22.5 48.5t-34.5 43.5t-38 43.5t-33.5 49.5
t-20.5 60t0 75.5q14 84 66.5 138.5t133.5 54.5q64 0 102 -25z" />
    <glyph glyph-name="T" unicode="T" horiz-adv-x="323" 
d="M115 754h331l-13 -87h-113l-106 -667h-100l106 667h-118z" />
    <glyph glyph-name="U" unicode="U" horiz-adv-x="467" 
d="M180 754h100l-87 -553q-11 -68 3 -92.5t48 -24.5q48 0 65.5 25.5t27.5 80.5l89 564h100l-84 -535l-6 -34.5t-7 -34t-10 -35t-14 -32t-19 -31t-25.5 -25t-33.5 -20.5t-42 -12t-53 -5q-33 0 -58 6.5t-41.5 17.5t-26.5 29.5t-14.5 37t-4 46t3 51t7.5 56.5z" />
    <glyph glyph-name="V" unicode="V" horiz-adv-x="387" 
d="M126 754h100l-3 -567h2l12 47l80 254l88 266h95l-267 -754h-80z" />
    <glyph glyph-name="W" unicode="W" horiz-adv-x="592" 
d="M121 754h98l-10 -511l-4 -56h2l70 253l101 314h78l-7 -562h2l66 242l96 320h97l-251 -754h-80l-1 351l7 190l2 19h-2l-54 -203l-117 -357h-82z" />
    <glyph glyph-name="X" unicode="X" horiz-adv-x="427" 
d="M152 754h99l27 -134q18 -89 18 -138h2l44 104l79 168h102l-197 -371l78 -383h-102l-25 132q-19 102 -17 150h-2q-6 -31 -33 -87l-93 -195h-108l204 383z" />
    <glyph glyph-name="Y" unicode="Y" horiz-adv-x="392" 
d="M121 754h108l37 -349h2l32 97l103 252h107l-208 -429l-51 -325h-100l51 325z" />
    <glyph glyph-name="Z" unicode="Z" horiz-adv-x="393" 
d="M161 754h333l-332 -667h215l-14 -87h-348l335 667h-202z" />
    <glyph glyph-name="bracketleft" unicode="[" horiz-adv-x="300" 
d="M157 754h219l-10 -68h-133l-115 -721h133l-10 -68h-219z" />
    <glyph glyph-name="backslash" unicode="\" horiz-adv-x="250" 
d="M23 830h79l240 -933h-81z" />
    <glyph glyph-name="bracketright" unicode="]" horiz-adv-x="300" 
d="M162 754h219l-135 -857h-219l10 68h133l115 721h-133z" />
    <glyph glyph-name="asciicircum" unicode="^" horiz-adv-x="500" 
d="M344 754h49l117 -417h-67l-89 324l-191 -324h-66z" />
    <glyph glyph-name="underscore" unicode="_" horiz-adv-x="500" 
d="M-12 -75h500l-8 -50h-500z" />
    <glyph glyph-name="grave" unicode="`" horiz-adv-x="280" 
d="M177 703l74 43l59 -149l-55 -29z" />
    <glyph glyph-name="a" unicode="a" horiz-adv-x="380" 
d="M243 0l10 65h-2q-22 -37 -44.5 -55t-59.5 -18q-24 0 -41.5 11t-27.5 27t-14.5 41.5t-5.5 47.5t1.5 52t4.5 47t6 41q5 28 9 48.5t12.5 54t20.5 57t28 46.5t40 35.5t52 12.5q61 0 80 -64h2l9 56h94l-80 -505h-94zM199 76q60 0 86 170q1 5 1 7t1 7q28 169 -32 169
q-11 0 -21 -4.5t-18 -13.5t-14 -18.5t-11 -24t-8.5 -25t-7 -27t-4.5 -24.5t-3.5 -22.5t-2.5 -16.5t-2.5 -16.5t-4 -23t-3.5 -25t-1.5 -27t0.5 -25t3.5 -24t8.5 -18.5t13.5 -13.5t19.5 -4.5z" />
    <glyph glyph-name="b" unicode="b" horiz-adv-x="380" 
d="M43 0l131 830h94l-60 -381h2q21 32 43.5 48t56.5 16q25 0 43 -10t28 -25t15.5 -39t6.5 -44.5t-1 -49t-4 -45.5t-6 -41q-5 -29 -9 -49.5t-12.5 -55.5t-20.5 -60t-28 -50t-39.5 -38.5t-51.5 -13.5q-38 0 -54.5 18t-27.5 55h-2l-10 -65h-94zM205 76q11 0 21 4.5t18 13.5
t14 18.5t11 24.5l8.5 25.5t7 27t5 24.5t3.5 22.5t2 16.5t2.5 16.5t4 22.5t3.5 24.5t1.5 27t-0.5 25t-3.5 24t-8.5 18.5t-13.5 13.5t-19.5 4.5q-60 0 -86 -169q-1 -5 -1 -7t-1 -7q-28 -169 32 -170z" />
    <glyph glyph-name="c" unicode="c" horiz-adv-x="278" 
d="M333 496l-15 -95h-2q-12 23 -41 24q-19 0 -35 -8.5t-27.5 -24t-19.5 -31t-13.5 -37.5t-8 -35.5t-5.5 -31.5q-28 -177 53 -177q22 0 51 19l-14 -87q-38 -20 -79 -20q-149 0 -109 256q6 38 13 68.5t22 69t34.5 64.5t51.5 44.5t71.5 18.5t72.5 -17z" />
    <glyph glyph-name="d" unicode="d" horiz-adv-x="380" 
d="M243 0l10 65h-2q-22 -37 -44.5 -55t-59.5 -18q-24 0 -41.5 11t-27.5 27t-14.5 41.5t-5.5 47.5t1.5 52t4.5 47t6 41q5 28 9 48.5t12.5 54t20.5 57t28 46.5t40 35.5t52 12.5q34 0 51.5 -16t28.5 -48h2l60 381h94l-131 -830h-94zM199 76q60 0 86 170q1 5 1 7t1 7
q28 169 -32 169q-11 0 -21 -4.5t-18 -13.5t-14 -18.5t-11 -24t-8.5 -25t-7 -27t-4.5 -24.5t-3.5 -22.5t-2.5 -16.5t-2.5 -16.5t-4 -23t-3.5 -25t-1.5 -27t0.5 -25t3.5 -24t8.5 -18.5t13.5 -13.5t19.5 -4.5z" />
    <glyph glyph-name="e" unicode="e" horiz-adv-x="361" 
d="M370 234h-208q0 -1 -1 -4q-24 -154 35 -154t74 94h87q-12 -77 -56.5 -127.5t-118.5 -50.5q-34 0 -58.5 11t-37.5 32t-20 45t-7 55.5t2 57t7 56.5q6 38 13 68t22 68.5t34.5 64.5t51.5 44.5t72 18.5q153 0 111 -264zM173 301h112q2 14 3 23.5t2.5 27t-0.5 29t-6 23.5
t-13 18.5t-23 6.5q-16 0 -28.5 -9t-20 -20.5t-13 -31.5t-7.5 -31t-5 -29q-1 -5 -1 -7z" />
    <glyph glyph-name="f" unicode="f" horiz-adv-x="249" 
d="M101 505h47l26 163q5 31 9.5 51.5t15 45t24.5 39t37.5 24.5t54.5 10q30 0 61 -14l-16 -98q-20 12 -37 12q-7 0 -13 -1.5t-10.5 -3.5t-9 -6.5l-7 -7t-5 -9.5t-4 -9.5t-3 -11t-2 -10.5t-2 -11.5t-1.5 -10.5l-24 -152h78l-12 -74h-78l-68 -431h-94l68 431h-47z" />
    <glyph glyph-name="g" unicode="g" horiz-adv-x="382" 
d="M419 505l-81 -509q-10 -66 -26.5 -108.5t-41 -64.5t-51.5 -30t-68 -8q-69 0 -103 38t-23 108l2 14h91q-6 -31 5 -53.5t43 -22.5q10 0 19 2t15.5 7t11.5 8.5t9 12.5t6 13t4.5 16t3.5 15.5t3 17t2 15.5l14 84h-2q-16 -32 -42 -50.5t-59 -17.5q-25 0 -43 10t-28.5 25.5
t-16 39.5t-6.5 44.5t1 49.5t4.5 46.5t5.5 41.5q5 27 7 41t9.5 46t14.5 51.5t20.5 46.5t28 42t36.5 26t47 11q35 0 52.5 -17t28.5 -51l3 2l9 58h95zM285 250q28 179 -33 179t-85 -165q-1 -7 -1.5 -9t-1.5 -9q-29 -170 35 -170q14 0 25.5 7t20 21t14.5 27t10.5 34t7 32t5 31
t3.5 22z" />
    <glyph glyph-name="h" unicode="h" horiz-adv-x="388" 
d="M175 830h94l-60 -383h2q44 66 112 66q25 0 42 -6.5t25.5 -20t13.5 -27t4 -36t-2.5 -37t-5.5 -39.5l-55 -347h-94l55 349q13 80 -43 80q-17 0 -29.5 -7.5t-19.5 -16.5t-12.5 -26t-7.5 -27t-5 -28q-1 -6 -1 -9l-50 -315h-94z" />
    <glyph glyph-name="i" unicode="i" horiz-adv-x="180" 
d="M217 505l-80 -505h-94l80 505h94zM185 595q-26 0 -41.5 18.5t-11.5 44.5t25.5 44t47.5 18q25 0 40.5 -18.5t11.5 -43.5q-4 -26 -25.5 -44.5t-46.5 -18.5z" />
    <glyph glyph-name="j" unicode="j" horiz-adv-x="180" 
d="M217 505l-113 -712h-94l113 712h94zM185 595q-26 0 -41.5 18.5t-11.5 44.5t25.5 44t47.5 18q25 -1 40.5 -19.5t11.5 -43.5q-4 -26 -25.5 -44.5t-46.5 -17.5z" />
    <glyph glyph-name="k" unicode="k" horiz-adv-x="395" 
d="M175 830h94l-86 -549h2l152 224h105l-164 -224l101 -281h-109l-88 268h-2l-42 -268h-94z" />
    <glyph glyph-name="l" unicode="l" horiz-adv-x="180" 
d="M268 830l-131 -830h-94l131 830h94z" />
    <glyph glyph-name="m" unicode="m" horiz-adv-x="590" 
d="M218 505l-10 -62h2q43 70 110 70q34 0 56 -18.5t24 -51.5h2q43 70 115 70q62 0 81.5 -32.5t10.5 -89.5l-62 -391h-94l56 354q2 19 2.5 36t-9.5 28t-32 11q-11 0 -20 -2t-16 -7t-12 -9t-9.5 -12.5t-7 -13.5t-4.5 -16.5t-3 -15.5t-3 -16.5t-2 -15.5l-51 -321h-94l54 343
q2 16 2.5 21t1.5 18.5t-1.5 19t-7 13.5t-13.5 11t-22 3q-11 0 -20 -3.5t-15.5 -7t-12 -12.5t-8.5 -14.5t-6.5 -18t-4.5 -17t-4 -18.5t-3 -17l-51 -321h-94l80 505h95z" />
    <glyph glyph-name="n" unicode="n" horiz-adv-x="388" 
d="M218 505l-9 -58h2q44 66 112 66q24 0 41.5 -6.5t26 -20t13 -27t4 -35.5t-2 -37.5t-5.5 -39.5l-55 -347h-94l55 349q13 80 -43 80q-17 0 -29.5 -7.5t-19.5 -16.5t-12.5 -26t-7.5 -27t-5 -28q-1 -6 -1 -9l-50 -315h-94l80 505h94z" />
    <glyph glyph-name="o" unicode="o" horiz-adv-x="375" 
d="M187 -8q-35 0 -60 11.5t-38.5 32.5t-21 45t-7.5 56t2 57.5t7 56.5q6 39 13.5 70t23 69t36 63t53.5 42.5t74 17.5q35 0 60 -11.5t38.5 -32.5t21 -45.5t7.5 -56.5t-2 -58t-7 -58q-6 -38 -13.5 -68.5t-23 -68t-36 -62.5t-53.5 -42.5t-74 -17.5zM200 78q13 0 24.5 6.5
t19.5 15t15 24t11.5 27t8.5 30t5.5 27.5t4 25.5t2.5 17.5q0 3 2.5 16.5t3.5 22t3 24.5t2 27v25.5t-3.5 24t-8.5 18.5t-14 13.5t-20 4.5q-13 0 -24.5 -6.5t-19.5 -15t-15 -24t-11.5 -27t-8.5 -30.5t-5.5 -28t-4 -26.5t-2.5 -18.5q-1 -2 -3 -15t-3.5 -21.5t-3 -24t-1.5 -26.5
v-25.5t3.5 -24t8.5 -18.5t14 -13.5t20 -4.5z" />
    <glyph glyph-name="p" unicode="p" horiz-adv-x="380" 
d="M217 505l-10 -65h2q21 36 44.5 54.5t59.5 18.5q24 0 41.5 -11t27.5 -27t14.5 -41.5t5.5 -47t-1 -51.5t-4.5 -47t-6.5 -41q-4 -29 -8.5 -49.5t-13 -54t-20.5 -57t-28 -46.5t-40 -35.5t-52 -12.5q-35 0 -52.5 16t-27.5 49h-2l-42 -264h-94l113 712h94zM205 76
q21 0 36.5 14.5t26 43.5t16 54t11.5 64q0 2 2.5 16.5t3.5 22.5t3.5 24.5t2 27.5t-0.5 25.5t-3.5 24t-8.5 18.5t-13.5 13.5t-19.5 4.5q-60 0 -86 -170q-1 -5 -1 -7t-1 -7q-28 -169 32 -169z" />
    <glyph glyph-name="q" unicode="q" horiz-adv-x="380" 
d="M417 505l-113 -712h-94l42 264h-2q-21 -33 -43.5 -49t-56.5 -16q-25 0 -43 10t-28 25t-15.5 39t-6.5 44.5t1 49t4 46t6 41.5q5 29 9 49t12.5 55.5t20.5 60t28 50t39.5 38.5t51.5 13q37 0 55 -18.5t27 -54.5h2l10 65h94zM199 76q60 0 86 169q1 5 1 7t1 7q28 170 -32 170
q-11 0 -21 -4.5t-18 -13.5t-14 -18.5t-11 -24t-8.5 -25t-7 -27t-5 -25t-3.5 -23t-2 -16.5t-2.5 -16.5t-4 -22.5t-3.5 -24.5t-2 -27t0.5 -25t4 -24t8.5 -18.5t13.5 -13.5t19.5 -4.5z" />
    <glyph glyph-name="r" unicode="r" horiz-adv-x="269" 
d="M218 505l-10 -62h2q46 70 118 70l-14 -93l-16 1q-50 0 -75.5 -26t-33.5 -77l-50 -318h-95l80 505h94z" />
    <glyph glyph-name="s" unicode="s" horiz-adv-x="276" 
d="M312 491l-14 -89q-26 27 -66 27q-27 0 -48 -14.5t-25 -39.5q-3 -23 10.5 -42.5t34 -35.5t40.5 -34.5t31.5 -49.5t4.5 -71q-10 -67 -55.5 -108.5t-112.5 -41.5q-43 0 -78 24l14 92q35 -32 73 -32q30 0 49 17t24 47q4 24 -9 44.5t-33.5 37t-41 35.5t-32 49t-5.5 69
q10 60 54 99t103 39q48 0 82 -22z" />
    <glyph glyph-name="t" unicode="t" horiz-adv-x="221" 
d="M166 648h94l-23 -143h50l-12 -74h-50l-68 -431h-94l68 431h-51l12 74h51z" />
    <glyph glyph-name="u" unicode="u" horiz-adv-x="389" 
d="M124 505h94l-50 -316q-1 -3 -2 -11q-2 -15 -3 -23t-2 -22t1.5 -22t7 -16.5t14.5 -12.5t24 -4q12 0 21.5 3t16 6.5t12 12.5t8.5 13.5t6 17.5t3.5 17t3 19t2.5 17l51 321h94l-54 -341q-13 -84 -52.5 -128t-120.5 -44q-50 0 -80 14t-41 39t-12 60.5t7 78.5z" />
    <glyph glyph-name="v" unicode="v" horiz-adv-x="358" 
d="M93 505h100l7 -382h2l8 30l70 204l54 148h91l-213 -505h-62z" />
    <glyph glyph-name="w" unicode="w" horiz-adv-x="487" 
d="M77 505h99l-2 -352l-1 -10h2l47 157l71 205h67l1 -352l-1 -10h2l55 188l61 174h92l-199 -505h-64l-10 259l8 112h-2l-51 -181l-67 -190h-65z" />
    <glyph glyph-name="x" unicode="x" horiz-adv-x="395" 
d="M94 505h110l44 -173l35 75l57 98h98l-152 -238l96 -267h-111l-33 109q-18 69 -18 96h-2q-8 -36 -51 -111l-55 -94h-98l168 267z" />
    <glyph glyph-name="y" unicode="y" horiz-adv-x="373" 
d="M84 505h105l18 -352h2l141 352h95l-319 -712h-99l117 248z" />
    <glyph glyph-name="z" unicode="z" horiz-adv-x="335" 
d="M107 505h294l-236 -421h160l-13 -84h-298l242 421h-162z" />
    <glyph glyph-name="braceleft" unicode="{" horiz-adv-x="258" 
d="M50 301l8 52q40 5 67.5 22t35.5 59l30 188q11 73 50 102.5t102 29.5h31l-9 -57q-44 -4 -65.5 -23t-26.5 -64l-26 -159q-8 -53 -32 -82.5t-81 -40.5v-2q53 -11 68 -40.5t6 -82.5l-25 -159q-9 -45 6.5 -64t58.5 -23l-9 -57h-31q-64 0 -93.5 29.5t-17.5 102.5l30 188
q5 42 -17 59t-60 22z" />
    <glyph glyph-name="bar" unicode="|" horiz-adv-x="250" 
d="M215 786h70l-159 -1000h-70z" />
    <glyph glyph-name="braceright" unicode="}" horiz-adv-x="258" 
d="M-13 -100l9 57q45 4 66 23t27 64l25 159q9 53 33 82.5t81 40.5v2q-53 11 -68 40.5t-7 82.5l26 159q8 45 -7 64t-59 23l9 57h31q64 0 93.5 -29.5t18.5 -102.5l-30 -188q-6 -42 16 -59t61 -22l-8 -52q-40 -5 -67.5 -22t-35.5 -59l-30 -188q-12 -73 -50.5 -102.5
t-102.5 -29.5h-31z" />
    <glyph glyph-name="asciitilde" unicode="~" horiz-adv-x="500" 
d="M213 331q34 0 91 -35q4 -2 14.5 -8t15 -8.5t13 -7t14 -6.5t11.5 -3.5t11 -1.5q44 0 94 83l27 -47q-67 -111 -134 -111q-8 0 -18.5 3t-24 9t-21.5 10t-22.5 12.5t-17.5 9.5q-43 25 -65 25q-15 0 -29 -7.5t-27 -23.5t-20.5 -27t-20.5 -32l-26 48q32 53 64 85.5t71 32.5z
" />
    <glyph glyph-name="nbspace" unicode="&#xa0;" horiz-adv-x="205" 
 />
    <glyph glyph-name="exclamdown" unicode="&#xa1;" horiz-adv-x="252" 
d="M45 -205l90 573h100l-90 -573h-100zM214.5 557q24.5 0 39.5 -17.5t11 -41.5q-4 -25 -24.5 -43t-45.5 -18t-39.5 18t-10.5 43q4 24 24.5 41.5t45 17.5z" />
    <glyph glyph-name="cent" unicode="&#xa2;" 
d="M228 51l10 63q-27 8 -46 22t-28.5 35t-14.5 41.5t-4 50.5t3.5 52.5t8 57t11.5 61.5t19 63.5t29.5 62.5t43.5 47t61 28l11 70h47l-12 -72q27 -4 45 -11l-15 -89q-13 13 -37 13q-17 0 -32 -8.5t-25 -25t-17.5 -31.5t-13 -38.5t-7.5 -35.5t-5 -31q-28 -175 47 -175
q11 0 40 11l-14 -83q-20 -12 -50 -13l-10 -65h-45z" />
    <glyph glyph-name="sterling" unicode="&#xa3;" 
d="M134 125l15 -1q25 35 31 74q6 37 -6 89h-88l7 39h74q-2 5 -5 15q-9 29 -13 44t-10.5 41.5t-8.5 46t-2 44t3 48.5q15 91 72.5 144.5t147.5 53.5q69 0 104 -39.5t27 -108.5l-84 -38q9 46 -4 75t-57 29q-43 0 -71.5 -27t-34.5 -70q-4 -21 -4 -44.5t2 -43t6.5 -45t8.5 -42
t11 -43t10 -40.5h97l-7 -39h-91q6 -33 1 -67q-11 -66 -43 -115q4 -2 14 -8.5t16.5 -10t16 -6.5t17.5 -3q24 0 42 34l77 -27q-47 -93 -121 -93q-35 0 -81.5 24t-64.5 24q-26 0 -39 -34l-72 31q9 35 40.5 62t66.5 27z" />
    <glyph glyph-name="currency" unicode="&#xa4;" 
d="M514 741l-23 -83q-37 15 -62 15q-146 0 -198 -217h205l-14 -50h-201l-5 -34q-5 -31 -7 -48h191l-14 -50h-181q-5 -194 135 -194q30 0 61 11l-13 -85q-35 -16 -80 -16q-219 0 -201 284h-44l14 50h34l13 82h-40l14 50h37q75 307 289 307q54 0 90 -22z" />
    <glyph glyph-name="yen" unicode="&#xa5;" 
d="M268 0h-100l42 264h-118l8 50h118l1 11l-14 71h-92l8 50h74l-65 308h108l43 -348h2l30 96l99 252h107l-143 -308h81l-8 -50h-96l-34 -71l-1 -11h118l-8 -50h-118z" />
    <glyph glyph-name="brokenbar" unicode="&#xa6;" horiz-adv-x="250" 
d="M195 661h70l-40 -250h-70zM116 161h70l-40 -250h-70z" />
    <glyph glyph-name="section" unicode="&#xa7;" horiz-adv-x="415" 
d="M465 598h-102q1 13 0 27t-4 26t-13 19.5t-26 7.5q-57 0 -69 -81q-8 -47 12.5 -70.5t69.5 -42.5q68 -30 94.5 -71.5t20.5 -98.5q-8 -47 -35.5 -90.5t-68.5 -68.5q49 -46 36 -127q-12 -77 -59.5 -121.5t-124.5 -44.5q-78 0 -115 42t-25 120l3 19h102q-15 -95 45 -95
q33 0 52 22.5t24 57.5q4 24 -1 42.5t-21 34t-27 23.5t-35 23l-15 9q-12 8 -18 11.5t-16 11t-15.5 12t-13.5 12t-11.5 14t-8.5 15t-7 17.5t-4 20.5t-1.5 24t1.5 27.5q16 98 102 142q-54 39 -38 137q11 71 60.5 115.5t119.5 44.5q75 0 108 -45t24 -121zM269 220l14 -9
q59 41 67 92q2 10 2 19t-1 16t-6.5 15t-8 12.5t-11.5 11t-12 9t-15 9t-15 8t-16 8.5l-22 12q-50 -37 -57 -85q-4 -22 1 -40t20.5 -33.5t26 -23t33.5 -21.5z" />
    <glyph glyph-name="dieresis" unicode="&#xa8;" horiz-adv-x="280" 
d="M318 604q-24 0 -38.5 15.5t-11.5 39.5q4 24 23 41t45 17q22 0 35.5 -16.5t10.5 -38.5q-4 -23 -22.5 -40.5t-41.5 -17.5zM157 604q-24 0 -38.5 15.5t-11.5 39.5q4 24 23 41t45 17q22 0 35.5 -16.5t10.5 -38.5q-4 -23 -23 -40.5t-41 -17.5z" />
    <glyph glyph-name="copyright" unicode="&#xa9;" horiz-adv-x="800" 
d="M399 -10q-105 0 -186.5 51.5t-119 141t-20.5 195.5q17 105 82.5 194t163 140.5t203.5 51.5q105 0 186 -51.5t119 -140.5t21 -194q-17 -106 -83 -195.5t-163 -141t-203 -51.5zM136 377q-22 -138 57 -231.5t216 -92.5q138 -1 246 92.5t130 231.5q14 89 -16.5 163.5
t-98.5 117.5t-158 43q-137 0 -246 -94t-130 -230zM582 307h65q-18 -67 -76.5 -109t-127.5 -42q-97 0 -146.5 64t-34.5 161q16 97 84 160t165 63q70 0 114 -39.5t45 -107.5h-65q1 44 -28 69t-74 25q-73 0 -118.5 -46.5t-56.5 -122.5q-12 -74 19.5 -123.5t103.5 -49.5
q46 0 82.5 26t48.5 72z" />
    <glyph glyph-name="ordfeminine" unicode="&#xaa;" horiz-adv-x="172" 
d="M245 759h61l-48 -303h-61l6 39h-2q-13 -22 -27.5 -33t-39.5 -11q-18 0 -30.5 8t-18 23t-8.5 30t-1.5 36.5t3 33.5t4.5 30q3 17 5.5 29t7.5 32t12.5 34t18 28t26 21.5t33.5 7.5q38 0 53 -38h1zM201 714q-7 0 -13.5 -2.5t-11.5 -8t-9 -11t-7 -14.5t-5 -15.5t-4 -16.5
t-3 -14.5t-2.5 -13.5t-1.5 -10t-1.5 -10t-2 -14t-2 -15t-1 -16t0.5 -15t2.5 -15t5.5 -11.5t8.5 -8t12.5 -2.5q39 0 56 107q17 106 -22 106z" />
    <glyph glyph-name="guillemotleft" unicode="&#xab;" horiz-adv-x="357" 
d="M186 260l164 222l41 -27l-146 -195l73 -199l-48 -25zM67 260l164 222l41 -27l-146 -195l73 -199l-48 -25z" />
    <glyph glyph-name="logicalnot" unicode="&#xac;" horiz-adv-x="500" 
d="M406 117l31 197h-343l11 70h413l-42 -267h-70z" />
    <glyph glyph-name="registered" unicode="&#xae;" horiz-adv-x="800" 
d="M399 -10q-105 0 -186.5 51.5t-119 141t-20.5 195.5q17 105 82.5 194t163 140.5t203.5 51.5q105 0 186 -51.5t119 -140.5t21 -194q-17 -106 -83 -195.5t-163 -141t-203 -51.5zM409 53q138 -1 246 92.5t130 231.5q14 89 -16.5 163.5t-98.5 117.5t-158 43q-137 0 -246 -94
t-130 -230q-22 -138 57 -231.5t216 -92.5zM511 357l99 -196h-70l-92 196h-84l-31 -196h-61l68 435h190q25 0 38 -1t31.5 -6.5t32.5 -16.5q21 -13 30.5 -39t4.5 -54q-10 -63 -52 -91.5t-104 -30.5zM371 404h74h20.5h22.5t21.5 1t23 3t20 5.5t19 9.5t14.5 13.5t12.5 19
t6.5 25.5q4 22 -2.5 36.5t-21.5 21t-31 8.5t-39 2h-117z" />
    <glyph glyph-name="macron" unicode="&#xaf;" horiz-adv-x="280" 
d="M401 657h-313l9 58h313z" />
    <glyph glyph-name="degree" unicode="&#xb0;" horiz-adv-x="400" 
d="M319.5 754q61.5 0 98.5 -44t28 -106q-10 -62 -61 -106t-113 -44t-99 44t-27 106q9 61 60.5 105.5t113 44.5zM310 692q-36 0 -66.5 -26t-35.5 -62q-6 -37 16 -62.5t58 -25.5t66 25.5t36 62.5q5 36 -16.5 62t-57.5 26z" />
    <glyph glyph-name="plusminus" unicode="&#xb1;" horiz-adv-x="500" 
d="M271 351l24 156h70l-24 -156h172l-11 -70h-172l-26 -159h-70l26 159h-171l11 70h171zM44 2l11 70h413l-11 -70h-413z" />
    <glyph glyph-name="twosuperior" unicode="&#xb2;" horiz-adv-x="247" 
d="M247 763q60 0 82 -28.5t13 -83.5q-12 -75 -120 -221l-53 -69h122l-9 -56h-219l12 23l140 209q46 72 54 118q3 21 -3.5 36.5t-27.5 15.5q-8 0 -15 -3.5t-12 -10.5t-8.5 -13t-6 -16.5t-3.5 -16t-2 -15t-1 -10.5l-2 -12h-73l2 17q5 32 11.5 52.5t20 41.5t38 31.5t60.5 10.5z
" />
    <glyph glyph-name="threesuperior" unicode="&#xb3;" horiz-adv-x="247" 
d="M256 539v-2q26 -5 38.5 -21.5t11.5 -37.5t-3 -44q-10 -63 -41.5 -99t-95.5 -36q-56 0 -77 26.5t-13 78.5l2 14h69l-2 -15q-4 -20 3 -34t27 -14q15 0 25.5 8t16.5 23.5t8.5 25.5t5.5 27q5 35 -3.5 55.5t-43.5 19.5h-19l9 54h8q41 0 56.5 14.5t21.5 54.5q2 13 2.5 21.5
t0 21.5t-6.5 20t-18 7q-36 0 -45 -57l-2 -13h-69l5 4q5 59 29.5 90.5t88.5 31.5q59 0 77 -31t9 -86q-3 -19 -6.5 -33t-11.5 -30t-22.5 -27.5t-34.5 -16.5z" />
    <glyph glyph-name="acute" unicode="&#xb4;" horiz-adv-x="280" 
d="M326 703l-120 -135l-45 29l105 149z" />
    <glyph glyph-name="paragraph" unicode="&#xb6;" horiz-adv-x="440" 
d="M139 -112l77 482q-63 -1 -101 56t-26 134q14 89 75 146q32 30 62 38.5t76 9.5h208l-137 -866h-79l127 799h-76l-127 -799h-79z" />
    <glyph glyph-name="periodcentered" unicode="&#xb7;" horiz-adv-x="205" 
d="M134 195q-25 0 -39.5 18t-10.5 43q3 24 23.5 41.5t45.5 17.5t39.5 -17.5t11.5 -41.5q-4 -25 -24.5 -43t-45.5 -18z" />
    <glyph glyph-name="cedilla" unicode="&#xb8;" horiz-adv-x="280" 
d="M130 -51l61 -32l-106 -133l-40 23z" />
    <glyph glyph-name="onesuperior" unicode="&#xb9;" horiz-adv-x="247" 
d="M164 758h120l-72 -453h-72l64 399h-48z" />
    <glyph glyph-name="ordmasculine" unicode="&#xba;" horiz-adv-x="172" 
d="M157 451q-103 0 -78 155q4 24 8.5 42.5t14 41.5t22.5 38t34.5 25.5t48.5 10.5t45 -10.5t26 -25.5t10.5 -38t1.5 -41.5t-5 -42.5q-25 -155 -128 -155zM200 712q-7 0 -13.5 -2.5t-11.5 -8t-9 -11.5t-7 -14.5t-5.5 -15t-4.5 -16.5t-2.5 -14.5t-2 -13.5t-1.5 -10t-1.5 -9.5
t-2 -13t-2 -14.5t-1 -16t0.5 -14.5t2.5 -14t5.5 -11t8.5 -8t13.5 -2.5q7 0 13 2.5t10.5 8t8.5 11t7 14t5 15t4 16t2.5 14t2 13t1.5 9.5q0 2 1.5 10t2.5 13.5t2 14.5t1 16v15.5t-2 14.5t-5 11.5t-8.5 8t-12.5 2.5z" />
    <glyph glyph-name="guillemotright" unicode="&#xbb;" horiz-adv-x="357" 
d="M253 260l-154 -224l-40 25l135 199l-84 195l49 27zM372 260l-154 -224l-40 25l135 199l-84 195l49 27z" />
    <glyph glyph-name="onequarter" unicode="&#xbc;" horiz-adv-x="616" 
d="M633 453l-45 -283h31l-8 -48h-31l-19 -122h-70l19 122h-140l9 54l176 277h78zM584 754h62l-493 -754h-62zM164 758h120l-72 -453h-72l64 399h-48zM518 170l30 190h-2l-109 -190h81z" />
    <glyph glyph-name="onehalf" unicode="&#xbd;" horiz-adv-x="616" 
d="M579 0h-219l12 23l140 209q46 72 53 118q4 21 -3 36.5t-27 15.5q-9 0 -16 -3.5t-11.5 -10.5t-8 -13t-6 -16.5t-3.5 -16t-2.5 -15t-1.5 -10.5l-2 -12h-73l3 17q5 32 11.5 52.5t20 41.5t38 31.5t60.5 10.5q60 0 82 -28.5t13 -83.5q-12 -75 -120 -221l-53 -69h122zM552 754
h62l-493 -754h-62zM152 758h120l-72 -453h-72l63 395h-48z" />
    <glyph glyph-name="threequarters" unicode="&#xbe;" horiz-adv-x="616" 
d="M506 122h-140l9 54l176 277h78l-45 -283h31l-8 -48h-31l-19 -122h-70zM255 763q59 0 77 -31t9 -86q-3 -19 -6.5 -33t-11.5 -30t-22.5 -27.5t-34.5 -16.5v-2q26 -5 38.5 -21.5t11.5 -37.5t-3 -44q-10 -63 -41.5 -99t-95.5 -36q-56 0 -77 26.5t-13 78.5l2 14h69l-2 -15
q-4 -20 3 -34t27 -14q15 0 25.5 8t16.5 23.5t8.5 25.5t5.5 27q5 35 -3.5 55.5t-43.5 19.5h-19l9 54h8q41 0 56.5 14.5t21.5 54.5q2 13 2.5 21.5t0 21.5t-6.5 20t-18 7q-36 0 -45 -57l-2 -13h-69l5 4q5 59 29.5 90.5t88.5 31.5zM604 754h62l-493 -754h-62zM514 170l30 190h-2
l-109 -190h81z" />
    <glyph glyph-name="questiondown" unicode="&#xbf;" horiz-adv-x="341" 
d="M196 368h88l-36 -227l-22 1q-21 0 -37 -7.5t-25 -16.5t-15.5 -28.5t-9 -31.5t-6.5 -38q0 -1 -3 -18t-4 -26.5t-3 -27.5t0 -29t5 -23.5t11.5 -18.5t21.5 -6q6 0 12 2t10 4.5t8 7.5t7 9t5.5 11.5t4 11t3 12.5l2 12l2 12t1.5 10l3 18h94l-2 -14q-6 -34 -12 -56.5t-18 -48.5
t-28 -41.5t-43 -25.5t-62 -10q-30 0 -52 7t-35.5 17.5t-21.5 28.5t-11.5 35t-2.5 42.5t3.5 45t6.5 48.5q4 22 6 35t8 37t12 39t16.5 34t23 29.5t31 18t39.5 6.5zM271.5 557q24.5 0 39.5 -17.5t11 -41.5q-4 -25 -24.5 -43t-45.5 -18t-39.5 18t-10.5 43q4 24 24.5 41.5
t45 17.5z" />
    <glyph glyph-name="Agrave" unicode="&#xc0;" horiz-adv-x="414" 
d="M287 754h79l43 -754h-101l-5 147h-150l-51 -147h-98zM301 225l-3 109l5 274h-2l-120 -383h120zM264 922l74 43l58 -149l-54 -29z" />
    <glyph glyph-name="Aacute" unicode="&#xc1;" horiz-adv-x="414" 
d="M287 754h79l43 -754h-101l-5 147h-150l-51 -147h-98zM301 225l-3 109l5 274h-2l-120 -383h120zM443 922l-120 -135l-46 29l106 149z" />
    <glyph glyph-name="Acircumflex" unicode="&#xc2;" horiz-adv-x="414" 
d="M287 754h79l43 -754h-101l-5 147h-150l-51 -147h-98zM301 225l-3 109l5 274h-2l-120 -383h120zM362 969l101 -140l-53 -38l-65 83l-85 -83l-46 38z" />
    <glyph glyph-name="Atilde" unicode="&#xc3;" horiz-adv-x="414" 
d="M287 754h79l43 -754h-101l-5 147h-150l-51 -147h-98zM301 225l-3 109l5 274h-2l-120 -383h120zM425 936h56q-6 -42 -28 -70.5t-61 -28.5q-20 0 -48.5 16t-40.5 16q-24 0 -27 -28h-61q8 41 30.5 70t60.5 29q25 0 53.5 -16.5t42.5 -16.5q16 0 23 29z" />
    <glyph glyph-name="Adieresis" unicode="&#xc4;" horiz-adv-x="414" 
d="M287 754h79l43 -754h-101l-5 147h-150l-51 -147h-98zM301 225l-3 109l5 274h-2l-120 -383h120zM419 823q-23 0 -38 15.5t-11 39.5t23 41t44 17q23 0 36.5 -16.5t10.5 -38.5q-4 -23 -22.5 -40.5t-42.5 -17.5zM258 823q-23 0 -38 15.5t-11 39.5t23 41t44 17
q23 0 36.5 -16.5t10.5 -38.5q-4 -23 -23 -40.5t-42 -17.5z" />
    <glyph glyph-name="Aring" unicode="&#xc5;" horiz-adv-x="414" 
d="M287 754h79l43 -754h-101l-5 147h-150l-51 -147h-98zM301 225l-3 109l5 274h-2l-120 -383h120zM333 782q-34 0 -55 22.5t-16 56.5q6 35 33 59.5t61.5 24.5t54.5 -24.5t14 -59.5q-5 -32 -32.5 -55.5t-59.5 -23.5zM340 829q14 0 25 10t14 23q2 15 -6 25.5t-24 10.5
q-15 0 -26 -10.5t-13 -25.5q-3 -14 6.5 -23.5t23.5 -9.5z" />
    <glyph glyph-name="AE" unicode="&#xc6;" horiz-adv-x="566" 
d="M279 754h250l6 -87h-164l14 -239h149l5 -87h-149l18 -254h161l6 -87h-262l-7 147h-157l-51 -147h-98zM304 225l-8 159l4 227h-2l-121 -386h127z" />
    <glyph glyph-name="Ccedilla" unicode="&#xc7;" horiz-adv-x="369" 
d="M471 742l-15 -91q-35 19 -61 19q-29 0 -53.5 -12t-42 -30t-32.5 -46.5t-24 -52t-17 -58t-11.5 -53t-7.5 -46.5q-4 -26 -7 -47.5t-4.5 -53t0.5 -55.5t9 -50t19 -43t33 -28t49 -11q32 0 63 15l-14 -88q-36 -21 -84 -21q-231 0 -171 375q6 38 12.5 70t19 74.5t27 76.5
t37 68.5t49 57.5t63.5 37.5t79 14.5q49 0 84 -22zM205 -51l61 -32l-106 -133l-40 23z" />
    <glyph glyph-name="Egrave" unicode="&#xc8;" horiz-adv-x="347" 
d="M180 754h269l-13 -87h-169l-38 -237h151l-14 -87h-151l-40 -256h169l-14 -87h-269zM246 922l74 43l58 -149l-54 -29z" />
    <glyph glyph-name="Eacute" unicode="&#xc9;" horiz-adv-x="347" 
d="M180 754h269l-13 -87h-169l-38 -237h151l-14 -87h-151l-40 -256h169l-14 -87h-269zM440 922l-120 -135l-46 29l106 149z" />
    <glyph glyph-name="Ecircumflex" unicode="&#xca;" horiz-adv-x="347" 
d="M180 754h269l-13 -87h-169l-38 -237h151l-14 -87h-151l-40 -256h169l-14 -87h-269zM341 969l101 -140l-53 -38l-65 83l-85 -83l-46 38z" />
    <glyph glyph-name="Edieresis" unicode="&#xcb;" horiz-adv-x="347" 
d="M180 754h269l-13 -87h-169l-38 -237h151l-14 -87h-151l-40 -256h169l-14 -87h-269zM401 823q-23 0 -38 15.5t-11 39.5t23 41t44 17q23 0 36.5 -16.5t10.5 -38.5q-4 -23 -22.5 -40.5t-42.5 -17.5zM240 823q-23 0 -38 15.5t-11 39.5t23 41t44 17q23 0 36.5 -16.5
t10.5 -38.5q-4 -23 -23 -40.5t-42 -17.5z" />
    <glyph glyph-name="Igrave" unicode="&#xcc;" horiz-adv-x="222" 
d="M280 754l-119 -754h-100l119 754h100zM168 922l74 43l58 -149l-54 -29z" />
    <glyph glyph-name="Iacute" unicode="&#xcd;" horiz-adv-x="222" 
d="M280 754l-119 -754h-100l119 754h100zM347 922l-120 -135l-46 29l106 149z" />
    <glyph glyph-name="Icircumflex" unicode="&#xce;" horiz-adv-x="222" 
d="M280 754l-119 -754h-100l119 754h100zM266 969l101 -140l-53 -38l-65 83l-85 -83l-46 38z" />
    <glyph glyph-name="Idieresis" unicode="&#xcf;" horiz-adv-x="222" 
d="M280 754l-119 -754h-100l119 754h100zM323 823q-23 0 -38 15.5t-11 39.5t23 41t44 17q23 0 36.5 -16.5t10.5 -38.5q-4 -23 -22.5 -40.5t-42.5 -17.5zM162 823q-23 0 -38 15.5t-11 39.5t23 41t44 17q23 0 36.5 -16.5t10.5 -38.5q-4 -23 -23 -40.5t-42 -17.5z" />
    <glyph glyph-name="Eth" unicode="&#xd0;" horiz-adv-x="466" 
d="M129 430l51 324h112q34 0 56 -2t49.5 -10.5t44 -24t32 -44.5t20.5 -69.5t3 -101.5t-14 -138q-40 -250 -144 -321q-58 -41 -174 -43h-35h-69l54 343h-70l14 87h70zM267 669l-38 -239h70l-14 -87h-70l-41 -258q116 -4 162 103q21 50 41 176q24 151 14 210q-17 102 -124 95z
" />
    <glyph glyph-name="Ntilde" unicode="&#xd1;" horiz-adv-x="472" 
d="M232 579l-2 -49l-25 -253l-44 -277h-100l119 754h96l86 -573l2 2l24 302l42 269h100l-119 -754h-93l-84 581zM454 936h56q-6 -42 -28 -70.5t-61 -28.5q-20 0 -48.5 16t-40.5 16q-24 0 -27 -28h-61q8 41 30.5 70t60.5 29q25 0 53.5 -16.5t42.5 -16.5q16 0 23 29z" />
    <glyph glyph-name="Ograve" unicode="&#xd2;" horiz-adv-x="476" 
d="M359 764q31 0 56 -9.5t42 -23.5t28 -37.5t17 -45.5t8 -54t1.5 -55.5t-4 -58t-6 -54t-7.5 -49.5q-7 -40 -11.5 -65t-15.5 -70t-22.5 -75t-32 -66.5t-44 -58.5t-57.5 -37t-75 -15q-31 0 -56 9.5t-41.5 23.5t-28 37.5t-17.5 45.5t-8 54t-1.5 55.5t4 58t6.5 54t8 49.5
q6 40 10.5 65t15.5 70t23 75t32 66.5t44 58.5t58 37t74 15zM344 670q-28 0 -50.5 -22t-38 -66t-26.5 -90.5t-21 -114.5q-7 -44 -11 -77.5t-6.5 -69t0 -60.5t9 -45.5t19.5 -30.5t32 -10q29 0 51 22t38 66t26.5 90.5t21.5 114.5q7 44 11 77.5t6.5 69t0 60.5t-9 45.5t-20 30.5
t-32.5 10zM285 922l74 43l58 -149l-54 -29z" />
    <glyph glyph-name="Oacute" unicode="&#xd3;" horiz-adv-x="476" 
d="M359 764q31 0 56 -9.5t42 -23.5t28 -37.5t17 -45.5t8 -54t1.5 -55.5t-4 -58t-6 -54t-7.5 -49.5q-7 -40 -11.5 -65t-15.5 -70t-22.5 -75t-32 -66.5t-44 -58.5t-57.5 -37t-75 -15q-31 0 -56 9.5t-41.5 23.5t-28 37.5t-17.5 45.5t-8 54t-1.5 55.5t4 58t6.5 54t8 49.5
q6 40 10.5 65t15.5 70t23 75t32 66.5t44 58.5t58 37t74 15zM344 670q-28 0 -50.5 -22t-38 -66t-26.5 -90.5t-21 -114.5q-7 -44 -11 -77.5t-6.5 -69t0 -60.5t9 -45.5t19.5 -30.5t32 -10q29 0 51 22t38 66t26.5 90.5t21.5 114.5q7 44 11 77.5t6.5 69t0 60.5t-9 45.5t-20 30.5
t-32.5 10zM484 922l-120 -135l-46 29l106 149z" />
    <glyph glyph-name="Ocircumflex" unicode="&#xd4;" horiz-adv-x="476" 
d="M359 764q31 0 56 -9.5t42 -23.5t28 -37.5t17 -45.5t8 -54t1.5 -55.5t-4 -58t-6 -54t-7.5 -49.5q-7 -40 -11.5 -65t-15.5 -70t-22.5 -75t-32 -66.5t-44 -58.5t-57.5 -37t-75 -15q-31 0 -56 9.5t-41.5 23.5t-28 37.5t-17.5 45.5t-8 54t-1.5 55.5t4 58t6.5 54t8 49.5
q6 40 10.5 65t15.5 70t23 75t32 66.5t44 58.5t58 37t74 15zM344 670q-28 0 -50.5 -22t-38 -66t-26.5 -90.5t-21 -114.5q-7 -44 -11 -77.5t-6.5 -69t0 -60.5t9 -45.5t19.5 -30.5t32 -10q29 0 51 22t38 66t26.5 90.5t21.5 114.5q7 44 11 77.5t6.5 69t0 60.5t-9 45.5t-20 30.5
t-32.5 10zM393 969l101 -140l-53 -38l-65 83l-85 -83l-46 38z" />
    <glyph glyph-name="Otilde" unicode="&#xd5;" horiz-adv-x="476" 
d="M359 764q31 0 56 -9.5t42 -23.5t28 -37.5t17 -45.5t8 -54t1.5 -55.5t-4 -58t-6 -54t-7.5 -49.5q-7 -40 -11.5 -65t-15.5 -70t-22.5 -75t-32 -66.5t-44 -58.5t-57.5 -37t-75 -15q-31 0 -56 9.5t-41.5 23.5t-28 37.5t-17.5 45.5t-8 54t-1.5 55.5t4 58t6.5 54t8 49.5
q6 40 10.5 65t15.5 70t23 75t32 66.5t44 58.5t58 37t74 15zM344 670q-28 0 -50.5 -22t-38 -66t-26.5 -90.5t-21 -114.5q-7 -44 -11 -77.5t-6.5 -69t0 -60.5t9 -45.5t19.5 -30.5t32 -10q29 0 51 22t38 66t26.5 90.5t21.5 114.5q7 44 11 77.5t6.5 69t0 60.5t-9 45.5t-20 30.5
t-32.5 10zM456 936h56q-6 -42 -28 -70.5t-61 -28.5q-20 0 -48.5 16t-40.5 16q-24 0 -27 -28h-61q8 41 30.5 70t60.5 29q25 0 53.5 -16.5t42.5 -16.5q16 0 23 29z" />
    <glyph glyph-name="Odieresis" unicode="&#xd6;" horiz-adv-x="476" 
d="M359 764q31 0 56 -9.5t42 -23.5t28 -37.5t17 -45.5t8 -54t1.5 -55.5t-4 -58t-6 -54t-7.5 -49.5q-7 -40 -11.5 -65t-15.5 -70t-22.5 -75t-32 -66.5t-44 -58.5t-57.5 -37t-75 -15q-31 0 -56 9.5t-41.5 23.5t-28 37.5t-17.5 45.5t-8 54t-1.5 55.5t4 58t6.5 54t8 49.5
q6 40 10.5 65t15.5 70t23 75t32 66.5t44 58.5t58 37t74 15zM344 670q-28 0 -50.5 -22t-38 -66t-26.5 -90.5t-21 -114.5q-7 -44 -11 -77.5t-6.5 -69t0 -60.5t9 -45.5t19.5 -30.5t32 -10q29 0 51 22t38 66t26.5 90.5t21.5 114.5q7 44 11 77.5t6.5 69t0 60.5t-9 45.5t-20 30.5
t-32.5 10zM450 823q-23 0 -38 15.5t-11 39.5t23 41t44 17q23 0 36.5 -16.5t10.5 -38.5q-4 -23 -22.5 -40.5t-42.5 -17.5zM289 823q-23 0 -38 15.5t-11 39.5t23 41t44 17q23 0 36.5 -16.5t10.5 -38.5q-4 -23 -23 -40.5t-42 -17.5z" />
    <glyph glyph-name="multiply" unicode="&#xd7;" horiz-adv-x="500" 
d="M241 254l-132 157l58 49l131 -157l183 158l41 -50l-182 -157l132 -157l-57 -49l-133 157l-182 -157l-41 49z" />
    <glyph glyph-name="Oslash" unicode="&#xd8;" horiz-adv-x="476" 
d="M20 -4l73 112q-20 86 9 269q6 40 10.5 65t15.5 70t23 75t32 66.5t44 58.5t58 37t74 15q84 0 121 -63l47 72l47 -23l-70 -109q18 -85 -10 -264q-7 -40 -11.5 -65t-15.5 -70t-22.5 -75t-32 -66.5t-44 -58.5t-57.5 -37t-75 -15q-82 0 -118 59l-50 -76zM192 260l213 325
q-8 85 -61 85q-28 0 -50.5 -22t-38 -66t-26.5 -90.5t-21 -114.5q-10 -63 -16 -117zM402 485l-210 -323q8 -78 59 -78q29 0 51 22t38 66t26.5 90.5t21.5 114.5q9 57 14 108z" />
    <glyph glyph-name="Ugrave" unicode="&#xd9;" horiz-adv-x="467" 
d="M180 754h100l-87 -553q-11 -68 3 -92.5t48 -24.5q48 0 65.5 25.5t27.5 80.5l89 564h100l-84 -535l-6 -34.5t-7 -34t-10 -35t-14 -32t-19 -31t-25.5 -25t-33.5 -20.5t-42 -12t-53 -5q-33 0 -58 6.5t-41.5 17.5t-26.5 29.5t-14.5 37t-4 46t3 51t7.5 56.5zM276 922l74 43
l58 -149l-54 -29z" />
    <glyph glyph-name="Uacute" unicode="&#xda;" horiz-adv-x="467" 
d="M180 754h100l-87 -553q-11 -68 3 -92.5t48 -24.5q48 0 65.5 25.5t27.5 80.5l89 564h100l-84 -535l-6 -34.5t-7 -34t-10 -35t-14 -32t-19 -31t-25.5 -25t-33.5 -20.5t-42 -12t-53 -5q-33 0 -58 6.5t-41.5 17.5t-26.5 29.5t-14.5 37t-4 46t3 51t7.5 56.5zM485 922
l-120 -135l-46 29l106 149z" />
    <glyph glyph-name="Ucircumflex" unicode="&#xdb;" horiz-adv-x="467" 
d="M180 754h100l-87 -553q-11 -68 3 -92.5t48 -24.5q48 0 65.5 25.5t27.5 80.5l89 564h100l-84 -535l-6 -34.5t-7 -34t-10 -35t-14 -32t-19 -31t-25.5 -25t-33.5 -20.5t-42 -12t-53 -5q-33 0 -58 6.5t-41.5 17.5t-26.5 29.5t-14.5 37t-4 46t3 51t7.5 56.5zM389 969l101 -140
l-53 -38l-65 83l-85 -83l-46 38z" />
    <glyph glyph-name="Udieresis" unicode="&#xdc;" horiz-adv-x="467" 
d="M180 754h100l-87 -553q-11 -68 3 -92.5t48 -24.5q48 0 65.5 25.5t27.5 80.5l89 564h100l-84 -535l-6 -34.5t-7 -34t-10 -35t-14 -32t-19 -31t-25.5 -25t-33.5 -20.5t-42 -12t-53 -5q-33 0 -58 6.5t-41.5 17.5t-26.5 29.5t-14.5 37t-4 46t3 51t7.5 56.5zM446 823
q-23 0 -38 15.5t-11 39.5t23 41t44 17q23 0 36.5 -16.5t10.5 -38.5q-4 -23 -22.5 -40.5t-42.5 -17.5zM285 823q-23 0 -38 15.5t-11 39.5t23 41t44 17q23 0 36.5 -16.5t10.5 -38.5q-4 -23 -23 -40.5t-42 -17.5z" />
    <glyph glyph-name="Yacute" unicode="&#xdd;" horiz-adv-x="392" 
d="M121 754h108l37 -349h2l32 97l103 252h107l-208 -429l-51 -325h-100l51 325zM457 922l-120 -135l-46 29l106 149z" />
    <glyph glyph-name="Thorn" unicode="&#xde;" horiz-adv-x="396" 
d="M280 754l-23 -150q21 0 35.5 -0.5t33.5 -2.5t32.5 -6t28.5 -11.5t24.5 -17.5t18.5 -25.5t12.5 -35t3.5 -45.5t-5 -58q-19 -117 -77.5 -169.5t-173.5 -48.5l-29 -184h-100l119 754h100zM257 519h-14l-39 -250q60 -4 89.5 27t39.5 98q20 125 -76 125z" />
    <glyph glyph-name="germandbls" unicode="&#xdf;" horiz-adv-x="425" 
d="M144 505l22 142q8 46 18.5 77t30 59t52 41.5t78.5 13.5q87 0 117 -42.5t16 -130.5q-20 -125 -94 -148v-2q20 -6 33.5 -19t19.5 -33.5t9 -39t0.5 -48t-4.5 -45.5t-7 -45q-1 -5 -1 -8q-7 -45 -12.5 -74t-14 -61.5t-18.5 -52t-24 -38.5t-32 -29t-42.5 -16t-55.5 -6h-33
l13 84h14q15 0 26.5 2.5t21 10t16 13.5t12.5 21t9.5 25t8 32t7 35.5t6.5 42.5q1 3 1 5q1 4 2 12q4 23 5.5 36t3.5 36.5t0.5 37t-6 31t-14 27t-25 16t-36.5 5.5l13 84q52 -3 72.5 23.5t29.5 81.5q14 93 -47 93q-10 0 -19 -2.5t-15.5 -8.5t-12 -11t-9.5 -15.5t-6.5 -16
t-5.5 -18t-3.5 -16t-2.5 -16l-2 -12.5l-101 -638h-94l68 431h-43l12 74h43z" />
    <glyph glyph-name="agrave" unicode="&#xe0;" horiz-adv-x="380" 
d="M243 0l10 65h-2q-22 -37 -44.5 -55t-59.5 -18q-24 0 -41.5 11t-27.5 27t-14.5 41.5t-5.5 47.5t1.5 52t4.5 47t6 41q5 28 9 48.5t12.5 54t20.5 57t28 46.5t40 35.5t52 12.5q61 0 80 -64h2l9 56h94l-80 -505h-94zM199 76q60 0 86 170q1 5 1 7t1 7q28 169 -32 169
q-11 0 -21 -4.5t-18 -13.5t-14 -18.5t-11 -24t-8.5 -25t-7 -27t-4.5 -24.5t-3.5 -22.5t-2.5 -16.5t-2.5 -16.5t-4 -23t-3.5 -25t-1.5 -27t0.5 -25t3.5 -24t8.5 -18.5t13.5 -13.5t19.5 -4.5zM207 703l74 43l59 -149l-55 -29z" />
    <glyph glyph-name="aacute" unicode="&#xe1;" horiz-adv-x="380" 
d="M243 0l10 65h-2q-22 -37 -44.5 -55t-59.5 -18q-24 0 -41.5 11t-27.5 27t-14.5 41.5t-5.5 47.5t1.5 52t4.5 47t6 41q5 28 9 48.5t12.5 54t20.5 57t28 46.5t40 35.5t52 12.5q61 0 80 -64h2l9 56h94l-80 -505h-94zM199 76q60 0 86 170q1 5 1 7t1 7q28 169 -32 169
q-11 0 -21 -4.5t-18 -13.5t-14 -18.5t-11 -24t-8.5 -25t-7 -27t-4.5 -24.5t-3.5 -22.5t-2.5 -16.5t-2.5 -16.5t-4 -23t-3.5 -25t-1.5 -27t0.5 -25t3.5 -24t8.5 -18.5t13.5 -13.5t19.5 -4.5zM406 703l-120 -135l-45 29l105 149z" />
    <glyph glyph-name="acircumflex" unicode="&#xe2;" horiz-adv-x="380" 
d="M243 0l10 65h-2q-22 -37 -44.5 -55t-59.5 -18q-24 0 -41.5 11t-27.5 27t-14.5 41.5t-5.5 47.5t1.5 52t4.5 47t6 41q5 28 9 48.5t12.5 54t20.5 57t28 46.5t40 35.5t52 12.5q61 0 80 -64h2l9 56h94l-80 -505h-94zM199 76q60 0 86 170q1 5 1 7t1 7q28 169 -32 169
q-11 0 -21 -4.5t-18 -13.5t-14 -18.5t-11 -24t-8.5 -25t-7 -27t-4.5 -24.5t-3.5 -22.5t-2.5 -16.5t-2.5 -16.5t-4 -23t-3.5 -25t-1.5 -27t0.5 -25t3.5 -24t8.5 -18.5t13.5 -13.5t19.5 -4.5zM311 750l101 -140l-53 -38l-65 83l-85 -83l-46 38z" />
    <glyph glyph-name="atilde" unicode="&#xe3;" horiz-adv-x="380" 
d="M243 0l10 65h-2q-22 -37 -44.5 -55t-59.5 -18q-24 0 -41.5 11t-27.5 27t-14.5 41.5t-5.5 47.5t1.5 52t4.5 47t6 41q5 28 9 48.5t12.5 54t20.5 57t28 46.5t40 35.5t52 12.5q61 0 80 -64h2l9 56h94l-80 -505h-94zM199 76q60 0 86 170q1 5 1 7t1 7q28 169 -32 169
q-11 0 -21 -4.5t-18 -13.5t-14 -18.5t-11 -24t-8.5 -25t-7 -27t-4.5 -24.5t-3.5 -22.5t-2.5 -16.5t-2.5 -16.5t-4 -23t-3.5 -25t-1.5 -27t0.5 -25t3.5 -24t8.5 -18.5t13.5 -13.5t19.5 -4.5zM374 717h56q-6 -42 -28.5 -70.5t-61.5 -28.5q-20 0 -48.5 16t-40.5 16
q-24 0 -26 -28h-61q7 41 29.5 70t60.5 29q25 0 53.5 -16.5t42.5 -16.5q17 0 24 29z" />
    <glyph glyph-name="adieresis" unicode="&#xe4;" horiz-adv-x="380" 
d="M243 0l10 65h-2q-22 -37 -44.5 -55t-59.5 -18q-24 0 -41.5 11t-27.5 27t-14.5 41.5t-5.5 47.5t1.5 52t4.5 47t6 41q5 28 9 48.5t12.5 54t20.5 57t28 46.5t40 35.5t52 12.5q61 0 80 -64h2l9 56h94l-80 -505h-94zM199 76q60 0 86 170q1 5 1 7t1 7q28 169 -32 169
q-11 0 -21 -4.5t-18 -13.5t-14 -18.5t-11 -24t-8.5 -25t-7 -27t-4.5 -24.5t-3.5 -22.5t-2.5 -16.5t-2.5 -16.5t-4 -23t-3.5 -25t-1.5 -27t0.5 -25t3.5 -24t8.5 -18.5t13.5 -13.5t19.5 -4.5zM368 604q-24 0 -38.5 15.5t-11.5 39.5q4 24 23 41t45 17q22 0 35.5 -16.5
t10.5 -38.5q-4 -23 -22.5 -40.5t-41.5 -17.5zM207 604q-24 0 -38.5 15.5t-11.5 39.5q4 24 23 41t45 17q22 0 35.5 -16.5t10.5 -38.5q-4 -23 -23 -40.5t-41 -17.5z" />
    <glyph glyph-name="aring" unicode="&#xe5;" horiz-adv-x="380" 
d="M243 0l10 65h-2q-22 -37 -44.5 -55t-59.5 -18q-24 0 -41.5 11t-27.5 27t-14.5 41.5t-5.5 47.5t1.5 52t4.5 47t6 41q5 28 9 48.5t12.5 54t20.5 57t28 46.5t40 35.5t52 12.5q61 0 80 -64h2l9 56h94l-80 -505h-94zM199 76q60 0 86 170q1 5 1 7t1 7q28 169 -32 169
q-11 0 -21 -4.5t-18 -13.5t-14 -18.5t-11 -24t-8.5 -25t-7 -27t-4.5 -24.5t-3.5 -22.5t-2.5 -16.5t-2.5 -16.5t-4 -23t-3.5 -25t-1.5 -27t0.5 -25t3.5 -24t8.5 -18.5t13.5 -13.5t19.5 -4.5zM284 583q-33 0 -54 22.5t-16 56.5q5 35 32.5 59.5t61.5 24.5t54 -24.5t15 -59.5
q-5 -32 -32.5 -55.5t-60.5 -23.5zM292 630q13 0 24.5 10t13.5 23q2 15 -5.5 25.5t-23.5 10.5t-27 -10.5t-13 -25.5q-2 -14 7 -23.5t24 -9.5z" />
    <glyph glyph-name="ae" unicode="&#xe6;" horiz-adv-x="561" 
d="M570 233h-209q-1 -7 -3 -23.5t-3.5 -29.5t-2.5 -30t1 -29.5t7 -24.5t15 -18t24 -6q30 0 47.5 26.5t21.5 56.5l2 18h89q-6 -38 -18.5 -68.5t-32.5 -57t-50.5 -41t-69.5 -14.5q-95 0 -111 79q-42 -79 -123 -79q-67 0 -90 43.5t-11 113.5q5 34 15 62.5t27 56t45 43t64 15.5
q55 0 73 -33l3 2l7 43q3 44 -11 64.5t-59 20.5q-50 0 -101 -29l15 93q53 26 107 26q90 0 108 -65q44 65 117 65q151 0 112 -247zM219 252q-56 0 -70 -88q-15 -97 42 -97q59 0 74 94q14 91 -46 91zM487 301l3 22q2 20 4 44.5t-9 45t-33 20.5q-58 0 -76 -110l-3 -22h114z" />
    <glyph glyph-name="ccedilla" unicode="&#xe7;" horiz-adv-x="278" 
d="M333 496l-15 -95h-2q-12 23 -41 24q-19 0 -35 -8.5t-27.5 -24t-19.5 -31t-13.5 -37.5t-8 -35.5t-5.5 -31.5q-28 -177 53 -177q22 0 51 19l-14 -87q-38 -20 -79 -20q-149 0 -109 256q6 38 13 68.5t22 69t34.5 64.5t51.5 44.5t71.5 18.5t72.5 -17zM144 -51l61 -32
l-106 -133l-40 23z" />
    <glyph glyph-name="egrave" unicode="&#xe8;" horiz-adv-x="361" 
d="M370 234h-208q0 -1 -1 -4q-24 -154 35 -154t74 94h87q-12 -77 -56.5 -127.5t-118.5 -50.5q-34 0 -58.5 11t-37.5 32t-20 45t-7 55.5t2 57t7 56.5q6 38 13 68t22 68.5t34.5 64.5t51.5 44.5t72 18.5q153 0 111 -264zM173 301h112q2 14 3 23.5t2.5 27t-0.5 29t-6 23.5
t-13 18.5t-23 6.5q-16 0 -28.5 -9t-20 -20.5t-13 -31.5t-7.5 -31t-5 -29q-1 -5 -1 -7zM188 703l74 43l59 -149l-55 -29z" />
    <glyph glyph-name="eacute" unicode="&#xe9;" horiz-adv-x="361" 
d="M370 234h-208q0 -1 -1 -4q-24 -154 35 -154t74 94h87q-12 -77 -56.5 -127.5t-118.5 -50.5q-34 0 -58.5 11t-37.5 32t-20 45t-7 55.5t2 57t7 56.5q6 38 13 68t22 68.5t34.5 64.5t51.5 44.5t72 18.5q153 0 111 -264zM173 301h112q2 14 3 23.5t2.5 27t-0.5 29t-6 23.5
t-13 18.5t-23 6.5q-16 0 -28.5 -9t-20 -20.5t-13 -31.5t-7.5 -31t-5 -29q-1 -5 -1 -7zM397 703l-120 -135l-45 29l105 149z" />
    <glyph glyph-name="ecircumflex" unicode="&#xea;" horiz-adv-x="361" 
d="M370 234h-208q0 -1 -1 -4q-24 -154 35 -154t74 94h87q-12 -77 -56.5 -127.5t-118.5 -50.5q-34 0 -58.5 11t-37.5 32t-20 45t-7 55.5t2 57t7 56.5q6 38 13 68t22 68.5t34.5 64.5t51.5 44.5t72 18.5q153 0 111 -264zM302 750l101 -140l-53 -38l-65 83l-85 -83l-46 38z
M173 301h112q2 14 3 23.5t2.5 27t-0.5 29t-6 23.5t-13 18.5t-23 6.5q-16 0 -28.5 -9t-20 -20.5t-13 -31.5t-7.5 -31t-5 -29q-1 -5 -1 -7z" />
    <glyph glyph-name="edieresis" unicode="&#xeb;" horiz-adv-x="361" 
d="M370 234h-208q0 -1 -1 -4q-24 -154 35 -154t74 94h87q-12 -77 -56.5 -127.5t-118.5 -50.5q-34 0 -58.5 11t-37.5 32t-20 45t-7 55.5t2 57t7 56.5q6 38 13 68t22 68.5t34.5 64.5t51.5 44.5t72 18.5q153 0 111 -264zM173 301h112q2 14 3 23.5t2.5 27t-0.5 29t-6 23.5
t-13 18.5t-23 6.5q-16 0 -28.5 -9t-20 -20.5t-13 -31.5t-7.5 -31t-5 -29q-1 -5 -1 -7zM359 604q-24 0 -38.5 15.5t-11.5 39.5q4 24 23 41t45 17q22 0 35.5 -16.5t10.5 -38.5q-4 -23 -22.5 -40.5t-41.5 -17.5zM198 604q-24 0 -38.5 15.5t-11.5 39.5q4 24 23 41t45 17
q22 0 35.5 -16.5t10.5 -38.5q-4 -23 -23 -40.5t-41 -17.5z" />
    <glyph glyph-name="igrave" unicode="&#xec;" horiz-adv-x="180" 
d="M123 505h94l-80 -505h-94zM112 703l74 43l59 -149l-55 -29z" />
    <glyph glyph-name="iacute" unicode="&#xed;" horiz-adv-x="180" 
d="M123 505h94l-80 -505h-94zM291 703l-120 -135l-45 29l105 149z" />
    <glyph glyph-name="icircumflex" unicode="&#xee;" horiz-adv-x="180" 
d="M123 505h94l-80 -505h-94zM211 750l101 -140l-53 -38l-65 83l-85 -83l-46 38z" />
    <glyph glyph-name="idieresis" unicode="&#xef;" horiz-adv-x="180" 
d="M123 505h94l-80 -505h-94zM268 604q-24 0 -38.5 15.5t-11.5 39.5q4 24 23 41t45 17q22 0 35.5 -16.5t10.5 -38.5q-4 -23 -22.5 -40.5t-41.5 -17.5zM107 604q-24 0 -38.5 15.5t-11.5 39.5q4 24 23 41t45 17q22 0 35.5 -16.5t10.5 -38.5q-4 -23 -23 -40.5t-41 -17.5z" />
    <glyph glyph-name="eth" unicode="&#xf0;" horiz-adv-x="375" 
d="M187 590l-23 50l83 36q-43 91 -71 134l80 28q32 -50 70 -126l79 38l24 -50l-82 -38q78 -170 42 -400q-8 -45 -15.5 -78.5t-23.5 -72t-36 -62.5t-53 -40.5t-74 -16.5q-35 0 -60 11t-38.5 32t-21 45t-8 55.5t2 57.5t7.5 58q5 36 12.5 65t22.5 64t34.5 58.5t51.5 40t72 16.5
q30 0 48 -11q-11 69 -43 142zM165 251q-5 -28 -7 -47t-3.5 -40.5t0.5 -35.5t7 -26.5t14.5 -18t23.5 -5.5q16 0 28 6.5t21 21t15 27.5t11.5 37t8 38.5t7.5 42.5q3 20 4.5 30.5t4 30t2.5 30.5t-0.5 26.5t-3.5 24.5t-8 18t-14 13t-20 4q-18 0 -32 -11t-23 -26.5t-16.5 -42
t-11 -46.5t-8.5 -51z" />
    <glyph glyph-name="ntilde" unicode="&#xf1;" horiz-adv-x="388" 
d="M218 505l-9 -58h2q44 66 112 66q24 0 41.5 -6.5t26 -20t13 -27t4 -35.5t-2 -37.5t-5.5 -39.5l-55 -347h-94l55 349q13 80 -43 80q-17 0 -29.5 -7.5t-19.5 -16.5t-12.5 -26t-7.5 -27t-5 -28q-1 -6 -1 -9l-50 -315h-94l80 505h94zM372 717h56q-6 -42 -28.5 -70.5
t-61.5 -28.5q-20 0 -48.5 16t-40.5 16q-24 0 -26 -28h-61q7 41 29.5 70t60.5 29q25 0 53.5 -16.5t42.5 -16.5q17 0 24 29z" />
    <glyph glyph-name="ograve" unicode="&#xf2;" horiz-adv-x="375" 
d="M187 -8q-35 0 -60 11.5t-38.5 32.5t-21 45t-7.5 56t2 57.5t7 56.5q6 39 13.5 70t23 69t36 63t53.5 42.5t74 17.5q35 0 60 -11.5t38.5 -32.5t21 -45.5t7.5 -56.5t-2 -58t-7 -58q-6 -38 -13.5 -68.5t-23 -68t-36 -62.5t-53.5 -42.5t-74 -17.5zM200 78q13 0 24.5 6.5
t19.5 15t15 24t11.5 27t8.5 30t5.5 27.5t4 25.5t2.5 17.5q0 3 2.5 16.5t3.5 22t3 24.5t2 27v25.5t-3.5 24t-8.5 18.5t-14 13.5t-20 4.5q-13 0 -24.5 -6.5t-19.5 -15t-15 -24t-11.5 -27t-8.5 -30.5t-5.5 -28t-4 -26.5t-2.5 -18.5q-1 -2 -3 -15t-3.5 -21.5t-3 -24t-1.5 -26.5
v-25.5t3.5 -24t8.5 -18.5t14 -13.5t20 -4.5zM210 703l74 43l59 -149l-55 -29z" />
    <glyph glyph-name="oacute" unicode="&#xf3;" horiz-adv-x="375" 
d="M187 -8q-35 0 -60 11.5t-38.5 32.5t-21 45t-7.5 56t2 57.5t7 56.5q6 39 13.5 70t23 69t36 63t53.5 42.5t74 17.5q35 0 60 -11.5t38.5 -32.5t21 -45.5t7.5 -56.5t-2 -58t-7 -58q-6 -38 -13.5 -68.5t-23 -68t-36 -62.5t-53.5 -42.5t-74 -17.5zM200 78q13 0 24.5 6.5
t19.5 15t15 24t11.5 27t8.5 30t5.5 27.5t4 25.5t2.5 17.5q0 3 2.5 16.5t3.5 22t3 24.5t2 27v25.5t-3.5 24t-8.5 18.5t-14 13.5t-20 4.5q-13 0 -24.5 -6.5t-19.5 -15t-15 -24t-11.5 -27t-8.5 -30.5t-5.5 -28t-4 -26.5t-2.5 -18.5q-1 -2 -3 -15t-3.5 -21.5t-3 -24t-1.5 -26.5
v-25.5t3.5 -24t8.5 -18.5t14 -13.5t20 -4.5zM389 703l-120 -135l-45 29l105 149z" />
    <glyph glyph-name="ocircumflex" unicode="&#xf4;" horiz-adv-x="375" 
d="M187 -8q-35 0 -60 11.5t-38.5 32.5t-21 45t-7.5 56t2 57.5t7 56.5q6 39 13.5 70t23 69t36 63t53.5 42.5t74 17.5q35 0 60 -11.5t38.5 -32.5t21 -45.5t7.5 -56.5t-2 -58t-7 -58q-6 -38 -13.5 -68.5t-23 -68t-36 -62.5t-53.5 -42.5t-74 -17.5zM200 78q13 0 24.5 6.5
t19.5 15t15 24t11.5 27t8.5 30t5.5 27.5t4 25.5t2.5 17.5q0 3 2.5 16.5t3.5 22t3 24.5t2 27v25.5t-3.5 24t-8.5 18.5t-14 13.5t-20 4.5q-13 0 -24.5 -6.5t-19.5 -15t-15 -24t-11.5 -27t-8.5 -30.5t-5.5 -28t-4 -26.5t-2.5 -18.5q-1 -2 -3 -15t-3.5 -21.5t-3 -24t-1.5 -26.5
v-25.5t3.5 -24t8.5 -18.5t14 -13.5t20 -4.5zM309 750l101 -140l-53 -38l-65 83l-85 -83l-46 38z" />
    <glyph glyph-name="otilde" unicode="&#xf5;" horiz-adv-x="375" 
d="M187 -8q-35 0 -60 11.5t-38.5 32.5t-21 45t-7.5 56t2 57.5t7 56.5q6 39 13.5 70t23 69t36 63t53.5 42.5t74 17.5q35 0 60 -11.5t38.5 -32.5t21 -45.5t7.5 -56.5t-2 -58t-7 -58q-6 -38 -13.5 -68.5t-23 -68t-36 -62.5t-53.5 -42.5t-74 -17.5zM200 78q13 0 24.5 6.5
t19.5 15t15 24t11.5 27t8.5 30t5.5 27.5t4 25.5t2.5 17.5q0 3 2.5 16.5t3.5 22t3 24.5t2 27v25.5t-3.5 24t-8.5 18.5t-14 13.5t-20 4.5q-13 0 -24.5 -6.5t-19.5 -15t-15 -24t-11.5 -27t-8.5 -30.5t-5.5 -28t-4 -26.5t-2.5 -18.5q-1 -2 -3 -15t-3.5 -21.5t-3 -24t-1.5 -26.5
v-25.5t3.5 -24t8.5 -18.5t14 -13.5t20 -4.5zM372 717h56q-6 -42 -28.5 -70.5t-61.5 -28.5q-20 0 -48.5 16t-40.5 16q-24 0 -26 -28h-61q7 41 29.5 70t60.5 29q25 0 53.5 -16.5t42.5 -16.5q17 0 24 29z" />
    <glyph glyph-name="odieresis" unicode="&#xf6;" horiz-adv-x="375" 
d="M187 -8q-35 0 -60 11.5t-38.5 32.5t-21 45t-7.5 56t2 57.5t7 56.5q6 39 13.5 70t23 69t36 63t53.5 42.5t74 17.5q35 0 60 -11.5t38.5 -32.5t21 -45.5t7.5 -56.5t-2 -58t-7 -58q-6 -38 -13.5 -68.5t-23 -68t-36 -62.5t-53.5 -42.5t-74 -17.5zM200 78q13 0 24.5 6.5
t19.5 15t15 24t11.5 27t8.5 30t5.5 27.5t4 25.5t2.5 17.5q0 3 2.5 16.5t3.5 22t3 24.5t2 27v25.5t-3.5 24t-8.5 18.5t-14 13.5t-20 4.5q-13 0 -24.5 -6.5t-19.5 -15t-15 -24t-11.5 -27t-8.5 -30.5t-5.5 -28t-4 -26.5t-2.5 -18.5q-1 -2 -3 -15t-3.5 -21.5t-3 -24t-1.5 -26.5
v-25.5t3.5 -24t8.5 -18.5t14 -13.5t20 -4.5zM366 604q-24 0 -38.5 15.5t-11.5 39.5q4 24 23 41t45 17q22 0 35.5 -16.5t10.5 -38.5q-4 -23 -22.5 -40.5t-41.5 -17.5zM205 604q-24 0 -38.5 15.5t-11.5 39.5q4 24 23 41t45 17q22 0 35.5 -16.5t10.5 -38.5q-4 -23 -23 -40.5
t-41 -17.5z" />
    <glyph glyph-name="divide" unicode="&#xf7;" horiz-adv-x="500" 
d="M79 221l11 70h413l-11 -70h-413zM290 5h-79l16 100h79zM353 407h-79l16 100h79z" />
    <glyph glyph-name="oslash" unicode="&#xf8;" horiz-adv-x="375" 
d="M88 33l-31 -42l-35 25l48 62q-19 64 1 184q5 37 13 68t23 66.5t35 59.5t52 40.5t72 16.5q68 0 101 -41l40 51l36 -24l-55 -72q16 -65 -3 -186q-6 -38 -13.5 -69t-23 -66t-36 -58.5t-53 -39.5t-72.5 -16q-64 0 -99 41zM298 386q-4 23 -13 34t-30 11q-62 0 -86 -152
q0 -3 -1 -5l-9 -77h2zM159 119q7 -45 44 -45q11 0 20.5 4t17 12t13.5 16.5t10.5 22t8 23.5t6 25t4 22.5t3.5 21t3 16.5l10 72h-2z" />
    <glyph glyph-name="ugrave" unicode="&#xf9;" horiz-adv-x="389" 
d="M124 505h94l-50 -316q-1 -3 -2 -11q-2 -15 -3 -23t-2 -22t1.5 -22t7 -16.5t14.5 -12.5t24 -4q12 0 21.5 3t16 6.5t12 12.5t8.5 13.5t6 17.5t3.5 17t3 19t2.5 17l51 321h94l-54 -341q-13 -84 -52.5 -128t-120.5 -44q-50 0 -80 14t-41 39t-12 60.5t7 78.5zM202 703l74 43
l59 -149l-55 -29z" />
    <glyph glyph-name="uacute" unicode="&#xfa;" horiz-adv-x="389" 
d="M124 505h94l-50 -316q-1 -3 -2 -11q-2 -15 -3 -23t-2 -22t1.5 -22t7 -16.5t14.5 -12.5t24 -4q12 0 21.5 3t16 6.5t12 12.5t8.5 13.5t6 17.5t3.5 17t3 19t2.5 17l51 321h94l-54 -341q-13 -84 -52.5 -128t-120.5 -44q-50 0 -80 14t-41 39t-12 60.5t7 78.5zM411 703
l-120 -135l-45 29l105 149z" />
    <glyph glyph-name="ucircumflex" unicode="&#xfb;" horiz-adv-x="389" 
d="M124 505h94l-50 -316q-1 -3 -2 -11q-2 -15 -3 -23t-2 -22t1.5 -22t7 -16.5t14.5 -12.5t24 -4q12 0 21.5 3t16 6.5t12 12.5t8.5 13.5t6 17.5t3.5 17t3 19t2.5 17l51 321h94l-54 -341q-13 -84 -52.5 -128t-120.5 -44q-50 0 -80 14t-41 39t-12 60.5t7 78.5zM316 750
l101 -140l-53 -38l-65 83l-85 -83l-46 38z" />
    <glyph glyph-name="udieresis" unicode="&#xfc;" horiz-adv-x="389" 
d="M124 505h94l-50 -316q-1 -3 -2 -11q-2 -15 -3 -23t-2 -22t1.5 -22t7 -16.5t14.5 -12.5t24 -4q12 0 21.5 3t16 6.5t12 12.5t8.5 13.5t6 17.5t3.5 17t3 19t2.5 17l51 321h94l-54 -341q-13 -84 -52.5 -128t-120.5 -44q-50 0 -80 14t-41 39t-12 60.5t7 78.5zM373 604
q-24 0 -38.5 15.5t-11.5 39.5q4 24 23 41t45 17q22 0 35.5 -16.5t10.5 -38.5q-4 -23 -22.5 -40.5t-41.5 -17.5zM212 604q-24 0 -38.5 15.5t-11.5 39.5q4 24 23 41t45 17q22 0 35.5 -16.5t10.5 -38.5q-4 -23 -23 -40.5t-41 -17.5z" />
    <glyph glyph-name="yacute" unicode="&#xfd;" horiz-adv-x="373" 
d="M84 505h105l18 -352h2l141 352h95l-319 -712h-99l117 248zM413 703l-120 -135l-45 29l105 149z" />
    <glyph glyph-name="thorn" unicode="&#xfe;" horiz-adv-x="380" 
d="M247 695l-40 -255h2q21 36 44.5 54.5t59.5 18.5q24 0 41.5 -11t27.5 -27t14.5 -41.5t5.5 -47t-1 -51.5t-4.5 -47t-6.5 -41q-4 -29 -8.5 -49.5t-13 -54t-20.5 -57t-28 -46.5t-40 -35.5t-52 -12.5q-35 0 -52.5 16t-27.5 49h-2l-42 -264h-94l143 902h94zM205 76
q21 0 36.5 14.5t26 43.5t16 54t11.5 64q0 2 2.5 16.5t3.5 22.5t3.5 24.5t2 27.5t-0.5 25.5t-3.5 24t-8.5 18.5t-13.5 13.5t-19.5 4.5q-60 0 -86 -170q-1 -5 -1 -7t-1 -7q-28 -169 32 -169z" />
    <glyph glyph-name="ydieresis" unicode="&#xff;" horiz-adv-x="373" 
d="M84 505h105l18 -352h2l141 352h95l-319 -712h-99l117 248zM365 604q-24 0 -38.5 15.5t-11.5 39.5q4 24 23 41t45 17q22 0 35.5 -16.5t10.5 -38.5q-4 -23 -22.5 -40.5t-41.5 -17.5zM204 604q-24 0 -38.5 15.5t-11.5 39.5q4 24 23 41t45 17q22 0 35.5 -16.5t10.5 -38.5
q-4 -23 -23 -40.5t-41 -17.5z" />
    <glyph glyph-name="dotlessi" unicode="&#x131;" horiz-adv-x="180" 
d="M123 505h94l-80 -505h-94z" />
    <glyph glyph-name="Lslash" unicode="&#x141;" horiz-adv-x="331" 
d="M123 390l57 364h100l-46 -296l101 60l-14 -88l-101 -60l-45 -283h168l-14 -87h-268l48 301l-80 -48l14 88z" />
    <glyph glyph-name="lslash" unicode="&#x142;" horiz-adv-x="180" 
d="M43 0l62 390l-77 -58l12 76l76 54l58 368h94l-46 -291l78 59l-12 -76l-77 -57l-74 -465h-94z" />
    <glyph glyph-name="OE" unicode="&#x152;" horiz-adv-x="598" 
d="M529 667l-38 -236h154l-14 -87h-154l-40 -257h172l-14 -87h-262l10 60h-2q-44 -70 -126 -70q-28 0 -50 10t-36.5 24.5t-24 39.5t-14.5 46.5t-5.5 55t0 55.5t4.5 57t6.5 50.5t6.5 44.5q1 4 2 13q5 30 8 47t9.5 51.5t13 56.5t17.5 54.5t23 53.5t29.5 45t36.5 37.5t44.5 23
t53.5 9.5q38 0 63.5 -17.5t33.5 -51.5h2l9 59h262l-13 -87h-167zM209 379q0 -3 -4 -24.5t-6 -35.5t-5.5 -40.5t-4 -45.5t-0.5 -43.5t4.5 -41t11 -32t18.5 -23.5t28 -8q19 0 35.5 9t27.5 21.5t21.5 35.5t16.5 41.5t12.5 50.5t9.5 50t8 52q3 23 5 34q1 7 6.5 35.5t9 51t7.5 55
t2 57t-8 47.5t-21 35.5t-38 12.5q-51 0 -80.5 -64t-55.5 -230z" />
    <glyph glyph-name="oe" unicode="&#x153;" horiz-adv-x="581" 
d="M590 234h-213v-6q0 -3 -1 -9q-2 -17 -3 -27t-1.5 -29.5t1.5 -32t6.5 -26t14.5 -20t23 -6.5q58 0 75 93h86q-14 -78 -59 -128.5t-119 -50.5q-72 3 -96 80q-23 -40 -52 -59.5t-70 -20.5q-35 0 -59.5 12t-37 34.5t-19.5 47.5t-6 59t3.5 60t7.5 58q39 250 197 250
q36 0 62.5 -21t32.5 -57h2q17 37 49.5 57.5t67.5 20.5q34 0 58 -11.5t36.5 -33.5t19.5 -46.5t6.5 -57.5t-3 -58.5t-7.5 -56.5zM165 252q0 -1 -1 -5q-27 -169 36 -169q62 0 88 168q1 4 1 6t1 6q28 170 -34 170q-65 0 -90 -168q-1 -6 -1 -8zM391 307l-2 -8h115q3 15 4 24.5
t2.5 28t-0.5 30.5t-6 25t-13.5 19.5t-23.5 6.5q-15 0 -26.5 -6t-19 -18.5t-13 -23t-9.5 -28.5t-5 -26.5t-3 -23.5z" />
    <glyph glyph-name="Scaron" unicode="&#x160;" horiz-adv-x="354" 
d="M411 739l-17 -101q-39 32 -80 32q-40 0 -69 -28.5t-35 -68.5q-7 -46 15 -82l63 -83q48 -59 65.5 -104.5t6.5 -116.5q-13 -83 -70.5 -140t-138.5 -57q-65 0 -104 36l16 101q47 -39 93 -39q44 0 70.5 30t34.5 75q4 30 -3 57.5t-22.5 48.5t-34.5 43.5t-38 43.5t-33.5 49.5
t-20.5 60t0 75.5q14 84 66.5 138.5t133.5 54.5q64 0 102 -25zM304 791l-104 139l58 39l59 -83l91 83l41 -39z" />
    <glyph glyph-name="scaron" unicode="&#x161;" horiz-adv-x="276" 
d="M312 491l-14 -89q-26 27 -66 27q-27 0 -48 -14.5t-25 -39.5q-3 -23 10.5 -42.5t34 -35.5t40.5 -34.5t31.5 -49.5t4.5 -71q-10 -67 -55.5 -108.5t-112.5 -41.5q-43 0 -78 24l14 92q35 -32 73 -32q30 0 49 17t24 47q4 24 -9 44.5t-33.5 37t-41 35.5t-32 49t-5.5 69
q10 60 54 99t103 39q48 0 82 -22zM231 572l-104 139l58 39l59 -83l91 83l41 -39z" />
    <glyph glyph-name="Ydieresis" unicode="&#x178;" horiz-adv-x="392" 
d="M121 754h108l37 -349h2l32 97l103 252h107l-208 -429l-51 -325h-100l51 325zM408 823q-23 0 -38 15.5t-11 39.5t23 41t44 17q23 0 36.5 -16.5t10.5 -38.5q-4 -23 -22.5 -40.5t-42.5 -17.5zM247 823q-23 0 -38 15.5t-11 39.5t23 41t44 17q23 0 36.5 -16.5t10.5 -38.5
q-4 -23 -23 -40.5t-42 -17.5z" />
    <glyph glyph-name="Zcaron" unicode="&#x17d;" horiz-adv-x="393" 
d="M161 754h333l-332 -667h215l-14 -87h-348l335 667h-202zM332 791l-104 139l58 39l59 -83l91 83l41 -39z" />
    <glyph glyph-name="zcaron" unicode="&#x17e;" horiz-adv-x="335" 
d="M107 505h294l-236 -421h160l-13 -84h-298l242 421h-162zM261 572l-104 139l58 39l59 -83l91 83l41 -39z" />
    <glyph glyph-name="florin" unicode="&#x192;" 
d="M366 508h129l-20 -74h-131l-103 -300q-1 -3 -7.5 -23t-9 -26.5t-9 -25t-10.5 -27.5t-11 -24.5t-13 -26t-13.5 -22.5t-15.5 -21q-36 -43 -92.5 -65t-114.5 -22h-24l29 84h19q41 4 67.5 17t51.5 45q24 33 58 132l102 305h-65l20 74h70l41 121q15 48 33 82.5t45 64.5
t64.5 45t86.5 15q34 0 59 -7l-29 -84q-17 7 -40 7q-54 0 -82 -38q-23 -31 -45 -96z" />
    <glyph glyph-name="circumflex" unicode="&#x2c6;" horiz-adv-x="280" 
d="M261 750l101 -140l-53 -38l-65 83l-85 -83l-46 38z" />
    <glyph glyph-name="caron" unicode="&#x2c7;" horiz-adv-x="280" 
d="M233 572l-104 139l58 39l59 -83l91 83l41 -39z" />
    <glyph glyph-name="breve" unicode="&#x2d8;" horiz-adv-x="280" 
d="M107 765h49q5 -77 94 -77q44 0 72.5 18t44.5 59h49q-14 -69 -61.5 -102.5t-117.5 -33.5q-66 0 -102 34t-28 102z" />
    <glyph glyph-name="dotaccent" unicode="&#x2d9;" horiz-adv-x="280" 
d="M239 604q-24 0 -39 15.5t-12 39.5q4 25 23.5 41.5t44.5 16.5q22 0 35.5 -16.5t10.5 -38.5q-4 -23 -22.5 -40.5t-40.5 -17.5z" />
    <glyph glyph-name="ring" unicode="&#x2da;" horiz-adv-x="280" 
d="M234 583q-33 0 -54 22.5t-16 56.5q5 35 32.5 59.5t61.5 24.5t54 -24.5t15 -59.5q-5 -32 -32.5 -55.5t-60.5 -23.5zM242 630q13 0 24.5 10t13.5 23q2 15 -5.5 25.5t-23.5 10.5t-27 -10.5t-13 -25.5q-2 -14 7 -23.5t24 -9.5z" />
    <glyph glyph-name="ogonek" unicode="&#x2db;" horiz-adv-x="280" 
d="M76 13h67q-12 -15 -25 -41.5t-15 -43.5q-4 -26 11.5 -38t45.5 -10q10 0 19.5 1t15 2t13.5 5t10.5 5.5t10.5 7.5t9 7l-12 -79q-46 -20 -87 -20q-50 0 -84 25.5t-25 72.5q7 41 46 106z" />
    <glyph glyph-name="tilde" unicode="&#x2dc;" horiz-adv-x="280" 
d="M324 717h56q-6 -42 -28.5 -70.5t-61.5 -28.5q-20 0 -48.5 16t-40.5 16q-24 0 -26 -28h-61q7 41 29.5 70t60.5 29q25 0 53.5 -16.5t42.5 -16.5q17 0 24 29z" />
    <glyph glyph-name="hungarumlaut" unicode="&#x2dd;" horiz-adv-x="280" 
d="M191 746l60 -43l-120 -135l-45 29zM341 746l60 -43l-120 -135l-45 29z" />
    <glyph glyph-name="mu" unicode="&#x3bc;" horiz-adv-x="388" 
d="M331 505h94l-55 -347q-5 -30 -8.5 -47.5t-13 -43t-22 -40t-34.5 -25t-51 -10.5q-68 0 -92 66h-2l-41 -262h-94l112 709h94l-50 -315q0 -3 -1 -9q-3 -15 -4 -23t-2 -23t1.5 -23.5t7 -17.5t14 -13.5t23.5 -4.5q56 0 69 80z" />
    <glyph glyph-name="endash" unicode="&#x2013;" horiz-adv-x="500" 
d="M47 296h500l-12 -74h-500z" />
    <glyph glyph-name="emdash" unicode="&#x2014;" horiz-adv-x="1000" 
d="M177 296h740l-12 -74h-740z" />
    <glyph glyph-name="quoteleft" unicode="&#x2018;" horiz-adv-x="213" 
d="M183 474l-77 24l138 266l50 -15z" />
    <glyph glyph-name="quoteright" unicode="&#x2019;" horiz-adv-x="213" 
d="M226 764l77 -24l-139 -265l-49 14z" />
    <glyph glyph-name="quotesinglbase" unicode="&#x201a;" horiz-adv-x="213" 
d="M122 106l77 -25l-139 -265l-49 14z" />
    <glyph glyph-name="quotedblleft" unicode="&#x201c;" horiz-adv-x="344" 
d="M314 474l-77 24l138 266l50 -15zM177 474l-77 24l138 266l50 -15z" />
    <glyph glyph-name="quotedblright" unicode="&#x201d;" horiz-adv-x="344" 
d="M226 764l77 -24l-139 -265l-49 14zM363 764l77 -24l-139 -265l-49 14z" />
    <glyph glyph-name="quotedblbase" unicode="&#x201e;" horiz-adv-x="344" 
d="M122 106l77 -25l-139 -265l-49 14zM259 106l77 -25l-139 -265l-49 14z" />
    <glyph glyph-name="dagger" unicode="&#x2020;" horiz-adv-x="359" 
d="M252 754h94l-39 -249h103l-13 -82h-103l-89 -560h-94l89 560h-104l13 82h104z" />
    <glyph glyph-name="daggerdbl" unicode="&#x2021;" horiz-adv-x="359" 
d="M252 754h94l-36 -229h103l-13 -82h-103l-29 -184h103l-13 -82h-103l-50 -314h-94l50 314h-104l13 82h104l29 184h-104l13 82h104z" />
    <glyph glyph-name="bullet" unicode="&#x2022;" horiz-adv-x="400" 
d="M72 377q12 78 75.5 133.5t141.5 55.5q79 0 125.5 -55.5t34.5 -133.5q-12 -77 -76.5 -132.5t-143.5 -55.5q-78 0 -123.5 55.5t-33.5 132.5z" />
    <glyph glyph-name="ellipsis" unicode="&#x2026;" horiz-adv-x="1000" 
d="M165.5 -10q-24.5 0 -39.5 18t-11 43q4 24 24.5 41.5t45 17.5t39.5 -17.5t11 -41.5q-4 -25 -24.5 -43t-45 -18zM831.5 -10q-24.5 0 -39.5 18t-11 43q4 24 24.5 41.5t45 17.5t39.5 -17.5t11 -41.5q-4 -25 -24.5 -43t-45 -18zM498.5 -10q-24.5 0 -39.5 18t-11 43
q4 24 24.5 41.5t45 17.5t39.5 -17.5t11 -41.5q-4 -25 -24.5 -43t-45 -18z" />
    <glyph glyph-name="perthousand" unicode="&#x2030;" horiz-adv-x="817" 
d="M213 405q-24 0 -41 8t-26 23t-13.5 31.5t-4.5 38.5t1.5 39.5t5.5 38.5q4 27 8.5 47.5t15 46.5t24 43.5t36 29.5t51.5 12q24 0 41 -8t26 -22.5t13.5 -31t4.5 -39t-1.5 -39.5t-4.5 -39q-5 -26 -9.5 -46.5t-15 -47t-24 -44t-36 -29.5t-51.5 -12zM458 349q24 0 41 -8
t26 -22.5t14 -31t5 -39t-2 -39.5t-5 -39q-4 -26 -9 -46.5t-15.5 -47t-24 -44t-36 -29.5t-50.5 -12q-24 0 -41.5 8t-26 23t-13.5 31.5t-5 38.5t2 39.5t5 38.5q4 27 9 47.5t15.5 46.5t24 43.5t36 29.5t50.5 12zM722 349q24 0 41 -8t26 -22.5t14 -31t5 -39t-2 -39.5t-5 -39
q-4 -26 -9 -46.5t-15.5 -47t-24 -44t-36 -29.5t-50.5 -12q-24 0 -41.5 8t-26 23t-13.5 31.5t-5 38.5t2 39.5t5 38.5q4 27 9 47.5t15.5 46.5t24 43.5t36 29.5t50.5 12zM551 754h62l-493 -754h-62zM222.5 465q7.5 0 14 3t11.5 9t9 12.5t7.5 16.5t5.5 17.5t4.5 18.5t3.5 16.5
t2 15t1.5 10.5t2 10.5t2 15t2 16.5t1.5 18v17t-2 16.5t-5 13t-8.5 9.5t-13 3t-14 -3t-11.5 -9.5t-9 -13t-7.5 -16.5t-5.5 -17t-4.5 -18t-3.5 -16.5t-2 -15t-1.5 -10.5t-2 -10.5t-2 -15t-2 -16.5t-1.5 -18.5v-17.5t2 -16.5t5 -12.5t8.5 -9t13 -3zM411 51q7 0 13.5 3t11.5 9
t9 12.5t7.5 16.5t6 17.5t4.5 18.5l3 16.5t2.5 15t1.5 10.5t1.5 10.5t2.5 15t2.5 16.5t1.5 18t-0.5 17t-2.5 16.5t-5 13t-8.5 9.5t-12.5 3t-13.5 -3t-11.5 -9.5t-9.5 -13t-7.5 -16.5t-5.5 -17t-4.5 -18l-3 -16.5t-2.5 -15t-1.5 -10.5t-2 -10.5t-2.5 -15t-2 -16.5t-1.5 -18.5
t0.5 -17.5t2.5 -16.5t5 -12.5t8.5 -9t12.5 -3zM675 51q7 0 13.5 3t11.5 9t9 12.5t7.5 16.5t6 17.5t4.5 18.5l3 16.5t2.5 15t1.5 10.5t1.5 10.5t2.5 15t2.5 16.5t1.5 18t-0.5 17t-2.5 16.5t-5 13t-8.5 9.5t-12.5 3t-13.5 -3t-11.5 -9.5t-9.5 -13t-7.5 -16.5t-5.5 -17
t-4.5 -18l-3 -16.5t-2.5 -15t-1.5 -10.5t-2 -10.5t-2.5 -15t-2 -16.5t-1.5 -18.5t0.5 -17.5t2.5 -16.5t5 -12.5t8.5 -9t12.5 -3z" />
    <glyph glyph-name="guilsinglleft" unicode="&#x2039;" horiz-adv-x="238" 
d="M67 260l164 222l41 -27l-146 -195l73 -199l-48 -25z" />
    <glyph glyph-name="guilsinglright" unicode="&#x203a;" horiz-adv-x="238" 
d="M253 260l-154 -224l-40 25l135 199l-84 195l49 27z" />
    <glyph glyph-name="fraction" unicode="&#x2044;" horiz-adv-x="122" 
d="M336 754h62l-493 -754h-62z" />
    <glyph glyph-name="Euro" unicode="&#x20ac;" 
d="M514 741l-23 -83q-37 15 -62 15q-146 0 -198 -217h205l-14 -50h-201l-5 -34q-5 -31 -7 -48h191l-14 -50h-181q-5 -194 135 -194q30 0 61 11l-13 -85q-35 -16 -80 -16q-219 0 -201 284h-44l14 50h34l13 82h-40l14 50h37q75 307 289 307q54 0 90 -22z" />
    <glyph glyph-name="trademark" unicode="&#x2122;" horiz-adv-x="750" 
d="M838 754l-66 -421h-55l57 361h-2l-175 -361h-32l-58 361h-2l-57 -361h-55l66 421h89l51 -297h2l149 297h88zM399 754l-9 -60h-109l-57 -361h-61l57 361h-110l9 60h280z" />
    <glyph glyph-name="minus" unicode="&#x2212;" horiz-adv-x="500" 
d="M79 221l11 70h413l-11 -70h-413z" />
    <glyph glyph-name="fi" unicode="&#xfb01;" horiz-adv-x="459" 
d="M101 505h47l26 163q5 31 9.5 51.5t15 45t24.5 39t37.5 24.5t54.5 10q30 0 61 -14l-16 -98q-20 12 -37 12q-7 0 -13 -1.5t-10.5 -3.5t-9 -6.5l-7 -7t-5 -9.5t-4 -9.5t-3 -11t-2 -10.5t-2 -11.5t-1.5 -10.5l-24 -152h78l-12 -74h-78l-68 -431h-94l68 431h-47zM482 505
l-80 -505h-94l80 505h94zM446 595q-26 0 -41.5 18.5t-11.5 44.5t25.5 44t47.5 18q25 0 40.5 -18.5t11.5 -43.5q-4 -26 -25.5 -44.5t-46.5 -18.5z" />
    <glyph glyph-name="fl" unicode="&#xfb02;" horiz-adv-x="445" 
d="M101 505h47l26 163q5 31 9.5 51.5t15 45t24.5 39t37.5 24.5t54.5 10q30 0 61 -14l-16 -98q-20 12 -37 12q-7 0 -13 -1.5t-10.5 -3.5t-9 -6.5l-7 -7t-5 -9.5t-4 -9.5t-3 -11t-2 -10.5t-2 -11.5t-1.5 -10.5l-24 -152h78l-12 -74h-78l-68 -431h-94l68 431h-47zM533 830
l-131 -830h-94l131 830h94z" />
    <glyph glyph-name="oldcurrency" 
d="M1 110l46 42q-32 70 -19 148q13 84 66 151l-32 43l56 53l32 -43q67 49 147 49q67 0 123 -49l47 43l38 -53l-45 -43q31 -71 18 -156q-12 -71 -65 -143l31 -42l-55 -53l-33 43q-69 -50 -147 -50q-67 0 -123 50l-46 -43zM285 481q-69 1 -121 -50.5t-64 -130.5
q-12 -74 23 -126t99 -52q67 0 120 52t65 129q12 73 -23 126t-99 52z" />
    <glyph glyph-name="uni00A0" horiz-adv-x="205" 
 />
    </font>
</defs>
</svg>
