<?xml version="1.0" standalone="no"?>
<!DOCTYPE svg PUBLIC "-//W3C//DTD SVG 1.1//EN" "http://www.w3.org/Graphics/SVG/1.1/DTD/svg11.dtd" >
<svg xmlns="http://www.w3.org/2000/svg" xmlns:xlink="http://www.w3.org/1999/xlink" version="1.1">
<metadata>
Created by FontForge 20170731 at Wed Jul 24 11:47:44 2002
 By Aleksey,,,
Copyright (c) 1987, 1991, 1992, 1993 Adobe Systems Incorporated. All Rights Reserved.Futura is a registered trademark of Fundicion Tipografica Neufville S.A.
</metadata>
<defs>
<font id="FuturaLT-CondensedBoldOblique" horiz-adv-x="490" >
  <font-face 
    font-family="Futura LT"
    font-weight="700"
    font-style="oblique"
    font-stretch="condensed"
    units-per-em="1000"
    panose-1="2 0 8 6 0 0 0 0 0 0"
    ascent="800"
    descent="-200"
    x-height="505"
    cap-height="754"
    bbox="-140 -261 1234.75 990"
    underline-thickness="50"
    underline-position="-200"
    slope="-9"
    unicode-range="U+0020-FFFD"
  />
<missing-glyph horiz-adv-x="245" 
 />
    <glyph glyph-name=".notdef" unicode="&#xfffd;" horiz-adv-x="245" 
 />
    <glyph glyph-name=".null" horiz-adv-x="0" 
 />
    <glyph glyph-name="nonmarkingreturn" horiz-adv-x="333" 
 />
    <glyph glyph-name="space" unicode=" " horiz-adv-x="245" 
 />
    <glyph glyph-name="exclam" unicode="!" horiz-adv-x="246" 
d="M316 754l-83 -528h-147l83 528h147zM151 178q39 0 62.5 -28t17.5 -67t-38.5 -67t-71.5 -28t-62.5 28t-17.5 67t38.5 67t71.5 28z" />
    <glyph glyph-name="quotedbl" unicode="&#x22;" horiz-adv-x="360" 
d="M399 463h-109l31 291h139zM216 463h-109l31 291h139z" />
    <glyph glyph-name="numbersign" unicode="#" 
d="M494 338l-16 -100h-86l-67 -238h-83l66 238h-74l-67 -238h-84l66 238h-85l16 100h98l25 94h-84l16 100h95l62 222h83l-61 -222h75l61 222h84l-62 -222h76l-16 -100h-88l-25 -94h75zM361 432h-74l-25 -94h73z" />
    <glyph glyph-name="dollar" unicode="$" 
d="M329 760l12 71h73l-12 -71q103 -16 147 -88l-96 -90q-42 58 -106 58q-39 0 -65 -20t-32 -59q-6 -35 11.5 -53.5t53.5 -34.5q106 -46 144 -83q65 -62 49 -164q-14 -89 -76.5 -155.5t-151.5 -82.5l-14 -86h-73l14 86q-117 17 -174 88l88 111q23 -26 38 -40t41.5 -26.5
t55.5 -12.5q40 0 70 28t37 70q3 21 -1.5 38t-18 29.5t-24.5 19.5t-32 18q-97 48 -131 78q-66 61 -50 158q14 89 73 143.5t150 69.5z" />
    <glyph glyph-name="percent" unicode="%" horiz-adv-x="858" 
d="M315.5 761q44.5 0 74 -19.5t40.5 -50t13.5 -69.5t-5.5 -78q-7 -42 -20 -78t-34.5 -69t-56.5 -51.5t-80 -18.5t-74.5 19.5t-40 50t-13.5 69.5t5 78q7 42 20 78t35 69t57 51.5t79.5 18.5zM729.5 427q44.5 0 74 -19.5t40.5 -50t14 -69.5t-6 -78q-6 -42 -19 -78t-35 -69
t-57 -51.5t-80 -18.5t-74.5 19.5t-40 50t-13.5 69.5t5 78q7 42 20 78t35 69t57 51.5t79.5 18.5zM673 754h107l-476 -754h-107zM297 647q-37 0 -53 -103q-2 -12 -3 -25.5t-1 -33t6.5 -32t18.5 -12.5t22 12t16.5 32t9.5 33t5 26t3 26t1 33t-6 32t-19 12zM712 313
q-37 0 -54 -103q-2 -13 -3 -26t-1 -32.5t6.5 -32t18.5 -12.5t22 12t16.5 32t9.5 33t5 26t3 26t1 33t-6 32t-18 12z" />
    <glyph glyph-name="ampersand" unicode="&#x26;" horiz-adv-x="590" 
d="M402 0l-22 44q-71 -54 -147 -54q-90 0 -139 66t-34 157q18 116 140 199q-38 92 -28 156q12 74 69.5 119.5t132.5 45.5q71 0 115.5 -40.5t33.5 -109.5q-9 -59 -50 -108t-103 -96l75 -155q10 8 29 25t33.5 30.5t25.5 26.5l63 -107q-38 -38 -89 -74l-7 -5l60 -120h-158z
M329 146l-75 151q-17 -12 -31 -33t-17 -41q-6 -41 13 -69.5t55 -28.5q28 0 55 21zM322 497q25 12 42.5 33.5t21.5 46.5q3 17 -5.5 29t-25.5 12q-20 0 -35 -12.5t-18 -32.5q0 -12 -1 -17t2.5 -15.5t5.5 -14.5t6.5 -14.5t6.5 -14.5z" />
    <glyph glyph-name="quotesingle" unicode="'" horiz-adv-x="250" 
d="M253 463h-109l31 291h139z" />
    <glyph glyph-name="parenleft" unicode="(" horiz-adv-x="300" 
d="M274 766l125 -28q-133 -208 -168 -430q-33 -205 34 -415l-134 -29q-77 214 -40 447q19 117 66 235.5t117 219.5z" />
    <glyph glyph-name="parenright" unicode=")" horiz-adv-x="300" 
d="M125 -136l-124 28q133 208 168 430q33 205 -34 415l133 29q77 -214 41 -447q-19 -117 -66 -235.5t-118 -219.5z" />
    <glyph glyph-name="asterisk" unicode="*" horiz-adv-x="376" 
d="M277 754h64l-18 -119l109 63l23 -56l-114 -58l95 -59l-41 -57l-89 65l-19 -123h-64l19 123l-113 -65l-23 57l114 59l-95 58l41 56l93 -63z" />
    <glyph glyph-name="plus" unicode="+" 
d="M239 311l30 188h110l-30 -188h170l-17 -110h-170l-31 -194h-110l31 194h-169l17 110h169z" />
    <glyph glyph-name="comma" unicode="," horiz-adv-x="245" 
d="M93 162h151l-200 -306h-100z" />
    <glyph glyph-name="hyphen" unicode="-" horiz-adv-x="318" 
d="M97 397h250l-21 -133h-250z" />
    <glyph glyph-name="period" unicode="." horiz-adv-x="245" 
d="M150.5 178q39.5 0 62.5 -28t17 -67t-38 -67t-71.5 -28t-63 28t-17.5 67t38.5 67t72 28z" />
    <glyph glyph-name="slash" unicode="/" horiz-adv-x="547" 
d="M552 807h114l-547 -973h-114z" />
    <glyph glyph-name="zero" unicode="0" 
d="M366 766q44 0 76 -19t49 -52.5t26.5 -72.5t10 -85.5t-2 -84.5t-8.5 -75q-8 -46 -19.5 -92t-34.5 -101.5t-51.5 -97t-72.5 -70t-96 -28.5q-43 0 -75 19t-49 52.5t-26.5 72.5t-10.5 85.5t2 84.5t9 75q7 46 18.5 92t34.5 101.5t51.5 97t73 70t95.5 28.5zM345 630
q-69 0 -105 -241q-2 -9 -2.5 -12t-1.5 -12q-40 -241 29 -241t105 241q1 9 1.5 12t2.5 12q40 241 -29 241z" />
    <glyph glyph-name="one" unicode="1" 
d="M229 754h217l-119 -754h-145l99 624h-72z" />
    <glyph glyph-name="two" unicode="2" 
d="M268 492h-138l4 41q9 56 24.5 96.5t42 72.5t68.5 48.5t99 16.5q96 0 142 -49t31 -144q-8 -53 -31 -99.5t-64 -105.5l-163 -239h175l-21 -130h-396l219 312l9 12q35 50 55 80t44 79.5t30 85.5q2 21 1.5 41.5t-12.5 36t-34 15.5q-60 0 -79 -122z" />
    <glyph glyph-name="three" unicode="3" 
d="M206 198l-4 -21q-3 -22 8 -40.5t39 -18.5q21 0 36.5 9.5t24.5 27.5t13 33.5t8 36.5q10 62 -11.5 84.5t-85.5 20.5l21 130q64 0 92 19.5t38 79.5q12 77 -39 77q-50 0 -63 -78l-2 -15h-129q5 47 19.5 86t39 70.5t63.5 49t89 17.5q91 0 132.5 -53t27.5 -144
q-22 -141 -121 -178v-2q57 -15 77.5 -64t9.5 -115q-16 -103 -85 -162.5t-173 -59.5q-95 0 -139.5 57.5t-25.5 152.5h140z" />
    <glyph glyph-name="four" unicode="4" 
d="M347 754h164l-72 -458h61l-18 -114h-61l-29 -182h-145l29 182h-219l18 112zM294 296l45 286h-2l-157 -286h114z" />
    <glyph glyph-name="five" unicode="5" 
d="M135 383l117 371h288l-20 -130h-184l-39 -122q111 -6 157 -70.5t28 -178.5q-20 -124 -94 -194.5t-196 -70.5q-75 0 -140 34l46 131q38 -35 87 -35q56 0 92.5 40t45.5 97q11 68 -25 101t-105 33q-21 0 -58 -6z" />
    <glyph glyph-name="six" unicode="6" 
d="M325 754h144l-190 -294l2 -2q52 41 100 41q33 0 57.5 -15.5t36.5 -40.5t19.5 -56.5t6 -62.5t-4.5 -59q-9 -54 -27.5 -101t-48.5 -87.5t-76 -64.5t-103 -24q-54 0 -92 23t-54 60t-22 85t4 97q15 93 55 176.5t111 196.5zM307 367q-19 0 -36 -14.5t-27 -37t-16 -42t-8 -36.5
q-2 -21 -3 -48t11 -50.5t35 -23.5q20 0 36.5 15t26 38.5t15 42.5t7.5 38q2 21 3.5 47t-10 48.5t-34.5 22.5z" />
    <glyph glyph-name="seven" unicode="7" 
d="M192 754h407l-403 -754h-155l334 624h-203z" />
    <glyph glyph-name="eight" unicode="8" 
d="M224 406l1 2q-47 17 -67 60.5t-11 98.5q13 85 74.5 142t145.5 57t127 -57t30 -142q-9 -55 -42.5 -98.5t-86.5 -61.5v-1q125 -42 100 -200q-15 -94 -86 -156t-165 -62t-145.5 62.5t-36.5 155.5q24 157 162 200zM297 334q-24 0 -42 -20t-26 -42.5t-11 -46.5
q-2 -21 -2.5 -45t12 -43t36.5 -19q23 0 41.5 20t27 42.5t12.5 44.5q1 20 0.5 44.5t-13 44.5t-35.5 20zM292 570q-13 -86 28 -86q16 0 27.5 8.5t18 24.5t9 26t4.5 26q13 80 -33 80q-41 0 -54 -79z" />
    <glyph glyph-name="nine" unicode="9" 
d="M285 0h-144l191 295l-2 2q-54 -42 -101 -42q-32 0 -56.5 16t-37 41t-19.5 56.5t-5.5 62.5t4.5 59q8 54 26.5 101t48.5 87.5t76.5 64t102.5 23.5q55 0 92.5 -22.5t54 -60t22 -85t-4.5 -97.5q-14 -92 -54.5 -176.5t-111.5 -195.5zM347 637q-20 0 -36 -14.5t-26 -38
t-15 -42.5t-8 -37q-2 -20 -3.5 -46.5t10 -49t34.5 -22.5q20 0 37 14.5t27 37.5t15.5 42t8.5 37q2 20 2.5 47t-11.5 49.5t-35 22.5z" />
    <glyph glyph-name="colon" unicode=":" horiz-adv-x="245" 
d="M150.5 178q39.5 0 62.5 -28t17 -67t-38 -67t-71.5 -28t-63 28t-17.5 67t38.5 67t72 28zM203.5 515q39.5 0 63 -28t17 -67t-38.5 -67t-71.5 -28t-63 28t-17 67t38.5 67t71.5 28z" />
    <glyph glyph-name="semicolon" unicode=";" horiz-adv-x="245" 
d="M93 162h150l-199 -306h-100zM204.5 515q39.5 0 63 -28t17 -67t-38.5 -67t-71.5 -28t-63 28t-17 67t38.5 67t71.5 28z" />
    <glyph glyph-name="less" unicode="&#x3c;" 
d="M181 256l304 -162l-18 -111l-414 225l16 99l486 227l-18 -111z" />
    <glyph glyph-name="equal" unicode="=" 
d="M535 408l-18 -110h-449l18 110h449zM504 213l-18 -110h-449l18 110h449z" />
    <glyph glyph-name="greater" unicode="&#x3e;" 
d="M36 94l355 162l-303 167l18 111l413 -227l-16 -99l-485 -225z" />
    <glyph glyph-name="question" unicode="?" horiz-adv-x="454" 
d="M256 564l-3 -18h-141q12 99 71 159.5t156.5 60.5t143.5 -63t31 -162q-11 -70 -51.5 -130.5t-103.5 -76.5l-16 -98h-149l30 186q13 -3 24 -3q47 0 73 35t33 84q2 18 3 39.5t-9 40t-31 18.5q-25 0 -40.5 -22t-20.5 -50zM151 83q6 39 38.5 67t70.5 28q40 0 63.5 -28
t17.5 -67t-38.5 -67t-72.5 -28q-38 0 -61.5 28t-17.5 67z" />
    <glyph glyph-name="at" unicode="@" horiz-adv-x="833" 
d="M620 518l19 53h98l-101 -306q-9 -23 9 -22q29 3 72 50q54 60 67 133q23 122 -45 194.5t-197 72.5q-139 0 -241.5 -88.5t-124.5 -223.5q-23 -149 55 -234.5t228 -85.5q104 0 219 92h96q-69 -78 -155 -121.5t-180 -43.5q-184 0 -276.5 108.5t-64.5 284.5q8 47 27.5 96
t57 102t87.5 93.5t125 67t161 26.5q155 0 244 -87.5t67 -224.5q-11 -67 -42 -122t-68 -86.5t-78.5 -53t-71 -29t-47.5 -7.5q-21 0 -31.5 17.5t-0.5 44.5l-2 2q-74 -60 -133 -60q-77 0 -114.5 52t-25.5 130q15 95 85.5 165.5t164.5 70.5q85 0 117 -60zM563 373q12 49 -3.5 83
t-60.5 30q-46 -4 -84 -40.5t-49 -85.5q-10 -47 5.5 -75t48.5 -33q50 -8 90.5 32t52.5 89z" />
    <glyph glyph-name="A" unicode="A" horiz-adv-x="528" 
d="M302 754h157l62 -754h-159l-8 127h-151l-47 -127h-148zM351 245l-6 201l1 114h-2l-34 -114l-64 -201h105z" />
    <glyph glyph-name="B" unicode="B" horiz-adv-x="479" 
d="M198 0h-145l119 754h146q54 0 88 -7.5t62 -33.5q32 -29 45 -75t5 -95q-16 -101 -106 -156q41 -21 57.5 -71.5t8.5 -103.5q-17 -106 -94 -159t-186 -53zM333 229q7 45 -14 73t-65 27l-32 -204q44 -2 74 27t37 77zM377 540q6 42 -13.5 66.5t-61.5 22.5l-30 -184q42 0 70 26
t35 69z" />
    <glyph glyph-name="C" unicode="C" horiz-adv-x="452" 
d="M548 749l-22 -137q-29 8 -55 8q-47 0 -87.5 -20t-67.5 -54t-45 -75t-25 -86q-4 -34 -4 -69t10.5 -67.5t27.5 -58t46.5 -40.5t66.5 -15q23 0 59 11l-22 -141q-34 -13 -71 -13q-63 0 -114 22t-84 59t-54 87.5t-24.5 107t4.5 116.5q11 71 44.5 138.5t83 121t117.5 86.5
t142 33q37 0 74 -14z" />
    <glyph glyph-name="D" unicode="D" horiz-adv-x="530" 
d="M186 0h-133l119 754h113q58 0 68 -1q159 -17 203 -160q28 -88 7 -222q-13 -83 -40.5 -149t-72 -116.5t-111.5 -78t-153 -27.5zM223 134q42 -2 77.5 21t57.5 61.5t36 77.5t20 78q5 32 6 63t-4.5 65.5t-17.5 60t-37.5 42.5t-60.5 17z" />
    <glyph glyph-name="E" unicode="E" horiz-adv-x="392" 
d="M172 754h300l-22 -140h-151l-26 -164h133l-22 -140h-133l-27 -170h153l-22 -140h-302z" />
    <glyph glyph-name="F" unicode="F" horiz-adv-x="394" 
d="M172 754h301l-22 -140h-152l-25 -161h137l-22 -140h-137l-50 -313h-149z" />
    <glyph glyph-name="G" unicode="G" horiz-adv-x="563" 
d="M360 420h244l-10 -59q-8 -53 -21 -100.5t-37.5 -99.5t-56 -88.5t-80 -60.5t-106.5 -24q-49 0 -87.5 16.5t-62.5 46t-40 67t-21 81.5t-4.5 87t7.5 87q9 56 24.5 108t43 105t63 92t87.5 63.5t113 24.5q84 0 133 -48t61 -131l-154 -56q0 15 -1 25t-4.5 25t-9.5 24t-17.5 16
t-28.5 7q-28 2 -52.5 -17.5t-40 -47.5t-28.5 -66t-19 -65.5t-10 -54.5q-40 -251 75 -251q27 0 48 16t34 42t20 49t10 47h-95z" />
    <glyph glyph-name="H" unicode="H" horiz-adv-x="555" 
d="M172 754h149l-46 -295h151l46 295h149l-119 -754h-149l51 319h-151l-51 -319h-149z" />
    <glyph glyph-name="I" unicode="I" horiz-adv-x="255" 
d="M172 754h149l-119 -754h-149z" />
    <glyph glyph-name="J" unicode="J" horiz-adv-x="352" 
d="M423 754l-80 -510q-1 -2 -1 -7q-4 -21 -6.5 -35t-10.5 -43t-17.5 -49t-26.5 -45t-38 -40t-52.5 -26t-68.5 -11q-69 0 -108 23l23 149q25 -42 72 -42q19 0 33 8t22 18t14.5 28.5t8.5 30t5 32.5q1 6 2 9l80 510h149z" />
    <glyph glyph-name="K" unicode="K" horiz-adv-x="513" 
d="M172 754h149l-53 -337h2l177 337h152l-194 -348l93 -406h-157l-76 384h-2l-61 -384h-149z" />
    <glyph glyph-name="L" unicode="L" horiz-adv-x="373" 
d="M172 754h149l-97 -614h156l-22 -140h-305z" />
    <glyph glyph-name="M" unicode="M" horiz-adv-x="722" 
d="M208 754h196l3 -445h2l130 445h200l-40 -754h-153l50 543h-2l-53 -186l-121 -357h-115l-16 361l2 168l2 14h-2l-108 -543h-160z" />
    <glyph glyph-name="N" unicode="N" horiz-adv-x="573" 
d="M172 754h143l114 -455l3 2q-5 48 6 114l53 339h149l-119 -754h-141l-112 455l-2 -2l-5 -76l-4 -31l-55 -346h-149z" />
    <glyph glyph-name="O" unicode="O" horiz-adv-x="582" 
d="M412 766q52 0 94.5 -21t74.5 -67.5t40.5 -120.5t-5.5 -180q-16 -102 -51 -179.5t-80 -122t-94.5 -66t-101.5 -21.5t-94 21t-74 67.5t-41 120.5t6 180q16 102 50.5 179.5t80 122t94.5 66t101 21.5zM245 377q-3 -20 -5.5 -40t-4 -51t2 -57t10.5 -50.5t23 -38.5t40 -14
q28 0 52 21t39 49.5t27.5 67t18 63.5t9.5 50q3 22 5.5 42.5t4 52t-2 57t-10.5 49t-23.5 37t-40.5 13.5q-28 0 -52 -20.5t-39 -48t-27 -66t-17.5 -64t-9.5 -52.5z" />
    <glyph glyph-name="P" unicode="P" horiz-adv-x="487" 
d="M202 0h-149l119 754h155q71 0 106 -9q143 -39 115 -214q-16 -104 -87.5 -163t-176.5 -59l-33 2zM302 631l-32 -199q56 -2 88.5 21.5t40.5 79.5q16 98 -69 98h-28z" />
    <glyph glyph-name="Q" unicode="Q" horiz-adv-x="582" 
d="M518 111l54 -66l-90 -74l-48 63q-66 -46 -145 -46q-52 0 -94 21t-74 67.5t-41 120.5t6 180q16 102 50.5 179.5t80 122t94.5 66t101 21.5t94.5 -21t74.5 -67.5t40.5 -120.5t-5.5 -180q-28 -173 -98 -266zM364 307l56 -75q22 50 37 145q3 22 5.5 42.5t4 52t-2 57t-10.5 49
t-23.5 37t-40.5 13.5q-28 0 -52 -20.5t-39 -48t-27 -66t-17.5 -64t-9.5 -52.5q-3 -20 -5.5 -40t-4 -51t2 -57t10.5 -50.5t23 -38.5t40 -14q19 0 38 13l-74 93z" />
    <glyph glyph-name="R" unicode="R" horiz-adv-x="530" 
d="M202 0h-149l119 754h150q150 0 202 -62q45 -54 29 -154q-21 -136 -138 -195l77 -343h-157l-76 348h-2zM302 631l-32 -201l26 -1q49 0 76.5 29.5t35.5 78.5q7 44 -13 70.5t-73 23.5h-20z" />
    <glyph glyph-name="S" unicode="S" horiz-adv-x="440" 
d="M478 729l-22 -145q-48 48 -101 48q-35 0 -58 -20t-29 -54q-4 -25 5.5 -46.5t26.5 -38.5t38.5 -34.5t42.5 -37.5t37.5 -43.5t23.5 -58.5t0 -76q-16 -104 -84 -169.5t-170 -65.5q-33 0 -66.5 10t-55.5 28l23 142q52 -40 106 -40q37 0 65 22.5t34 59.5q0 11 1.5 18t-2 15.5
t-5 14t-7.5 12.5t-9.5 11t-11 10t-12 9.5t-12.5 9.5t-12 10q-64 48 -90 97.5t-14 126.5q15 94 77.5 158t154.5 64q69 0 126 -37z" />
    <glyph glyph-name="T" unicode="T" horiz-adv-x="414" 
d="M134 754h384l-22 -140h-118l-97 -614h-149l97 614h-117z" />
    <glyph glyph-name="U" unicode="U" horiz-adv-x="544" 
d="M168 754h149l-77 -488q-1 -4 -2 -13q-3 -19 -4.5 -29.5t-2.5 -28.5t2 -28.5t9 -22t18.5 -16.5t30.5 -5q22 0 37.5 7t24 15t15 26.5t9 29t6.5 33.5l82 520h149l-87 -550q-3 -21 -6.5 -37.5t-12.5 -40t-20 -41t-31 -37t-45 -32t-61.5 -20.5t-81.5 -8q-107 0 -156.5 51
t-32.5 155z" />
    <glyph glyph-name="V" unicode="V" horiz-adv-x="565" 
d="M127 754h160l33 -362q3 -19 4 -40.5t1.5 -48t1.5 -40.5h2q2 7 17 56t26 75l148 360h156l-328 -754h-122z" />
    <glyph glyph-name="W" unicode="W" horiz-adv-x="793" 
d="M127 754h152l7 -360q1 -24 -0.5 -50t-4.5 -60t-4 -50h2q5 16 14 50t17 60t16 50l132 360h118l14 -520h2q5 18 12 50t13.5 58t14.5 50l116 362h156l-275 -754h-129l-14 398l1 138h-2q-5 -15 -14 -43.5t-16.5 -51.5t-15.5 -43l-149 -398h-130z" />
    <glyph glyph-name="X" unicode="X" horiz-adv-x="545" 
d="M141 754h168l27 -105q16 -85 18 -115h2q18 51 52 115l61 105h161l-218 -365l111 -389h-173l-29 120q-7 31 -15 113h-2q-48 -108 -51 -113l-63 -120h-168l222 389z" />
    <glyph glyph-name="Y" unicode="Y" horiz-adv-x="514" 
d="M123 754h164l46 -205l5 -37h2l26 56l96 186h167l-238 -393l-57 -361h-149l57 361z" />
    <glyph glyph-name="Z" unicode="Z" horiz-adv-x="508" 
d="M169 754h443l-355 -614h237l-22 -140h-454l348 614h-219z" />
    <glyph glyph-name="bracketleft" unicode="[" horiz-adv-x="320" 
d="M172 754h251l-15 -98h-121l-108 -682h123l-16 -98h-253z" />
    <glyph glyph-name="backslash" unicode="\" horiz-adv-x="250" 
d="M0 807h114l239 -973h-114z" />
    <glyph glyph-name="bracketright" unicode="]" horiz-adv-x="320" 
d="M135 754h251l-139 -878h-253l16 98h123l108 682h-121z" />
    <glyph glyph-name="asciicircum" unicode="^" 
d="M173 330l-92 47l223 377h120l106 -377l-108 -47l-79 291z" />
    <glyph glyph-name="underscore" unicode="_" horiz-adv-x="500" 
d="M-12 -75h500l-8 -50h-500z" />
    <glyph glyph-name="grave" unicode="`" horiz-adv-x="300" 
d="M272 754l74 -144l-76 -40l-107 138z" />
    <glyph glyph-name="a" unicode="a" horiz-adv-x="433" 
d="M258 0l9 57h-2q-44 -67 -104 -67q-32 0 -54.5 20t-32 49t-13 66.5t-1.5 68.5t6 59q5 31 12.5 61t22 68t33 66t47 47.5t62 19.5t55 -19.5t28.5 -52.5h2l10 62h141l-80 -505h-141zM238 119q15 0 28.5 16.5t22 42t13 44t6.5 33.5q3 16 4.5 33.5t1 43.5t-9.5 42t-25 16
q-17 0 -30.5 -16t-22 -41.5t-12.5 -43t-7 -34.5q-21 -136 31 -136z" />
    <glyph glyph-name="b" unicode="b" horiz-adv-x="433" 
d="M35 0l128 807h141l-58 -364h2q18 33 45.5 52.5t60.5 19.5t56 -19.5t32.5 -47.5t12 -66t0 -68t-7.5 -61q-4 -28 -12 -58.5t-23 -68.5t-34 -67t-47.5 -49t-61.5 -20q-61 0 -82 67h-2l-9 -57h-141zM234 119q17 0 30.5 16t22 41t13 43t6.5 36q3 16 4.5 34t1 43.5t-9 41.5
t-24.5 16q-17 0 -30.5 -16t-22 -42t-12.5 -43t-7 -34q-2 -16 -3.5 -33.5t-1.5 -43.5t8.5 -42.5t24.5 -16.5z" />
    <glyph glyph-name="c" unicode="c" horiz-adv-x="315" 
d="M314 137l-21 -129q-42 -18 -84 -18q-39 0 -69 16t-46 42t-25.5 60t-8.5 70t5 71q8 50 26 95.5t46 85t71 62.5t96 23q35 0 67 -15l-19 -124q-15 16 -39 16t-44 -13.5t-32 -35t-19 -43t-10 -43.5q-22 -135 60 -135q22 0 46 15z" />
    <glyph glyph-name="d" unicode="d" horiz-adv-x="433" 
d="M258 0l9 57h-2q-44 -67 -104 -67q-32 0 -54.5 20t-32 49t-13 66.5t-1.5 68.5t6 59q5 31 12.5 61t22 68t33 66t47 47.5t62 19.5t55 -19.5t28.5 -52.5h2l58 364h141l-128 -807h-141zM238 119q15 0 28.5 16.5t22 42t13 44t6.5 33.5q3 16 4.5 33.5t1 43.5t-9.5 42t-25 16
q-17 0 -30.5 -16t-22 -41.5t-12.5 -43t-7 -34.5q-21 -136 31 -136z" />
    <glyph glyph-name="e" unicode="e" horiz-adv-x="414" 
d="M431 273l-12 -58h-223q0 -2 -1 -7q-2 -17 -3 -27.5t-1 -28t3.5 -28t12.5 -18.5t24 -8q45 0 54 58h120q-22 -76 -68 -121t-119 -45q-51 0 -86.5 22t-51 57.5t-20.5 80.5t4 92q6 39 17.5 75.5t31.5 73t45 63.5t61.5 44t79.5 17q74 0 115 -64.5t17 -177.5zM314 302l2 12
q1 18 2 38.5t-8.5 37.5t-30.5 17q-28 0 -44.5 -28.5t-21.5 -61.5l-2 -15h103z" />
    <glyph glyph-name="f" unicode="f" horiz-adv-x="299" 
d="M99 505h52l22 142q7 40 16.5 67.5t28 52.5t50.5 37.5t77 12.5q27 0 60 -12l-22 -136q-13 8 -24 8q-8 0 -15 -2.5t-11.5 -5.5t-8.5 -10t-6 -11t-4.5 -14t-3 -13t-2.5 -14t-2 -12l-14 -90h65l-18 -116h-65l-62 -389h-141l62 389h-52z" />
    <glyph glyph-name="g" unicode="g" horiz-adv-x="437" 
d="M20 -67h125q-7 -72 40 -72q13 0 23.5 5t18 15.5t12.5 19.5t9 26t5.5 25t4 26.5t3.5 20.5l10 64h-2q-23 -35 -46 -54t-57 -19q-66 0 -95 84q-23 66 -6 171q5 32 12 62.5t22 70t33.5 68.5t47.5 49t64 20q33 0 55.5 -19.5t29.5 -51.5h2l10 61h141l-87 -549
q-17 -109 -72 -158t-150 -49q-171 0 -153 184zM239 119q15 0 28.5 16.5t22 42.5t12.5 43.5t6 33.5q2 10 3 20t2.5 27t0.5 31t-4 28t-11 21.5t-19 7.5q-17 0 -31 -16t-22.5 -41.5t-12.5 -43t-7 -34.5q-21 -136 32 -136z" />
    <glyph glyph-name="h" unicode="h" horiz-adv-x="424" 
d="M163 807h141l-60 -380h2q21 38 56 63t75 25q20 0 34.5 -6t23 -15t13 -24.5t6 -28t-0.5 -33.5t-3.5 -32.5t-5.5 -33.5q-2 -11 -2 -16l-52 -326h-141l44 277q0 1 3.5 19t4 27t0 23t-7.5 20.5t-20 6.5q-38 0 -47 -58l-50 -315h-141z" />
    <glyph glyph-name="i" unicode="i" horiz-adv-x="209" 
d="M114 505h141l-80 -505h-141zM193.5 565q-36.5 0 -58.5 26.5t-16 64.5t36.5 63.5t69.5 25.5q36 0 57 -27t16 -64q-6 -36 -37 -62.5t-67.5 -26.5z" />
    <glyph glyph-name="j" unicode="j" horiz-adv-x="209" 
d="M114 505h141l-119 -754h-141zM193.5 565q-36.5 0 -58.5 26.5t-16 64.5t36.5 63.5t69.5 25.5q36 0 57 -27t16 -64q-6 -36 -37 -62.5t-67.5 -26.5z" />
    <glyph glyph-name="k" unicode="k" horiz-adv-x="440" 
d="M163 807h141l-76 -479h2l105 177h153l-147 -206l92 -299h-155l-63 234h-2l-37 -234h-141z" />
    <glyph glyph-name="l" unicode="l" horiz-adv-x="210" 
d="M163 807h141l-128 -807h-141z" />
    <glyph glyph-name="m" unicode="m" horiz-adv-x="639" 
d="M256 505l-12 -81h2q59 91 139 91q36 0 54.5 -24.5t18.5 -61.5h2q25 37 60.5 61.5t74.5 24.5q21 0 36.5 -7t22.5 -22t11 -29t2.5 -37t-3 -35.5t-5.5 -35.5l-55 -349h-141l43 274q1 2 3 13.5t3 18t2 18.5t0 19.5t-3.5 15t-8.5 11.5t-15 4q-38 0 -47 -57l-50 -317h-141
l45 283q0 3 2 13t3 16t2 16t-0.5 17t-4 13.5t-8 10t-13.5 3.5q-40 0 -49 -58l-50 -314h-141l80 505h141z" />
    <glyph glyph-name="n" unicode="n" horiz-adv-x="424" 
d="M256 505l-12 -78h2q21 38 56 63t75 25q20 0 34.5 -6t23 -15t13 -24.5t6 -28t-0.5 -33.5t-3.5 -32.5t-5.5 -33.5q-2 -11 -2 -16l-52 -326h-141l44 277q0 1 3.5 19t4 27t0 23t-7.5 20.5t-20 6.5q-38 0 -47 -58l-50 -315h-141l80 505h141z" />
    <glyph glyph-name="o" unicode="o" horiz-adv-x="436" 
d="M300 515q43 0 75 -15t49 -40t25 -60t7.5 -71t-6.5 -77q-8 -52 -24.5 -96t-43 -83t-69 -61t-97.5 -22q-43 0 -75 15t-49 40t-25 59.5t-8 70.5t7 77q8 52 24 96t43 83t69.5 61.5t97.5 22.5zM279 388q-17 0 -30.5 -16t-22 -42t-12.5 -43t-7 -35q-2 -10 -3 -20.5t-2.5 -27.5
t0 -31t4.5 -28t11 -21.5t19 -7.5q17 0 31 16t22.5 42t12.5 43t7 35q2 10 3 20.5t2.5 27.5t0 31t-4.5 28t-11 21.5t-20 7.5z" />
    <glyph glyph-name="p" unicode="p" horiz-adv-x="433" 
d="M256 505l-10 -62h2q18 33 45.5 52.5t60.5 19.5t56 -19.5t32.5 -47.5t12 -66t0 -68t-7.5 -61q-4 -28 -12 -58.5t-23 -68.5t-34 -67t-47.5 -49t-61.5 -20q-61 0 -82 67h-2l-48 -306h-141l119 754h141zM234 119q51 0 72 136q3 16 4.5 34t1 43.5t-9 41.5t-24.5 16
q-17 0 -30.5 -16t-22 -42t-12.5 -43t-7 -34q-2 -16 -3.5 -33.5t-1.5 -43.5t8.5 -42.5t24.5 -16.5z" />
    <glyph glyph-name="q" unicode="q" horiz-adv-x="433" 
d="M479 505l-119 -754h-141l48 306h-2q-44 -67 -104 -67q-32 0 -54.5 20t-32 49t-13 66.5t-1.5 68.5t6 59q5 31 12.5 61t22 68t33 66t47 47.5t62 19.5t55 -19.5t28.5 -52.5h2l10 62h141zM238 119q15 0 28.5 16.5t22 42t13 44t6.5 33.5q3 16 4.5 33.5t1 43.5t-9.5 42t-25 16
q-17 0 -30.5 -16t-22 -41.5t-12.5 -43t-7 -34.5q-21 -136 31 -136z" />
    <glyph glyph-name="r" unicode="r" horiz-adv-x="315" 
d="M115 505h141l-10 -61h2q55 73 128 80l-22 -137q-13 2 -21 2q-28 0 -47.5 -8t-31 -18t-19.5 -31t-11.5 -36t-7.5 -44l-40 -252h-141z" />
    <glyph glyph-name="s" unicode="s" horiz-adv-x="376" 
d="M421 472l-74 -103q-15 16 -29 24.5t-33 8.5t-30.5 -10t-13.5 -27q-2 -13 8.5 -24.5t27 -19.5t35.5 -20.5t34 -28t22.5 -42.5t1.5 -63q-12 -78 -63 -127.5t-127 -49.5q-82 0 -142 58l77 100q34 -33 65 -33q17 0 31 11.5t17 30.5q3 15 -7 27.5t-26.5 21t-35.5 22t-34.5 29
t-23 44t-1.5 66.5q11 69 66.5 108.5t126.5 39.5q76 0 128 -43z" />
    <glyph glyph-name="t" unicode="t" horiz-adv-x="308" 
d="M181 645h141l-22 -140h58l-18 -116h-58l-62 -389h-141l62 389h-49l18 116h49z" />
    <glyph glyph-name="u" unicode="u" horiz-adv-x="423" 
d="M115 505h141l-44 -277q0 -2 -4 -21t-4.5 -29.5t0 -25.5t7.5 -22.5t20 -7.5t22 6.5t13.5 19.5t6.5 21.5t4 22.5q1 3 1 5l50 308h140l-51 -322q-14 -91 -67 -142t-144 -51q-33 0 -58.5 7t-41.5 18.5t-26 29t-14.5 35t-5 40.5t1 41t5.5 41z" />
    <glyph glyph-name="v" unicode="v" horiz-adv-x="452" 
d="M95 505h140l23 -277v-8h2l19 52l92 233h146l-226 -505h-131z" />
    <glyph glyph-name="w" unicode="w" horiz-adv-x="694" 
d="M95 505h137l21 -296h2l113 296h121l17 -296h2l19 54l98 242h134l-220 -505h-116l-19 171l-7 146h-2l-54 -161l-65 -156h-118z" />
    <glyph glyph-name="x" unicode="x" horiz-adv-x="489" 
d="M122 505h146l28 -77l10 -31l74 108h146l-166 -233l106 -272h-149l-52 139l-97 -139h-145l188 272z" />
    <glyph glyph-name="y" unicode="y" horiz-adv-x="452" 
d="M95 505h142l21 -204l3 -84h2l112 288h142l-336 -754h-139l122 259z" />
    <glyph glyph-name="z" unicode="z" horiz-adv-x="401" 
d="M119 505h339l-217 -388h139l-19 -117h-338l221 388h-144z" />
    <glyph glyph-name="braceleft" unicode="{" horiz-adv-x="300" 
d="M283 -124h-65q-85 0 -109 36t-11 119l22 138q17 106 -58 106l12 76q40 0 62 30t29 76l26 162q11 70 44.5 102.5t99.5 32.5h87l-12 -76q-46 0 -67 -25.5t-28 -74.5l-21 -132q-10 -59 -31.5 -89.5t-71.5 -41.5v-2q32 -6 48 -27.5t15.5 -51t-4.5 -63.5l-19 -119
q-7 -46 5.5 -73t58.5 -27z" />
    <glyph glyph-name="bar" unicode="|" horiz-adv-x="250" 
d="M195 786h110l-159 -1000h-110z" />
    <glyph glyph-name="braceright" unicode="}" horiz-adv-x="300" 
d="M42 -124h-65l12 76q46 0 67.5 27t28.5 73l19 119q5 28 11 49t17.5 41.5t30.5 34t46 17.5v2q-47 11 -59 41.5t-2 89.5l21 132q7 49 -5.5 74.5t-59.5 25.5l12 76h87q67 0 90 -32.5t12 -102.5l-26 -162q-7 -46 6 -76t53 -30l-12 -76q-75 0 -92 -106l-22 -138
q-13 -83 -48.5 -119t-121.5 -36z" />
    <glyph glyph-name="asciitilde" unicode="~" 
d="M471 359l44 -73l-6 -9q-19 -26 -30.5 -40t-30 -32.5t-38.5 -27t-42 -8.5q-26 0 -63 16.5t-68.5 33t-44.5 16.5q-10 0 -19.5 -4t-16.5 -9t-16 -16t-13 -16.5t-13 -19.5t-12 -17l-45 74q36 55 72.5 89.5t80.5 34.5q27 0 62.5 -16.5t66 -33t47.5 -16.5q13 0 26.5 8.5
t20 15.5t21 27t17.5 23z" />
    <glyph glyph-name="nbspace" unicode="&#xa0;" horiz-adv-x="245" 
 />
    <glyph glyph-name="exclamdown" unicode="&#xa1;" horiz-adv-x="246" 
d="M157 -249h-147l83 528h147zM205 518q39 0 62.5 -28t17.5 -67t-38.5 -67t-71.5 -28t-62.5 28t-17.5 67t38.5 67t71.5 28z" />
    <glyph glyph-name="cent" unicode="&#xa2;" 
d="M222 51l10 65q-36 12 -60 38t-33.5 58.5t-12 71t5.5 75.5q7 43 19.5 82.5t33 80t54 70.5t76.5 43l11 69h65l-10 -63q33 -3 56 -14l-20 -127q-18 15 -34 15q-23 0 -42.5 -15.5t-31.5 -39.5t-19 -46.5t-10 -43.5q-3 -26 -3.5 -53.5t14.5 -49.5t44 -22q19 0 44 13l-20 -127
q-25 -11 -62 -18l-10 -62h-65z" />
    <glyph glyph-name="sterling" unicode="&#xa3;" 
d="M44 0l18 113q73 65 86 167h-93l13 77h86q1 24 0 90t4 91q16 100 82.5 161t165.5 61q198 0 159 -225h-128l3 16q2 20 1.5 39t-12 33t-33.5 14q-39 0 -62 -28.5t-29 -66.5q-5 -32 -4.5 -92.5t-2.5 -92.5h127l-13 -77h-130q-20 -88 -72 -158l21 1q26 0 75.5 -10t75.5 -10
q61 0 113 25l-18 -118q-40 -21 -91 -21q-40 0 -115.5 14.5t-115.5 14.5q-53 0 -111 -18z" />
    <glyph glyph-name="currency" unicode="&#xa4;" 
d="M490 349l-18 -66h-190q11 -68 51 -111.5t108 -43.5q23 0 46 6l-21 -135q-26 -7 -55 -7q-85 0 -147.5 40.5t-95 105t-36.5 145.5h-62l18 66h44q1 11 5 34l2 17h-51l19 66h51q45 123 145.5 208.5t222.5 85.5q38 0 74 -9l-36 -132q-22 5 -43 5q-74 0 -130 -44.5t-85 -113.5
h217l-19 -66h-220l-2 -16q-4 -23 -4 -35h212z" />
    <glyph glyph-name="yen" unicode="&#xa5;" 
d="M617 754l-172 -286h75l-10 -66h-105l-25 -41l-7 -43h123l-10 -66h-123l-40 -252h-151l40 252h-124l10 66h124l7 43l-12 41h-105l10 66h75l-86 286h164l40 -245l5 -37h2l128 282h167z" />
    <glyph glyph-name="brokenbar" unicode="&#xa6;" horiz-adv-x="250" 
d="M175 661h110l-40 -250h-110zM96 161h110l-40 -250h-110z" />
    <glyph glyph-name="section" unicode="&#xa7;" horiz-adv-x="491" 
d="M190 10l-2 -13q-12 -72 55 -72q24 0 39 19t20 48q3 21 -0.5 37.5t-16 30.5t-22.5 22t-30 21q-8 5 -12 8q-8 5 -23 15q-27 17 -40.5 26.5t-34 28t-29 35t-14 41.5t-1.5 54q15 91 102 145q-24 21 -34.5 56t-4.5 74q15 90 76.5 135t142.5 45q92 0 136.5 -48.5t30.5 -139.5
l-4 -21h-133l4 23q5 35 -6.5 57t-46.5 22q-58 0 -67 -62q0 -14 3 -26t10.5 -22.5l12.5 -17.5t18 -16t18 -12.5t21 -12.5t20 -11q73 -42 93 -63q46 -45 36 -122q-12 -103 -117 -158q33 -25 45.5 -65.5t4.5 -87.5q-12 -78 -73.5 -121.5t-141.5 -43.5q-87 0 -138 44.5
t-37 128.5l3 19h137zM294 211l10 -7q29 9 48 29t23 46q2 14 -1 27t-8 21.5t-16.5 18.5t-18.5 14.5t-22.5 14t-20.5 12.5l-21 13q-49 -26 -56 -72q-3 -21 1 -37.5t17.5 -30.5t24 -22t31.5 -21z" />
    <glyph glyph-name="dieresis" unicode="&#xa8;" horiz-adv-x="300" 
d="M225 659q-4 -30 -29.5 -51.5t-56.5 -21.5q-30 0 -48.5 21.5t-14.5 51.5q5 32 30.5 54t57.5 22q31 0 48.5 -22.5t12.5 -53.5zM433 659q-4 -30 -29.5 -51.5t-56.5 -21.5q-30 0 -48.5 21.5t-14.5 51.5q5 32 30.5 54t57.5 22q31 0 48.5 -22.5t12.5 -53.5z" />
    <glyph glyph-name="copyright" unicode="&#xa9;" horiz-adv-x="830" 
d="M414 -12q-107 0 -189.5 52t-121 142t-21.5 197q17 106 83.5 195t165.5 140.5t206 51.5t189 -51.5t120.5 -140.5t21.5 -195q-17 -107 -83.5 -197t-165 -142t-205.5 -52zM426 61q130 1 236.5 94t127.5 224q14 85 -16.5 157.5t-96.5 114.5t-151 42q-132 0 -238.5 -92
t-127.5 -222q-14 -86 16.5 -159t96.5 -116t153 -43zM576 309h89q-19 -69 -78 -110.5t-130 -41.5q-97 0 -147 64.5t-34 160.5q15 98 83.5 161t166.5 63q72 0 116.5 -39.5t46.5 -108.5h-89q-1 36 -24.5 56t-61.5 20q-60 0 -100 -44t-50 -106q-10 -60 18 -107.5t86 -47.5
q37 0 68.5 22.5t39.5 57.5z" />
    <glyph glyph-name="ordfeminine" unicode="&#xaa;" horiz-adv-x="300" 
d="M298 760h93l-48 -303h-93l6 34h-2q-26 -40 -66 -40q-25 0 -41 16.5t-21 42.5t-5 51t3 48q4 24 11 47t19.5 50t34 43.5t48.5 16.5q43 0 55 -43h1zM261 690q-10 0 -18.5 -9.5t-14 -24.5t-8 -25.5t-3.5 -20.5q-14 -83 20 -83q11 0 19.5 10t14 26t8 27t4.5 20q1 10 2 20.5
t0 25.5t-7 24.5t-17 9.5z" />
    <glyph glyph-name="guillemotleft" unicode="&#xab;" horiz-adv-x="433" 
d="M489 525l-134 -195l73 -189l-83 -43l-94 232l167 234zM316 525l-133 -195l72 -189l-82 -43l-95 232l168 234z" />
    <glyph glyph-name="logicalnot" unicode="&#xac;" 
d="M378 112l29 186h-339l18 110h449l-47 -296h-110z" />
    <glyph glyph-name="registered" unicode="&#xae;" horiz-adv-x="830" 
d="M414 -12q-107 0 -189.5 52t-121 142t-21.5 197q17 106 83.5 195t165.5 140.5t206 51.5t189 -51.5t120.5 -140.5t21.5 -195q-17 -107 -83.5 -197t-165 -142t-205.5 -52zM426 61q130 1 236.5 94t127.5 224q14 85 -16.5 157.5t-96.5 114.5t-151 42q-132 0 -238.5 -92
t-127.5 -222q-14 -86 16.5 -159t96.5 -116t153 -43zM563 347l74 -180h-97l-65 180h-83l-29 -180h-83l68 425h205q81 0 111 -21q45 -33 33 -110q-9 -56 -42 -83t-92 -31zM402 410h124q39 -1 61.5 12.5t28.5 51.5q3 16 -2.5 27t-13.5 16.5t-24 8t-25.5 3t-26.5 0.5h-103z" />
    <glyph glyph-name="macron" unicode="&#xaf;" horiz-adv-x="300" 
d="M428 666h-346l12 74h346z" />
    <glyph glyph-name="degree" unicode="&#xb0;" horiz-adv-x="400" 
d="M321 766q62 0 99 -44.5t28 -105.5q-10 -62 -61.5 -106t-112.5 -44q-62 0 -99 44t-27 106q9 62 60 106t113 44zM309 687q-30 0 -54.5 -21t-27.5 -50q-5 -30 12.5 -50.5t47.5 -20.5t53.5 20.5t28.5 50.5q4 29 -13 50t-47 21z" />
    <glyph glyph-name="plusminus" unicode="&#xb1;" 
d="M252 394l22 134h110l-22 -134h170l-17 -110h-170l-21 -134h-110l21 134h-169l17 110h169zM21 0l17 110h449l-17 -110h-449z" />
    <glyph glyph-name="twosuperior" unicode="&#xb2;" horiz-adv-x="294" 
d="M213 596h-95l2 25q11 67 45.5 103.5t109.5 36.5q134 0 115 -116q-8 -52 -59 -123l-107 -134h117l-13 -82h-263l139 182q2 3 6 8q22 30 35 48t28 47.5t18.5 50.5t-2.5 36.5t-25 15.5q-36 0 -47 -69z" />
    <glyph glyph-name="threesuperior" unicode="&#xb3;" horiz-adv-x="294" 
d="M170 425l-2 -13q-3 -17 3.5 -30t22.5 -13q39 0 51 72q6 36 -8 49.5t-52 11.5l12 76q39 0 56.5 12t23.5 47q8 49 -22 49t-38 -50l-2 -9h-90q18 134 140 134q60 0 88 -32t20 -86q-13 -83 -77 -105v-2q37 -8 50.5 -37t7.5 -67q-9 -62 -54 -97.5t-115 -35.5q-64 0 -94 34.5
t-18 91.5h97z" />
    <glyph glyph-name="acute" unicode="&#xb4;" horiz-adv-x="300" 
d="M266 754l95 -46l-151 -138l-62 40z" />
    <glyph glyph-name="paragraph" unicode="&#xb6;" horiz-adv-x="600" 
d="M353 -112l119 748h-68l-119 -748h-118l82 517q-76 0 -109 47t-21 124q16 97 72.5 137.5t155.5 40.5h303l-18 -118h-42l-119 -748h-118z" />
    <glyph glyph-name="periodcentered" unicode="&#xb7;" horiz-adv-x="245" 
d="M177.5 351q39.5 0 63 -28t17 -67t-38.5 -67t-71.5 -28t-63 28t-17 67t38.5 67t71.5 28z" />
    <glyph glyph-name="cedilla" unicode="&#xb8;" horiz-adv-x="300" 
d="M136 -48l85 -36l-127 -134l-57 32z" />
    <glyph glyph-name="onesuperior" unicode="&#xb9;" horiz-adv-x="294" 
d="M176 754h149l-71 -448h-102l59 370h-47z" />
    <glyph glyph-name="ordmasculine" unicode="&#xba;" horiz-adv-x="300" 
d="M271.5 766q35.5 0 59 -13.5t32.5 -36t11.5 -51t-3.5 -57.5q-5 -31 -15 -57t-27 -49.5t-44.5 -37t-63 -13.5t-59 14t-32.5 36t-12 50.5t3 56.5q5 31 15.5 57.5t27.5 50t44.5 37t63 13.5zM259 690q-33 0 -46 -82q-1 -9 -2 -19.5t-0.5 -26t6.5 -25.5t16.5 -10t19.5 10
t14.5 25.5t8 26t3.5 19.5q13 82 -20 82z" />
    <glyph glyph-name="guillemotright" unicode="&#xbb;" horiz-adv-x="433" 
d="M192 564l94 -234l-167 -232l-70 43l132 189l-71 195zM365 564l94 -234l-167 -232l-70 43l132 189l-71 195z" />
    <glyph glyph-name="onequarter" unicode="&#xbc;" horiz-adv-x="735" 
d="M549 0l17 106h-145l11 70l173 272h117l-42 -262h38l-12 -80h-38l-17 -106h-102zM608 754h86l-478 -754h-87zM172 754h149l-71 -448h-102l59 370h-47zM578 186l26 164h-2l-96 -164h72z" />
    <glyph glyph-name="onehalf" unicode="&#xbd;" horiz-adv-x="735" 
d="M676 0h-263l139 182q2 3 6 8q22 30 34.5 48t28 47.5t19 50.5t-2.5 36.5t-26 15.5q-36 0 -46 -69l-4 -29h-95l2 25q10 67 45 103.5t109 36.5q134 0 116 -116q-8 -52 -60 -123l-106 -134h117zM581 754h86l-478 -754h-87zM175 754h149l-71 -448h-102l59 370h-47z" />
    <glyph glyph-name="threequarters" unicode="&#xbe;" horiz-adv-x="735" 
d="M669 0h-102l17 106h-145l11 70l173 272h117l-42 -262h38l-12 -80h-38zM193 425l-2 -13q-3 -17 3.5 -30t22.5 -13q39 0 51 72q6 36 -8 49.5t-52 11.5l12 76q39 0 56.5 12t23.5 47q8 49 -22 49t-38 -50l-2 -9h-90q18 134 140 134q60 0 88 -32t20 -86q-13 -83 -77 -105v-2
q37 -8 50.5 -37t7.5 -67q-9 -62 -54 -97.5t-115 -35.5q-64 0 -94 34.5t-18 91.5h97zM651 754h86l-478 -754h-87zM596 184l26 162h-2l-96 -162h72z" />
    <glyph glyph-name="questiondown" unicode="&#xbf;" horiz-adv-x="454" 
d="M191 269h149l-30 -186q-13 3 -24 3q-47 0 -73 -35t-33 -84q-2 -18 -3 -39.5t9 -40t31 -18.5q25 0 40.5 22t20.5 50l3 18h141q-12 -99 -71 -159.5t-156.5 -60.5t-143.5 63t-31 162q11 70 51.5 130.5t103.5 76.5zM304 518q40 0 63.5 -28t17.5 -67t-38.5 -67t-72.5 -28
q-38 0 -61.5 28t-17.5 67t38.5 67t70.5 28z" />
    <glyph glyph-name="Agrave" unicode="&#xc0;" horiz-adv-x="528" 
d="M302 754h157l62 -754h-159l-8 127h-151l-47 -127h-148zM407 978l73 -144l-75 -40l-107 138zM351 245l-6 201l1 114h-2l-34 -114l-64 -201h105z" />
    <glyph glyph-name="Aacute" unicode="&#xc1;" horiz-adv-x="528" 
d="M302 754h157l62 -754h-159l-8 127h-151l-47 -127h-148zM431 978l95 -46l-151 -138l-63 40zM351 245l-6 201l1 114h-2l-34 -114l-64 -201h105z" />
    <glyph glyph-name="Acircumflex" unicode="&#xc2;" horiz-adv-x="528" 
d="M302 754h157l62 -754h-159l-8 127h-151l-47 -127h-148zM417 972l127 -121l-71 -62l-74 70l-99 -70l-44 70zM351 245l-6 201l1 114h-2l-34 -114l-64 -201h105z" />
    <glyph glyph-name="Atilde" unicode="&#xc3;" horiz-adv-x="528" 
d="M302 754h157l62 -754h-159l-8 127h-151l-47 -127h-148zM505 964l74 -5q-9 -29 -17 -47t-22 -40.5t-35 -34t-47 -11.5q-28 0 -75 22q-28 13 -40 13q-26 0 -37 -32h-73q7 28 14.5 47t20.5 41t33.5 33.5t46.5 11.5q29 0 63.5 -19t50.5 -19q33 0 43 40zM351 245l-6 201l1 114
h-2l-34 -114l-64 -201h105z" />
    <glyph glyph-name="Adieresis" unicode="&#xc4;" horiz-adv-x="528" 
d="M302 754h157l62 -754h-159l-8 127h-151l-47 -127h-148zM583 883q-5 -30 -30.5 -51.5t-56.5 -21.5q-30 0 -48.5 21.5t-13.5 51.5q5 32 30.5 54t57.5 22q30 0 48 -22.5t13 -53.5zM375 883q-5 -30 -30.5 -51.5t-56.5 -21.5q-30 0 -48.5 21.5t-13.5 51.5q5 32 30.5 54
t57.5 22q30 0 48 -22.5t13 -53.5zM351 245l-6 201l1 114h-2l-34 -114l-64 -201h105z" />
    <glyph glyph-name="Aring" unicode="&#xc5;" horiz-adv-x="528" 
d="M302 754h157l62 -754h-159l-8 127h-151l-47 -127h-148zM381 773q-45 0 -72 31.5t-19.5 77.5t44.5 77t83 31q44 0 69.5 -32.5t18.5 -77.5q-7 -44 -43 -75.5t-81 -31.5zM351 245l-6 201l1 114h-2l-34 -114l-64 -201h105zM392 839q16 0 30.5 12.5t16.5 28.5q3 18 -6.5 31
t-27.5 13t-32.5 -12t-16.5 -31q-3 -18 7.5 -30t28.5 -12z" />
    <glyph glyph-name="AE" unicode="&#xc6;" horiz-adv-x="674" 
d="M364 0l-8 126h-157l-43 -126h-148l290 754h307l10 -140h-149l15 -156h149l11 -140h-147l14 -178h145l13 -140h-302zM350 244l-9 143l3 172h-2l-99 -315h107z" />
    <glyph glyph-name="Ccedilla" unicode="&#xc7;" horiz-adv-x="452" 
d="M548 749l-22 -137q-29 8 -55 8q-47 0 -87.5 -20t-67.5 -54t-45 -75t-25 -86q-4 -34 -4 -69t10.5 -67.5t27.5 -58t46.5 -40.5t66.5 -15q23 0 59 11l-22 -141q-34 -13 -71 -13q-63 0 -114 22t-84 59t-54 87.5t-24.5 107t4.5 116.5q11 71 44.5 138.5t83 121t117.5 86.5
t142 33q37 0 74 -14zM242 -48l85 -36l-127 -134l-57 32z" />
    <glyph glyph-name="Egrave" unicode="&#xc8;" horiz-adv-x="392" 
d="M172 754h300l-22 -140h-151l-26 -164h133l-22 -140h-133l-27 -170h153l-22 -140h-302zM339 978l73 -144l-75 -40l-107 138z" />
    <glyph glyph-name="Eacute" unicode="&#xc9;" horiz-adv-x="392" 
d="M172 754h300l-22 -140h-151l-26 -164h133l-22 -140h-133l-27 -170h153l-22 -140h-302zM383 978l95 -46l-151 -138l-63 40z" />
    <glyph glyph-name="Ecircumflex" unicode="&#xca;" horiz-adv-x="392" 
d="M172 754h300l-22 -140h-151l-26 -164h133l-22 -140h-133l-27 -170h153l-22 -140h-302zM349 972l127 -121l-71 -62l-74 70l-99 -70l-44 70z" />
    <glyph glyph-name="Edieresis" unicode="&#xcb;" horiz-adv-x="392" 
d="M172 754h300l-22 -140h-151l-26 -164h133l-22 -140h-133l-27 -170h153l-22 -140h-302zM515 883q-5 -30 -30.5 -51.5t-56.5 -21.5q-30 0 -48.5 21.5t-13.5 51.5q5 32 30.5 54t57.5 22q30 0 48 -22.5t13 -53.5zM307 883q-5 -30 -30.5 -51.5t-56.5 -21.5q-30 0 -48.5 21.5
t-13.5 51.5q5 32 30.5 54t57.5 22q30 0 48 -22.5t13 -53.5z" />
    <glyph glyph-name="Igrave" unicode="&#xcc;" horiz-adv-x="255" 
d="M172 754h149l-119 -754h-149zM266 978l73 -144l-75 -40l-107 138z" />
    <glyph glyph-name="Iacute" unicode="&#xcd;" horiz-adv-x="255" 
d="M172 754h149l-119 -754h-149zM300 978l95 -46l-151 -138l-63 40z" />
    <glyph glyph-name="Icircumflex" unicode="&#xce;" horiz-adv-x="255" 
d="M172 754h149l-119 -754h-149zM281 972l127 -121l-71 -62l-74 70l-99 -70l-44 70z" />
    <glyph glyph-name="Idieresis" unicode="&#xcf;" horiz-adv-x="255" 
d="M172 754h149l-119 -754h-149zM447 883q-5 -30 -30.5 -51.5t-56.5 -21.5q-30 0 -48.5 21.5t-13.5 51.5q5 32 30.5 54t57.5 22q30 0 48 -22.5t13 -53.5zM239 883q-5 -30 -30.5 -51.5t-56.5 -21.5q-30 0 -48.5 21.5t-13.5 51.5q5 32 30.5 54t57.5 22q30 0 48 -22.5t13 -53.5
z" />
    <glyph glyph-name="Eth" unicode="&#xd0;" horiz-adv-x="530" 
d="M186 0h-133l49 310h-53l22 139h53l48 305h113q58 0 68 -1q159 -17 203 -160q28 -88 7 -222q-13 -83 -40.5 -149t-72 -116.5t-111.5 -78t-153 -27.5zM414 372q5 32 6 63t-4.5 65.5t-17.5 60t-37.5 42.5t-60.5 17l-27 -170h53l-22 -140h-53l-28 -176q42 -2 77.5 21
t57.5 61.5t36 77.5t20 78z" />
    <glyph glyph-name="Ntilde" unicode="&#xd1;" horiz-adv-x="573" 
d="M172 754h143l114 -455l3 2q-5 48 6 114l53 339h149l-119 -754h-141l-112 455l-2 -2l-5 -76l-4 -31l-55 -346h-149zM528 964l74 -5q-9 -29 -17 -47t-22 -40.5t-35 -34t-47 -11.5q-28 0 -75 22q-28 13 -40 13q-26 0 -37 -32h-73q7 28 14.5 47t20.5 41t33.5 33.5t46.5 11.5
q29 0 63.5 -19t50.5 -19q33 0 43 40z" />
    <glyph glyph-name="Ograve" unicode="&#xd2;" horiz-adv-x="582" 
d="M412 766q52 0 94.5 -21t74.5 -67.5t40.5 -120.5t-5.5 -180q-16 -102 -51 -179.5t-80 -122t-94.5 -66t-101.5 -21.5t-94 21t-74 67.5t-41 120.5t6 180q16 102 50.5 179.5t80 122t94.5 66t101 21.5zM245 377q-3 -20 -5.5 -40t-4 -51t2 -57t10.5 -50.5t23 -38.5t40 -14
q28 0 52 21t39 49.5t27.5 67t18 63.5t9.5 50q3 22 5.5 42.5t4 52t-2 57t-10.5 49t-23.5 37t-40.5 13.5q-28 0 -52 -20.5t-39 -48t-27 -66t-17.5 -64t-9.5 -52.5zM424 978l73 -144l-75 -40l-107 138z" />
    <glyph glyph-name="Oacute" unicode="&#xd3;" horiz-adv-x="582" 
d="M412 766q52 0 94.5 -21t74.5 -67.5t40.5 -120.5t-5.5 -180q-16 -102 -51 -179.5t-80 -122t-94.5 -66t-101.5 -21.5t-94 21t-74 67.5t-41 120.5t6 180q16 102 50.5 179.5t80 122t94.5 66t101 21.5zM245 377q-3 -20 -5.5 -40t-4 -51t2 -57t10.5 -50.5t23 -38.5t40 -14
q28 0 52 21t39 49.5t27.5 67t18 63.5t9.5 50q3 22 5.5 42.5t4 52t-2 57t-10.5 49t-23.5 37t-40.5 13.5q-28 0 -52 -20.5t-39 -48t-27 -66t-17.5 -64t-9.5 -52.5zM478 978l95 -46l-151 -138l-63 40z" />
    <glyph glyph-name="Ocircumflex" unicode="&#xd4;" horiz-adv-x="582" 
d="M412 766q52 0 94.5 -21t74.5 -67.5t40.5 -120.5t-5.5 -180q-16 -102 -51 -179.5t-80 -122t-94.5 -66t-101.5 -21.5t-94 21t-74 67.5t-41 120.5t6 180q16 102 50.5 179.5t80 122t94.5 66t101 21.5zM245 377q-3 -20 -5.5 -40t-4 -51t2 -57t10.5 -50.5t23 -38.5t40 -14
q28 0 52 21t39 49.5t27.5 67t18 63.5t9.5 50q3 22 5.5 42.5t4 52t-2 57t-10.5 49t-23.5 37t-40.5 13.5q-28 0 -52 -20.5t-39 -48t-27 -66t-17.5 -64t-9.5 -52.5zM444 972l127 -121l-71 -62l-74 70l-99 -70l-44 70z" />
    <glyph glyph-name="Otilde" unicode="&#xd5;" horiz-adv-x="582" 
d="M412 766q52 0 94.5 -21t74.5 -67.5t40.5 -120.5t-5.5 -180q-16 -102 -51 -179.5t-80 -122t-94.5 -66t-101.5 -21.5t-94 21t-74 67.5t-41 120.5t6 180q16 102 50.5 179.5t80 122t94.5 66t101 21.5zM245 377q-3 -20 -5.5 -40t-4 -51t2 -57t10.5 -50.5t23 -38.5t40 -14
q28 0 52 21t39 49.5t27.5 67t18 63.5t9.5 50q3 22 5.5 42.5t4 52t-2 57t-10.5 49t-23.5 37t-40.5 13.5q-28 0 -52 -20.5t-39 -48t-27 -66t-17.5 -64t-9.5 -52.5zM532 964l74 -5q-9 -29 -17 -47t-22 -40.5t-35 -34t-47 -11.5q-28 0 -75 22q-28 13 -40 13q-26 0 -37 -32h-73
q7 28 14.5 47t20.5 41t33.5 33.5t46.5 11.5q29 0 63.5 -19t50.5 -19q33 0 43 40z" />
    <glyph glyph-name="Odieresis" unicode="&#xd6;" horiz-adv-x="582" 
d="M412 766q52 0 94.5 -21t74.5 -67.5t40.5 -120.5t-5.5 -180q-16 -102 -51 -179.5t-80 -122t-94.5 -66t-101.5 -21.5t-94 21t-74 67.5t-41 120.5t6 180q16 102 50.5 179.5t80 122t94.5 66t101 21.5zM245 377q-3 -20 -5.5 -40t-4 -51t2 -57t10.5 -50.5t23 -38.5t40 -14
q28 0 52 21t39 49.5t27.5 67t18 63.5t9.5 50q3 22 5.5 42.5t4 52t-2 57t-10.5 49t-23.5 37t-40.5 13.5q-28 0 -52 -20.5t-39 -48t-27 -66t-17.5 -64t-9.5 -52.5zM402 883q-5 -30 -30.5 -51.5t-56.5 -21.5q-30 0 -48.5 21.5t-13.5 51.5q5 32 30.5 54t57.5 22q30 0 48 -22.5
t13 -53.5zM610 883q-5 -30 -30.5 -51.5t-56.5 -21.5q-30 0 -48.5 21.5t-13.5 51.5q5 32 30.5 54t57.5 22q30 0 48 -22.5t13 -53.5z" />
    <glyph glyph-name="multiply" unicode="&#xd7;" 
d="M397 29l-126 149l-167 -144l-65 78l167 144l-122 144l91 78l121 -144l173 149l65 -78l-172 -149l125 -149z" />
    <glyph glyph-name="Oslash" unicode="&#xd8;" horiz-adv-x="582" 
d="M617 760l52 -34l-66 -85q40 -93 12 -267q-14 -90 -43 -160.5t-63 -111.5t-75 -68t-75.5 -36.5t-68.5 -9.5q-85 0 -152 63l-46 -58l-52 37l62 78q-44 96 -16 271q9 56 24.5 107.5t43 103.5t63 90t87.5 62t113 24q45 0 84.5 -18t66.5 -50zM246 382l-11 -107h2l222 290
q-18 63 -68 63q-24 0 -45 -13t-35.5 -36.5t-26 -48.5t-19.5 -56t-12 -50.5t-7 -41.5zM454 361l14 107h-2l-220 -285q8 -25 25.5 -41t42.5 -16q32 0 58.5 26.5t43 68.5t25 75t13.5 65z" />
    <glyph glyph-name="Ugrave" unicode="&#xd9;" horiz-adv-x="544" 
d="M168 754h149l-77 -488q-1 -4 -2 -13q-3 -19 -4.5 -29.5t-2.5 -28.5t2 -28.5t9 -22t18.5 -16.5t30.5 -5q22 0 37.5 7t24 15t15 26.5t9 29t6.5 33.5l82 520h149l-87 -550q-3 -21 -6.5 -37.5t-12.5 -40t-20 -41t-31 -37t-45 -32t-61.5 -20.5t-81.5 -8q-107 0 -156.5 51
t-32.5 155zM395 978l73 -144l-75 -40l-107 138z" />
    <glyph glyph-name="Uacute" unicode="&#xda;" horiz-adv-x="544" 
d="M168 754h149l-77 -488q-1 -4 -2 -13q-3 -19 -4.5 -29.5t-2.5 -28.5t2 -28.5t9 -22t18.5 -16.5t30.5 -5q22 0 37.5 7t24 15t15 26.5t9 29t6.5 33.5l82 520h149l-87 -550q-3 -21 -6.5 -37.5t-12.5 -40t-20 -41t-31 -37t-45 -32t-61.5 -20.5t-81.5 -8q-107 0 -156.5 51
t-32.5 155zM459 978l95 -46l-151 -138l-63 40z" />
    <glyph glyph-name="Ucircumflex" unicode="&#xdb;" horiz-adv-x="544" 
d="M168 754h149l-77 -488q-1 -4 -2 -13q-3 -19 -4.5 -29.5t-2.5 -28.5t2 -28.5t9 -22t18.5 -16.5t30.5 -5q22 0 37.5 7t24 15t15 26.5t9 29t6.5 33.5l82 520h149l-87 -550q-3 -21 -6.5 -37.5t-12.5 -40t-20 -41t-31 -37t-45 -32t-61.5 -20.5t-81.5 -8q-107 0 -156.5 51
t-32.5 155zM425 972l127 -121l-71 -62l-74 70l-99 -70l-44 70z" />
    <glyph glyph-name="Udieresis" unicode="&#xdc;" horiz-adv-x="544" 
d="M168 754h149l-77 -488q-1 -4 -2 -13q-3 -19 -4.5 -29.5t-2.5 -28.5t2 -28.5t9 -22t18.5 -16.5t30.5 -5q22 0 37.5 7t24 15t15 26.5t9 29t6.5 33.5l82 520h149l-87 -550q-3 -21 -6.5 -37.5t-12.5 -40t-20 -41t-31 -37t-45 -32t-61.5 -20.5t-81.5 -8q-107 0 -156.5 51
t-32.5 155zM591 883q-5 -30 -30.5 -51.5t-56.5 -21.5q-30 0 -48.5 21.5t-13.5 51.5q5 32 30.5 54t57.5 22q30 0 48 -22.5t13 -53.5zM383 883q-5 -30 -30.5 -51.5t-56.5 -21.5q-30 0 -48.5 21.5t-13.5 51.5q5 32 30.5 54t57.5 22q30 0 48 -22.5t13 -53.5z" />
    <glyph glyph-name="Yacute" unicode="&#xdd;" horiz-adv-x="514" 
d="M123 754h164l46 -205l5 -37h2l26 56l96 186h167l-238 -393l-57 -361h-149l57 361zM459 978l95 -46l-151 -138l-63 40z" />
    <glyph glyph-name="Thorn" unicode="&#xde;" horiz-adv-x="487" 
d="M202 0h-149l119 754h149l-22 -140q74 0 108 -9q147 -37 119 -214q-17 -104 -88 -163t-176 -59l-33 2zM280 491l-32 -199q56 -2 88 21.5t41 79.5q16 98 -69 98h-28z" />
    <glyph glyph-name="germandbls" unicode="&#xdf;" horiz-adv-x="478" 
d="M151 505l8 52q1 5 3 18q3 25 6 40t10.5 43.5t16.5 47t26.5 42t38.5 37t53.5 23t70.5 9.5q50 0 84 -17.5t48.5 -46t19.5 -65.5t-3 -77q-4 -27 -10.5 -49t-18 -44.5t-30 -39.5t-43.5 -26q85 -50 60 -205q-6 -39 -14 -70.5t-24 -67.5t-37 -60t-54.5 -40t-74.5 -16
q-14 0 -43 6l20 127q16 -1 28.5 8.5t19.5 21t13 32t8.5 31.5t4.5 30q1 5 2 7q20 128 -35 130l20 127q16 2 27 8.5t16.5 19.5t8 22t4.5 26q1 4 1 6q15 95 -25 95q-10 0 -18.5 -6t-13.5 -13.5t-9 -21t-5.5 -21.5t-3 -22t-2.5 -17l-93 -589h-141l62 389h-52l18 116h52z" />
    <glyph glyph-name="agrave" unicode="&#xe0;" horiz-adv-x="433" 
d="M258 0l9 57h-2q-44 -67 -104 -67q-32 0 -54.5 20t-32 49t-13 66.5t-1.5 68.5t6 59q5 31 12.5 61t22 68t33 66t47 47.5t62 19.5t55 -19.5t28.5 -52.5h2l10 62h141l-80 -505h-141zM238 119q15 0 28.5 16.5t22 42t13 44t6.5 33.5q3 16 4.5 33.5t1 43.5t-9.5 42t-25 16
q-17 0 -30.5 -16t-22 -41.5t-12.5 -43t-7 -34.5q-21 -136 31 -136zM314 754l74 -144l-76 -40l-107 138z" />
    <glyph glyph-name="aacute" unicode="&#xe1;" horiz-adv-x="433" 
d="M258 0l9 57h-2q-44 -67 -104 -67q-32 0 -54.5 20t-32 49t-13 66.5t-1.5 68.5t6 59q5 31 12.5 61t22 68t33 66t47 47.5t62 19.5t55 -19.5t28.5 -52.5h2l10 62h141l-80 -505h-141zM238 119q15 0 28.5 16.5t22 42t13 44t6.5 33.5q3 16 4.5 33.5t1 43.5t-9.5 42t-25 16
q-17 0 -30.5 -16t-22 -41.5t-12.5 -43t-7 -34.5q-21 -136 31 -136zM373 754l95 -46l-151 -138l-62 40z" />
    <glyph glyph-name="acircumflex" unicode="&#xe2;" horiz-adv-x="433" 
d="M258 0l9 57h-2q-44 -67 -104 -67q-32 0 -54.5 20t-32 49t-13 66.5t-1.5 68.5t6 59q5 31 12.5 61t22 68t33 66t47 47.5t62 19.5t55 -19.5t28.5 -52.5h2l10 62h141l-80 -505h-141zM344 748l127 -121l-71 -62l-73 70l-100 -70l-43 70zM238 119q15 0 28.5 16.5t22 42t13 44
t6.5 33.5q3 16 4.5 33.5t1 43.5t-9.5 42t-25 16q-17 0 -30.5 -16t-22 -41.5t-12.5 -43t-7 -34.5q-21 -136 31 -136z" />
    <glyph glyph-name="atilde" unicode="&#xe3;" horiz-adv-x="433" 
d="M258 0l9 57h-2q-44 -67 -104 -67q-32 0 -54.5 20t-32 49t-13 66.5t-1.5 68.5t6 59q5 31 12.5 61t22 68t33 66t47 47.5t62 19.5t55 -19.5t28.5 -52.5h2l10 62h141l-80 -505h-141zM430 740l74 -5q-9 -29 -17 -47t-22 -40.5t-34.5 -34t-47.5 -11.5q-28 0 -74 22
q-28 13 -40 13q-27 0 -37 -32h-73q7 28 14.5 47t20.5 41t33 33.5t47 11.5q28 0 62.5 -19t51.5 -19q32 0 42 40zM238 119q15 0 28.5 16.5t22 42t13 44t6.5 33.5q3 16 4.5 33.5t1 43.5t-9.5 42t-25 16q-17 0 -30.5 -16t-22 -41.5t-12.5 -43t-7 -34.5q-21 -136 31 -136z" />
    <glyph glyph-name="adieresis" unicode="&#xe4;" horiz-adv-x="433" 
d="M258 0l9 57h-2q-44 -67 -104 -67q-32 0 -54.5 20t-32 49t-13 66.5t-1.5 68.5t6 59q5 31 12.5 61t22 68t33 66t47 47.5t62 19.5t55 -19.5t28.5 -52.5h2l10 62h141l-80 -505h-141zM238 119q15 0 28.5 16.5t22 42t13 44t6.5 33.5q3 16 4.5 33.5t1 43.5t-9.5 42t-25 16
q-17 0 -30.5 -16t-22 -41.5t-12.5 -43t-7 -34.5q-21 -136 31 -136zM300 659q-4 -30 -29.5 -51.5t-56.5 -21.5q-30 0 -48.5 21.5t-14.5 51.5q5 32 30.5 54t57.5 22q31 0 48.5 -22.5t12.5 -53.5zM508 659q-4 -30 -29.5 -51.5t-56.5 -21.5q-30 0 -48.5 21.5t-14.5 51.5
q5 32 30.5 54t57.5 22q31 0 48.5 -22.5t12.5 -53.5z" />
    <glyph glyph-name="aring" unicode="&#xe5;" horiz-adv-x="433" 
d="M258 0l9 57h-2q-44 -67 -104 -67q-32 0 -54.5 20t-32 49t-13 66.5t-1.5 68.5t6 59q5 31 12.5 61t22 68t33 66t47 47.5t62 19.5t55 -19.5t28.5 -52.5h2l10 62h141l-80 -505h-141zM313 549q-45 0 -72 31.5t-20 77.5t44 77t83 31q45 0 70.5 -32.5t18.5 -77.5
q-7 -44 -43.5 -75.5t-80.5 -31.5zM238 119q15 0 28.5 16.5t22 42t13 44t6.5 33.5q3 16 4.5 33.5t1 43.5t-9.5 42t-25 16q-17 0 -30.5 -16t-22 -41.5t-12.5 -43t-7 -34.5q-21 -136 31 -136zM323 615q17 0 31 12.5t17 28.5q3 18 -7 31t-27 13q-18 0 -32.5 -12t-17.5 -31
q-3 -18 7.5 -30t28.5 -12z" />
    <glyph glyph-name="ae" unicode="&#xe6;" horiz-adv-x="640" 
d="M645 215h-223q0 -2 -1 -7q-2 -17 -3 -27.5t-1 -28t3.5 -28t12.5 -18.5t24 -8q45 0 54 58h120q-22 -76 -68 -121t-119 -45q-82 0 -116 62q-67 -62 -139 -62q-74 0 -112.5 43.5t-26.5 117.5q10 66 59.5 109t115.5 43q51 0 72 -18q5 33 5.5 58t-16.5 40.5t-54 15.5
q-43 0 -103 -26l19 121q63 21 119 21q102 0 127 -74q49 74 131 74q74 0 115 -64.5t17 -177.5zM437 302h103l2 12q1 18 2 38.5t-8.5 37.5t-30.5 17q-28 0 -44.5 -28.5t-21.5 -61.5zM221.5 94q22.5 0 41 16t21.5 38q4 22 -9.5 37.5t-34.5 15.5t-39.5 -15t-21.5 -36
q-4 -23 8 -39.5t34.5 -16.5z" />
    <glyph glyph-name="ccedilla" unicode="&#xe7;" horiz-adv-x="315" 
d="M314 137l-21 -129q-42 -18 -84 -18q-39 0 -69 16t-46 42t-25.5 60t-8.5 70t5 71q8 50 26 95.5t46 85t71 62.5t96 23q35 0 67 -15l-19 -124q-15 16 -39 16t-44 -13.5t-32 -35t-19 -43t-10 -43.5q-22 -135 60 -135q22 0 46 15zM154 -48l85 -36l-127 -134l-57 32z" />
    <glyph glyph-name="egrave" unicode="&#xe8;" horiz-adv-x="414" 
d="M431 273l-12 -58h-223q0 -2 -1 -7q-2 -17 -3 -27.5t-1 -28t3.5 -28t12.5 -18.5t24 -8q45 0 54 58h120q-22 -76 -68 -121t-119 -45q-51 0 -86.5 22t-51 57.5t-20.5 80.5t4 92q6 39 17.5 75.5t31.5 73t45 63.5t61.5 44t79.5 17q74 0 115 -64.5t17 -177.5zM304 754l74 -144
l-76 -40l-107 138zM314 302l2 12q1 18 2 38.5t-8.5 37.5t-30.5 17q-28 0 -44.5 -28.5t-21.5 -61.5l-2 -15h103z" />
    <glyph glyph-name="eacute" unicode="&#xe9;" horiz-adv-x="414" 
d="M431 273l-12 -58h-223q0 -2 -1 -7q-2 -17 -3 -27.5t-1 -28t3.5 -28t12.5 -18.5t24 -8q45 0 54 58h120q-22 -76 -68 -121t-119 -45q-51 0 -86.5 22t-51 57.5t-20.5 80.5t4 92q6 39 17.5 75.5t31.5 73t45 63.5t61.5 44t79.5 17q74 0 115 -64.5t17 -177.5zM363 754l95 -46
l-151 -138l-62 40zM314 302l2 12q1 18 2 38.5t-8.5 37.5t-30.5 17q-28 0 -44.5 -28.5t-21.5 -61.5l-2 -15h103z" />
    <glyph glyph-name="ecircumflex" unicode="&#xea;" horiz-adv-x="414" 
d="M431 273l-12 -58h-223q0 -2 -1 -7q-2 -17 -3 -27.5t-1 -28t3.5 -28t12.5 -18.5t24 -8q45 0 54 58h120q-22 -76 -68 -121t-119 -45q-51 0 -86.5 22t-51 57.5t-20.5 80.5t4 92q6 39 17.5 75.5t31.5 73t45 63.5t61.5 44t79.5 17q74 0 115 -64.5t17 -177.5zM332 748l127 -121
l-71 -62l-73 70l-100 -70l-43 70zM314 302l2 12q1 18 2 38.5t-8.5 37.5t-30.5 17q-28 0 -44.5 -28.5t-21.5 -61.5l-2 -15h103z" />
    <glyph glyph-name="edieresis" unicode="&#xeb;" horiz-adv-x="414" 
d="M431 273l-12 -58h-223q0 -2 -1 -7q-2 -17 -3 -27.5t-1 -28t3.5 -28t12.5 -18.5t24 -8q45 0 54 58h120q-22 -76 -68 -121t-119 -45q-51 0 -86.5 22t-51 57.5t-20.5 80.5t4 92q6 39 17.5 75.5t31.5 73t45 63.5t61.5 44t79.5 17q74 0 115 -64.5t17 -177.5zM490 659
q-4 -30 -29.5 -51.5t-56.5 -21.5q-30 0 -48.5 21.5t-14.5 51.5q5 32 30.5 54t57.5 22q31 0 48.5 -22.5t12.5 -53.5zM282 659q-4 -30 -29.5 -51.5t-56.5 -21.5q-30 0 -48.5 21.5t-14.5 51.5q5 32 30.5 54t57.5 22q31 0 48.5 -22.5t12.5 -53.5zM314 302l2 12q1 18 2 38.5
t-8.5 37.5t-30.5 17q-28 0 -44.5 -28.5t-21.5 -61.5l-2 -15h103z" />
    <glyph glyph-name="igrave" unicode="&#xec;" horiz-adv-x="209" 
d="M114 505h141l-80 -505h-141zM212 754l74 -144l-76 -40l-107 138z" />
    <glyph glyph-name="iacute" unicode="&#xed;" horiz-adv-x="209" 
d="M114 505h141l-80 -505h-141zM236 754l95 -46l-151 -138l-62 40z" />
    <glyph glyph-name="icircumflex" unicode="&#xee;" horiz-adv-x="209" 
d="M114 505h141l-80 -505h-141zM222 748l127 -121l-71 -62l-73 70l-100 -70l-43 70z" />
    <glyph glyph-name="idieresis" unicode="&#xef;" horiz-adv-x="209" 
d="M114 505h141l-80 -505h-141zM388 659q-4 -30 -29.5 -51.5t-56.5 -21.5q-30 0 -48.5 21.5t-14.5 51.5q5 32 30.5 54t57.5 22q31 0 48.5 -22.5t12.5 -53.5zM180 659q-4 -30 -29.5 -51.5t-56.5 -21.5q-30 0 -48.5 21.5t-14.5 51.5q5 32 30.5 54t57.5 22q31 0 48.5 -22.5
t12.5 -53.5z" />
    <glyph glyph-name="eth" unicode="&#xf0;" horiz-adv-x="436" 
d="M174 576l-24 62l89 43q-21 44 -50 86l113 53q24 -33 51 -83l93 45l29 -60l-93 -45q46 -100 65.5 -210t2.5 -215q-6 -38 -17 -73.5t-30 -71t-44.5 -61t-62 -41.5t-80 -16t-75.5 15t-49 40t-25 60t-8 71t7 77q8 50 23.5 93t41 81t66.5 60t93 22q13 0 26 -4q-36 90 -49 117z
M207 252q-2 -10 -3 -20.5t-2.5 -27.5t0 -31t4.5 -28t11 -21.5t19 -7.5q17 0 31 16t22.5 42t12.5 43t7 35q2 10 3 20.5t2.5 27.5t0 31t-4.5 28t-11 21.5t-20 7.5q-17 0 -30.5 -16t-22 -42t-12.5 -43t-7 -35z" />
    <glyph glyph-name="ntilde" unicode="&#xf1;" horiz-adv-x="424" 
d="M256 505l-12 -78h2q21 38 56 63t75 25q20 0 34.5 -6t23 -15t13 -24.5t6 -28t-0.5 -33.5t-3.5 -32.5t-5.5 -33.5q-2 -11 -2 -16l-52 -326h-141l44 277q0 1 3.5 19t4 27t0 23t-7.5 20.5t-20 6.5q-38 0 -47 -58l-50 -315h-141l80 505h141zM417 740l74 -5q-9 -29 -17 -47
t-22 -40.5t-34.5 -34t-47.5 -11.5q-28 0 -74 22q-28 13 -40 13q-27 0 -37 -32h-73q7 28 14.5 47t20.5 41t33 33.5t47 11.5q28 0 62.5 -19t51.5 -19q32 0 42 40z" />
    <glyph glyph-name="ograve" unicode="&#xf2;" horiz-adv-x="436" 
d="M300 515q43 0 75 -15t49 -40t25 -60t7.5 -71t-6.5 -77q-8 -52 -24.5 -96t-43 -83t-69 -61t-97.5 -22q-43 0 -75 15t-49 40t-25 59.5t-8 70.5t7 77q8 52 24 96t43 83t69.5 61.5t97.5 22.5zM279 388q-17 0 -30.5 -16t-22 -42t-12.5 -43t-7 -35q-2 -10 -3 -20.5t-2.5 -27.5
t0 -31t4.5 -28t11 -21.5t19 -7.5q17 0 31 16t22.5 42t12.5 43t7 35q2 10 3 20.5t2.5 27.5t0 31t-4.5 28t-11 21.5t-20 7.5zM315 754l74 -144l-76 -40l-107 138z" />
    <glyph glyph-name="oacute" unicode="&#xf3;" horiz-adv-x="436" 
d="M300 515q43 0 75 -15t49 -40t25 -60t7.5 -71t-6.5 -77q-8 -52 -24.5 -96t-43 -83t-69 -61t-97.5 -22q-43 0 -75 15t-49 40t-25 59.5t-8 70.5t7 77q8 52 24 96t43 83t69.5 61.5t97.5 22.5zM279 388q-17 0 -30.5 -16t-22 -42t-12.5 -43t-7 -35q-2 -10 -3 -20.5t-2.5 -27.5
t0 -31t4.5 -28t11 -21.5t19 -7.5q17 0 31 16t22.5 42t12.5 43t7 35q2 10 3 20.5t2.5 27.5t0 31t-4.5 28t-11 21.5t-20 7.5zM374 754l95 -46l-151 -138l-62 40z" />
    <glyph glyph-name="ocircumflex" unicode="&#xf4;" horiz-adv-x="436" 
d="M300 515q43 0 75 -15t49 -40t25 -60t7.5 -71t-6.5 -77q-8 -52 -24.5 -96t-43 -83t-69 -61t-97.5 -22q-43 0 -75 15t-49 40t-25 59.5t-8 70.5t7 77q8 52 24 96t43 83t69.5 61.5t97.5 22.5zM335 748l127 -121l-71 -62l-73 70l-100 -70l-43 70zM279 388q-17 0 -30.5 -16
t-22 -42t-12.5 -43t-7 -35q-2 -10 -3 -20.5t-2.5 -27.5t0 -31t4.5 -28t11 -21.5t19 -7.5q17 0 31 16t22.5 42t12.5 43t7 35q2 10 3 20.5t2.5 27.5t0 31t-4.5 28t-11 21.5t-20 7.5z" />
    <glyph glyph-name="otilde" unicode="&#xf5;" horiz-adv-x="436" 
d="M300 515q43 0 75 -15t49 -40t25 -60t7.5 -71t-6.5 -77q-8 -52 -24.5 -96t-43 -83t-69 -61t-97.5 -22q-43 0 -75 15t-49 40t-25 59.5t-8 70.5t7 77q8 52 24 96t43 83t69.5 61.5t97.5 22.5zM423 740l74 -5q-9 -29 -17 -47t-22 -40.5t-34.5 -34t-47.5 -11.5q-28 0 -74 22
q-28 13 -40 13q-27 0 -37 -32h-73q7 28 14.5 47t20.5 41t33 33.5t47 11.5q28 0 62.5 -19t51.5 -19q32 0 42 40zM279 388q-17 0 -30.5 -16t-22 -42t-12.5 -43t-7 -35q-2 -10 -3 -20.5t-2.5 -27.5t0 -31t4.5 -28t11 -21.5t19 -7.5q17 0 31 16t22.5 42t12.5 43t7 35
q2 10 3 20.5t2.5 27.5t0 31t-4.5 28t-11 21.5t-20 7.5z" />
    <glyph glyph-name="odieresis" unicode="&#xf6;" horiz-adv-x="436" 
d="M300 515q43 0 75 -15t49 -40t25 -60t7.5 -71t-6.5 -77q-8 -52 -24.5 -96t-43 -83t-69 -61t-97.5 -22q-43 0 -75 15t-49 40t-25 59.5t-8 70.5t7 77q8 52 24 96t43 83t69.5 61.5t97.5 22.5zM279 388q-17 0 -30.5 -16t-22 -42t-12.5 -43t-7 -35q-2 -10 -3 -20.5t-2.5 -27.5
t0 -31t4.5 -28t11 -21.5t19 -7.5q17 0 31 16t22.5 42t12.5 43t7 35q2 10 3 20.5t2.5 27.5t0 31t-4.5 28t-11 21.5t-20 7.5zM293 659q-4 -30 -29.5 -51.5t-56.5 -21.5q-30 0 -48.5 21.5t-14.5 51.5q5 32 30.5 54t57.5 22q31 0 48.5 -22.5t12.5 -53.5zM501 659
q-4 -30 -29.5 -51.5t-56.5 -21.5q-30 0 -48.5 21.5t-14.5 51.5q5 32 30.5 54t57.5 22q31 0 48.5 -22.5t12.5 -53.5z" />
    <glyph glyph-name="divide" unicode="&#xf7;" 
d="M53 201l17 110h449l-17 -110h-449zM310 13h-127l18 115h127zM369 384h-127l18 115h127z" />
    <glyph glyph-name="oslash" unicode="&#xf8;" horiz-adv-x="436" 
d="M400 482l34 44l46 -32l-45 -58q32 -79 15 -184q-8 -49 -24.5 -93t-43.5 -83.5t-69 -62.5t-94 -23q-62 0 -105 36l-34 -44l-46 34l45 60q-29 74 -12 181q7 47 23.5 90t43.5 82t69.5 62.5t95.5 23.5q67 0 101 -33zM207 255q-2 -18 -3.5 -36t-1 -44t9.5 -42t27 -16
q15 0 28.5 16.5t22 41.5t12.5 43t7 33q3 18 4 35.5t0.5 43.5t-9.5 42t-27 16q-16 0 -29 -16t-21.5 -41.5t-12.5 -42.5t-7 -33z" />
    <glyph glyph-name="ugrave" unicode="&#xf9;" horiz-adv-x="423" 
d="M115 505h141l-44 -277q0 -2 -4 -21t-4.5 -29.5t0 -25.5t7.5 -22.5t20 -7.5t22 6.5t13.5 19.5t6.5 21.5t4 22.5q1 3 1 5l50 308h140l-51 -322q-14 -91 -67 -142t-144 -51q-33 0 -58.5 7t-41.5 18.5t-26 29t-14.5 35t-5 40.5t1 41t5.5 41zM294 754l74 -144l-76 -40
l-107 138z" />
    <glyph glyph-name="uacute" unicode="&#xfa;" horiz-adv-x="423" 
d="M115 505h141l-44 -277q0 -2 -4 -21t-4.5 -29.5t0 -25.5t7.5 -22.5t20 -7.5t22 6.5t13.5 19.5t6.5 21.5t4 22.5q1 3 1 5l50 308h140l-51 -322q-14 -91 -67 -142t-144 -51q-33 0 -58.5 7t-41.5 18.5t-26 29t-14.5 35t-5 40.5t1 41t5.5 41zM368 754l95 -46l-151 -138l-62 40
z" />
    <glyph glyph-name="ucircumflex" unicode="&#xfb;" horiz-adv-x="423" 
d="M115 505h141l-44 -277q0 -2 -4 -21t-4.5 -29.5t0 -25.5t7.5 -22.5t20 -7.5t22 6.5t13.5 19.5t6.5 21.5t4 22.5q1 3 1 5l50 308h140l-51 -322q-14 -91 -67 -142t-144 -51q-33 0 -58.5 7t-41.5 18.5t-26 29t-14.5 35t-5 40.5t1 41t5.5 41zM329 748l127 -121l-71 -62l-73 70
l-100 -70l-43 70z" />
    <glyph glyph-name="udieresis" unicode="&#xfc;" horiz-adv-x="423" 
d="M115 505h141l-44 -277q0 -2 -4 -21t-4.5 -29.5t0 -25.5t7.5 -22.5t20 -7.5t22 6.5t13.5 19.5t6.5 21.5t4 22.5q1 3 1 5l50 308h140l-51 -322q-14 -91 -67 -142t-144 -51q-33 0 -58.5 7t-41.5 18.5t-26 29t-14.5 35t-5 40.5t1 41t5.5 41zM495 659q-4 -30 -29.5 -51.5
t-56.5 -21.5q-30 0 -48.5 21.5t-14.5 51.5q5 32 30.5 54t57.5 22q31 0 48.5 -22.5t12.5 -53.5zM287 659q-4 -30 -29.5 -51.5t-56.5 -21.5q-30 0 -48.5 21.5t-14.5 51.5q5 32 30.5 54t57.5 22q31 0 48.5 -22.5t12.5 -53.5z" />
    <glyph glyph-name="yacute" unicode="&#xfd;" horiz-adv-x="452" 
d="M95 505h142l21 -204l3 -84h2l112 288h142l-336 -754h-139l122 259zM392 754l95 -46l-151 -138l-62 40z" />
    <glyph glyph-name="thorn" unicode="&#xfe;" horiz-adv-x="433" 
d="M288 707l-42 -264h2q18 33 45.5 52.5t60.5 19.5t56 -19.5t32.5 -47.5t12 -66t0 -68t-7.5 -61q-4 -28 -12 -58.5t-23 -68.5t-34 -67t-47.5 -49t-61.5 -20q-61 0 -82 67h-2l-48 -306h-141l151 956h141zM234 119q51 0 72 136q3 16 4.5 34t1 43.5t-9 41.5t-24.5 16
q-17 0 -30.5 -16t-22 -42t-12.5 -43t-7 -34q-2 -16 -3.5 -33.5t-1.5 -43.5t8.5 -42.5t24.5 -16.5z" />
    <glyph glyph-name="ydieresis" unicode="&#xff;" horiz-adv-x="452" 
d="M95 505h142l21 -204l3 -84h2l112 288h142l-336 -754h-139l122 259zM509 659q-4 -30 -29.5 -51.5t-56.5 -21.5q-30 0 -48.5 21.5t-14.5 51.5q5 32 30.5 54t57.5 22q31 0 48.5 -22.5t12.5 -53.5zM301 659q-4 -30 -29.5 -51.5t-56.5 -21.5q-30 0 -48.5 21.5t-14.5 51.5
q5 32 30.5 54t57.5 22q31 0 48.5 -22.5t12.5 -53.5z" />
    <glyph glyph-name="dotlessi" unicode="&#x131;" horiz-adv-x="209" 
d="M114 505h141l-80 -505h-141z" />
    <glyph glyph-name="Lslash" unicode="&#x141;" horiz-adv-x="373" 
d="M172 754h149l-39 -250l89 56l-18 -110l-89 -58l-40 -252h156l-22 -140h-305l46 288l-60 -40l19 120l60 40z" />
    <glyph glyph-name="lslash" unicode="&#x142;" horiz-adv-x="210" 
d="M35 0l53 336l-73 -51l16 99l73 51l59 372h141l-43 -273l72 52l-16 -97l-72 -53l-69 -436h-141z" />
    <glyph glyph-name="OE" unicode="&#x152;" horiz-adv-x="745" 
d="M397 0l9 57h-2q-27 -32 -64.5 -50.5t-77.5 -18.5q-47 0 -82.5 17.5t-55.5 48t-32.5 68t-15 82.5t-0.5 85.5t9 81.5q8 53 22 102.5t39.5 104.5t58 95t82 66.5t107.5 26.5q37 0 67.5 -14t46.5 -40h2l6 42h309l-22 -140h-161l-25 -158h144l-22 -140h-144l-28 -176h162
l-22 -140h-310zM456 378q40 254 -63 254q-29 0 -53 -20.5t-39.5 -48.5t-28 -66.5t-18 -64.5t-9.5 -54q-4 -27 -7 -53.5t-2.5 -65.5t6.5 -67t24 -49t46 -21q103 0 144 256z" />
    <glyph glyph-name="oe" unicode="&#x153;" horiz-adv-x="653" 
d="M457 -10q-85 0 -130 55q-49 -55 -122 -55q-47 0 -80 23.5t-46.5 61t-18 84t5.5 93.5q8 49 25 94t43.5 84t66.5 62t88 23q79 0 115 -50q31 27 60.5 38.5t73.5 11.5q74 0 115 -64.5t17 -177.5l-12 -58h-223q0 -2 -1 -7q-2 -17 -3 -27.5t-1 -28t3.5 -28t12.5 -18.5t24 -8
q45 0 54 58h120q-22 -76 -68 -121t-119 -45zM307 255q2 10 3 20t2.5 27.5t0.5 31.5t-4 27.5t-10.5 21.5t-18.5 8q-17 0 -31 -16.5t-22.5 -43.5t-12.5 -44t-7 -35q-2 -10 -3 -20.5t-2.5 -28t0 -31.5t4.5 -28t10.5 -22t19.5 -8q16 0 29.5 17t22 44t13 45.5t6.5 34.5zM450 302
h103l2 12q1 18 2 38.5t-8.5 37.5t-30.5 17q-28 0 -44.5 -28.5t-21.5 -61.5z" />
    <glyph glyph-name="Scaron" unicode="&#x160;" horiz-adv-x="440" 
d="M478 729l-22 -145q-48 48 -101 48q-35 0 -58 -20t-29 -54q-4 -25 5.5 -46.5t26.5 -38.5t38.5 -34.5t42.5 -37.5t37.5 -43.5t23.5 -58.5t0 -76q-16 -104 -84 -169.5t-170 -65.5q-33 0 -66.5 10t-55.5 28l23 142q52 -40 106 -40q37 0 65 22.5t34 59.5q0 11 1.5 18t-2 15.5
t-5 14t-7.5 12.5t-9.5 11t-11 10t-12 9.5t-12.5 9.5t-12 10q-64 48 -90 97.5t-14 126.5q15 94 77.5 158t154.5 64q69 0 126 -37zM347 789l-127 121l71 62l74 -70l99 70l44 -70z" />
    <glyph glyph-name="scaron" unicode="&#x161;" horiz-adv-x="376" 
d="M421 472l-74 -103q-15 16 -29 24.5t-33 8.5t-30.5 -10t-13.5 -27q-2 -13 8.5 -24.5t27 -19.5t35.5 -20.5t34 -28t22.5 -42.5t1.5 -63q-12 -78 -63 -127.5t-127 -49.5q-82 0 -142 58l77 100q34 -33 65 -33q17 0 31 11.5t17 30.5q3 15 -7 27.5t-26.5 21t-35.5 22t-34.5 29
t-23 44t-1.5 66.5q11 69 66.5 108.5t126.5 39.5q76 0 128 -43zM287 565l-126 121l70 62l74 -70l99 70l44 -70z" />
    <glyph glyph-name="Ydieresis" unicode="&#x178;" horiz-adv-x="514" 
d="M123 754h164l46 -205l5 -37h2l26 56l96 186h167l-238 -393l-57 -361h-149l57 361zM582 883q-5 -30 -30.5 -51.5t-56.5 -21.5q-30 0 -48.5 21.5t-13.5 51.5q5 32 30.5 54t57.5 22q30 0 48 -22.5t13 -53.5zM374 883q-5 -30 -30.5 -51.5t-56.5 -21.5q-30 0 -48.5 21.5
t-13.5 51.5q5 32 30.5 54t57.5 22q30 0 48 -22.5t13 -53.5z" />
    <glyph glyph-name="Zcaron" unicode="&#x17d;" horiz-adv-x="508" 
d="M169 754h443l-355 -614h237l-22 -140h-454l348 614h-219zM381 789l-127 121l71 62l74 -70l99 70l44 -70z" />
    <glyph glyph-name="zcaron" unicode="&#x17e;" horiz-adv-x="401" 
d="M119 505h339l-217 -388h139l-19 -117h-338l221 388h-144zM292 565l-126 121l70 62l74 -70l99 70l44 -70z" />
    <glyph glyph-name="florin" unicode="&#x192;" 
d="M610 747l-38 -103q-20 12 -40 12q-17 0 -31 -6.5t-22.5 -13.5t-16.5 -23t-11.5 -25.5t-9.5 -30t-8 -27.5l-10 -31h111l-15 -95h-124l-95 -295q-52 -159 -96 -224q-23 -33 -61 -51.5t-76 -18.5t-85 12l34 110q16 -16 43.5 -15t41.5 24q17 24 36 80l125 378h-111l15 95h126
l28 78q14 40 31.5 71.5t42 58.5t58.5 41.5t76 14.5q28 0 76 -14q1 -1 3 -1t3 -1z" />
    <glyph glyph-name="circumflex" unicode="&#x2c6;" horiz-adv-x="300" 
d="M267 748l127 -121l-71 -62l-73 70l-100 -70l-43 70z" />
    <glyph glyph-name="caron" unicode="&#x2c7;" horiz-adv-x="300" 
d="M241 565l-126 121l70 62l74 -70l99 70l44 -70z" />
    <glyph glyph-name="breve" unicode="&#x2d8;" horiz-adv-x="300" 
d="M377 780h65q-20 -70 -70 -107.5t-121 -37.5q-80 0 -118.5 40.5t-26.5 104.5h65q-2 -35 21.5 -52.5t64.5 -17.5q53 0 80.5 16.5t39.5 53.5z" />
    <glyph glyph-name="dotaccent" unicode="&#x2d9;" horiz-adv-x="300" 
d="M329 659q-4 -30 -29.5 -51.5t-56.5 -21.5q-30 0 -48.5 21.5t-14.5 51.5q5 32 30.5 54t57.5 22q31 0 48.5 -22.5t12.5 -53.5z" />
    <glyph glyph-name="ring" unicode="&#x2da;" horiz-adv-x="300" 
d="M238 549q-45 0 -72 31.5t-20 77.5t44 77t83 31q45 0 70.5 -32.5t18.5 -77.5q-7 -44 -43.5 -75.5t-80.5 -31.5zM248 615q17 0 31 12.5t17 28.5q3 18 -7 31t-27 13q-18 0 -32.5 -12t-17.5 -31q-3 -18 7.5 -30t28.5 -12z" />
    <glyph glyph-name="ogonek" unicode="&#x2db;" horiz-adv-x="300" 
d="M227 -104l-14 -86q-32 -15 -76 -15q-50 0 -79 25.5t-22 73.5q3 17 12.5 32.5t26.5 30t29 22.5t32 21h68v-2q-27 -13 -49.5 -35t-25.5 -41t8.5 -31.5t30.5 -12.5q8 0 18 3t23 8t18 7z" />
    <glyph glyph-name="tilde" unicode="&#x2dc;" horiz-adv-x="300" 
d="M355 740l74 -5q-9 -29 -17 -47t-22 -40.5t-34.5 -34t-47.5 -11.5q-28 0 -74 22q-28 13 -40 13q-27 0 -37 -32h-73q7 28 14.5 47t20.5 41t33 33.5t47 11.5q28 0 62.5 -19t51.5 -19q32 0 42 40z" />
    <glyph glyph-name="hungarumlaut" unicode="&#x2dd;" horiz-adv-x="300" 
d="M173 754l95 -46l-151 -138l-62 40zM359 754l95 -46l-151 -138l-62 40z" />
    <glyph glyph-name="mu" unicode="&#x3bc;" horiz-adv-x="423" 
d="M328 505h141l-52 -326q0 -3 -3 -23t-4 -25.5t-5 -24t-7 -26t-8.5 -23t-11.5 -22.5l-15 -17.5t-19 -15t-23 -8.5t-29 -4q-39 0 -66.5 25t-36.5 63h-2l-51 -327h-141l119 754h141l-50 -315q-9 -58 29 -58q13 0 22 6.5t14 20.5t7.5 23t4.5 27t2 19z" />
    <glyph glyph-name="endash" unicode="&#x2013;" horiz-adv-x="500" 
d="M63 397h500l-21 -133h-500z" />
    <glyph glyph-name="emdash" unicode="&#x2014;" horiz-adv-x="1000" 
d="M193 397h740l-21 -133h-740z" />
    <glyph glyph-name="quoteleft" unicode="&#x2018;" horiz-adv-x="302" 
d="M247 448h-150l198 306h100z" />
    <glyph glyph-name="quoteright" unicode="&#x2019;" horiz-adv-x="302" 
d="M245 754h150l-198 -306h-100z" />
    <glyph glyph-name="quotesinglbase" unicode="&#x201a;" horiz-adv-x="303" 
d="M152 162h151l-200 -306h-100z" />
    <glyph glyph-name="quotedblleft" unicode="&#x201c;" horiz-adv-x="491" 
d="M436 448h-150l198 306h100zM247 448h-150l198 306h100z" />
    <glyph glyph-name="quotedblright" unicode="&#x201d;" horiz-adv-x="491" 
d="M245 754h150l-198 -306h-100zM434 754h150l-198 -306h-100z" />
    <glyph glyph-name="quotedblbase" unicode="&#x201e;" horiz-adv-x="491" 
d="M152 162h150l-199 -306h-100zM341 162h150l-199 -306h-100z" />
    <glyph glyph-name="dagger" unicode="&#x2020;" horiz-adv-x="491" 
d="M296 754h137l-38 -241h128l-20 -128h-128l-87 -549h-137l87 549h-127l20 128h127z" />
    <glyph glyph-name="daggerdbl" unicode="&#x2021;" 
d="M295 754h137l-34 -216h127l-20 -128h-127l-27 -172h127l-21 -128h-127l-43 -274h-137l43 274h-126l21 128h126l27 172h-126l20 128h126z" />
    <glyph glyph-name="bullet" unicode="&#x2022;" horiz-adv-x="420" 
d="M298 559q78 0 124.5 -55t34.5 -132q-13 -79 -77 -134.5t-142 -55.5q-79 0 -125 55.5t-33 134.5q12 77 75.5 132t142.5 55z" />
    <glyph glyph-name="ellipsis" unicode="&#x2026;" horiz-adv-x="1000" 
d="M165.5 -12q-39.5 0 -63 28t-17.5 67t38.5 67t72 28t62.5 -28t17 -67t-38 -67t-71.5 -28zM831.5 -12q-39.5 0 -63 28t-17.5 67t38.5 67t72 28t62.5 -28t17 -67t-38 -67t-71.5 -28zM498.5 -12q-39.5 0 -63 28t-17.5 67t38.5 67t72 28t62.5 -28t17 -67t-38 -67t-71.5 -28z
" />
    <glyph glyph-name="perthousand" unicode="&#x2030;" horiz-adv-x="1234" 
d="M315.5 761q44.5 0 74 -19.5t40.5 -50t13.5 -69.5t-5.5 -78q-7 -42 -20 -78t-34.5 -69t-56.5 -51.5t-80 -18.5t-74.5 19.5t-40 50t-13.5 69.5t5 78q7 42 20 78t35 69t57 51.5t79.5 18.5zM661 -7q-45 0 -74.5 19.5t-40 50t-13.5 69.5t5 78q7 42 20 78t35 69t57 51.5
t79.5 18.5t74 -19.5t40.5 -50t14 -69.5t-6 -78q-6 -42 -19 -78t-35 -69t-57 -51.5t-80 -18.5zM1037 -7q-45 0 -74.5 19.5t-40 50t-13.5 69.5t5 78q7 42 20 78t35 69t57 51.5t79.5 18.5t74 -19.5t40.5 -50t14 -69.5t-6 -78q-6 -42 -19 -78t-35 -69t-57 -51.5t-80 -18.5z
M304 0h-107l476 754h107zM1055 107q12 0 22 12t16.5 32t9.5 33t5 26t3 26t1 33t-6 32t-18 12q-37 0 -54 -103q-2 -13 -3 -26t-1 -32.5t6.5 -32t18.5 -12.5zM297 647q-37 0 -53 -103q-2 -12 -3 -25.5t-1 -33t6.5 -32t18.5 -12.5t22 12t16.5 32t9.5 33t5 26t3 26t1 33t-6 32
t-19 12zM679 107q12 0 22 12t16.5 32t9.5 33t5 26t3 26t1 33t-6 32t-18 12q-37 0 -54 -103q-2 -13 -3 -26t-1 -32.5t6.5 -32t18.5 -12.5z" />
    <glyph glyph-name="guilsinglleft" unicode="&#x2039;" horiz-adv-x="260" 
d="M79 332l166 232l71 -43l-133 -189l72 -195l-83 -39z" />
    <glyph glyph-name="guilsinglright" unicode="&#x203a;" horiz-adv-x="260" 
d="M193 564l94 -232l-167 -234l-71 39l134 195l-73 189z" />
    <glyph glyph-name="fraction" unicode="&#x2044;" horiz-adv-x="166" 
d="M339 754h86l-478 -754h-87z" />
    <glyph glyph-name="Euro" unicode="&#x20ac;" 
d="M490 349l-18 -66h-190q11 -68 51 -111.5t108 -43.5q23 0 46 6l-21 -135q-26 -7 -55 -7q-85 0 -147.5 40.5t-95 105t-36.5 145.5h-62l18 66h44q1 11 5 34l2 17h-51l19 66h51q45 123 145.5 208.5t222.5 85.5q38 0 74 -9l-36 -132q-22 5 -43 5q-74 0 -130 -44.5t-85 -113.5
h217l-19 -66h-220l-2 -16q-4 -23 -4 -35h212z" />
    <glyph glyph-name="trademark" unicode="&#x2122;" horiz-adv-x="800" 
d="M893 754l-64 -404h-80l52 326h-2l-157 -326h-47l-53 326h-2l-52 -326h-80l64 404h129l44 -239h2l117 239h129zM429 754l-12 -78h-115l-52 -326h-80l52 326h-114l12 78h309z" />
    <glyph glyph-name="minus" unicode="&#x2212;" 
d="M53 201l17 110h449l-17 -110h-449z" />
    <glyph glyph-name="fi" unicode="&#xfb01;" horiz-adv-x="535" 
d="M99 505h52l22 142q7 40 16.5 67.5t28 52.5t50.5 37.5t77 12.5q27 0 60 -12l-22 -136q-13 8 -24 8q-8 0 -15 -2.5t-11.5 -5.5t-8.5 -10t-6 -11t-4.5 -14t-3 -13t-2.5 -14t-2 -12l-14 -90h65l-18 -116h-65l-62 -389h-141l62 389h-52zM421 505h141l-80 -505h-141zM500.5 565
q-36.5 0 -58.5 26.5t-16 64.5t36.5 63.5t69.5 25.5q36 0 57 -27t16 -64q-6 -36 -37 -62.5t-67.5 -26.5z" />
    <glyph glyph-name="fl" unicode="&#xfb02;" horiz-adv-x="535" 
d="M99 505h52l22 142q7 40 16.5 67.5t28 52.5t50.5 37.5t77 12.5q27 0 60 -12l-22 -136q-13 8 -24 8q-8 0 -15 -2.5t-11.5 -5.5t-8.5 -10t-6 -11t-4.5 -14t-3 -13t-2.5 -14t-2 -12l-14 -90h65l-18 -116h-65l-62 -389h-141l62 389h-52zM469 807h141l-128 -807h-141z" />
    <glyph glyph-name="oldcurrency" 
d="M26 137l49 44q-25 65 -15 128q11 69 55 129l-35 42l89 80l35 -43q68 38 129 38q67 0 121 -38l50 43l59 -80l-48 -42q27 -60 16 -128q-12 -76 -56 -129l34 -44l-85 -79l-36 43q-69 -38 -129 -38q-69 0 -121 38l-49 -43zM316 437q-48 0 -89 -38.5t-49 -88.5t20.5 -89.5
t77.5 -39.5t89 39.5t48 89.5t-20 88.5t-77 38.5z" />
    </font>
</defs>
</svg>
