<?xml version="1.0" standalone="no"?>
<!DOCTYPE svg PUBLIC "-//W3C//DTD SVG 1.1//EN" "http://www.w3.org/Graphics/SVG/1.1/DTD/svg11.dtd" >
<svg xmlns="http://www.w3.org/2000/svg" xmlns:xlink="http://www.w3.org/1999/xlink" version="1.1">
<metadata>
Created by FontForge 20170731 at Wed Jul 24 11:47:42 2002
 By Aleksey,,,
Futura is a registered trademark of Fundicion Tipografica Neufville S. A.
</metadata>
<defs>
<font id="FuturaLT-BookOblique" horiz-adv-x="616" >
  <font-face 
    font-family="Futura LT"
    font-weight="400"
    font-style="oblique"
    font-stretch="normal"
    units-per-em="1000"
    panose-1="2 0 5 3 0 0 0 0 0 0"
    ascent="800"
    descent="-200"
    x-height="470"
    cap-height="754"
    bbox="-159 -293 1242 1006"
    underline-thickness="50"
    underline-position="-200"
    slope="-9"
    unicode-range="U+0020-FFFD"
  />
<missing-glyph horiz-adv-x="308" 
 />
    <glyph glyph-name=".notdef" unicode="&#xfffd;" horiz-adv-x="308" 
 />
    <glyph glyph-name=".null" horiz-adv-x="0" 
 />
    <glyph glyph-name="nonmarkingreturn" horiz-adv-x="333" 
 />
    <glyph glyph-name="space" unicode=" " horiz-adv-x="308" 
 />
    <glyph glyph-name="exclam" unicode="!" horiz-adv-x="338" 
d="M185 99q23 0 37 -16t10 -39t-23 -40t-42 -17t-37 17t-10 40t23 39t42 16zM152 153l95 601h82l-95 -601h-82z" />
    <glyph glyph-name="quotedbl" unicode="&#x22;" horiz-adv-x="457" 
d="M221 754h94l-70 -328h-58zM380 754h94l-70 -328h-58z" />
    <glyph glyph-name="numbersign" unicode="#" 
d="M355 754h77l-68 -204h124l67 204h79l-67 -204h92l-12 -78h-105l-56 -171h101l-13 -78h-115l-75 -223h-76l74 223h-123l-77 -223h-75l74 223h-102l13 78h115l56 171h-107l12 78h119zM341 472l-56 -171h123l56 171h-123z" />
    <glyph glyph-name="dollar" unicode="$" 
d="M410 344l-42 -268q50 16 83.5 54.5t41.5 88.5q12 76 -83 125zM363 463l35 219q-41 -8 -72.5 -40t-38.5 -73q-10 -64 76 -106zM301 69l48 305q-37 16 -62 32t-48.5 39t-32.5 55t-2 72q12 76 70 127t137 62l16 103h66l-16 -103q49 -7 86.5 -38t52.5 -76l-72 -43
q-28 67 -80 77l-39 -247q40 -18 66 -35t50.5 -42t33.5 -59t2 -77q-13 -83 -75.5 -146t-146.5 -80l-17 -110h-66l16 104q-79 4 -131 59t-54 135l85 23q-2 -53 30 -93t83 -44z" />
    <glyph glyph-name="percent" unicode="%" horiz-adv-x="797" 
d="M321.5 767q69.5 0 111 -48t30.5 -117q-10 -68 -67.5 -116t-126.5 -48t-111 47.5t-31 116.5t68 117t126.5 48zM311.5 703q-42.5 0 -78 -29.5t-42.5 -71.5q-6 -41 20 -70.5t68.5 -29.5t78 29.5t41.5 70.5q7 42 -19 71.5t-68.5 29.5zM718 767l37 -24l-556 -756l-39 26z
M648.5 316q69.5 0 111 -48t30.5 -117q-11 -68 -68 -116t-126 -48t-111 47.5t-31 116.5t68 117t126.5 48zM638 252q-42 0 -77.5 -29.5t-42.5 -71.5q-7 -41 19.5 -70.5t68.5 -29.5t77.5 29.5t42.5 70.5q7 42 -19.5 71.5t-68.5 29.5z" />
    <glyph glyph-name="ampersand" unicode="&#x26;" horiz-adv-x="695" 
d="M380 492l8 5q4 3 23.5 16t25.5 17.5t21 17t21 21t13 22.5t9 28q5 34 -15.5 55.5t-54.5 21.5t-62 -24t-34 -59q0 -10 -1 -15.5t1.5 -15t4 -14t5.5 -13t6.5 -13t7.5 -13t7 -12.5zM581 0l-64 106q-70 -55 -133 -87t-127 -32q-89 0 -145 59t-42 147q4 26 13.5 50.5t20.5 43
t30 38t33.5 32t40.5 30.5t41 27l45 27l10 6q-1 1 -9 15.5t-9.5 17t-8.5 15.5t-8.5 18t-6 17t-5.5 19t-3 17.5t-1.5 20.5t1.5 20q11 71 65 115.5t125 44.5q66 0 106.5 -42t30.5 -106q-4 -26 -16.5 -50t-25 -40t-38 -37t-38.5 -30.5t-45 -30.5l127 -203l101 99l53 -50
l-114 -112l102 -165h-106zM343 385l-40 -24q-33 -20 -50 -32t-42.5 -33.5t-39.5 -45.5t-18 -51q-9 -54 24.5 -95t86.5 -41q27 0 54.5 8.5t59 28t48.5 31.5t51 38z" />
    <glyph glyph-name="quotesingle" unicode="'" horiz-adv-x="289" 
d="M217 754h94l-70 -328h-58z" />
    <glyph glyph-name="parenleft" unicode="(" horiz-adv-x="287" 
d="M309 788l65 -34q-113 -212 -155.5 -480t3.5 -480l-76 -34q-60 194 -9.5 514t172.5 514z" />
    <glyph glyph-name="parenright" unicode=")" horiz-adv-x="287" 
d="M151 754l77 34q60 -194 9.5 -514t-172.5 -514l-66 34q114 212 156.5 480t-4.5 480z" />
    <glyph glyph-name="asterisk" unicode="*" horiz-adv-x="592" 
d="M362 614l16 140h75l-28 -140l140 49l13 -72l-142 -38l69 -110l-68 -45l-59 118l-97 -118l-54 45l106 110l-130 38l35 72z" />
    <glyph glyph-name="plus" unicode="+" 
d="M348 498h78l-32 -203h203l-13 -78h-203l-32 -203h-78l32 203h-203l13 78h203z" />
    <glyph glyph-name="comma" unicode="," horiz-adv-x="308" 
d="M168 110l70 -26l-153 -256l-51 22z" />
    <glyph glyph-name="hyphenminus" unicode="-" horiz-adv-x="208" 
d="M46 278h205l-12 -74h-205z" />
    <glyph glyph-name="period" unicode="." horiz-adv-x="308" 
d="M170 99q23 0 37 -16t10 -39t-23 -40t-42 -17t-37 17t-10 40t23 39t42 16z" />
    <glyph glyph-name="slash" unicode="/" horiz-adv-x="570" 
d="M617 825l61 -30l-620 -952l-60 30z" />
    <glyph glyph-name="zero" unicode="0" 
d="M429 767q47 0 84 -18t61 -49t40.5 -70.5t23 -83.5t6.5 -87t-6 -83q-12 -71 -41 -139.5t-71.5 -124.5t-100 -90.5t-119.5 -34.5q-50 0 -90.5 22.5t-65.5 61t-41 88.5t-17.5 105t6.5 112q7 48 25 100t47.5 104.5t66.5 93.5t87.5 67t104.5 26zM417.5 689q-40.5 0 -77.5 -23
t-63 -58t-47 -78.5t-32.5 -83.5t-16.5 -74q-3 -33 -5 -72.5t6.5 -81t23 -75.5t44 -56t69 -22t75.5 22t61.5 55.5t46.5 76t33 80.5t18 72.5t7 74.5t-6 83.5t-22 78.5t-44.5 58t-70 23z" />
    <glyph glyph-name="one" unicode="1" 
d="M390 676h-125l56 78h165l-119 -754h-84z" />
    <glyph glyph-name="two" unicode="2" 
d="M223 78h318l-12 -78h-488l419 417q61 61 71 126q10 62 -27.5 104t-99.5 42q-67 0 -115.5 -44t-60.5 -111h-84q18 100 94 166.5t175 66.5q97 0 157 -63.5t45 -159.5q-15 -93 -82 -159z" />
    <glyph glyph-name="three" unicode="3" 
d="M328 357l12 78q33 1 58.5 7t49.5 19t39.5 37.5t20.5 58.5q10 60 -20.5 96t-90.5 36q-54 0 -91.5 -33t-51.5 -88h-83q24 92 86.5 145.5t153.5 53.5q93 0 144.5 -57t37.5 -149q-8 -51 -41.5 -96.5t-81.5 -68.5q49 -24 68.5 -74t9.5 -111q-15 -98 -93 -161t-176 -63
q-94 0 -149 58t-42 151h82q-6 -57 30 -94t94 -37q63 0 112 44t59 107q11 70 -27.5 106.5t-109.5 34.5z" />
    <glyph glyph-name="four" unicode="4" 
d="M508 200h93l-13 -78h-93l-19 -122h-84l19 122h-386l575 674h2zM424 200l54 341h-2l-291 -341h239z" />
    <glyph glyph-name="five" unicode="5" 
d="M630 676h-241l-74 -161l45 4q110 0 168.5 -76t41.5 -187q-19 -116 -111 -192.5t-209 -76.5q-74 0 -128 35.5t-82 99.5l75 48q19 -47 58.5 -76t91.5 -29q83 0 145.5 55t75.5 138q12 79 -34 131t-125 52q-69 0 -151 -48l166 361h300z" />
    <glyph glyph-name="six" unicode="6" 
d="M484 767l56 -47l-211 -234l2 -2q33 11 67 11q103 0 162 -73t43 -176q-17 -108 -105.5 -183.5t-195.5 -75.5t-171.5 76t-47.5 182q13 85 97 181zM314.5 65q73.5 0 133 52t70.5 126q12 73 -31.5 123.5t-116.5 50.5q-74 0 -133 -50.5t-71 -123.5q-11 -74 32 -126t116.5 -52z
" />
    <glyph glyph-name="seven" unicode="7" 
d="M570 676h-412l12 78h556l-627 -767l-60 39z" />
    <glyph glyph-name="eight" unicode="8" 
d="M364 355q-61 0 -110 -42.5t-58.5 -102.5t26 -102.5t97 -42.5t110.5 42.5t58.5 102.5t-26.5 102.5t-97 42.5zM429.5 767q89.5 0 141 -60t36.5 -150q-8 -50 -39.5 -95.5t-78.5 -69.5q49 -24 70.5 -73t11.5 -108q-15 -97 -91 -160.5t-174 -63.5t-154 63.5t-41 160.5
q10 59 47 108t93 73q-39 24 -56.5 69.5t-9.5 95.5q15 90 85 150t159.5 60zM417 689q-54 0 -98.5 -38t-52.5 -92q-9 -55 23.5 -93.5t86.5 -38.5t98.5 38.5t53.5 93.5q8 54 -24.5 92t-86.5 38z" />
    <glyph glyph-name="nine" unicode="9" 
d="M243 -13l-56 43l212 239l-2 2q-35 -10 -67 -10q-103 0 -162 73t-42 176q17 107 105.5 182t195 75t171.5 -75t48 -182q-14 -84 -99 -181zM414 689q-73 0 -132.5 -51.5t-71.5 -124.5q-11 -73 32 -123.5t117 -50.5q73 0 132.5 50.5t70.5 123.5q12 73 -31.5 124.5
t-116.5 51.5z" />
    <glyph glyph-name="colon" unicode=":" horiz-adv-x="308" 
d="M170 99q23 0 37 -16t10 -39t-23 -40t-42 -17t-37 17t-10 40t23 39t42 16zM230.5 483q23.5 0 37 -16t10.5 -39q-4 -23 -23 -40t-42 -17t-37 17t-10 40q3 23 22 39t42.5 16z" />
    <glyph glyph-name="semicolon" unicode=";" horiz-adv-x="308" 
d="M170 110l70 -26l-153 -256l-51 22zM255.5 483q23.5 0 37 -16t10.5 -39q-4 -23 -23 -40t-42 -17t-37 17t-10 40q3 23 22 39t42.5 16z" />
    <glyph glyph-name="less" unicode="&#x3c;" 
d="M629 498l-14 -85l-392 -157l343 -157l-14 -85l-451 207l11 70z" />
    <glyph glyph-name="equal" unicode="=" 
d="M125 373h484l-12 -78h-484zM100 217h484l-12 -78h-484z" />
    <glyph glyph-name="greater" unicode="&#x3e;" 
d="M131 413l14 85l451 -207l-11 -70l-517 -207l14 85l393 157z" />
    <glyph glyph-name="question" unicode="?" horiz-adv-x="488" 
d="M377 328h81q-9 -73 -63.5 -123t-126.5 -50q-70 0 -109.5 47t-28.5 116q10 62 51.5 97t110.5 56q4 1 14 4q24 7 36.5 11.5t32 13.5t29.5 19.5t19.5 27.5t13.5 39q7 46 -17.5 75t-69.5 29q-42 0 -74.5 -28.5t-38.5 -70.5q-4 -24 -2 -48h-83l4 53q12 76 73.5 123.5t138 47.5
t120 -51.5t31.5 -128.5q-6 -38 -25.5 -74t-49.5 -60q-7 -5 -14 -9.5t-15.5 -9t-14.5 -7.5t-17 -7t-16 -5.5t-17.5 -5.5t-15.5 -5t-17 -5t-15 -4q-38 -10 -61.5 -29t-29.5 -54q-5 -34 15.5 -57t54.5 -23q39 0 64.5 27.5t31.5 68.5zM258 99q23 0 37 -16t10 -39t-23 -40
t-42 -17t-37 17t-10 40t23 39t42 16z" />
    <glyph glyph-name="at" unicode="@" horiz-adv-x="800" 
d="M316 346q-9 -53 14.5 -86.5t74.5 -33.5q61 0 100 42t57 104q17 60 -6 97.5t-75 37.5q-58 0 -107 -50t-58 -111zM608 505l24 61h71l-91 -255q0 -2 -2 -5l-6 -18t-5.5 -17t-4 -17.5t0.5 -13.5t5.5 -10.5t12.5 -3.5q35 0 83 61t63 130q28 128 -39.5 203t-194.5 75
q-133 0 -234.5 -90.5t-122.5 -227.5q-23 -142 56 -230t217 -88q127 0 199 46l62 -51q-68 -32 -132.5 -49.5t-147.5 -17.5q-107 0 -187.5 50t-118.5 140t-20 200q17 109 82 198.5t160.5 140.5t200.5 51q139 0 222 -86q96 -97 76 -229q-21 -129 -96 -210q-41 -45 -85 -66.5
t-82 -19.5q-21 1 -33 17t-12 44q-70 -61 -145 -61q-67 0 -109 54t-30 129q15 94 83 165t158 71q79 0 122 -70z" />
    <glyph glyph-name="A" unicode="A" horiz-adv-x="699" 
d="M545 214h-322l-125 -214h-92l473 790l214 -790h-93zM524 292l-78 302l-177 -302h255z" />
    <glyph glyph-name="B" unicode="B" horiz-adv-x="568" 
d="M215 350l-43 -272h84q193 0 215 138q6 34 -3 59t-26 39t-44.5 22.5t-52.5 11t-57 2.5h-73zM76 0l119 754h124q54 0 96 -10.5t74 -33.5t45.5 -63.5t4.5 -96.5q-15 -98 -97 -147q63 -16 93 -70t19 -123q-11 -72 -56 -120.5t-107 -69t-140 -20.5h-175zM267 676l-40 -254h32
q33 0 55.5 2t48.5 9.5t43 21t30.5 37.5t18.5 58q2 21 3 38t-5 30t-12 22t-18 15.5t-23.5 10.5t-29 6.5t-33.5 3t-37 0.5h-33z" />
    <glyph glyph-name="C" unicode="C" horiz-adv-x="717" 
d="M761 693l-17 -104q-38 47 -93.5 73.5t-120.5 26.5q-82 0 -159 -43t-129 -115t-65 -154t16.5 -154t93.5 -115t146 -43q63 0 127 27t117 73l-16 -104q-114 -74 -237 -74q-105 0 -187.5 51.5t-121.5 141t-23 194.5q17 106 84 196.5t166 143.5t205 53q126 0 214 -74z" />
    <glyph glyph-name="D" unicode="D" horiz-adv-x="678" 
d="M76 0l119 754h142q95 0 160.5 -19t119.5 -72q108 -108 80 -287q-28 -171 -168 -281q-72 -56 -143.5 -75.5t-169.5 -19.5h-140zM172 78h61q77 0 136 16.5t115 61.5q108 88 129 221q10 66 -5.5 125t-56.5 101q-42 43 -95 58t-128 15h-61z" />
    <glyph glyph-name="E" unicode="E" horiz-adv-x="534" 
d="M76 0l119 754h391l-12 -78h-307l-35 -224h298l-13 -78h-298l-47 -296h307l-12 -78h-391z" />
    <glyph glyph-name="F" unicode="F" horiz-adv-x="478" 
d="M526 676h-259l-35 -224h251l-13 -78h-251l-59 -374h-84l119 754h343z" />
    <glyph glyph-name="G" unicode="G" horiz-adv-x="820" 
d="M523 379h314q-12 -86 -37.5 -148t-82.5 -118q-61 -60 -140.5 -93t-158.5 -33q-104 0 -185.5 52.5t-119.5 142t-22 193.5q17 106 84 196.5t166 143t205 52.5q194 0 294 -163l-70 -57q-78 142 -237 142q-128 0 -232.5 -93t-125.5 -222q-19 -123 55 -213q36 -43 88.5 -69.5
t109.5 -26.5q67 0 132.5 29t114.5 84.5t60 122.5h-224z" />
    <glyph glyph-name="H" unicode="H" horiz-adv-x="714" 
d="M235 448h386l48 306h84l-119 -754h-84l59 370h-386l-59 -370h-84l119 754h84z" />
    <glyph glyph-name="I" unicode="I" horiz-adv-x="239" 
d="M281 754l-119 -754h-84l119 754h84z" />
    <glyph glyph-name="J" unicode="J" horiz-adv-x="314" 
d="M355 754l-94 -597q-7 -40 -11.5 -62.5t-18.5 -55t-36 -55.5q-56 -62 -139 -62q-68 0 -125 56l57 65q20 -22 37.5 -32.5t44.5 -10.5q23 0 41.5 11.5t29 26t18.5 39.5t11 40t7 40l94 597h84z" />
    <glyph glyph-name="K" unicode="K" horiz-adv-x="611" 
d="M228 431l372 323h113l-409 -351l302 -403h-116l-254 346l-25 -21l-51 -325h-84l119 754h84z" />
    <glyph glyph-name="L" unicode="L" horiz-adv-x="375" 
d="M279 754l-107 -676h208l-12 -78h-292l119 754h84z" />
    <glyph glyph-name="M" unicode="M" horiz-adv-x="896" 
d="M21 0l279 797l174 -633l375 633l27 -797h-86l-16 510h-2l-329 -541l-156 541h-2l-178 -510h-86z" />
    <glyph glyph-name="N" unicode="N" horiz-adv-x="834" 
d="M81 0l125 786l490 -616l92 584h84l-124 -788l-491 615l-92 -581h-84z" />
    <glyph glyph-name="O" unicode="O" horiz-adv-x="862" 
d="M552.5 767q105.5 0 188 -52.5t121 -142.5t22.5 -196q-17 -106 -84.5 -196t-166 -141.5t-204.5 -51.5t-188.5 51.5t-121 141.5t-21.5 196q16 106 83.5 196t166.5 142.5t204.5 52.5zM540 689q-129 0 -233.5 -91.5t-124.5 -220.5q-14 -84 16 -155.5t94.5 -114t148.5 -42.5
q128 0 233 92t126 220q13 84 -16.5 156t-94 114t-149.5 42z" />
    <glyph glyph-name="P" unicode="P" horiz-adv-x="503" 
d="M212 330l-52 -330h-84l119 754h124q41 0 67 -2t58.5 -11t55.5 -27q37 -29 51.5 -74.5t6.5 -97.5q-8 -47 -33.5 -90t-64.5 -72q-68 -50 -187 -50h-61zM267 676l-42 -268h56q172 0 193 136q6 36 -2 61t-22.5 38.5t-42 21t-51 9.5t-58.5 2h-31z" />
    <glyph glyph-name="Q" unicode="Q" horiz-adv-x="862" 
d="M575 304l109 -136q96 87 116 209q13 85 -16.5 156.5t-94 113.5t-149.5 42q-129 0 -233.5 -91.5t-124.5 -220.5q-14 -84 16 -155.5t94.5 -114t148.5 -42.5q43 0 91 15t86 41l-153 183h110zM720 -7l-52 68q-51 -35 -116 -54.5t-123 -19.5q-106 0 -188.5 51.5t-121 141.5
t-21.5 196q16 106 83.5 196t166.5 142.5t204 52.5q108 0 190 -53t120 -143.5t21 -196.5q-23 -149 -151 -266l95 -115h-107z" />
    <glyph glyph-name="R" unicode="R" horiz-adv-x="542" 
d="M267 676l-43 -271h26q41 0 72 5t62.5 18.5t51.5 41.5t27 70q5 36 -1.5 61.5t-20.5 40t-40 22.5t-50 10t-59 2h-25zM212 331l-52 -331h-84l119 754h109q46 0 83.5 -5t72 -19.5t56 -37t30.5 -60t1 -86.5q-13 -87 -73.5 -144t-147.5 -64l186 -338h-103l-176 331h-21z" />
    <glyph glyph-name="S" unicode="S" horiz-adv-x="559" 
d="M588 650l-74 -43q-17 41 -44 61.5t-73 20.5q-51 0 -93 -33t-50 -84q-3 -19 2.5 -35.5t13.5 -27.5t25 -22.5t27.5 -17t30.5 -15.5l46 -22q40 -19 65.5 -35.5t49 -41t32 -58.5t1.5 -77q-16 -98 -95.5 -165.5t-178.5 -67.5q-90 0 -145 53.5t-59 141.5l85 23q0 -59 35 -99.5
t94 -40.5q63 0 116 42.5t63 104.5q4 25 -1.5 46.5t-13.5 34.5t-28.5 28t-32.5 21.5t-40 19.5l-42 20q-36 17 -59 32.5t-44.5 38t-29 53t-1.5 69.5q14 85 84.5 138.5t156.5 53.5q63 0 109.5 -30.5t67.5 -86.5z" />
    <glyph glyph-name="T" unicode="T" horiz-adv-x="470" 
d="M383 676l-107 -676h-84l107 676h-182l12 78h450l-12 -78h-184z" />
    <glyph glyph-name="U" unicode="U" horiz-adv-x="685" 
d="M277 754l-71 -449q-6 -43 -8.5 -61t0 -51.5t15.5 -55.5q18 -33 57.5 -52.5t82.5 -19.5q41 0 84.5 18t74.5 49q21 21 34.5 51.5t18 51.5t10.5 58q1 8 1 12l71 449h84l-74 -472q-12 -72 -31.5 -119t-67.5 -90q-46 -41 -102.5 -63.5t-114.5 -22.5q-54 0 -102.5 20t-80.5 57
q-27 30 -38 66.5t-10 69.5t9 82l74 472h84z" />
    <glyph glyph-name="V" unicode="V" horiz-adv-x="624" 
d="M216 754l124 -575l306 575h91l-432 -799l-180 799h91z" />
    <glyph glyph-name="W" unicode="W" horiz-adv-x="1091" 
d="M223 754l109 -565l340 604l148 -604l287 565h91l-414 -793l-148 607l-340 -607l-164 793h91z" />
    <glyph glyph-name="X" unicode="X" horiz-adv-x="564" 
d="M298 390l-147 364h96l109 -284l199 284h96l-261 -364l161 -390h-96l-124 310l-222 -310h-96z" />
    <glyph glyph-name="Y" unicode="Y" horiz-adv-x="593" 
d="M306 324l-179 430h97l139 -336l245 336h97l-315 -430l-51 -324h-84z" />
    <glyph glyph-name="Z" unicode="Z" horiz-adv-x="586" 
d="M165 78h401l-12 -78h-540l518 676h-359l12 78h499z" />
    <glyph glyph-name="bracketleft" unicode="[" horiz-adv-x="315" 
d="M299 714l-139 -880h108l-12 -74h-190l163 1028h190l-12 -74h-108z" />
    <glyph glyph-name="backslash" unicode="\" horiz-adv-x="570" 
d="M144 795l71 30l337 -825l-70 -30z" />
    <glyph glyph-name="bracketright" unicode="]" horiz-adv-x="315" 
d="M103 -166l139 880h-108l12 74h190l-163 -1028h-190l12 74h108z" />
    <glyph glyph-name="asciicircum" unicode="^" 
d="M117 322l274 432h72l138 -432h-89l-101 328l-207 -328h-87z" />
    <glyph glyph-name="underscore" unicode="_" horiz-adv-x="500" 
d="M488 -75l-8 -50h-500l8 50h500z" />
    <glyph glyph-name="grave" unicode="`" horiz-adv-x="358" 
d="M190 706l90 38l93 -164l-55 -28z" />
    <glyph glyph-name="a" unicode="a" horiz-adv-x="577" 
d="M336 409q-68 0 -118.5 -50t-61.5 -119q-12 -73 21 -126t105 -53q74 0 123.5 51.5t61.5 126.5q11 73 -24 121.5t-107 48.5zM579 470l-74 -470h-80l10 65h-2q-74 -78 -174 -78q-67 0 -113.5 35t-64.5 90.5t-8 121.5q17 104 90 176.5t176 72.5q47 0 85.5 -21t62.5 -59h2
l10 67h80z" />
    <glyph glyph-name="b" unicode="b" horiz-adv-x="577" 
d="M366 409q-68 0 -118.5 -50t-61.5 -119q-12 -73 21 -126t105 -53q74 0 123.5 51.5t61.5 126.5q11 73 -24 121.5t-107 48.5zM72 0l131 825h80l-67 -422h2q34 38 80 59t94 21q101 0 152 -72.5t34 -175.5q-16 -102 -90 -175t-174 -73q-49 0 -88 20t-62 58h-2l-10 -65h-80z
" />
    <glyph glyph-name="c" unicode="c" horiz-adv-x="476" 
d="M494 436l-17 -106h-2q-49 79 -133 79q-72 0 -127 -51t-66.5 -123t25.5 -123t109 -51q91 0 165 81h2l-16 -107q-79 -48 -157 -48q-107 0 -167.5 71t-43.5 177q17 104 101.5 176t189.5 72q79 0 137 -47z" />
    <glyph glyph-name="d" unicode="d" horiz-adv-x="577" 
d="M336 409q-68 0 -118.5 -50t-61.5 -119q-12 -73 21 -126t105 -53q74 0 123.5 51.5t61.5 126.5q11 73 -24 121.5t-107 48.5zM425 0l10 65h-2q-72 -78 -174 -78q-67 0 -113.5 35t-64.5 90.5t-8 121.5q17 104 90 176.5t176 72.5q47 0 86 -21t62 -59h2l67 422h80l-131 -825
h-80z" />
    <glyph glyph-name="e" unicode="e" horiz-adv-x="519" 
d="M520 218h-369q-10 -66 26 -111.5t103 -45.5q89 0 158 97l62 -39q-44 -63 -105.5 -97.5t-132.5 -34.5q-103 0 -155.5 69.5t-36.5 172.5q18 109 90 181.5t179 72.5q54 0 95.5 -21.5t62.5 -58.5t28 -85t-5 -100zM165 286h281q0 52 -33.5 87.5t-85 35.5t-99 -36t-63.5 -87z
" />
    <glyph glyph-name="f" unicode="f" horiz-adv-x="274" 
d="M226 396l-63 -396h-80l63 396h-44l11 74h44l30 187q14 88 40 122q46 59 131 59q25 0 55 -10l-13 -81q-31 11 -52 11q-19 0 -32.5 -6.5t-21.5 -14.5t-14.5 -27.5t-9 -34t-7.5 -46.5l-26 -159h119l-11 -74h-119z" />
    <glyph glyph-name="g" unicode="g" horiz-adv-x="580" 
d="M331 409q-68 0 -118.5 -50t-61.5 -119q-12 -73 21 -126t105 -53q74 0 123.5 51.5t61.5 126.5q11 73 -24 121.5t-107 48.5zM574 470l-70 -447q-8 -49 -13.5 -74.5t-22.5 -62t-44 -65.5q-39 -41 -90 -62t-106 -21q-99 0 -154.5 59t-41.5 157h80q-10 -64 26 -103t101 -39
q45 0 78.5 15.5t53.5 44t32 61.5t18 76l9 56h-2q-34 -37 -81 -57.5t-94 -20.5q-100 0 -150.5 72t-34.5 174q16 103 91 176.5t176 73.5q48 0 86 -21t61 -59h2l10 67h80z" />
    <glyph glyph-name="h" unicode="h" horiz-adv-x="528" 
d="M207 825h80l-65 -410l1 -2q63 70 146 70q46 0 76.5 -16.5t42 -44.5t14 -65t-5.5 -78l-44 -279h-80l42 265q4 27 5.5 44.5t-0.5 38.5t-10.5 33t-26 20t-44.5 8q-32 0 -56.5 -12t-39 -29t-25.5 -44t-16 -48.5t-10 -52.5l-35 -223h-80z" />
    <glyph glyph-name="i" unicode="i" horiz-adv-x="262" 
d="M245 470l-74 -470h-80l74 470h80zM242.5 704q23.5 0 37.5 -17t10 -40q-3 -24 -22.5 -40.5t-43 -16.5t-37.5 16.5t-11 40.5q4 23 23.5 40t43 17z" />
    <glyph glyph-name="j" unicode="j" horiz-adv-x="262" 
d="M245 470l-116 -734h-80l116 734h80zM242.5 704q23.5 0 37.5 -17t10 -40q-3 -24 -22.5 -40.5t-43 -16.5t-37.5 16.5t-11 40.5q4 23 23.5 40t43 17z" />
    <glyph glyph-name="k" unicode="k" horiz-adv-x="470" 
d="M283 825l-84 -529l198 174h107l-232 -200l196 -270h-106l-155 214l-24 -21l-31 -193h-80l131 825h80z" />
    <glyph glyph-name="l" unicode="l" horiz-adv-x="227" 
d="M285 825l-131 -825h-80l131 825h80z" />
    <glyph glyph-name="m" unicode="m" horiz-adv-x="768" 
d="M230 470l-8 -51h2q52 64 124 64q41 0 72.5 -21t44.5 -57q26 38 67.5 58t86.5 20q150 0 118 -197l-45 -286h-80l43 273q3 19 4.5 32t1.5 30.5t-4 29t-11 22.5t-21 16.5t-34 5.5q-27 0 -48 -10t-34 -25.5t-22.5 -38t-14.5 -42t-9 -44.5l-39 -249h-80l42 267q5 27 5.5 47.5
t-3.5 44.5t-20 37t-43 13t-48.5 -11t-35 -26.5t-23.5 -39.5t-15 -44t-9 -45l-38 -243h-80l74 470h80z" />
    <glyph glyph-name="n" unicode="n" horiz-adv-x="528" 
d="M230 470l-9 -57h2q63 70 146 70q46 0 76.5 -16.5t42 -44.5t14 -65t-5.5 -78l-44 -279h-80l42 265q4 27 5.5 44.5t-0.5 38.5t-10.5 33t-26 20t-44.5 8q-32 0 -56.5 -12t-39 -29t-25.5 -44t-16 -48.5t-10 -52.5l-35 -223h-80l74 470h80z" />
    <glyph glyph-name="o" unicode="o" horiz-adv-x="562" 
d="M279 -13q-103 0 -163.5 72t-44.5 175q16 104 99.5 176.5t187 72.5t163.5 -72.5t44 -176.5q-16 -103 -99.5 -175t-186.5 -72zM346 409q-73 0 -128 -50.5t-67 -123.5q-11 -73 28 -123.5t112 -50.5t128 50.5t66 123.5q12 73 -27 123.5t-112 50.5z" />
    <glyph glyph-name="p" unicode="p" horiz-adv-x="577" 
d="M366 409q-68 0 -118.5 -50t-61.5 -119q-12 -73 21 -126t105 -53q74 0 123.5 51.5t61.5 126.5q11 73 -24 121.5t-107 48.5zM226 470l-10 -67h2q73 80 175 80q66 0 112.5 -35.5t64.5 -91.5t8 -122q-16 -104 -89 -175.5t-176 -71.5q-48 0 -87 20.5t-62 58.5h-2l-52 -330h-80
l116 734h80z" />
    <glyph glyph-name="q" unicode="q" horiz-adv-x="577" 
d="M336 409q-68 0 -118.5 -50t-61.5 -119q-12 -73 21 -126t105 -53q74 0 123.5 51.5t61.5 126.5q11 73 -24 121.5t-107 48.5zM579 470l-116 -734h-80l52 330h-2q-34 -38 -79.5 -58.5t-93.5 -20.5q-103 0 -153 71.5t-34 174.5q16 102 90 176t175 74q48 0 87 -20.5t62 -59.5h2
l10 67h80z" />
    <glyph glyph-name="r" unicode="r" horiz-adv-x="335" 
d="M226 470l-8 -51h2q31 33 55 48.5t60 15.5q33 0 68 -22l-50 -73q-1 1 -6 5t-7 5.5t-6.5 4t-7.5 3.5t-7.5 2t-9.5 1q-25 0 -45.5 -13t-32 -30t-21 -44t-13.5 -45t-8 -42l-37 -235h-80l74 470h80z" />
    <glyph glyph-name="s" unicode="s" horiz-adv-x="399" 
d="M396 396l-73 -35q-5 20 -20.5 34t-35.5 14q-22 0 -42.5 -15t-23.5 -37q-2 -9 -0.5 -16.5t7.5 -14.5t11 -12t17 -11t17.5 -9t21.5 -10t22 -9q47 -21 71.5 -51t15.5 -84q-10 -66 -63.5 -109.5t-119.5 -43.5q-59 0 -98 31.5t-49 87.5l76 30q11 -37 29 -56t55 -19q32 0 57 20
t30 52q4 24 -9 42t-35 28t-47.5 22.5t-47 25.5t-33 38.5t-6.5 60.5q10 58 56.5 95.5t105.5 37.5q39 0 70 -24.5t41 -62.5z" />
    <glyph glyph-name="t" unicode="t" horiz-adv-x="240" 
d="M223 396l-63 -396h-80l63 396h-49l11 74h49l27 169h80l-27 -169h84l-11 -74h-84z" />
    <glyph glyph-name="u" unicode="u" horiz-adv-x="512" 
d="M224 470l-41 -262q-4 -27 -5.5 -46t1.5 -39.5t12 -33t27.5 -20.5t47.5 -8q35 0 59 11t37.5 33.5t20 45t12.5 57.5l41 262h80l-42 -271q-34 -212 -220 -212t-152 212l42 271h80z" />
    <glyph glyph-name="v" unicode="v" horiz-adv-x="463" 
d="M166 470l90 -316l190 316h90l-309 -501l-152 501h91z" />
    <glyph glyph-name="w" unicode="w" horiz-adv-x="760" 
d="M168 470l89 -318l202 354l91 -354l190 318h91l-312 -503l-90 350l-200 -350l-152 503h91z" />
    <glyph glyph-name="x" unicode="x" horiz-adv-x="498" 
d="M241 250l-137 220h98l98 -160l148 160h100l-206 -220l155 -250h-97l-119 191l-180 -191h-100z" />
    <glyph glyph-name="y" unicode="y" horiz-adv-x="498" 
d="M221 44l-149 426h93l113 -337l205 337h91l-463 -734h-91z" />
    <glyph glyph-name="z" unicode="z" horiz-adv-x="519" 
d="M184 74h324l-12 -74h-486l402 396h-276l11 74h437z" />
    <glyph glyph-name="braceleft" unicode="{" horiz-adv-x="334" 
d="M89 242l10 64q50 15 69.5 50.5t31.5 109.5l29 187q9 56 45 95.5t62 39.5h73l-12 -74h-40q-24 0 -32.5 -17t-15.5 -59l-30 -189q-6 -41 -21 -75t-33 -54.5t-29.5 -30.5t-20.5 -15q6 -3 12 -10t16 -21.5t15 -34t8.5 -48t-2.5 -62.5l-30 -188q-8 -34 -4.5 -55t28.5 -21h40
l-12 -74h-73q-26 0 -49 39.5t-15 95.5l30 186q7 44 8 76t-12.5 53.5t-45.5 31.5z" />
    <glyph glyph-name="bar" unicode="|" horiz-adv-x="570" 
d="M449 786l-159 -1000h-78l159 1000h78z" />
    <glyph glyph-name="braceright" unicode="}" horiz-adv-x="334" 
d="M331 306l-10 -64q-49 -15 -68.5 -51t-31.5 -110l-30 -186q-8 -56 -44 -95.5t-62 -39.5h-73l12 74h40q24 0 32.5 17t15.5 59l30 188q6 41 21 75.5t32.5 55t29.5 30.5t20 15q-5 3 -11 10t-16 21.5t-15.5 33.5t-9 47.5t3.5 62.5l30 189q8 34 4.5 55t-28.5 21h-40l12 74h73
q26 0 49 -39.5t14 -95.5l-29 -187q-7 -44 -8 -75.5t12.5 -53t44.5 -31.5z" />
    <glyph glyph-name="asciitilde" unicode="~" 
d="M162 172l-64 28q76 147 162 147q40 0 102 -45q7 -6 22 -17.5t24 -18t21 -12.5t21 -6q21 0 44 27.5t43 69.5l63 -28q-32 -66 -74 -106.5t-88 -40.5q-36 0 -95 44q-6 4 -16.5 12t-15.5 11.5t-13.5 9.5t-14 9t-12 6t-12.5 4.5t-12 1.5q-20 0 -42 -26.5t-43 -69.5z" />
    <glyph glyph-name="nbspace" unicode="&#xa0;" horiz-adv-x="308" 
 />
    <glyph glyph-name="exclamdown" unicode="&#xa1;" horiz-adv-x="338" 
d="M245.5 483q23.5 0 37 -16t10.5 -39q-4 -23 -23 -40t-42 -17t-37 17t-10 40q3 23 22 39t42.5 16zM260 317l-95 -601h-82l95 601h82z" />
    <glyph glyph-name="cent" unicode="&#xa2;" 
d="M584 587l-17 -106h-2q-41 66 -106 76l-54 -344q71 10 132 80h2l-17 -107q-71 -43 -129 -47l-18 -112h-66l18 113q-86 10 -136 80.5t-36 159.5q15 94 85.5 166t164.5 83l16 106h66l-16 -104q64 -6 113 -44zM339 214l54 341q-59 -11 -102 -60.5t-53 -108.5
q-10 -62 17.5 -111t83.5 -61z" />
    <glyph glyph-name="sterling" unicode="&#xa3;" 
d="M250 268h-127l11 64h100l-14 37q-2 7 -10 29t-11 30.5t-8 28t-6.5 32t-1.5 30t3 34.5q14 91 89 152.5t167 61.5q97 0 147.5 -64.5t36.5 -161.5l-86 -22q6 32 2.5 62.5t-14.5 54t-35.5 37.5t-60.5 14q-58 0 -105 -39t-56 -97q-5 -35 3.5 -72t27 -81t24.5 -66h142l-11 -64
h-120q3 -26 0 -45q-8 -51 -50 -108l5 -2q2 -1 39 -15t60.5 -21t38.5 -7q30 0 54 20.5t49 54.5l61 -41q-30 -50 -75.5 -83t-96.5 -33q-41 0 -117 29q-4 2 -18 7t-19.5 7t-17 5.5t-18 5t-16 3t-17.5 1.5q-54 0 -99 -61l-58 44q74 96 161 97q39 45 47 93q4 27 0 49z" />
    <glyph glyph-name="currency" unicode="&#xa4;" 
d="M544 333h-342q2 30 5 44l3 18h360l25 54h-372q33 104 99 167q75 73 178 73q65 0 99 -13q30 -12 71 -48l32 75q-65 64 -185 64q-142 0 -245 -94q-91 -85 -133 -224h-53l-24 -54h64l-4 -21q-4 -28 -5 -41h-49l-25 -54h72q2 -131 67 -207q73 -84 212 -84q101 0 182 43l14 90
q-60 -36 -89 -44q-36 -12 -98 -12q-100 0 -151 64q-46 55 -51 150h317z" />
    <glyph glyph-name="yen" unicode="&#xa5;" 
d="M266 0l41 256h-237l10 64h237l-39 100h-182l10 64h145l-113 270h97l140 -334l244 334h97l-197 -270h145l-10 -64h-182l-71 -100h237l-10 -64h-237l-41 -256h-84z" />
    <glyph glyph-name="brokenbar" unicode="&#xa6;" horiz-adv-x="570" 
d="M350 161l-40 -250h-78l40 250h78zM429 661l-40 -250h-78l40 250h78z" />
    <glyph glyph-name="section" unicode="&#xa7;" horiz-adv-x="592" 
d="M360 402q-46 0 -83.5 -32t-44.5 -78t20 -78.5t72.5 -32.5t83.5 32.5t45 78.5t-20 78t-73 32zM106 4h81q-9 -53 11 -84.5t72 -31.5q49 0 80 26t39 74q3 21 -1.5 38.5t-11 28t-24 21t-27.5 15t-34 13.5q-4 2 -25 11t-30 13.5t-23.5 13t-24.5 17.5q-53 48 -40 132
q9 56 43 99t88 64q-81 44 -66 141q12 76 75.5 124t140.5 48q41 0 78 -18t55 -49q26 -48 15 -129h-80q13 119 -81 119q-46 0 -80 -27.5t-42 -73.5q-3 -21 2 -37.5t12.5 -26.5t25.5 -20.5t30.5 -15.5t36.5 -14q13 -5 19 -7q30 -12 50 -23.5t39.5 -31.5t26 -51t0.5 -73
q-17 -106 -131 -160q81 -45 65 -146q-12 -79 -72 -125.5t-141 -46.5q-92 0 -127 50t-24 143z" />
    <glyph glyph-name="dieresis" unicode="&#xa8;" horiz-adv-x="467" 
d="M246.5 705q22.5 0 36 -15.5t10 -38.5t-22 -38.5t-41 -15.5t-35.5 15.5t-9.5 38.5t21.5 38.5t40.5 15.5zM443.5 705q22.5 0 36 -15.5t10 -38.5t-22 -38.5t-41 -15.5t-35.5 15.5t-9.5 38.5t21.5 38.5t40.5 15.5z" />
    <glyph glyph-name="copyright" unicode="&#xa9;" horiz-adv-x="800" 
d="M398 -13q-108 0 -190 52t-119.5 141.5t-20.5 196.5t83 196.5t164.5 141.5t206 52t189.5 -52t120 -141.5t21 -196.5t-83 -196.5t-164.5 -141.5t-206.5 -52zM407.5 47q88.5 0 171.5 43.5t140.5 120t72 166.5t-19 166.5t-103 120t-157.5 43.5t-171.5 -43.5t-141 -120
t-72 -166.5t19 -166.5t103 -120t158 -43.5zM671 457h-61q-2 41 -31 64.5t-79 23.5q-75 0 -123 -49t-58 -114q-12 -71 23 -118.5t108 -47.5q49 0 84 24t53 67h61q-20 -69 -79 -110t-128 -41q-97 0 -147.5 64.5t-35.5 159.5q16 99 84.5 162t168.5 63q70 0 114 -39.5t46 -108.5
z" />
    <glyph glyph-name="ordfeminine" unicode="&#xaa;" horiz-adv-x="346" 
d="M289 723q-45 0 -78 -30.5t-40 -71.5q-7 -44 15.5 -76t68.5 -32q48 0 80 31t39 76q7 44 -16 73.5t-69 29.5zM446 759l-44 -282h-52l6 39h-2q-47 -47 -113 -47q-65 0 -98.5 43.5t-23.5 104.5q10 63 57 106.5t113 43.5q64 0 97 -48h2l6 40h52z" />
    <glyph glyph-name="guillemotleft" unicode="&#xab;" horiz-adv-x="500" 
d="M335 240l109 -166l-60 -41l-135 207l202 213l46 -42zM165 240l109 -166l-60 -41l-135 207l202 213l46 -42z" />
    <glyph glyph-name="logicalnot" unicode="&#xac;" 
d="M488 103l31 192h-406l12 78h484l-43 -270h-78z" />
    <glyph glyph-name="registered" unicode="&#xae;" horiz-adv-x="800" 
d="M398 -13q-108 0 -190 52t-119.5 141.5t-20.5 196.5t83 196.5t164.5 141.5t206 52t189.5 -52t120 -141.5t21 -196.5t-83 -196.5t-164.5 -141.5t-206.5 -52zM407.5 47q88.5 0 171.5 43.5t140.5 120t72 166.5t-19 166.5t-103 120t-157.5 43.5t-171.5 -43.5t-141 -120
t-72 -166.5t19 -166.5t103 -120t158 -43.5zM514 363l98 -197h-72l-97 197h-72l-31 -197h-60l68 427h186q31 0 55.5 -5t45.5 -17t29.5 -35t3.5 -56q-18 -113 -154 -117zM381 423h72q5 0 21 -0.5t24.5 -0.5t23.5 1t24.5 3.5t21.5 6.5t19 10t13 16t8 22q8 52 -96 52h-114z" />
    <glyph glyph-name="macron" unicode="&#xaf;" horiz-adv-x="499" 
d="M187 682h342l-11 -68h-342z" />
    <glyph glyph-name="degree" unicode="&#xb0;" horiz-adv-x="400" 
d="M448 617q-10 -62 -61 -106t-113 -44t-99 44t-27 106q9 61 60 105.5t113 44.5t99 -44t28 -106zM400 617q6 42 -19 72t-68 30q-42 0 -76.5 -30t-40.5 -72q-7 -43 18 -72.5t68 -29.5q42 0 76.5 29.5t41.5 72.5z" />
    <glyph glyph-name="plusminus" unicode="&#xb1;" 
d="M348 498h78l-24 -153h203l-13 -78h-203l-24 -153h-78l24 153h-203l13 78h203zM66 0l12 78h484l-12 -78h-484z" />
    <glyph glyph-name="twosuperior" unicode="&#xb2;" horiz-adv-x="369" 
d="M203 359h197l-8 -52h-317l268 250q33 31 40 76q6 37 -16 59.5t-63 22.5q-43 0 -71.5 -24t-35.5 -64h-60q11 60 60 100t113 40q66 0 104.5 -37.5t28.5 -96.5q-9 -60 -47 -95z" />
    <glyph glyph-name="threesuperior" unicode="&#xb3;" horiz-adv-x="369" 
d="M257 519l8 52q41 0 69 18.5t34 51.5q5 34 -16.5 54t-52.5 20q-32 0 -54.5 -17.5t-30.5 -49.5h-60q15 55 55 87t99 32q61 0 95 -34.5t25 -89.5q-5 -31 -26 -58t-53 -41q33 -14 45.5 -44t7.5 -67q-10 -63 -58 -98.5t-116 -35.5q-60 0 -96.5 35t-28.5 90h60
q-5 -34 16.5 -53.5t59.5 -19.5q39 0 68 24t35 61q6 39 -17 62t-68 21z" />
    <glyph glyph-name="acute" unicode="&#xb4;" horiz-adv-x="358" 
d="M315 744l78 -38l-178 -154l-45 28z" />
    <glyph glyph-name="paragraph" unicode="&#xb6;" horiz-adv-x="592" 
d="M653 754l-10 -65h-58l-133 -842h-65l133 842h-81l-133 -842h-65l69 436q-86 0 -133.5 57t-38.5 157q5 61 40.5 120t93.5 98t121 39h260z" />
    <glyph glyph-name="periodcentered" unicode="&#xb7;" horiz-adv-x="308" 
d="M203 311q23 0 37 -16t11 -39q-4 -23 -23 -40t-42.5 -17t-37 17t-9.5 40q3 23 22 39t42 16z" />
    <glyph glyph-name="cedilla" unicode="&#xb8;" horiz-adv-x="325" 
d="M240 -53l-138 -146l-51 28l119 148z" />
    <glyph glyph-name="onesuperior" unicode="&#xb9;" horiz-adv-x="369" 
d="M307 707h-81l37 52h112l-71 -452h-60z" />
    <glyph glyph-name="ordmasculine" unicode="&#xba;" horiz-adv-x="337" 
d="M243 469q-67 0 -107 43t-30 105t63.5 106t121 44t107.5 -44t30 -106t-64 -105t-121 -43zM283.5 723q-47.5 0 -83 -30.5t-42.5 -74.5t19 -74.5t73.5 -30.5t83 30.5t42.5 74.5t-19 74.5t-73.5 30.5z" />
    <glyph glyph-name="guillemotright" unicode="&#xbb;" horiz-adv-x="500" 
d="M80 74l161 166l-108 171l60 42l134 -213l-201 -207zM250 74l161 166l-108 171l60 42l134 -213l-201 -207z" />
    <glyph glyph-name="onequarter" unicode="&#xbc;" horiz-adv-x="924" 
d="M293 707h-81l37 52h112l-71 -452h-60zM784 125h60l-8 -52h-60l-12 -73h-60l12 73h-245l368 405h-1h2zM724 125l30 190h-2l-172 -190h144zM769 767l41 -24l-559 -756l-40 24z" />
    <glyph glyph-name="onehalf" unicode="&#xbd;" horiz-adv-x="924" 
d="M293 707h-81l37 52h112l-71 -452h-60zM635 52h197l-8 -52h-317l269 250q32 31 40 76q6 37 -16.5 59.5t-62.5 22.5q-44 0 -72.5 -24t-34.5 -64h-60q11 60 60 100t113 40q66 0 104 -37.5t29 -96.5q-10 -60 -47 -95zM724 767l41 -24l-559 -756l-40 24z" />
    <glyph glyph-name="threequarters" unicode="&#xbe;" horiz-adv-x="924" 
d="M804 125h60l-8 -52h-60l-12 -73h-60l12 73h-245l368 405h-1h2zM744 125l30 190h-2l-172 -190h144zM827 767l41 -24l-559 -756l-40 24zM301 519l8 52q41 0 69 18.5t34 51.5q5 34 -16.5 54t-52.5 20q-32 0 -54.5 -17.5t-30.5 -49.5h-60q15 55 55 87t99 32q61 0 95 -34.5
t25 -89.5q-5 -31 -26 -58t-53 -41q33 -14 45.5 -44t7.5 -67q-10 -63 -58 -98.5t-116 -35.5q-60 0 -96.5 35t-28.5 90h60q-5 -34 16.5 -53.5t59.5 -19.5q39 0 68 24t35 61q6 39 -17 62t-68 21z" />
    <glyph glyph-name="questiondown" unicode="&#xbf;" horiz-adv-x="488" 
d="M186 146h-81q9 73 63.5 123t127.5 50q69 0 108.5 -47t28.5 -116q-10 -62 -51.5 -97t-110.5 -56q-4 -1 -14 -4q-24 -7 -36.5 -11.5t-32 -13.5t-29.5 -19.5t-19.5 -27.5t-13.5 -39q-7 -46 17.5 -75t69.5 -29q42 0 74.5 28.5t38.5 70.5q4 24 2 48h83l-4 -53
q-12 -76 -73.5 -123.5t-138 -47.5t-120 51.5t-31.5 128.5q6 38 25.5 74t49.5 60q7 5 14 9.5t15.5 9t14.5 7.5t17 7t16 5.5t17.5 5.5t15.5 5t17 5t16 4q37 10 60.5 29t29.5 54q5 34 -15.5 57t-54.5 23q-39 0 -64 -27.5t-32 -68.5zM322.5 483q23.5 0 37 -16.5t10 -39.5
t-22.5 -39.5t-42 -16.5t-37 16.5t-10.5 39.5t22.5 39.5t42.5 16.5z" />
    <glyph glyph-name="Agrave" unicode="&#xc0;" horiz-adv-x="699" 
d="M545 214h-322l-125 -214h-92l473 790l214 -790h-93zM524 292l-78 302l-177 -302h255zM362 965l90 38l93 -164l-55 -28z" />
    <glyph glyph-name="Aacute" unicode="&#xc1;" horiz-adv-x="699" 
d="M545 214h-322l-125 -214h-92l473 790l214 -790h-93zM524 292l-78 302l-177 -302h255zM567 1003l78 -38l-178 -154l-45 28z" />
    <glyph glyph-name="Acircumflex" unicode="&#xc2;" horiz-adv-x="699" 
d="M545 214h-322l-125 -214h-92l473 790l214 -790h-93zM524 292l-78 302l-177 -302h255zM330 863l177 133l137 -133l-65 -45l-87 85l-112 -85z" />
    <glyph glyph-name="Atilde" unicode="&#xc3;" horiz-adv-x="699" 
d="M545 214h-322l-125 -214h-92l473 790l214 -790h-93zM524 292l-78 302l-177 -302h255zM358 847l-43 39q27 37 54 58t61 21q35 0 77 -23q5 -2 16.5 -8t16.5 -8t13 -4.5t15 -2.5q29 0 63 48l41 -38q-20 -35 -52 -58t-67 -23q-27 0 -71 23q-47 22 -67 22q-13 0 -24.5 -7.5
t-17.5 -16t-15 -22.5z" />
    <glyph glyph-name="Adieresis" unicode="&#xc4;" horiz-adv-x="699" 
d="M545 214h-322l-125 -214h-92l473 790l214 -790h-93zM524 292l-78 302l-177 -302h255zM403.5 964q22.5 0 36 -16t10 -38.5t-22 -38t-41 -15.5t-35.5 16t-9.5 38.5t21.5 38t40.5 15.5zM600.5 964q22.5 0 36 -16t10 -38.5t-22 -38t-41 -15.5t-35.5 16t-9.5 38.5t21.5 38
t40.5 15.5z" />
    <glyph glyph-name="Aring" unicode="&#xc5;" horiz-adv-x="699" 
d="M545 214h-322l-125 -214h-92l473 790l214 -790h-93zM524 292l-78 302l-177 -302h255zM510 1006q40 0 64 -28.5t18 -68.5q-6 -41 -39 -69.5t-73.5 -28.5t-64.5 29t-18 69t39.5 68.5t73.5 28.5zM502.5 956q-19.5 0 -36 -14t-19.5 -33t9 -33.5t31.5 -14.5t35.5 14t19 34
t-8.5 33.5t-31 13.5z" />
    <glyph glyph-name="AE" unicode="&#xc6;" horiz-adv-x="1000" 
d="M544 212h-322l-123 -212h-93l455 754h331l22 -78h-305l58 -225h297l23 -78h-298l76 -295h306l21 -78h-393zM522 290l-77 297l-175 -297h252z" />
    <glyph glyph-name="Ccedilla" unicode="&#xc7;" horiz-adv-x="717" 
d="M761 693l-17 -104q-38 47 -93.5 73.5t-120.5 26.5q-82 0 -159 -43t-129 -115t-65 -154t16.5 -154t93.5 -115t146 -43q63 0 127 27t117 73l-16 -104q-114 -74 -237 -74q-105 0 -187.5 51.5t-121.5 141t-23 194.5q17 106 84 196.5t166 143.5t205 53q126 0 214 -74zM436 -53
l-138 -146l-51 28l119 148z" />
    <glyph glyph-name="Egrave" unicode="&#xc8;" horiz-adv-x="534" 
d="M76 0l119 754h391l-12 -78h-307l-35 -224h298l-13 -78h-298l-47 -296h307l-12 -78h-391zM294 965l90 38l93 -164l-55 -28z" />
    <glyph glyph-name="Eacute" unicode="&#xc9;" horiz-adv-x="534" 
d="M76 0l119 754h391l-12 -78h-307l-35 -224h298l-13 -78h-298l-47 -296h307l-12 -78h-391zM484 1003l78 -38l-178 -154l-45 28z" />
    <glyph glyph-name="Ecircumflex" unicode="&#xca;" horiz-adv-x="534" 
d="M76 0l119 754h391l-12 -78h-307l-35 -224h298l-13 -78h-298l-47 -296h307l-12 -78h-391zM247 863l177 133l137 -133l-65 -45l-87 85l-112 -85z" />
    <glyph glyph-name="Edieresis" unicode="&#xcb;" horiz-adv-x="534" 
d="M76 0l119 754h391l-12 -78h-307l-35 -224h298l-13 -78h-298l-47 -296h307l-12 -78h-391zM321.5 964q22.5 0 36 -16t10 -38.5t-22 -38t-41 -15.5t-35.5 16t-9.5 38.5t21.5 38t40.5 15.5zM518.5 964q22.5 0 36 -16t10 -38.5t-22 -38t-41 -15.5t-35.5 16t-9.5 38.5t21.5 38
t40.5 15.5z" />
    <glyph glyph-name="Igrave" unicode="&#xcc;" horiz-adv-x="239" 
d="M281 754l-119 -754h-84l119 754h84zM147 965l90 38l93 -164l-55 -28z" />
    <glyph glyph-name="Iacute" unicode="&#xcd;" horiz-adv-x="239" 
d="M281 754l-119 -754h-84l119 754h84zM322 1003l78 -38l-178 -154l-45 28z" />
    <glyph glyph-name="Icircumflex" unicode="&#xce;" horiz-adv-x="239" 
d="M281 754l-119 -754h-84l119 754h84zM100 863l177 133l137 -133l-65 -45l-87 85l-112 -85z" />
    <glyph glyph-name="Idieresis" unicode="&#xcf;" horiz-adv-x="239" 
d="M281 754l-119 -754h-84l119 754h84zM173.5 964q22.5 0 36 -16t10 -38.5t-22 -38t-41 -15.5t-35.5 16t-9.5 38.5t21.5 38t40.5 15.5zM370.5 964q22.5 0 36 -16t10 -38.5t-22 -38t-41 -15.5t-35.5 16t-9.5 38.5t21.5 38t40.5 15.5z" />
    <glyph glyph-name="Eth" unicode="&#xd0;" horiz-adv-x="678" 
d="M76 0l59 370h-76l11 72h76l49 312h142q95 0 160.5 -19t119.5 -72q108 -108 80 -287q-28 -171 -168 -281q-72 -56 -143.5 -75.5t-169.5 -19.5h-140zM172 78h61q77 0 136 16.5t115 61.5q108 88 129 221q10 66 -5.5 125t-56.5 101q-42 43 -95 58t-128 15h-61l-37 -234h134
l-11 -72h-134z" />
    <glyph glyph-name="Ntilde" unicode="&#xd1;" horiz-adv-x="834" 
d="M81 0l125 786l490 -616l92 584h84l-124 -788l-491 615l-92 -581h-84zM425 847l-43 39q27 37 54 58t61 21q35 0 77 -23q5 -2 16.5 -8t16.5 -8t13 -4.5t15 -2.5q29 0 63 48l41 -38q-20 -35 -52 -58t-67 -23q-27 0 -71 23q-47 22 -67 22q-13 0 -24.5 -7.5t-17.5 -16
t-15 -22.5z" />
    <glyph glyph-name="Ograve" unicode="&#xd2;" horiz-adv-x="862" 
d="M552.5 767q105.5 0 188 -52.5t121 -142.5t22.5 -196q-17 -106 -84.5 -196t-166 -141.5t-204.5 -51.5t-188.5 51.5t-121 141.5t-21.5 196q16 106 83.5 196t166.5 142.5t204.5 52.5zM540 689q-129 0 -233.5 -91.5t-124.5 -220.5q-14 -84 16 -155.5t94.5 -114t148.5 -42.5
q128 0 233 92t126 220q13 84 -16.5 156t-94 114t-149.5 42zM443 965l90 38l93 -164l-55 -28z" />
    <glyph glyph-name="Oacute" unicode="&#xd3;" horiz-adv-x="862" 
d="M552.5 767q105.5 0 188 -52.5t121 -142.5t22.5 -196q-17 -106 -84.5 -196t-166 -141.5t-204.5 -51.5t-188.5 51.5t-121 141.5t-21.5 196q16 106 83.5 196t166.5 142.5t204.5 52.5zM540 689q-129 0 -233.5 -91.5t-124.5 -220.5q-14 -84 16 -155.5t94.5 -114t148.5 -42.5
q128 0 233 92t126 220q13 84 -16.5 156t-94 114t-149.5 42zM648 1003l78 -38l-178 -154l-45 28z" />
    <glyph glyph-name="Ocircumflex" unicode="&#xd4;" horiz-adv-x="862" 
d="M552.5 767q105.5 0 188 -52.5t121 -142.5t22.5 -196q-17 -106 -84.5 -196t-166 -141.5t-204.5 -51.5t-188.5 51.5t-121 141.5t-21.5 196q16 106 83.5 196t166.5 142.5t204.5 52.5zM540 689q-129 0 -233.5 -91.5t-124.5 -220.5q-14 -84 16 -155.5t94.5 -114t148.5 -42.5
q128 0 233 92t126 220q13 84 -16.5 156t-94 114t-149.5 42zM411 863l177 133l137 -133l-65 -45l-87 85l-112 -85z" />
    <glyph glyph-name="Otilde" unicode="&#xd5;" horiz-adv-x="862" 
d="M552.5 767q105.5 0 188 -52.5t121 -142.5t22.5 -196q-17 -106 -84.5 -196t-166 -141.5t-204.5 -51.5t-188.5 51.5t-121 141.5t-21.5 196q16 106 83.5 196t166.5 142.5t204.5 52.5zM540 689q-129 0 -233.5 -91.5t-124.5 -220.5q-14 -84 16 -155.5t94.5 -114t148.5 -42.5
q128 0 233 92t126 220q13 84 -16.5 156t-94 114t-149.5 42zM439 847l-43 39q27 37 54 58t61 21q35 0 77 -23q5 -2 16.5 -8t16.5 -8t13 -4.5t15 -2.5q29 0 63 48l41 -38q-20 -35 -52 -58t-67 -23q-27 0 -71 23q-47 22 -67 22q-13 0 -24.5 -7.5t-17.5 -16t-15 -22.5z" />
    <glyph glyph-name="Odieresis" unicode="&#xd6;" horiz-adv-x="862" 
d="M552.5 767q105.5 0 188 -52.5t121 -142.5t22.5 -196q-17 -106 -84.5 -196t-166 -141.5t-204.5 -51.5t-188.5 51.5t-121 141.5t-21.5 196q16 106 83.5 196t166.5 142.5t204.5 52.5zM540 689q-129 0 -233.5 -91.5t-124.5 -220.5q-14 -84 16 -155.5t94.5 -114t148.5 -42.5
q128 0 233 92t126 220q13 84 -16.5 156t-94 114t-149.5 42zM485.5 964q22.5 0 36 -16t10 -38.5t-22 -38t-41 -15.5t-35.5 16t-9.5 38.5t21.5 38t40.5 15.5zM682.5 964q22.5 0 36 -16t10 -38.5t-22 -38t-41 -15.5t-35.5 16t-9.5 38.5t21.5 38t40.5 15.5z" />
    <glyph glyph-name="multiply" unicode="&#xd7;" 
d="M136 443l64 55l157 -187l216 187l47 -55l-216 -187l157 -187l-65 -55l-156 187l-217 -187l-46 55l217 187z" />
    <glyph glyph-name="Oslash" unicode="&#xd8;" horiz-adv-x="862" 
d="M218 184l506 436q-72 69 -184 69q-129 0 -233.5 -91.5t-124.5 -220.5q-17 -108 36 -193zM762 574l-506 -436q74 -73 185 -73q128 0 233 92t126 220q17 111 -38 197zM48 37l103 89q-76 107 -53 250q16 106 83.5 196t166.5 142.5t204 52.5q143 0 237 -91l106 91l39 -45
l-106 -91q79 -109 56 -255q-17 -106 -84.5 -196t-166 -141.5t-204.5 -51.5q-144 0 -240 93l-105 -90z" />
    <glyph glyph-name="Ugrave" unicode="&#xd9;" horiz-adv-x="685" 
d="M277 754l-71 -449q-6 -43 -8.5 -61t0 -51.5t15.5 -55.5q18 -33 57.5 -52.5t82.5 -19.5q41 0 84.5 18t74.5 49q21 21 34.5 51.5t18 51.5t10.5 58q1 8 1 12l71 449h84l-74 -472q-12 -72 -31.5 -119t-67.5 -90q-46 -41 -102.5 -63.5t-114.5 -22.5q-54 0 -102.5 20t-80.5 57
q-27 30 -38 66.5t-10 69.5t9 82l74 472h84zM355 965l90 38l93 -164l-55 -28z" />
    <glyph glyph-name="Uacute" unicode="&#xda;" horiz-adv-x="685" 
d="M277 754l-71 -449q-6 -43 -8.5 -61t0 -51.5t15.5 -55.5q18 -33 57.5 -52.5t82.5 -19.5q41 0 84.5 18t74.5 49q21 21 34.5 51.5t18 51.5t10.5 58q1 8 1 12l71 449h84l-74 -472q-12 -72 -31.5 -119t-67.5 -90q-46 -41 -102.5 -63.5t-114.5 -22.5q-54 0 -102.5 20t-80.5 57
q-27 30 -38 66.5t-10 69.5t9 82l74 472h84zM560 1003l78 -38l-178 -154l-45 28z" />
    <glyph glyph-name="Ucircumflex" unicode="&#xdb;" horiz-adv-x="685" 
d="M277 754l-71 -449q-6 -43 -8.5 -61t0 -51.5t15.5 -55.5q18 -33 57.5 -52.5t82.5 -19.5q41 0 84.5 18t74.5 49q21 21 34.5 51.5t18 51.5t10.5 58q1 8 1 12l71 449h84l-74 -472q-12 -72 -31.5 -119t-67.5 -90q-46 -41 -102.5 -63.5t-114.5 -22.5q-54 0 -102.5 20t-80.5 57
q-27 30 -38 66.5t-10 69.5t9 82l74 472h84zM323 863l177 133l137 -133l-65 -45l-87 85l-112 -85z" />
    <glyph glyph-name="Udieresis" unicode="&#xdc;" horiz-adv-x="685" 
d="M277 754l-71 -449q-6 -43 -8.5 -61t0 -51.5t15.5 -55.5q18 -33 57.5 -52.5t82.5 -19.5q41 0 84.5 18t74.5 49q21 21 34.5 51.5t18 51.5t10.5 58q1 8 1 12l71 449h84l-74 -472q-12 -72 -31.5 -119t-67.5 -90q-46 -41 -102.5 -63.5t-114.5 -22.5q-54 0 -102.5 20t-80.5 57
q-27 30 -38 66.5t-10 69.5t9 82l74 472h84zM396.5 964q22.5 0 36 -16t10 -38.5t-22 -38t-41 -15.5t-35.5 16t-9.5 38.5t21.5 38t40.5 15.5zM593.5 964q22.5 0 36 -16t10 -38.5t-22 -38t-41 -15.5t-35.5 16t-9.5 38.5t21.5 38t40.5 15.5z" />
    <glyph glyph-name="Yacute" unicode="&#xdd;" horiz-adv-x="593" 
d="M306 324l-179 430h97l139 -336l245 336h97l-315 -430l-51 -324h-84zM534 1003l78 -38l-178 -154l-45 28z" />
    <glyph glyph-name="Thorn" unicode="&#xde;" horiz-adv-x="503" 
d="M190 190l-30 -190h-84l119 754h84l-22 -140h40q41 0 66.5 -2t58.5 -11t56 -27q36 -29 51 -74.5t7 -97.5q-8 -47 -33.5 -90t-64.5 -72q-69 -50 -187 -50h-61zM245 536l-43 -268h56q172 0 194 136q6 36 -2 61t-23 38.5t-42 21t-50.5 9.5t-58.5 2h-31z" />
    <glyph glyph-name="germandbls" unicode="&#xdf;" horiz-adv-x="577" 
d="M72 0l63 396h-44l11 74h44l23 144q17 105 64 154q32 34 78 52t92 18q82 0 129.5 -53t34.5 -135q-7 -46 -36 -86t-71 -60q68 -25 101.5 -93.5t21.5 -147.5q-12 -76 -62 -139.5t-121.5 -99.5t-147.5 -37l12 74q86 5 155 62.5t82 142.5q7 43 -5.5 82.5t-41.5 65.5
q-43 37 -127 44l11 74q57 -1 99 32.5t51 89.5q7 49 -21 79.5t-77 30.5q-35 0 -66 -15t-47 -45q-18 -32 -34 -127l-91 -577h-80z" />
    <glyph glyph-name="agrave" unicode="&#xe0;" horiz-adv-x="577" 
d="M336 409q-68 0 -118.5 -50t-61.5 -119q-12 -73 21 -126t105 -53q74 0 123.5 51.5t61.5 126.5q11 73 -24 121.5t-107 48.5zM579 470l-74 -470h-80l10 65h-2q-74 -78 -174 -78q-67 0 -113.5 35t-64.5 90.5t-8 121.5q17 104 90 176.5t176 72.5q47 0 85.5 -21t62.5 -59h2
l10 67h80zM260 706l90 38l93 -164l-55 -28z" />
    <glyph glyph-name="aacute" unicode="&#xe1;" horiz-adv-x="577" 
d="M336 409q-68 0 -118.5 -50t-61.5 -119q-12 -73 21 -126t105 -53q74 0 123.5 51.5t61.5 126.5q11 73 -24 121.5t-107 48.5zM579 470l-74 -470h-80l10 65h-2q-74 -78 -174 -78q-67 0 -113.5 35t-64.5 90.5t-8 121.5q17 104 90 176.5t176 72.5q47 0 85.5 -21t62.5 -59h2
l10 67h80zM465 744l78 -38l-178 -154l-45 28z" />
    <glyph glyph-name="acircumflex" unicode="&#xe2;" horiz-adv-x="577" 
d="M336 409q-68 0 -118.5 -50t-61.5 -119q-12 -73 21 -126t105 -53q74 0 123.5 51.5t61.5 126.5q11 73 -24 121.5t-107 48.5zM579 470l-74 -470h-80l10 65h-2q-74 -78 -174 -78q-67 0 -113.5 35t-64.5 90.5t-8 121.5q17 104 90 176.5t176 72.5q47 0 85.5 -21t62.5 -59h2
l10 67h80zM228 604l177 133l137 -133l-65 -45l-87 85l-112 -85z" />
    <glyph glyph-name="atilde" unicode="&#xe3;" horiz-adv-x="577" 
d="M336 409q-68 0 -118.5 -50t-61.5 -119q-12 -73 21 -126t105 -53q74 0 123.5 51.5t61.5 126.5q11 73 -24 121.5t-107 48.5zM579 470l-74 -470h-80l10 65h-2q-74 -78 -174 -78q-67 0 -113.5 35t-64.5 90.5t-8 121.5q17 104 90 176.5t176 72.5q47 0 85.5 -21t62.5 -59h2
l10 67h80zM256 588l-43 39q27 37 54 58t61 21q35 0 77 -23q5 -2 16.5 -8t16.5 -8t13 -4.5t15 -2.5q29 0 63 48l41 -38q-20 -35 -52 -58t-67 -23q-27 0 -71 23q-47 22 -67 22q-13 0 -24.5 -7.5t-17.5 -16t-15 -22.5z" />
    <glyph glyph-name="adieresis" unicode="&#xe4;" horiz-adv-x="577" 
d="M336 409q-68 0 -118.5 -50t-61.5 -119q-12 -73 21 -126t105 -53q74 0 123.5 51.5t61.5 126.5q11 73 -24 121.5t-107 48.5zM579 470l-74 -470h-80l10 65h-2q-74 -78 -174 -78q-67 0 -113.5 35t-64.5 90.5t-8 121.5q17 104 90 176.5t176 72.5q47 0 85.5 -21t62.5 -59h2
l10 67h80zM301.5 705q22.5 0 36 -15.5t10 -38.5t-22 -38.5t-41 -15.5t-35.5 15.5t-9.5 38.5t21.5 38.5t40.5 15.5zM498.5 705q22.5 0 36 -15.5t10 -38.5t-22 -38.5t-41 -15.5t-35.5 15.5t-9.5 38.5t21.5 38.5t40.5 15.5z" />
    <glyph glyph-name="aring" unicode="&#xe5;" horiz-adv-x="577" 
d="M336 409q-68 0 -118.5 -50t-61.5 -119q-12 -73 21 -126t105 -53q74 0 123.5 51.5t61.5 126.5q11 73 -24 121.5t-107 48.5zM579 470l-74 -470h-80l10 65h-2q-74 -78 -174 -78q-67 0 -113.5 35t-64.5 90.5t-8 121.5q17 104 90 176.5t176 72.5q47 0 85.5 -21t62.5 -59h2
l10 67h80zM408 747q40 0 64 -28.5t18 -68.5q-6 -41 -39 -69.5t-73.5 -28.5t-64.5 29t-18 69t39.5 68.5t73.5 28.5zM400.5 697q-19.5 0 -36 -14t-19.5 -33.5t9 -33.5t31.5 -14t35.5 14t19 34t-8.5 33.5t-31 13.5z" />
    <glyph glyph-name="ae" unicode="&#xe6;" horiz-adv-x="843" 
d="M492 286h281q0 52 -33.5 87.5t-85 35.5t-99 -36t-63.5 -87zM263 223q-44 0 -84.5 -21t-47.5 -62q-4 -29 12.5 -47.5t40.5 -25t53 -6.5q30 0 57.5 6.5t52.5 26.5t30 50q4 28 -15.5 47t-45 25.5t-53.5 6.5zM844 218h-370q-10 -66 26 -111.5t103 -45.5q89 0 158 97l62 -39
q-44 -63 -105.5 -97.5t-132.5 -34.5q-54 0 -98 24t-67 69q-68 -93 -191 -93q-37 0 -70 8.5t-60.5 26t-40.5 47.5t-7 69q8 52 44 88.5t81.5 52t95.5 15.5q74 0 127 -40q11 75 -13.5 115t-96.5 40q-56 0 -149 -30l12 76q98 28 154 28t100 -24.5t58 -72.5q34 45 88.5 71
t109.5 26q72 0 119 -37.5t62 -97t1 -130.5z" />
    <glyph glyph-name="ccedilla" unicode="&#xe7;" horiz-adv-x="476" 
d="M494 436l-17 -106h-2q-49 79 -133 79q-72 0 -127 -51t-66.5 -123t25.5 -123t109 -51q91 0 165 81h2l-16 -107q-79 -48 -157 -48q-107 0 -167.5 71t-43.5 177q17 104 101.5 176t189.5 72q79 0 137 -47zM316 -53l-138 -146l-51 28l119 148z" />
    <glyph glyph-name="egrave" unicode="&#xe8;" horiz-adv-x="519" 
d="M520 218h-369q-10 -66 26 -111.5t103 -45.5q89 0 158 97l62 -39q-44 -63 -105.5 -97.5t-132.5 -34.5q-103 0 -155.5 69.5t-36.5 172.5q18 109 90 181.5t179 72.5q54 0 95.5 -21.5t62.5 -58.5t28 -85t-5 -100zM165 286h281q0 52 -33.5 87.5t-85 35.5t-99 -36t-63.5 -87z
M231 706l90 38l93 -164l-55 -28z" />
    <glyph glyph-name="eacute" unicode="&#xe9;" horiz-adv-x="519" 
d="M520 218h-369q-10 -66 26 -111.5t103 -45.5q89 0 158 97l62 -39q-44 -63 -105.5 -97.5t-132.5 -34.5q-103 0 -155.5 69.5t-36.5 172.5q18 109 90 181.5t179 72.5q54 0 95.5 -21.5t62.5 -58.5t28 -85t-5 -100zM165 286h281q0 52 -33.5 87.5t-85 35.5t-99 -36t-63.5 -87z
M436 744l78 -38l-178 -154l-45 28z" />
    <glyph glyph-name="ecircumflex" unicode="&#xea;" horiz-adv-x="519" 
d="M520 218h-369q-10 -66 26 -111.5t103 -45.5q89 0 158 97l62 -39q-44 -63 -105.5 -97.5t-132.5 -34.5q-103 0 -155.5 69.5t-36.5 172.5q18 109 90 181.5t179 72.5q54 0 95.5 -21.5t62.5 -58.5t28 -85t-5 -100zM165 286h281q0 52 -33.5 87.5t-85 35.5t-99 -36t-63.5 -87z
M199 604l177 133l137 -133l-65 -45l-87 85l-112 -85z" />
    <glyph glyph-name="edieresis" unicode="&#xeb;" horiz-adv-x="519" 
d="M520 218h-369q-10 -66 26 -111.5t103 -45.5q89 0 158 97l62 -39q-44 -63 -105.5 -97.5t-132.5 -34.5q-103 0 -155.5 69.5t-36.5 172.5q18 109 90 181.5t179 72.5q54 0 95.5 -21.5t62.5 -58.5t28 -85t-5 -100zM165 286h281q0 52 -33.5 87.5t-85 35.5t-99 -36t-63.5 -87z
M272.5 705q22.5 0 36 -15.5t10 -38.5t-22 -38.5t-41 -15.5t-35.5 15.5t-9.5 38.5t21.5 38.5t40.5 15.5zM469.5 705q22.5 0 36 -15.5t10 -38.5t-22 -38.5t-41 -15.5t-35.5 15.5t-9.5 38.5t21.5 38.5t40.5 15.5z" />
    <glyph glyph-name="igrave" unicode="&#xec;" horiz-adv-x="262" 
d="M245 470l-74 -470h-80l74 470h80zM117 706l90 38l93 -164l-55 -28z" />
    <glyph glyph-name="iacute" unicode="&#xed;" horiz-adv-x="262" 
d="M245 470l-74 -470h-80l74 470h80zM292 744l78 -38l-178 -154l-45 28z" />
    <glyph glyph-name="icircumflex" unicode="&#xee;" horiz-adv-x="262" 
d="M245 470l-74 -470h-80l74 470h80zM70 604l177 133l137 -133l-65 -45l-87 85l-112 -85z" />
    <glyph glyph-name="idieresis" unicode="&#xef;" horiz-adv-x="262" 
d="M245 470l-74 -470h-80l74 470h80zM144.5 705q22.5 0 36 -15.5t10 -38.5t-22 -38.5t-41 -15.5t-35.5 15.5t-9.5 38.5t21.5 38.5t40.5 15.5zM341.5 705q22.5 0 36 -15.5t10 -38.5t-22 -38.5t-41 -15.5t-35.5 15.5t-9.5 38.5t21.5 38.5t40.5 15.5z" />
    <glyph glyph-name="eth" unicode="&#xf0;" horiz-adv-x="561" 
d="M217 785l52 46q48 -35 70.5 -52.5t50.5 -45.5l153 92l33 -41l-148 -90q12 -13 17.5 -20t21 -27t25 -35.5t24 -42t23 -49.5t18 -55.5t13.5 -63.5t4 -69t-6 -76q-11 -67 -42 -120.5t-73 -84.5t-86.5 -47t-87.5 -16q-103 0 -163.5 72.5t-44.5 174.5q16 98 95 172t183 74
q89 0 146 -64q-24 122 -131 239l-147 -89l-33 41l144 87q-42 43 -111 90zM152 236q-12 -76 29 -125t111 -49q72 0 127 51t66 123q12 71 -26.5 122.5t-110.5 51.5q-73 0 -128.5 -50t-67.5 -124z" />
    <glyph glyph-name="ntilde" unicode="&#xf1;" horiz-adv-x="528" 
d="M230 470l-9 -57h2q63 70 146 70q46 0 76.5 -16.5t42 -44.5t14 -65t-5.5 -78l-44 -279h-80l42 265q4 27 5.5 44.5t-0.5 38.5t-10.5 33t-26 20t-44.5 8q-32 0 -56.5 -12t-39 -29t-25.5 -44t-16 -48.5t-10 -52.5l-35 -223h-80l74 470h80zM231 588l-43 39q27 37 54 58t61 21
q35 0 77 -23q5 -2 16.5 -8t16.5 -8t13 -4.5t15 -2.5q29 0 63 48l41 -38q-20 -35 -52 -58t-67 -23q-27 0 -71 23q-47 22 -67 22q-13 0 -24.5 -7.5t-17.5 -16t-15 -22.5z" />
    <glyph glyph-name="ograve" unicode="&#xf2;" horiz-adv-x="562" 
d="M279 -13q-103 0 -163.5 72t-44.5 175q16 104 99.5 176.5t187 72.5t163.5 -72.5t44 -176.5q-16 -103 -99.5 -175t-186.5 -72zM346 409q-73 0 -128 -50.5t-67 -123.5q-11 -73 28 -123.5t112 -50.5t128 50.5t66 123.5q12 73 -27 123.5t-112 50.5zM252 706l90 38l93 -164
l-55 -28z" />
    <glyph glyph-name="oacute" unicode="&#xf3;" horiz-adv-x="562" 
d="M279 -13q-103 0 -163.5 72t-44.5 175q16 104 99.5 176.5t187 72.5t163.5 -72.5t44 -176.5q-16 -103 -99.5 -175t-186.5 -72zM346 409q-73 0 -128 -50.5t-67 -123.5q-11 -73 28 -123.5t112 -50.5t128 50.5t66 123.5q12 73 -27 123.5t-112 50.5zM457 744l78 -38l-178 -154
l-45 28z" />
    <glyph glyph-name="ocircumflex" unicode="&#xf4;" horiz-adv-x="562" 
d="M279 -13q-103 0 -163.5 72t-44.5 175q16 104 99.5 176.5t187 72.5t163.5 -72.5t44 -176.5q-16 -103 -99.5 -175t-186.5 -72zM346 409q-73 0 -128 -50.5t-67 -123.5q-11 -73 28 -123.5t112 -50.5t128 50.5t66 123.5q12 73 -27 123.5t-112 50.5zM220 604l177 133l137 -133
l-65 -45l-87 85l-112 -85z" />
    <glyph glyph-name="otilde" unicode="&#xf5;" horiz-adv-x="562" 
d="M279 -13q-103 0 -163.5 72t-44.5 175q16 104 99.5 176.5t187 72.5t163.5 -72.5t44 -176.5q-16 -103 -99.5 -175t-186.5 -72zM346 409q-73 0 -128 -50.5t-67 -123.5q-11 -73 28 -123.5t112 -50.5t128 50.5t66 123.5q12 73 -27 123.5t-112 50.5zM248 588l-43 39
q27 37 54 58t61 21q35 0 77 -23q5 -2 16.5 -8t16.5 -8t13 -4.5t15 -2.5q29 0 63 48l41 -38q-20 -35 -52 -58t-67 -23q-27 0 -71 23q-47 22 -67 22q-13 0 -24.5 -7.5t-17.5 -16t-15 -22.5z" />
    <glyph glyph-name="odieresis" unicode="&#xf6;" horiz-adv-x="562" 
d="M279 -13q-103 0 -163.5 72t-44.5 175q16 104 99.5 176.5t187 72.5t163.5 -72.5t44 -176.5q-16 -103 -99.5 -175t-186.5 -72zM346 409q-73 0 -128 -50.5t-67 -123.5q-11 -73 28 -123.5t112 -50.5t128 50.5t66 123.5q12 73 -27 123.5t-112 50.5zM294.5 705q22.5 0 36 -15.5
t10 -38.5t-22 -38.5t-41 -15.5t-35.5 15.5t-9.5 38.5t21.5 38.5t40.5 15.5zM491.5 705q22.5 0 36 -15.5t10 -38.5t-22 -38.5t-41 -15.5t-35.5 15.5t-9.5 38.5t21.5 38.5t40.5 15.5z" />
    <glyph glyph-name="divide" unicode="&#xf7;" 
d="M100 217l13 78h484l-13 -78h-484zM327.5 124q23.5 0 37.5 -17t11 -40q-4 -24 -23.5 -40.5t-43 -16.5t-37.5 16.5t-10 40.5q3 23 22.5 40t43 17zM387.5 502q23.5 0 37.5 -17t10 -40q-3 -24 -22.5 -40.5t-43 -16.5t-37.5 16.5t-11 40.5q4 23 23.5 40t43 17z" />
    <glyph glyph-name="oslash" unicode="&#xf8;" horiz-adv-x="562" 
d="M164 134l278 240q-37 35 -96 35q-73 0 -128 -50.5t-67 -123.5q-9 -56 13 -101zM472 333l-276 -239q36 -33 95 -33q73 0 128 50.5t66 123.5q9 57 -13 98zM22 11l79 68q-44 67 -30 155q16 104 99.5 176.5t187.5 72.5q89 0 147 -55l76 66l33 -38l-77 -67q42 -66 28 -155
q-16 -103 -99.5 -175t-186.5 -72q-87 0 -146 53l-78 -68z" />
    <glyph glyph-name="ugrave" unicode="&#xf9;" horiz-adv-x="512" 
d="M224 470l-41 -262q-4 -27 -5.5 -46t1.5 -39.5t12 -33t27.5 -20.5t47.5 -8q35 0 59 11t37.5 33.5t20 45t12.5 57.5l41 262h80l-42 -271q-34 -212 -220 -212t-152 212l42 271h80zM227 706l90 38l93 -164l-55 -28z" />
    <glyph glyph-name="uacute" unicode="&#xfa;" horiz-adv-x="512" 
d="M224 470l-41 -262q-4 -27 -5.5 -46t1.5 -39.5t12 -33t27.5 -20.5t47.5 -8q35 0 59 11t37.5 33.5t20 45t12.5 57.5l41 262h80l-42 -271q-34 -212 -220 -212t-152 212l42 271h80zM432 744l78 -38l-178 -154l-45 28z" />
    <glyph glyph-name="ucircumflex" unicode="&#xfb;" horiz-adv-x="512" 
d="M224 470l-41 -262q-4 -27 -5.5 -46t1.5 -39.5t12 -33t27.5 -20.5t47.5 -8q35 0 59 11t37.5 33.5t20 45t12.5 57.5l41 262h80l-42 -271q-34 -212 -220 -212t-152 212l42 271h80zM195 604l177 133l137 -133l-65 -45l-87 85l-112 -85z" />
    <glyph glyph-name="udieresis" unicode="&#xfc;" horiz-adv-x="512" 
d="M224 470l-41 -262q-4 -27 -5.5 -46t1.5 -39.5t12 -33t27.5 -20.5t47.5 -8q35 0 59 11t37.5 33.5t20 45t12.5 57.5l41 262h80l-42 -271q-34 -212 -220 -212t-152 212l42 271h80zM269.5 705q22.5 0 36 -15.5t10 -38.5t-22 -38.5t-41 -15.5t-35.5 15.5t-9.5 38.5t21.5 38.5
t40.5 15.5zM466.5 705q22.5 0 36 -15.5t10 -38.5t-22 -38.5t-41 -15.5t-35.5 15.5t-9.5 38.5t21.5 38.5t40.5 15.5z" />
    <glyph glyph-name="yacute" unicode="&#xfd;" horiz-adv-x="498" 
d="M221 44l-149 426h93l113 -337l205 337h91l-463 -734h-91zM445 744l78 -38l-178 -154l-45 28z" />
    <glyph glyph-name="thorn" unicode="&#xfe;" horiz-adv-x="577" 
d="M283 825l-67 -422h2q73 80 175 80q66 0 112.5 -35.5t64.5 -91.5t8 -122q-16 -104 -89 -175.5t-176 -71.5q-48 0 -87 20.5t-62 58.5h-2l-52 -330h-80l173 1089h80zM366 409q-68 0 -118.5 -50t-61.5 -119q-12 -73 21 -126t105 -53q74 0 123.5 51.5t61.5 126.5
q11 73 -24 121.5t-107 48.5z" />
    <glyph glyph-name="ydieresis" unicode="&#xff;" horiz-adv-x="498" 
d="M221 44l-149 426h93l113 -337l205 337h91l-463 -734h-91zM267.5 705q22.5 0 36 -15.5t10 -38.5t-22 -38.5t-41 -15.5t-35.5 15.5t-9.5 38.5t21.5 38.5t40.5 15.5zM464.5 705q22.5 0 36 -15.5t10 -38.5t-22 -38.5t-41 -15.5t-35.5 15.5t-9.5 38.5t21.5 38.5t40.5 15.5z
" />
    <glyph glyph-name="dotlessi" unicode="&#x131;" horiz-adv-x="262" 
d="M245 470l-74 -470h-80l74 470h80z" />
    <glyph glyph-name="Lslash" unicode="&#x141;" horiz-adv-x="375" 
d="M76 0l51 319l-84 -49l12 80l84 49l56 355h84l-47 -300l143 84l-12 -80l-144 -84l-47 -296h208l-12 -78h-292z" />
    <glyph glyph-name="lslash" unicode="&#x142;" horiz-adv-x="258" 
d="M89 0l59 370l-82 -49l11 71l82 49l61 384h80l-53 -330l82 49l-11 -71l-82 -49l-67 -424h-80z" />
    <glyph glyph-name="OE" unicode="&#x152;" horiz-adv-x="1190" 
d="M729 0l23 145h-2q-60 -75 -146 -117t-175 -41q-106 0 -188.5 51.5t-121 141.5t-21.5 196q16 106 83.5 196t166.5 142.5t204 52.5q90 0 161.5 -42.5t109.5 -118.5h2l23 148h394l-12 -78h-310l-35 -224h301l-13 -78h-301l-47 -296h310l-12 -78h-394zM540 689
q-129 0 -233.5 -91.5t-124.5 -220.5q-14 -84 16 -155.5t94.5 -114t148.5 -42.5q128 0 233 92t126 220q13 84 -16.5 156t-94 114t-149.5 42z" />
    <glyph glyph-name="oe" unicode="&#x153;" horiz-adv-x="940" 
d="M941 218h-371q-10 -66 26 -111.5t103 -45.5q89 0 158 97l62 -39q-44 -63 -105.5 -97.5t-132.5 -34.5q-59 0 -109 30.5t-67 81.5q-39 -53 -101 -82.5t-125 -29.5q-103 0 -163.5 72t-44.5 175q16 104 99.5 176.5t187.5 72.5q66 -2 118 -32t71 -82q36 53 92 82.5t119 31.5
q72 0 120 -37.5t63 -97t0 -130.5zM587 286h281q0 52 -33.5 87.5t-85 35.5t-99 -36t-63.5 -87zM348 409q-73 0 -128 -50.5t-67 -123.5q-11 -73 28 -123.5t112 -50.5t128 50.5t66 123.5q12 73 -27 123.5t-112 50.5z" />
    <glyph glyph-name="Scaron" unicode="&#x160;" horiz-adv-x="559" 
d="M588 650l-74 -43q-17 41 -44 61.5t-73 20.5q-51 0 -93 -33t-50 -84q-3 -19 2.5 -35.5t13.5 -27.5t25 -22.5t27.5 -17t30.5 -15.5l46 -22q40 -19 65.5 -35.5t49 -41t32 -58.5t1.5 -77q-16 -98 -95.5 -165.5t-178.5 -67.5q-90 0 -145 53.5t-59 141.5l85 23q0 -59 35 -99.5
t94 -40.5q63 0 116 42.5t63 104.5q4 25 -1.5 46.5t-13.5 34.5t-28.5 28t-32.5 21.5t-40 19.5l-42 20q-36 17 -59 32.5t-44.5 38t-29 53t-1.5 69.5q14 85 84.5 138.5t156.5 53.5q63 0 109.5 -30.5t67.5 -86.5zM598 951l-177 -133l-137 133l65 45l86 -85l113 85z" />
    <glyph glyph-name="scaron" unicode="&#x161;" horiz-adv-x="399" 
d="M396 396l-73 -35q-5 20 -20.5 34t-35.5 14q-22 0 -42.5 -15t-23.5 -37q-2 -9 -0.5 -16.5t7.5 -14.5t11 -12t17 -11t17.5 -9t21.5 -10t22 -9q47 -21 71.5 -51t15.5 -84q-10 -66 -63.5 -109.5t-119.5 -43.5q-59 0 -98 31.5t-49 87.5l76 30q11 -37 29 -56t55 -19q32 0 57 20
t30 52q4 24 -9 42t-35 28t-47.5 22.5t-47 25.5t-33 38.5t-6.5 60.5q10 58 56.5 95.5t105.5 37.5q39 0 70 -24.5t41 -62.5zM467 692l-177 -133l-137 133l65 45l86 -85l113 85z" />
    <glyph glyph-name="Ydieresis" unicode="&#x178;" horiz-adv-x="593" 
d="M306 324l-179 430h97l139 -336l245 336h97l-315 -430l-51 -324h-84zM362.5 964q22.5 0 36 -16t10 -38.5t-22 -38t-41 -15.5t-35.5 16t-9.5 38.5t21.5 38t40.5 15.5zM559.5 964q22.5 0 36 -16t10 -38.5t-22 -38t-41 -15.5t-35.5 16t-9.5 38.5t21.5 38t40.5 15.5z" />
    <glyph glyph-name="Zcaron" unicode="&#x17d;" horiz-adv-x="586" 
d="M165 78h401l-12 -78h-540l518 676h-359l12 78h499zM613 951l-177 -133l-137 133l65 45l86 -85l113 85z" />
    <glyph glyph-name="zcaron" unicode="&#x17e;" horiz-adv-x="519" 
d="M184 74h324l-12 -74h-486l402 396h-276l11 74h437zM542 692l-177 -133l-137 133l65 45l86 -85l113 85z" />
    <glyph glyph-name="florin" unicode="&#x192;" 
d="M669 825l-27 -75q-24 11 -48 11q-47 0 -70 -32q-15 -23 -40 -91l-46 -136h120l-22 -68h-121l-108 -314q-1 -3 -3 -10q-42 -125 -80 -170q-34 -41 -85 -60.5t-106 -19.5l-50 4l28 75l34 -1q25 0 46 6t36 13.5t29 24t22.5 28t18.5 35.5t14.5 37.5t14.5 41.5l106 310h-82
l22 68h84l53 158q13 41 28 70t37.5 55t54.5 39.5t74 13.5q36 0 66 -13z" />
    <glyph glyph-name="circumflex" unicode="&#x2c6;" horiz-adv-x="470" 
d="M174 604l177 133l137 -133l-65 -45l-87 85l-112 -85z" />
    <glyph glyph-name="caron" unicode="&#x2c7;" horiz-adv-x="470" 
d="M502 692l-177 -133l-137 133l65 45l86 -85l113 85z" />
    <glyph glyph-name="breve" unicode="&#x2d8;" horiz-adv-x="485" 
d="M192 716h69q15 -68 84.5 -68t105.5 68h69q-17 -61 -69.5 -98.5t-115.5 -37.5q-62 0 -103 37.5t-40 98.5z" />
    <glyph glyph-name="dotaccent" unicode="&#x2d9;" horiz-adv-x="358" 
d="M292.5 716q22.5 0 35.5 -16t9.5 -38.5t-21.5 -38t-40.5 -15.5t-36 16t-10 38.5t22 38t41 15.5z" />
    <glyph glyph-name="ring" unicode="&#x2da;" horiz-adv-x="350" 
d="M294 747q40 0 64 -28.5t18 -68.5q-6 -41 -39 -69.5t-73.5 -28.5t-64.5 29t-18 69t39.5 68.5t73.5 28.5zM286.5 697q-19.5 0 -36 -14t-19.5 -33.5t9 -33.5t31.5 -14t35.5 14t19 34t-8.5 33.5t-31 13.5z" />
    <glyph glyph-name="ogonek" unicode="&#x2db;" horiz-adv-x="337" 
d="M161 0h64v-2q-89 -54 -96 -100q-4 -22 10.5 -33.5t37.5 -11.5q30 0 63 18l-21 -66q-32 -15 -65 -15q-44 0 -72.5 25.5t-22.5 67.5q11 66 102 117z" />
    <glyph glyph-name="tilde" unicode="&#x2dc;" horiz-adv-x="506" 
d="M220 588l-43 39q27 37 54 58t61 21q35 0 77 -23q5 -2 16.5 -8t16.5 -8t13 -4.5t15 -2.5q29 0 63 48l41 -38q-20 -35 -52 -58t-67 -23q-27 0 -71 23q-47 22 -67 22q-13 0 -24.5 -7.5t-17.5 -16t-15 -22.5z" />
    <glyph glyph-name="hungarumlaut" unicode="&#x2dd;" horiz-adv-x="467" 
d="M341 742l-121 -159l-38 11l85 162zM498 742l-121 -159l-38 11l85 162z" />
    <glyph glyph-name="mu" unicode="&#x3bc;" horiz-adv-x="512" 
d="M224 470l-41 -262q-4 -27 -5.5 -46t1.5 -39.5t12 -33t27.5 -20.5t47.5 -8q35 0 59 11t37.5 33.5t20 45t12.5 57.5l41 262h80l-42 -271q-34 -212 -220 -212q-29 0 -51 9.5t-48 37.5l-47 -298h-80l116 734h80z" />
    <glyph glyph-name="endash" unicode="&#x2013;" horiz-adv-x="500" 
d="M44 278h500l-12 -74h-500z" />
    <glyph glyph-name="emdash" unicode="&#x2014;" horiz-adv-x="1000" 
d="M174 278h740l-12 -74h-740z" />
    <glyph glyph-name="quoteleft" unicode="&#x2018;" horiz-adv-x="289" 
d="M212 485l-70 27l154 255l51 -21z" />
    <glyph glyph-name="quoteright" unicode="&#x2019;" horiz-adv-x="289" 
d="M275 767l70 -27l-154 -255l-51 21z" />
    <glyph glyph-name="quotesinglbase" unicode="&#x201a;" horiz-adv-x="289" 
d="M172 110l70 -26l-154 -256l-51 22z" />
    <glyph glyph-name="quotedblleft" unicode="&#x201c;" horiz-adv-x="457" 
d="M380 485l-70 27l154 255l51 -21zM212 485l-70 27l154 255l51 -21z" />
    <glyph glyph-name="quotedblright" unicode="&#x201d;" horiz-adv-x="457" 
d="M276 767l70 -27l-154 -255l-51 21zM444 767l70 -27l-154 -255l-51 21z" />
    <glyph glyph-name="quotedblbase" unicode="&#x201e;" horiz-adv-x="464" 
d="M172 110l70 -26l-154 -256l-51 22zM347 110l70 -26l-154 -256l-51 22z" />
    <glyph glyph-name="dagger" unicode="&#x2020;" horiz-adv-x="592" 
d="M374 754h82l-29 -185h167l-12 -78h-167l-104 -654h-82l104 654h-167l12 78h167z" />
    <glyph glyph-name="daggerdbl" unicode="&#x2021;" horiz-adv-x="592" 
d="M374 754h82l-29 -185h167l-12 -78h-167l-58 -363h167l-12 -78h-167l-34 -213h-82l34 213h-167l12 78h167l58 363h-167l12 78h167z" />
    <glyph glyph-name="bullet" unicode="&#x2022;" horiz-adv-x="592" 
d="M326 189q-78 0 -124.5 55t-33.5 133q11 79 75 134t142.5 55t125 -55t34.5 -134q-13 -78 -77 -133t-142 -55z" />
    <glyph glyph-name="ellipsis" unicode="&#x2026;" horiz-adv-x="1000" 
d="M184 99q23 0 37 -16t10 -39t-23 -40t-42 -17t-37 17t-10 40t23 39t42 16zM516 99q23 0 37 -16t10 -39t-23 -40t-42 -17t-37 17t-10 40t23 39t42 16zM848 99q23 0 37 -16t10 -39t-23 -40t-42 -17t-37 17t-10 40t23 39t42 16z" />
    <glyph glyph-name="perthousand" unicode="&#x2030;" horiz-adv-x="1212" 
d="M323.5 767q69.5 0 111 -48t30.5 -117q-10 -68 -67.5 -116t-126.5 -48t-111 47.5t-31 116.5t68 117t126.5 48zM313.5 703q-42.5 0 -78 -29.5t-42.5 -71.5q-6 -41 20 -70.5t68.5 -29.5t78 29.5t41.5 70.5q7 42 -19 71.5t-68.5 29.5zM720 767l37 -24l-556 -756l-39 26z
M650.5 316q69.5 0 111 -48t30.5 -117q-11 -68 -68 -116t-126 -48t-111 47.5t-31 116.5t68 117t126.5 48zM640 252q-42 0 -77.5 -29.5t-42.5 -71.5q-7 -41 19.5 -70.5t68.5 -29.5t77.5 29.5t42.5 70.5q7 42 -19.5 71.5t-68.5 29.5zM1060.5 316q69.5 0 111 -48t30.5 -117
q-11 -68 -68 -116t-126 -48t-111 47.5t-31 116.5t68 117t126.5 48zM1050 252q-42 0 -77.5 -29.5t-42.5 -71.5q-7 -41 19.5 -70.5t68.5 -29.5t77.5 29.5t42.5 70.5q7 42 -19.5 71.5t-68.5 29.5z" />
    <glyph glyph-name="guilsinglleft" unicode="&#x2039;" horiz-adv-x="330" 
d="M165 240l109 -166l-60 -41l-135 207l202 213l46 -42z" />
    <glyph glyph-name="guilsinglright" unicode="&#x203a;" horiz-adv-x="330" 
d="M80 74l161 166l-108 171l60 42l134 -213l-201 -207z" />
    <glyph glyph-name="fraction" unicode="&#x2044;" horiz-adv-x="161" 
d="M399 767l41 -24l-559 -756l-40 24z" />
    <glyph glyph-name="Euro" unicode="&#x20ac;" 
d="M544 333h-342q2 30 5 44l3 18h360l25 54h-372q33 104 99 167q75 73 178 73q65 0 99 -13q30 -12 71 -48l32 75q-65 64 -185 64q-142 0 -245 -94q-91 -85 -133 -224h-53l-24 -54h64l-4 -21q-4 -28 -5 -41h-49l-25 -54h72q2 -131 67 -207q73 -84 212 -84q101 0 182 43l14 90
q-60 -36 -89 -44q-36 -12 -98 -12q-100 0 -151 64q-46 55 -51 150h317z" />
    <glyph glyph-name="trademark" unicode="&#x2122;" horiz-adv-x="940" 
d="M1024 754l-66 -421h-60l57 361h-2l-201 -361h-39l-83 361h-2l-57 -361h-60l66 421h101l73 -303l173 303h100zM496 754l-9 -60h-140l-57 -361h-60l57 361h-141l9 60h341z" />
    <glyph glyph-name="minus" unicode="&#x2212;" 
d="M100 217l13 78h484l-13 -78h-484z" />
    <glyph glyph-name="fi" unicode="&#xfb01;" horiz-adv-x="519" 
d="M214 396l-63 -396h-80l63 396h-44l11 74h44l30 187q14 88 40 122q46 59 131 59q25 0 55 -10l-13 -81q-31 11 -52 11q-19 0 -32.5 -6.5t-21.5 -14.5t-14.5 -27.5t-9 -34t-7.5 -46.5l-26 -159h119l-11 -74h-119zM502 470l-74 -470h-80l74 470h80zM499.5 704
q23.5 0 37.5 -17t10 -40q-3 -24 -22.5 -40.5t-43 -16.5t-37.5 16.5t-11 40.5q4 23 23.5 40t43 17z" />
    <glyph glyph-name="fl" unicode="&#xfb02;" horiz-adv-x="501" 
d="M559 825l-131 -825h-80l131 825h80zM214 396l-63 -396h-80l63 396h-44l11 74h44l30 187q14 88 40 122q46 59 131 59q25 0 55 -10l-13 -81q-31 11 -52 11q-19 0 -32.5 -6.5t-21.5 -14.5t-14.5 -27.5t-9 -34t-7.5 -46.5l-26 -159h119l-11 -74h-119z" />
    <glyph glyph-name="hyphen" horiz-adv-x="208" 
d="M46 278h205l-12 -74h-205z" />
    <glyph glyph-name="oldcurrency" 
d="M145 498l42 36l35 -42q47 30 87 44t86.5 14t82 -14t72.5 -44l49 42l30 -36l-46 -40q21 -44 27.5 -80t0 -78t-24.5 -78t-54 -80l34 -40l-42 -36l-35 42q-47 -30 -87 -44t-86.5 -14t-82 14t-72.5 44l-49 -42l-30 36l46 40q-21 44 -27.5 80t0 78t24.5 78t54 80zM385 486
q-82 -2 -145.5 -54.5t-74.5 -131.5q-11 -76 36 -131t125 -55t142.5 55t78.5 131q14 79 -33 131.5t-129 54.5z" />
    </font>
</defs>
</svg>
