<?xml version="1.0" standalone="no"?>
<!DOCTYPE svg PUBLIC "-//W3C//DTD SVG 1.1//EN" "http://www.w3.org/Graphics/SVG/1.1/DTD/svg11.dtd" >
<svg xmlns="http://www.w3.org/2000/svg" xmlns:xlink="http://www.w3.org/1999/xlink" version="1.1">
<metadata>
Created by FontForge 20170731 at Wed May  9 13:04:12 2012
 By Aleksey,,,
Copyright (c) 2006 - 2012 Linotype GmbH, www.linotype.com. All rights reserved. This font software may not be reproduced, modified, disclosed or transferred without the express written approval of Linotype GmbH. Neuzeit is a trademark of Linotype GmbH registered in the U.S. Patent and Trademark Office and may be registered in certain other jurisdictions. This typeface is original artwork of Akira Kobayashi and Linotype Design Studio. The design may be protected in certain jurisdictions.
</metadata>
<defs>
<font id="NeuzeitOfficePro-Regular" horiz-adv-x="510" >
  <font-face 
    font-family="Neuzeit Office Pro"
    font-weight="400"
    font-stretch="normal"
    units-per-em="1000"
    panose-1="2 0 5 3 5 0 0 2 0 3"
    ascent="706"
    descent="-294"
    x-height="470"
    cap-height="680"
    bbox="-188 -250 1120 911"
    underline-thickness="50"
    underline-position="-200"
    unicode-range="U+000D-FB02"
  />
<missing-glyph horiz-adv-x="512" 
d="M278 117h-56v67h56v-67zM271 234h-46l-2 17q0 56 13 81q15 28 46 59q31 29 40.5 46t9.5 37q0 36 -22.5 60.5t-53.5 24.5q-71 0 -82 -95l-50 8q7 69 43 103t92 34q54 0 89 -36t35 -95q0 -34 -13 -60t-50 -60q-37 -33 -43 -52q-6 -20 -6 -72zM50 50h412v617h-412v-617z
M0 718h512v-718h-512v718z" />
    <glyph glyph-name="IJ" unicode="IJ" horiz-adv-x="650" 
d="M107 0v680h76v-680h-76zM564 680v-476q0 -105 -41.5 -161t-155.5 -56q-49 0 -76 8v68q38 -7 74 -7q76 0 100 38.5t24 126.5v390h-127v69h202z" />
    <glyph glyph-name="ij" unicode="ij" horiz-adv-x="500" 
d="M93 0v470h74v-470h-74zM75 630q0 23 16.5 39.5t39.5 16.5t39 -16.5t16 -39.5t-16 -39t-39 -16t-39.5 16t-16.5 39zM244 -200v65h23q36 0 51.5 16t15.5 60v529h74v-534q0 -71 -31.5 -103.5t-109.5 -32.5h-23zM316 630q0 23 16 39.5t39 16.5t39.5 -16.5t16.5 -39.5
t-16.5 -39t-39.5 -16t-39 16t-16 39z" />
    <glyph glyph-name="napostrophe" unicode="&#x22;n" horiz-adv-x="572" 
d="M415 0v283q0 68 -34 98t-80 30q-55 0 -98 -41t-43 -109v-261h-74v470h74v-81h1q46 87 160 87q25 0 50.5 -7t53.5 -23.5t46 -50t18 -79.5v-316h-74zM14 483h-48q53 75 53 123q0 34 -22 52l63 22q25 -23 25 -64q0 -60 -71 -133z" />
    <glyph glyph-name="fi" unicode="fi" horiz-adv-x="581" 
d="M412 0v470h74v-470h-74zM448 575q-23 0 -39 16t-16 39t16 39.5t39 16.5q24 0 40 -16.5t16 -39.5t-16 -39t-40 -16zM112 0v410h-96v60h96v32q0 54 13 97.5t49 75t93 31.5q32 0 61 -7v-69q-18 8 -60 8q-82 0 -82 -140v-28h136v-60h-136v-410h-74z" />
    <glyph glyph-name="fl" unicode="fl" horiz-adv-x="581" 
d="M414 0v706h74v-706h-74zM112 0v410h-96v60h96v32q0 54 13 97.5t49 75t93 31.5q32 0 61 -7v-69q-18 8 -60 8q-82 0 -82 -140v-28h136v-60h-136v-410h-74z" />
    <glyph glyph-name=".notdef" horiz-adv-x="512" 
d="M278 117h-56v67h56v-67zM271 234h-46l-2 17q0 56 13 81q15 28 46 59q31 29 40.5 46t9.5 37q0 36 -22.5 60.5t-53.5 24.5q-71 0 -82 -95l-50 8q7 69 43 103t92 34q54 0 89 -36t35 -95q0 -34 -13 -60t-50 -60q-37 -33 -43 -52q-6 -20 -6 -72zM50 50h412v617h-412v-617z
M0 718h512v-718h-512v718z" />
    <glyph glyph-name=".null" horiz-adv-x="0" 
 />
    <glyph glyph-name=".null" horiz-adv-x="0" 
 />
    <glyph glyph-name="nonmarkingreturn" horiz-adv-x="333" 
 />
    <glyph glyph-name="CR" unicode="&#xd;" horiz-adv-x="278" 
 />
    <glyph glyph-name="space" unicode=" " horiz-adv-x="255" 
 />
    <glyph glyph-name="exclam" unicode="!" horiz-adv-x="340" 
d="M136 185v495h70v-495h-70zM118 40q0 22 15.5 37t37.5 15t37 -15t15 -37t-15 -37.5t-37 -15.5t-37.5 15.5t-15.5 37.5z" />
    <glyph glyph-name="quotedbl" unicode="&#x22;" horiz-adv-x="420" 
d="M245 452l40 228h60l-40 -228h-60zM75 452l40 228h60l-40 -228h-60z" />
    <glyph glyph-name="numbersign" unicode="#" 
d="M299 259l21 151h-117l-20 -151h116zM263 0l29 207h-117l-29 -207h-57l29 207h-98v52h105l21 151h-98v52h105l29 207h58l-29 -207h116l29 207h58l-29 -207h98v-52h-105l-21 -151h98v-52h-105l-29 -207h-58z" />
    <glyph glyph-name="dollar" unicode="$" 
d="M275 303v-256q56 3 87 39t31 93q0 96 -118 124zM228 48v268q-27 7 -48.5 14.5t-46.5 22t-42 33t-28 47t-11 64.5q0 81 50.5 129t125.5 54v68h47v-68q168 -7 179 -184h-69q-3 52 -29 87.5t-81 37.5v-251q95 -26 140.5 -66t45.5 -116q0 -82 -46 -136.5t-140 -62.5v-105h-47
v105q-95 6 -139 54.5t-50 134.5h71q7 -121 118 -130zM228 383v238q-48 -2 -76.5 -34t-28.5 -83q0 -93 105 -121z" />
    <glyph glyph-name="percent" unicode="%" horiz-adv-x="830" 
d="M297 513q0 51 -20.5 82.5t-60.5 31.5t-60.5 -31.5t-20.5 -82.5q0 -52 20.5 -83.5t60.5 -31.5t60.5 32t20.5 83zM70 513q0 81 44 124t102 43q57 0 101 -43t44 -124t-44 -124.5t-101 -43.5q-58 0 -102 43.5t-44 124.5zM695 156q0 52 -20.5 83.5t-60.5 31.5t-60.5 -32
t-20.5 -83t20.5 -82.5t60.5 -31.5t60.5 31.5t20.5 82.5zM469 156q0 81 44 124.5t101 43.5q58 0 102 -43.5t44 -124.5t-44 -124t-102 -43q-57 0 -101 43t-44 124zM177 -31l419 731h57l-419 -731h-57z" />
    <glyph glyph-name="ampersand" unicode="&#x26;" horiz-adv-x="653" 
d="M540 0l-65 81q-84 -94 -208 -94q-93 0 -146.5 51.5t-53.5 136.5q0 78 42.5 127.5t120.5 91.5q-34 46 -47.5 79t-13.5 74q0 49 39.5 91t105.5 42q68 0 101.5 -36.5t33.5 -91.5q0 -54 -28.5 -96t-94.5 -81l150 -188q23 48 28 119h71q-15 -108 -55 -167l117 -139h-97z
M435 129l-171 216q-62 -34 -90.5 -71t-28.5 -93q0 -53 32.5 -91.5t97.5 -38.5q100 0 160 78zM241 542q0 -50 50 -119q89 46 89 122q0 35 -18.5 55t-48.5 20q-29 0 -50.5 -20.5t-21.5 -57.5z" />
    <glyph glyph-name="quotesingle" unicode="'" horiz-adv-x="250" 
d="M75 452l40 228h60l-40 -228h-60z" />
    <glyph glyph-name="parenleft" unicode="(" horiz-adv-x="350" 
d="M63 307q0 131 47 246.5t127 199.5l46 -38q-71 -75 -112 -180.5t-41 -227.5t41 -227.5t112 -180.5l-46 -38q-80 84 -127 199.5t-47 246.5z" />
    <glyph glyph-name="parenright" unicode=")" horiz-adv-x="350" 
d="M287 307q0 -131 -47 -246.5t-127 -199.5l-46 38q71 75 112 180.5t41 227.5t-41 227.5t-112 180.5l46 38q80 -84 127 -199.5t47 -246.5z" />
    <glyph glyph-name="asterisk" unicode="*" 
d="M217 504l-128 43l14 45l125 -45v133h47v-133l123 45l16 -45l-128 -43l83 -107l-40 -29l-78 111l-77 -111l-40 29z" />
    <glyph glyph-name="plus" unicode="+" 
d="M49 275h177v181h58v-181h177v-59h-177v-181h-58v181h-177v59z" />
    <glyph glyph-name="comma" unicode="," horiz-adv-x="255" 
d="M13 -127l89 234l72 -17l-114 -226z" />
    <glyph glyph-name="hyphen" unicode="-" horiz-adv-x="360" 
d="M70 202v69h220v-69h-220z" />
    <glyph glyph-name="period" unicode="." horiz-adv-x="255" 
d="M69 50q0 24 17.5 41t41.5 17t41 -17t17 -41t-17 -41.5t-41 -17.5t-41.5 17.5t-17.5 41.5z" />
    <glyph glyph-name="slash" unicode="/" horiz-adv-x="400" 
d="M34 -13l265 705h58l-265 -705h-58z" />
    <glyph glyph-name="zero" unicode="0" 
d="M255 -11q-202 0 -202 359q0 345 202 345t202 -359q0 -345 -202 -345zM255 630q-64 0 -95 -66.5t-31 -215.5q0 -296 126 -296q64 0 95 66.5t31 215.5q0 296 -126 296z" />
    <glyph glyph-name="one" unicode="1" 
d="M250 0v585q-61 -41 -142 -66v70q49 15 99.5 43.5t76.5 60.5h42v-693h-76z" />
    <glyph glyph-name="two" unicode="2" 
d="M50 0v65l205 226q43 48 63 73.5t38.5 64.5t18.5 76q0 63 -34.5 90.5t-88.5 27.5q-62 0 -92.5 -40t-32.5 -108h-69q2 106 55.5 162t142.5 56q86 0 140.5 -48t54.5 -137q0 -38 -10 -71.5t-34.5 -69.5t-42 -57t-55.5 -63l-164 -177h310v-70h-405z" />
    <glyph glyph-name="three" unicode="3" 
d="M143 338v57l206 217h-284v68h375v-68l-194 -198l2 -2q15 3 31 3q84 0 132 -56t48 -146q0 -92 -55.5 -159t-158.5 -67q-186 0 -203 183l71 6q2 -54 35 -90t94 -36q71 0 105 45t34 111t-31 108.5t-101 42.5q-56 0 -100 -23z" />
    <glyph glyph-name="four" unicode="4" 
d="M323 0v184h-291v60l270 442h91v-439h78v-63h-78v-184h-70zM323 247v358h-2l-214 -358h216z" />
    <glyph glyph-name="five" unicode="5" 
d="M60 316l23 364h344v-70h-275l-17 -217h2q52 49 130 49q81 0 137.5 -52.5t56.5 -169.5q0 -93 -54.5 -163t-162.5 -70q-91 0 -140 47.5t-58 126.5l73 6q7 -51 37.5 -83.5t87.5 -32.5q65 0 102.5 42.5t37.5 125.5q0 72 -32 116t-100 44q-78 0 -128 -63h-64z" />
    <glyph glyph-name="six" unicode="6" 
d="M389 213q0 158 -126 158q-56 0 -93.5 -43.5t-37.5 -107.5q0 -71 34 -120t97 -49q65 0 95.5 47.5t30.5 114.5zM463 544l-71 -8q-18 92 -110 92q-44 0 -76 -25t-49 -69.5t-25 -92.5t-9 -106h2q16 44 55 72t94 28q93 0 142.5 -60t49.5 -159q0 -93 -52.5 -161t-148.5 -68
q-52 0 -91 18.5t-62.5 48.5t-38 75t-19.5 91.5t-5 105.5q0 174 62 270.5t172 96.5q91 0 130.5 -41.5t49.5 -107.5z" />
    <glyph glyph-name="seven" unicode="7" 
d="M46 612v68h415v-74q-93 -142 -160 -303.5t-87 -302.5h-84q10 101 89 293.5t170 318.5h-343z" />
    <glyph glyph-name="eight" unicode="8" 
d="M364 514q0 50 -30 82t-79 32q-48 0 -78 -32t-30 -82q0 -49 29 -81.5t79 -32.5t79.5 32.5t29.5 81.5zM255 -13q-99 0 -157.5 56.5t-58.5 140.5q0 135 132 188v2q-99 36 -99 145q0 74 51.5 124t131.5 50q81 0 132.5 -48t51.5 -122q0 -113 -99 -149v-2q132 -45 132 -184
q0 -84 -59 -142.5t-158 -58.5zM395 196q0 60 -38 100t-102 40q-63 0 -101 -40t-38 -100q0 -68 37.5 -106.5t101.5 -38.5q65 0 102.5 38.5t37.5 106.5z" />
    <glyph glyph-name="nine" unicode="9" 
d="M121 466q0 -149 126 -149q57 0 94 40t37 103q0 71 -34 120t-97 49q-65 0 -95.5 -48t-30.5 -115zM45 136l73 8q18 -92 110 -92q44 0 76 25t49 69.5t25 92.5t9 106h-2q-49 -92 -149 -92q-94 0 -143 56.5t-49 153.5q0 58 21 109t68 86t112 35t109.5 -26.5t67 -76t31.5 -106
t9 -130.5q0 -174 -62 -270.5t-173 -96.5q-158 0 -182 149z" />
    <glyph glyph-name="colon" unicode=":" horiz-adv-x="335" 
d="M109 50q0 24 17.5 41t41.5 17t41 -17t17 -41t-17 -41.5t-41 -17.5t-41.5 17.5t-17.5 41.5zM109 425q0 24 17.5 41t41.5 17t41 -17t17 -41t-17 -41.5t-41 -17.5t-41.5 17.5t-17.5 41.5z" />
    <glyph glyph-name="semicolon" unicode=";" horiz-adv-x="335" 
d="M55 -127l89 234l72 -17l-114 -226zM109 425q0 24 17.5 41t41.5 17t41 -17t17 -41t-17 -41.5t-41 -17.5t-41.5 17.5t-17.5 41.5z" />
    <glyph glyph-name="less" unicode="&#x3c;" 
d="M461 34l-412 190v44l412 189v-60l-325 -151l325 -151v-61z" />
    <glyph glyph-name="equal" unicode="=" 
d="M49 339h412v-59h-412v59zM49 211h412v-60h-412v60z" />
    <glyph glyph-name="greater" unicode="&#x3e;" 
d="M49 457l411 -190v-43l-411 -190v61l324 151l-324 151v60z" />
    <glyph glyph-name="question" unicode="?" horiz-adv-x="520" 
d="M222 185v26q0 63 13.5 101t60.5 76t64.5 67.5t17.5 71.5q0 47 -28 75t-74 28q-56 0 -84.5 -34t-28.5 -93h-71q0 75 45 132.5t141 57.5q79 0 128.5 -43t49.5 -121q0 -60 -27.5 -99.5t-86.5 -84.5q-26 -20 -38 -46t-12 -76v-38h-70zM209 40q0 22 15.5 37t37.5 15t37 -15
t15 -37t-15 -37.5t-37 -15.5t-37.5 15.5t-15.5 37.5z" />
    <glyph glyph-name="at" unicode="@" horiz-adv-x="1000" 
d="M517 402q-64 0 -103 -59.5t-39 -132.5q0 -26 7 -51t29.5 -47t57.5 -22q39 0 68.5 19t45.5 49t23.5 61.5t7.5 62.5q0 51 -22.5 85.5t-74.5 34.5zM833 9l36 -45q-135 -130 -346 -130q-190 0 -307 115t-117 296q0 176 123 295t301 119q77 0 146.5 -22.5t125 -65.5t88 -112
t32.5 -155q0 -128 -61.5 -199.5t-151.5 -71.5q-46 0 -71.5 24t-25.5 58h-4q-16 -31 -52 -56.5t-89 -25.5q-73 0 -115.5 50.5t-42.5 130.5q0 99 60.5 173t157.5 74q43 0 75.5 -17.5t44.5 -49.5h4l12 50h61l-44 -203q-12 -48 -12 -91q0 -60 59 -60q56 0 92 59t36 147
q0 143 -90.5 222.5t-235.5 79.5q-153 0 -250 -102t-97 -254q0 -159 98.5 -254t257.5 -95q176 0 302 116z" />
    <glyph glyph-name="A" unicode="A" horiz-adv-x="633" 
d="M432 260l-115 324h-2l-119 -324h236zM16 0l263 680h79l259 -680h-90l-69 192h-288l-69 -192h-85z" />
    <glyph glyph-name="B" unicode="B" horiz-adv-x="597" 
d="M95 0v680h199q91 0 146.5 -41.5t55.5 -117.5q0 -121 -108 -167v-1q139 -27 139 -161q0 -89 -68 -140.5t-164 -51.5h-200zM171 69h122q69 0 111.5 31.5t42.5 92.5q0 122 -161 122h-115v-246zM171 378h103q65 0 104 33t39 94q0 112 -150 112h-96v-239z" />
    <glyph glyph-name="C" unicode="C" horiz-adv-x="723" 
d="M685 522l-73 -30q-50 133 -210 133q-68 0 -120.5 -25t-83 -67t-45.5 -91t-15 -102q0 -54 14 -102.5t43.5 -90.5t82.5 -66.5t124 -24.5q160 0 215 140l68 -34q-82 -175 -291 -175q-150 0 -243.5 95.5t-93.5 257.5q0 152 98.5 252.5t246.5 100.5q216 0 283 -171z" />
    <glyph glyph-name="D" unicode="D" horiz-adv-x="723" 
d="M102 680h211q78 0 139.5 -20t100.5 -52t64.5 -76.5t36 -90.5t10.5 -97q0 -65 -22.5 -125.5t-64.5 -110t-109.5 -79t-149.5 -29.5h-216v680zM178 611v-542h139q88 0 150 40.5t89 101t27 133.5q0 54 -15 100t-46 84.5t-86 60.5t-128 22h-130z" />
    <glyph glyph-name="E" unicode="E" horiz-adv-x="542" 
d="M95 0v680h383v-69h-307v-228h298v-68h-298v-246h307v-69h-383z" />
    <glyph glyph-name="F" unicode="F" horiz-adv-x="524" 
d="M95 0v680h374v-69h-298v-228h289v-68h-289v-315h-76z" />
    <glyph glyph-name="G" unicode="G" horiz-adv-x="753" 
d="M385 277v68h311q-1 -71 -18.5 -132.5t-52.5 -113.5t-96.5 -82t-143.5 -30q-156 0 -242 96.5t-86 256.5q0 69 22.5 131.5t64 112.5t108 79.5t147.5 29.5q104 0 177 -51t94 -129l-72 -17q-51 129 -212 129q-117 0 -182.5 -81.5t-65.5 -207.5q0 -128 68.5 -204t179.5 -76
q60 0 105.5 21t70.5 56t37.5 70t15.5 74h-230z" />
    <glyph glyph-name="H" unicode="H" horiz-adv-x="714" 
d="M95 0v680h76v-297h372v297h76v-680h-76v315h-372v-315h-76z" />
    <glyph glyph-name="I" unicode="I" horiz-adv-x="289" 
d="M107 0v680h76v-680h-76z" />
    <glyph glyph-name="J" unicode="J" horiz-adv-x="401" 
d="M315 680v-476q0 -105 -41.5 -161t-155.5 -56q-49 0 -76 8v68q38 -7 74 -7q76 0 100 38.5t24 126.5v390h-127v69h202z" />
    <glyph glyph-name="K" unicode="K" horiz-adv-x="597" 
d="M95 0v680h76v-321h2l293 321h102l-311 -326l315 -354h-105l-294 344h-2v-344h-76z" />
    <glyph glyph-name="L" unicode="L" horiz-adv-x="497" 
d="M95 0v680h76v-611h291v-69h-367z" />
    <glyph glyph-name="M" unicode="M" horiz-adv-x="882" 
d="M95 0v680h89l257 -573l257 573h89v-680h-76v542h-1l-244 -542h-49l-244 538h-2v-538h-76z" />
    <glyph glyph-name="N" unicode="N" horiz-adv-x="723" 
d="M95 0v680h82l374 -561h1v561h76v-680h-82l-373 560h-2v-560h-76z" />
    <glyph glyph-name="O" unicode="O" horiz-adv-x="805" 
d="M666 340q0 53 -15 102t-45.5 91t-83 67t-120.5 25t-120.5 -25t-83 -67t-45.5 -91t-15 -102q0 -55 15 -104t45.5 -90t83 -65t120.5 -24q69 0 121.5 24t82.5 65t45 90t15 104zM57 340q0 152 98.5 252.5t246.5 100.5q152 0 249 -96t97 -257q0 -152 -99 -252.5t-247 -100.5
q-153 0 -249 95.5t-96 257.5z" />
    <glyph glyph-name="P" unicode="P" horiz-adv-x="597" 
d="M171 331h117q72 0 118 34t46 106q0 71 -42 105.5t-115 34.5h-124v-280zM95 0v680h216q105 0 163.5 -55.5t58.5 -154.5t-64 -153.5t-169 -54.5h-129v-262h-76z" />
    <glyph glyph-name="Q" unicode="Q" horiz-adv-x="805" 
d="M707 -31l-90 91q-93 -73 -215 -73q-153 0 -249 95.5t-96 257.5q0 152 98.5 252.5t246.5 100.5q152 0 249 -96t97 -257q0 -137 -83 -234l88 -89zM565 110l-74 75l45 46l75 -73q55 73 55 182q0 53 -15 102t-45.5 91t-83 67t-120.5 25t-120.5 -25t-83 -67t-45.5 -91
t-15 -102q0 -55 15 -104t45.5 -90t83 -65.5t120.5 -24.5q99 0 163 54z" />
    <glyph glyph-name="R" unicode="R" horiz-adv-x="597" 
d="M171 360h135q70 0 110.5 31.5t40.5 92.5q0 127 -155 127h-131v-251zM471 0l-167 291h-133v-291h-76v680h211q65 0 112 -16t72 -44t36.5 -59t11.5 -67q0 -85 -44.5 -132t-110.5 -64l181 -298h-93z" />
    <glyph glyph-name="S" unicode="S" horiz-adv-x="603" 
d="M534 504h-77q-4 53 -41 87t-113 34q-73 0 -113.5 -33.5t-40.5 -84.5t32.5 -79t122.5 -45q135 -25 190 -65.5t55 -125.5t-62.5 -145t-186.5 -60q-114 0 -176 52.5t-70 148.5h77q15 -132 173 -132q81 0 122 38.5t41 89.5q0 55 -34 79.5t-127 43.5q-127 26 -180 65.5
t-53 132.5q0 83 65 135.5t164 52.5q217 0 232 -189z" />
    <glyph glyph-name="T" unicode="T" horiz-adv-x="524" 
d="M224 0v611h-206v69h488v-69h-206v-611h-76z" />
    <glyph glyph-name="U" unicode="U" horiz-adv-x="687" 
d="M89 225v455h76v-443q0 -90 48.5 -135.5t130.5 -45.5q77 0 127.5 49t50.5 147v428h76v-429q0 -128 -72 -196t-182 -68q-122 0 -188.5 65t-66.5 173z" />
    <glyph glyph-name="V" unicode="V" horiz-adv-x="597" 
d="M259 0l-241 680h89l192 -574h2l195 574h83l-249 -680h-71z" />
    <glyph glyph-name="W" unicode="W" horiz-adv-x="904" 
d="M636 0l-181 568h-2l-190 -568h-70l-170 680h83l131 -562h2l184 562h71l178 -567h1l134 567h78l-180 -680h-69z" />
    <glyph glyph-name="X" unicode="X" horiz-adv-x="597" 
d="M466 0l-170 287l-173 -287h-93l222 345l-214 335h97l166 -280l166 280h93l-215 -335l220 -345h-99z" />
    <glyph glyph-name="Y" unicode="Y" horiz-adv-x="570" 
d="M250 0v278l-235 402h96l179 -335l176 335h90l-231 -402v-278h-75z" />
    <glyph glyph-name="Z" unicode="Z" horiz-adv-x="588" 
d="M37 0v63l418 548h-385v69h481v-63l-417 -548h407v-69h-504z" />
    <glyph glyph-name="bracketleft" unicode="[" horiz-adv-x="350" 
d="M94 -134v881h172v-52h-107v-777h107v-52h-172z" />
    <glyph glyph-name="backslash" unicode="\" horiz-adv-x="400" 
d="M299 -13l-265 705h58l265 -705h-58z" />
    <glyph glyph-name="bracketright" unicode="]" horiz-adv-x="350" 
d="M84 -134v52h107v777h-107v52h172v-881h-172z" />
    <glyph glyph-name="asciicircum" unicode="^" 
d="M111 240h-64l184 333h47l184 -333h-63l-144 262z" />
    <glyph glyph-name="underscore" unicode="_" horiz-adv-x="500" 
d="M0 -125v50h500v-50h-500z" />
    <glyph glyph-name="grave" unicode="`" horiz-adv-x="255" 
d="M153 571l-118 128h98l79 -128h-59z" />
    <glyph glyph-name="a" unicode="a" horiz-adv-x="552" 
d="M389 0v62h-2q-41 -75 -158 -75q-80 0 -124.5 39t-44.5 98q0 80 57.5 114.5t163.5 38.5l108 4v36q0 50 -26.5 77.5t-93.5 27.5q-110 0 -123 -89h-73q23 150 197 150q94 0 143 -41t49 -117v-233q0 -45 7 -92h-80zM389 164v61l-82 -3q-88 -4 -128.5 -23.5t-40.5 -70.5
q0 -39 28 -60t79 -21q55 0 99.5 30.5t44.5 86.5z" />
    <glyph glyph-name="b" unicode="b" horiz-adv-x="616" 
d="M335 483q86 0 151.5 -64t65.5 -184q0 -109 -66.5 -178.5t-163.5 -69.5q-112 0 -161 88h-1v-75h-74v706h74v-319h1q13 20 31.5 39t58 38t84.5 19zM473 233q0 90 -42.5 137.5t-109.5 47.5q-64 0 -112.5 -50t-48.5 -138q0 -76 44 -126.5t116 -50.5t112.5 51.5t40.5 128.5z
" />
    <glyph glyph-name="c" unicode="c" horiz-adv-x="550" 
d="M497 362l-70 -19q-33 74 -124 74q-75 0 -117.5 -54t-42.5 -138q0 -72 39.5 -122t120.5 -50q91 0 125 78l72 -23q-21 -50 -70 -85.5t-128 -35.5q-111 0 -174.5 67.5t-63.5 170.5q0 118 69 188t171 70q76 0 126.5 -32t66.5 -89z" />
    <glyph glyph-name="d" unicode="d" horiz-adv-x="616" 
d="M281 -13q-86 0 -151.5 64t-65.5 184q0 109 66.5 178.5t163.5 69.5q113 0 161 -86h2v309h72v-706h-72v82h-2q-20 -36 -65 -65.5t-109 -29.5zM143 238q0 -90 42.5 -137.5t109.5 -47.5q63 0 112.5 50.5t49.5 137.5q0 76 -44 126.5t-117 50.5q-72 0 -112.5 -51.5
t-40.5 -128.5z" />
    <glyph glyph-name="e" unicode="e" horiz-adv-x="580" 
d="M447 133l66 -26q-61 -120 -217 -120q-60 0 -106 20.5t-73.5 55t-41.5 76.5t-14 88q0 113 66 184.5t175 71.5q99 0 158 -59t59 -175v-31h-379q0 -75 43.5 -120.5t117.5 -45.5q104 0 146 81zM141 278h301q0 61 -37.5 101.5t-103.5 40.5q-77 0 -115 -42t-45 -100z" />
    <glyph glyph-name="f" unicode="f" horiz-adv-x="332" 
d="M112 0v410h-100v60h100v32q0 54 13 97.5t49 75t93 31.5q32 0 61 -7v-69q-18 8 -60 8q-82 0 -82 -140v-28h136v-60h-136v-410h-74z" />
    <glyph glyph-name="g" unicode="g" horiz-adv-x="616" 
d="M455 389v81h73v-425q0 -116 -59.5 -180.5t-186.5 -64.5q-87 0 -141.5 35.5t-62.5 97.5l79 9q21 -77 126 -77q172 0 172 199v39h-2q-24 -53 -71 -78t-101 -25q-101 0 -158.5 67.5t-57.5 172.5q0 107 65.5 175t159.5 68q49 0 92.5 -24.5t70.5 -69.5h2zM455 248
q0 68 -42.5 118t-116.5 50q-66 0 -109 -44t-43 -125q0 -84 37 -133t113 -49q62 0 111.5 48t49.5 135z" />
    <glyph glyph-name="h" unicode="h" horiz-adv-x="572" 
d="M416 0v283q0 68 -34 98t-80 30q-55 0 -98.5 -41t-43.5 -109v-261h-74v706h74v-317h1q46 87 161 87q25 0 50.5 -7t53.5 -23.5t46 -50t18 -79.5v-316h-74z" />
    <glyph glyph-name="i" unicode="i" horiz-adv-x="261" 
d="M93 0v470h74v-470h-74zM75 630q0 23 16.5 39.5t39.5 16.5t39 -16.5t16 -39.5t-16 -39t-39 -16t-39.5 16t-16.5 39z" />
    <glyph glyph-name="j" unicode="j" horiz-adv-x="261" 
d="M5 -200v65h23q36 0 51.5 16t15.5 60v529h74v-534q0 -71 -31.5 -103.5t-109.5 -32.5h-23zM77 630q0 23 16 39.5t39 16.5t39.5 -16.5t16.5 -39.5t-16.5 -39t-39.5 -16t-39 16t-16 39z" />
    <glyph glyph-name="k" unicode="k" horiz-adv-x="507" 
d="M384 0l-224 247v-247h-74v706h74v-444l222 208h101l-237 -215l240 -255h-102z" />
    <glyph glyph-name="l" unicode="l" horiz-adv-x="261" 
d="M93 0v706h74v-706h-74z" />
    <glyph glyph-name="m" unicode="m" horiz-adv-x="855" 
d="M700 0v301q0 110 -116 110q-45 0 -83.5 -36.5t-38.5 -91.5v-283h-73v301q0 59 -24.5 84.5t-79.5 25.5q-48 0 -86.5 -36.5t-38.5 -91.5v-283h-74v470h73v-76h2q21 35 60 58.5t94 23.5t88 -28.5t46 -62.5q21 41 62 66t94 25q75 0 121 -41t46 -114v-321h-72z" />
    <glyph glyph-name="n" unicode="n" horiz-adv-x="572" 
d="M415 0v283q0 68 -34 98t-80 30q-55 0 -98 -41t-43 -109v-261h-74v470h74v-81h1q46 87 160 87q25 0 50.5 -7t53.5 -23.5t46 -50t18 -79.5v-316h-74z" />
    <glyph glyph-name="o" unicode="o" horiz-adv-x="613" 
d="M549 235q0 -100 -65.5 -174t-177.5 -74q-119 0 -180.5 72.5t-61.5 175.5q0 100 65 174t177 74q120 0 181.5 -72.5t61.5 -175.5zM143 235q0 -81 44.5 -131.5t118.5 -50.5q75 0 119.5 50.5t44.5 131.5q0 80 -44.5 130.5t-119.5 50.5q-74 0 -118.5 -50.5t-44.5 -130.5z" />
    <glyph glyph-name="p" unicode="p" horiz-adv-x="616" 
d="M473 233q0 90 -42.5 137.5t-109.5 47.5q-64 0 -112.5 -50t-48.5 -138q0 -76 44 -126.5t116 -50.5t112.5 51.5t40.5 128.5zM86 -200v670h74v-83h1q63 96 174 96q86 0 151.5 -64t65.5 -184q0 -109 -66.5 -178.5t-163.5 -69.5q-57 0 -98.5 26t-62.5 63h-1v-276h-74z" />
    <glyph glyph-name="q" unicode="q" horiz-adv-x="616" 
d="M143 233q0 -77 39.5 -128.5t110.5 -51.5q72 0 118 51t46 126q0 90 -44 139t-115 49q-73 0 -114 -48.5t-41 -136.5zM457 -200v276h-2q-20 -36 -65.5 -62.5t-104.5 -26.5q-98 0 -159.5 69t-61.5 179q0 112 65.5 180t164.5 68q109 0 161 -96h2v83h72v-670h-72z" />
    <glyph glyph-name="r" unicode="r" horiz-adv-x="374" 
d="M86 0v470h72v-114h2q17 42 65.5 81t103.5 39h26v-71h-24q-72 0 -121.5 -55t-49.5 -137v-213h-74z" />
    <glyph glyph-name="s" unicode="s" horiz-adv-x="500" 
d="M443 335h-72q-9 89 -116 89q-47 0 -80 -21.5t-33 -58.5q0 -36 24 -50t93 -24q95 -14 141.5 -42.5t46.5 -96.5q0 -61 -48.5 -102.5t-150.5 -41.5q-105 0 -148.5 37t-50.5 106h74q5 -82 123 -82q58 0 93 19.5t35 58.5q0 36 -28 53.5t-110 29.5q-84 11 -125 37.5t-41 91.5
q0 71 53.5 108t138.5 37q81 0 131 -38.5t50 -109.5z" />
    <glyph glyph-name="t" unicode="t" horiz-adv-x="343" 
d="M17 410v60h93v136h73v-136h140v-60h-140v-273q0 -77 69 -77q26 0 49 3v-64q-36 -4 -68 -4q-62 0 -92.5 29.5t-30.5 97.5v288h-93z" />
    <glyph glyph-name="u" unicode="u" horiz-adv-x="572" 
d="M156 470v-284q0 -68 34 -98t80 -30q56 0 99.5 41t43.5 110v261h73v-470h-73v80h-2q-46 -87 -161 -87q-25 0 -50.5 7t-53.5 23.5t-45.5 50.5t-17.5 80v316h73z" />
    <glyph glyph-name="v" unicode="v" horiz-adv-x="507" 
d="M219 0l-193 470h83l143 -365h2l148 365h79l-196 -470h-66z" />
    <glyph glyph-name="w" unicode="w" horiz-adv-x="769" 
d="M193 0l-163 470h81l118 -359h2l119 359h69l125 -359h2l116 359h78l-161 -470h-72l-121 358h-2l-123 -358h-68z" />
    <glyph glyph-name="x" unicode="x" horiz-adv-x="507" 
d="M26 0l182 238l-171 232h98l124 -185l124 185h91l-172 -228l179 -242h-96l-130 193l-138 -193h-91z" />
    <glyph glyph-name="y" unicode="y" horiz-adv-x="507" 
d="M122 -200l90 209l-186 461h85l143 -382h2l145 382h80l-279 -670h-80z" />
    <glyph glyph-name="z" unicode="z" horiz-adv-x="469" 
d="M53 0v63l273 342h-264v65h354v-63l-273 -342h273v-65h-363z" />
    <glyph glyph-name="braceleft" unicode="{" horiz-adv-x="350" 
d="M63 280v53q64 0 64 119v201q0 94 102 94h37v-49h-19q-56 0 -56 -52v-199q0 -61 -15 -92.5t-48 -46.5v-2q33 -15 48 -47t15 -92v-200q0 -52 56 -52h19v-49h-37q-102 0 -102 94v201q0 64 -16 91.5t-48 27.5z" />
    <glyph glyph-name="bar" unicode="|" horiz-adv-x="250" 
d="M99 -140v892h53v-892h-53z" />
    <glyph glyph-name="braceright" unicode="}" horiz-adv-x="350" 
d="M84 -134v49h19q56 0 56 52v200q0 60 15 92t48 47v2q-33 15 -48 46.5t-15 92.5v199q0 52 -56 52h-19v49h37q102 0 102 -94v-201q0 -119 64 -119v-53q-32 0 -48 -27.5t-16 -91.5v-201q0 -94 -102 -94h-37z" />
    <glyph glyph-name="asciitilde" unicode="~" 
d="M259 277q52 -33 81 -33q42 0 74 57l43 -38q-48 -77 -115 -77q-47 0 -92 29q-50 32 -81 32q-44 0 -73 -57l-43 38q52 79 115 79q48 0 91 -30z" />
    <glyph glyph-name="uni00A0" unicode="&#xa0;" horiz-adv-x="255" 
 />
    <glyph glyph-name="exclamdown" unicode="&#xa1;" horiz-adv-x="340" 
d="M205 285v-495h-70v495h70zM223 430q0 -22 -15.5 -37t-37.5 -15t-37 15t-15 37t15 37.5t37 15.5t37.5 -15.5t15.5 -37.5z" />
    <glyph glyph-name="cent" unicode="&#xa2;" 
d="M258 51v366q-63 -12 -100.5 -62t-37.5 -121t37.5 -121t100.5 -62zM306 419v-370q35 2 63 19t44 42l54 -41q-63 -75 -161 -80v-61h-48v63q-96 10 -153 77.5t-57 165.5t57 165.5t153 77.5v63h48v-61q98 -5 161 -80l-54 -41q-16 25 -44 42t-63 19z" />
    <glyph glyph-name="sterling" unicode="&#xa3;" 
d="M38 329v47h76q-42 61 -42 135q0 76 56 129t137 53q103 0 148 -51t48 -124l-76 -5q-3 57 -33 87t-82 30q-54 0 -85.5 -32.5t-31.5 -87.5q0 -50 44 -134h190v-47h-172q10 -33 10 -71q0 -99 -91 -184l2 -2q32 14 77 14q30 0 82 -15q45 -13 73 -13q50 0 84 29l23 -68
q-46 -30 -112 -30q-35 0 -88 16q-62 18 -104 18q-70 0 -106 -36l-29 63q53 24 86 81.5t33 107.5q0 54 -17 90h-100z" />
    <glyph glyph-name="currency" unicode="&#xa4;" 
d="M29 146l51 50q-49 58 -49 138q0 81 49 139l-51 50l37 37l51 -50q62 49 138 49q81 0 139 -49l50 50l37 -37l-50 -50q49 -62 49 -139q0 -76 -49 -138l50 -50l-37 -38l-50 51q-62 -49 -139 -49q-76 0 -138 49l-51 -51zM422 334q0 71 -49.5 121.5t-117.5 50.5
q-67 0 -116.5 -50.5t-49.5 -121.5q0 -70 49.5 -120.5t116.5 -50.5q68 0 117.5 50.5t49.5 120.5z" />
    <glyph glyph-name="yen" unicode="&#xa5;" 
d="M217 0v181h-143v48h143v83h-143v47h113l-160 321h91l137 -318l142 318h85l-165 -321h113v-47h-142v-83h142v-48h-142v-181h-71z" />
    <glyph glyph-name="brokenbar" unicode="&#xa6;" horiz-adv-x="250" 
d="M99 -110v304h53v-304h-53zM99 418v304h53v-304h-53z" />
    <glyph glyph-name="section" unicode="&#xa7;" 
d="M280 351l-61 26q-35 -5 -62 -26.5t-27 -63.5q0 -19 6 -33t23.5 -27t31.5 -20t47 -23l66 -30q28 7 50.5 30t22.5 59q0 41 -25.5 65.5t-71.5 42.5zM241 -166q-190 0 -195 179h69q4 -60 33 -89.5t93 -29.5q44 0 80 23t36 75q0 61 -75 96l-127 61q-95 43 -95 134
q0 49 28.5 83t75.5 49q-21 14 -34.5 24.5t-28 37t-14.5 58.5q0 77 51 117.5t126 40.5q94 0 134 -41t44 -115h-69q0 43 -26.5 69.5t-83.5 26.5q-48 0 -76 -23.5t-28 -65.5q0 -23 7 -40t25 -30.5t28.5 -19.5t37.5 -19l87 -40q103 -50 103 -142q0 -48 -25 -82t-64 -49
q71 -42 71 -125q0 -79 -54.5 -121t-133.5 -42z" />
    <glyph glyph-name="dieresis" unicode="&#xa8;" horiz-adv-x="255" 
d="M170 627q0 21 14.5 35.5t35.5 14.5t36 -14.5t15 -35.5t-15 -36t-36 -15t-35.5 15t-14.5 36zM-16 627q0 21 14.5 35.5t35.5 14.5t36 -14.5t15 -35.5t-15 -36t-36 -15t-35.5 15t-14.5 36z" />
    <glyph glyph-name="copyright" unicode="&#xa9;" horiz-adv-x="900" 
d="M583 270h56q-14 -68 -62 -109t-115 -41q-96 0 -154.5 63t-58.5 159q0 97 57 158.5t154 61.5q70 0 120 -39t59 -108h-56q-9 44 -41 72t-81 28q-77 0 -118.5 -47.5t-41.5 -124.5q0 -80 42 -128t119 -48q48 0 81 29t40 74zM98 340q0 146 103 249t250 103q146 0 249 -103
t103 -249t-103 -249.5t-249 -103.5q-147 0 -250 103.5t-103 249.5zM751 340q0 131 -86 218t-214 87q-129 0 -215 -87t-86 -218q0 -132 86 -219t215 -87q128 0 214 87t86 219z" />
    <glyph glyph-name="ordfeminine" unicode="&#xaa;" horiz-adv-x="500" 
d="M321 344v30q-34 -39 -106 -39q-59 0 -91.5 29t-32.5 73q0 26 7 45t24.5 31.5t33.5 20t48.5 11.5t53 5t63.5 3v19q0 32 -17 49.5t-61 17.5q-39 0 -57 -16t-24 -46h-63q18 117 145 117q140 0 140 -117v-163q0 -27 4 -52l2 -18h-69zM321 465v37q-9 -1 -27 -1
q-39 -2 -57.5 -4.5t-40 -8.5t-30 -17.5t-8.5 -30.5q0 -51 69 -51q35 0 64.5 20t29.5 56z" />
    <glyph glyph-name="guillemotleft" unicode="&#xab;" horiz-adv-x="500" 
d="M345 92l-95 167l98 162h73l-100 -162l98 -167h-74zM175 92l-96 167l99 162h73l-100 -162l97 -167h-73z" />
    <glyph glyph-name="logicalnot" unicode="&#xac;" 
d="M407 109v171h-363v59h421v-230h-58z" />
    <glyph glyph-name="uni00AD" unicode="&#xad;" horiz-adv-x="360" 
d="M70 202v69h220v-69h-220z" />
    <glyph glyph-name="registered" unicode="&#xae;" horiz-adv-x="600" 
d="M72 493q0 94 67 160.5t161 66.5t161 -66.5t67 -160.5q0 -93 -67 -159t-161 -66t-161 66t-67 159zM108 493q0 -79 56 -135.5t136 -56.5t136 56.5t56 135.5q0 80 -56 136t-136 56t-136 -56t-56 -136zM211 366v256h90q40 0 67.5 -18.5t27.5 -56.5q0 -56 -59 -69l69 -112h-56
l-60 107h-33v-107h-46zM257 510h37q56 0 56 38q0 35 -51 35h-42v-73z" />
    <glyph glyph-name="macron" unicode="&#xaf;" horiz-adv-x="255" 
d="M3 602v53h248v-53h-248z" />
    <glyph glyph-name="degree" unicode="&#xb0;" horiz-adv-x="400" 
d="M299 571q0 43 -28 71t-71 28t-71 -28t-28 -71t28 -71t71 -28t71 28t28 71zM349 571q0 -65 -42.5 -107t-106.5 -42t-106.5 42t-42.5 107t42.5 107t106.5 42t106.5 -42t42.5 -107z" />
    <glyph glyph-name="plusminus" unicode="&#xb1;" 
d="M226 335v124h58v-124h177v-59h-177v-120h-58v120h-177v59h177zM49 35v59h412v-59h-412z" />
    <glyph glyph-name="twosuperior" unicode="&#xb2;" horiz-adv-x="400" 
d="M78 292v47l118 126q24 25 35.5 38.5t22 34.5t10.5 40q0 57 -62 57q-31 0 -47 -22.5t-17 -59.5h-55q1 66 34 101t87 35q53 0 85.5 -28t32.5 -82q0 -59 -83 -148l-80 -84h164v-55h-245z" />
    <glyph glyph-name="threesuperior" unicode="&#xb3;" horiz-adv-x="400" 
d="M133 478v42l103 109h-146v53h222v-49l-94 -97q51 -2 79.5 -33.5t28.5 -85.5q0 -55 -33.5 -93.5t-94.5 -38.5q-114 0 -125 116l56 5q5 -70 67 -70q35 0 53 21.5t18 55.5q0 75 -68 75q-32 0 -54 -12z" />
    <glyph glyph-name="acute" unicode="&#xb4;" horiz-adv-x="255" 
d="M42 571l80 128h98l-118 -128h-60z" />
    <glyph glyph-name="mu" unicode="&#xb5;" horiz-adv-x="574" 
d="M82 -228v698h66v-261q0 -88 28 -124.5t99 -36.5q62 0 102 48t40 132v242h66v-367q0 -45 5 -103h-71v76h-2q-22 -37 -66.5 -62.5t-90.5 -25.5q-69 0 -110 29v-245h-66z" />
    <glyph glyph-name="paragraph" unicode="&#xb6;" horiz-adv-x="560" 
d="M396 -190v823h-90v-823h-66v524q-82 0 -135 47t-53 123q0 85 53.5 130.5t144.5 45.5h211v-870h-65z" />
    <glyph glyph-name="periodcentered" unicode="&#xb7;" horiz-adv-x="255" 
d="M69 297q0 24 17.5 41t41.5 17t41 -17t17 -41t-17 -41.5t-41 -17.5t-41.5 17.5t-17.5 41.5z" />
    <glyph glyph-name="cedilla" unicode="&#xb8;" horiz-adv-x="255" 
d="M71 -95l-11 15l49 80h42l-28 -52l1 -1q5 1 21 1q35 0 60 -18t25 -54q0 -49 -34 -71t-82 -22q-47 0 -78 11l7 38q32 -6 61 -6q66 0 66 44q0 40 -59 40q-27 0 -40 -5z" />
    <glyph glyph-name="onesuperior" unicode="&#xb9;" horiz-adv-x="400" 
d="M191 292v316q-23 -13 -79 -35v57q68 20 102 59h34v-397h-57z" />
    <glyph glyph-name="ordmasculine" unicode="&#xba;" horiz-adv-x="500" 
d="M416 515q0 -73 -47.5 -127t-129.5 -54q-87 0 -131.5 53t-44.5 128q0 72 47.5 126t128.5 54q88 0 132.5 -52.5t44.5 -127.5zM132 515q0 -55 28.5 -88t78.5 -33t79 33t29 88q0 53 -29 86t-79 33q-49 0 -78 -33t-29 -86z" />
    <glyph glyph-name="guillemotright" unicode="&#xbb;" horiz-adv-x="500" 
d="M79 92l101 163l-98 166h73l96 -166l-98 -163h-74zM250 92l100 163l-98 166h74l95 -166l-98 -163h-73z" />
    <glyph glyph-name="onequarter" unicode="&#xbc;" horiz-adv-x="900" 
d="M711 0v101h-170v43l170 253h54v-245h53v-51h-53v-101h-54zM711 152v161l-106 -161h106zM192 -31l419 731h57l-419 -731h-57zM191 292v316q-23 -13 -79 -35v57q68 20 102 59h34v-397h-57z" />
    <glyph glyph-name="onehalf" unicode="&#xbd;" horiz-adv-x="900" 
d="M558 0v47l118 126q24 25 35.5 38.5t22 34.5t10.5 40q0 57 -62 57q-31 0 -47 -22.5t-17 -59.5h-55q1 66 34 101t87 35q53 0 85.5 -28t32.5 -82q0 -59 -83 -148l-80 -84h164v-55h-245zM192 -31l419 731h57l-419 -731h-57zM191 292v316q-23 -13 -79 -35v57q68 20 102 59h34
v-397h-57z" />
    <glyph glyph-name="threequarters" unicode="&#xbe;" horiz-adv-x="900" 
d="M212 -31l419 731h57l-419 -731h-57zM133 478v42l103 109h-146v53h222v-49l-94 -97q51 -2 79.5 -33.5t28.5 -85.5q0 -55 -33.5 -93.5t-94.5 -38.5q-114 0 -125 116l56 5q5 -70 67 -70q35 0 53 21.5t18 55.5q0 75 -68 75q-32 0 -54 -12zM711 0v101h-170v43l170 253h54v-245
h53v-51h-53v-101h-54zM711 152v161l-106 -161h106z" />
    <glyph glyph-name="questiondown" unicode="&#xbf;" horiz-adv-x="520" 
d="M298 285v-26q0 -63 -13.5 -101t-60.5 -76t-64.5 -67.5t-17.5 -71.5q0 -47 28 -75t74 -28q56 0 84.5 34t28.5 93h71q0 -75 -45 -132.5t-141 -57.5q-79 0 -128.5 43t-49.5 121q0 60 27.5 99.5t86.5 84.5q26 20 38 46t12 76v38h70zM311 430q0 -22 -15.5 -37t-37.5 -15
t-37 15t-15 37t15 37.5t37 15.5t37.5 -15.5t15.5 -37.5z" />
    <glyph glyph-name="Agrave" unicode="&#xc0;" horiz-adv-x="633" 
d="M432 260l-115 324h-2l-119 -324h236zM16 0l263 680h79l259 -680h-90l-69 192h-288l-69 -192h-85zM282 741l-118 128h98l79 -128h-59z" />
    <glyph glyph-name="Aacute" unicode="&#xc1;" horiz-adv-x="633" 
d="M432 260l-115 324h-2l-119 -324h236zM16 0l263 680h79l259 -680h-90l-69 192h-288l-69 -192h-85zM300 741l80 128h98l-118 -128h-60z" />
    <glyph glyph-name="Acircumflex" unicode="&#xc2;" horiz-adv-x="633" 
d="M432 260l-115 324h-2l-119 -324h236zM16 0l263 680h79l259 -680h-90l-69 192h-288l-69 -192h-85zM382 741l-60 84l-59 -84h-72l90 128h83l91 -128h-73z" />
    <glyph glyph-name="Atilde" unicode="&#xc3;" horiz-adv-x="633" 
d="M432 260l-115 324h-2l-119 -324h236zM16 0l263 680h79l259 -680h-90l-69 192h-288l-69 -192h-85zM216 748h-46q12 99 94 99q30 0 69 -15q50 -19 58 -19q20 0 29.5 13t10.5 28h46q-12 -99 -94 -99q-27 0 -70 15q-42 19 -57 19q-20 0 -29.5 -13t-10.5 -28z" />
    <glyph glyph-name="Adieresis" unicode="&#xc4;" horiz-adv-x="633" 
d="M432 260l-115 324h-2l-119 -324h236zM16 0l263 680h79l259 -680h-90l-69 192h-288l-69 -192h-85zM365 797q0 21 14.5 35.5t35.5 14.5t36 -14.5t15 -35.5t-15 -36t-36 -15t-35.5 15t-14.5 36zM179 797q0 21 14.5 35.5t35.5 14.5t36 -14.5t15 -35.5t-15 -36t-36 -15
t-35.5 15t-14.5 36z" />
    <glyph glyph-name="Aring" unicode="&#xc5;" horiz-adv-x="633" 
d="M432 260l-115 324h-2l-119 -324h236zM16 0l263 680h79l259 -680h-90l-69 192h-288l-69 -192h-85zM228 818q0 38 27 65.5t65 27.5t65.5 -27.5t27.5 -65.5t-27.5 -65t-65.5 -27t-65 27t-27 65zM376 818q0 23 -16.5 39.5t-39.5 16.5t-39.5 -16.5t-16.5 -39.5t16.5 -39.5
t39.5 -16.5t39.5 16.5t16.5 39.5z" />
    <glyph glyph-name="AE" unicode="&#xc6;" horiz-adv-x="870" 
d="M439 0v173h-249l-95 -173h-88l386 680h413v-69h-291v-228h282v-68h-282v-246h291v-69h-367zM439 237v396h-2l-214 -396h216z" />
    <glyph glyph-name="Ccedilla" unicode="&#xc7;" horiz-adv-x="723" 
d="M332 -95l-11 15l42 68q-137 10 -221.5 104.5t-84.5 247.5q0 152 98.5 252.5t246.5 100.5q216 0 283 -171l-73 -30q-50 133 -210 133q-68 0 -120.5 -25t-83 -67t-45.5 -91t-15 -102q0 -54 14 -102.5t43.5 -90.5t82.5 -66.5t124 -24.5q160 0 215 140l68 -34
q-84 -171 -280 -175l-21 -39l1 -1q5 1 21 1q35 0 60 -18t25 -54q0 -49 -34 -71t-82 -22q-47 0 -78 11l7 38q32 -6 61 -6q66 0 66 44q0 40 -59 40q-27 0 -40 -5z" />
    <glyph glyph-name="Egrave" unicode="&#xc8;" horiz-adv-x="542" 
d="M95 0v680h383v-69h-307v-228h298v-68h-298v-246h307v-69h-383zM273 741l-118 128h98l79 -128h-59z" />
    <glyph glyph-name="Eacute" unicode="&#xc9;" horiz-adv-x="542" 
d="M95 0v680h383v-69h-307v-228h298v-68h-298v-246h307v-69h-383zM240 741l80 128h98l-118 -128h-60z" />
    <glyph glyph-name="Ecircumflex" unicode="&#xca;" horiz-adv-x="542" 
d="M95 0v680h383v-69h-307v-228h298v-68h-298v-246h307v-69h-383zM349 741l-60 84l-59 -84h-72l90 128h83l91 -128h-73z" />
    <glyph glyph-name="Edieresis" unicode="&#xcb;" horiz-adv-x="542" 
d="M95 0v680h383v-69h-307v-228h298v-68h-298v-246h307v-69h-383zM333 797q0 21 14.5 35.5t35.5 14.5t36 -14.5t15 -35.5t-15 -36t-36 -15t-35.5 15t-14.5 36zM147 797q0 21 14.5 35.5t35.5 14.5t36 -14.5t15 -35.5t-15 -36t-36 -15t-35.5 15t-14.5 36z" />
    <glyph glyph-name="Igrave" unicode="&#xcc;" horiz-adv-x="289" 
d="M107 0v680h76v-680h-76zM121 741l-118 128h98l79 -128h-59z" />
    <glyph glyph-name="Iacute" unicode="&#xcd;" horiz-adv-x="289" 
d="M107 0v680h76v-680h-76zM112 741l80 128h98l-118 -128h-60z" />
    <glyph glyph-name="Icircumflex" unicode="&#xce;" horiz-adv-x="289" 
d="M107 0v680h76v-680h-76zM203 741l-60 84l-59 -84h-72l90 128h83l91 -128h-73z" />
    <glyph glyph-name="Idieresis" unicode="&#xcf;" horiz-adv-x="289" 
d="M107 0v680h76v-680h-76zM186 797q0 21 14.5 35.5t35.5 14.5t36 -14.5t15 -35.5t-15 -36t-36 -15t-35.5 15t-14.5 36zM0 797q0 21 14.5 35.5t35.5 14.5t36 -14.5t15 -35.5t-15 -36t-36 -15t-35.5 15t-14.5 36z" />
    <glyph glyph-name="Eth" unicode="&#xd0;" horiz-adv-x="723" 
d="M102 680h211q78 0 139.5 -20t100.5 -52t64.5 -76.5t36 -90.5t10.5 -97q0 -65 -22.5 -125.5t-64.5 -110t-109.5 -79t-149.5 -29.5h-216v328h-71v63h71v289zM178 611v-220h192v-63h-192v-259h139q88 0 150 40.5t89 101t27 133.5q0 54 -15 100t-46 84.5t-86 60.5t-128 22
h-130z" />
    <glyph glyph-name="Ntilde" unicode="&#xd1;" horiz-adv-x="723" 
d="M95 0v680h82l374 -561h1v561h76v-680h-82l-373 560h-2v-560h-76zM256 748h-46q12 99 94 99q30 0 69 -15q50 -19 58 -19q20 0 29.5 13t10.5 28h46q-12 -99 -94 -99q-27 0 -70 15q-42 19 -57 19q-20 0 -29.5 -13t-10.5 -28z" />
    <glyph glyph-name="Ograve" unicode="&#xd2;" horiz-adv-x="805" 
d="M666 340q0 53 -15 102t-45.5 91t-83 67t-120.5 25t-120.5 -25t-83 -67t-45.5 -91t-15 -102q0 -55 15 -104t45.5 -90t83 -65t120.5 -24q69 0 121.5 24t82.5 65t45 90t15 104zM57 340q0 152 98.5 252.5t246.5 100.5q152 0 249 -96t97 -257q0 -152 -99 -252.5t-247 -100.5
q-153 0 -249 95.5t-96 257.5zM393 741l-118 128h98l79 -128h-59z" />
    <glyph glyph-name="Oacute" unicode="&#xd3;" horiz-adv-x="805" 
d="M666 340q0 53 -15 102t-45.5 91t-83 67t-120.5 25t-120.5 -25t-83 -67t-45.5 -91t-15 -102q0 -55 15 -104t45.5 -90t83 -65t120.5 -24q69 0 121.5 24t82.5 65t45 90t15 104zM57 340q0 152 98.5 252.5t246.5 100.5q152 0 249 -96t97 -257q0 -152 -99 -252.5t-247 -100.5
q-153 0 -249 95.5t-96 257.5zM384 741l80 128h98l-118 -128h-60z" />
    <glyph glyph-name="Ocircumflex" unicode="&#xd4;" horiz-adv-x="805" 
d="M666 340q0 53 -15 102t-45.5 91t-83 67t-120.5 25t-120.5 -25t-83 -67t-45.5 -91t-15 -102q0 -55 15 -104t45.5 -90t83 -65t120.5 -24q69 0 121.5 24t82.5 65t45 90t15 104zM57 340q0 152 98.5 252.5t246.5 100.5q152 0 249 -96t97 -257q0 -152 -99 -252.5t-247 -100.5
q-153 0 -249 95.5t-96 257.5zM472 741l-60 84l-59 -84h-72l90 128h83l91 -128h-73z" />
    <glyph glyph-name="Otilde" unicode="&#xd5;" horiz-adv-x="805" 
d="M666 340q0 53 -15 102t-45.5 91t-83 67t-120.5 25t-120.5 -25t-83 -67t-45.5 -91t-15 -102q0 -55 15 -104t45.5 -90t83 -65t120.5 -24q69 0 121.5 24t82.5 65t45 90t15 104zM57 340q0 152 98.5 252.5t246.5 100.5q152 0 249 -96t97 -257q0 -152 -99 -252.5t-247 -100.5
q-153 0 -249 95.5t-96 257.5zM305 748h-46q12 99 94 99q30 0 69 -15q50 -19 58 -19q20 0 29.5 13t10.5 28h46q-12 -99 -94 -99q-27 0 -70 15q-42 19 -57 19q-20 0 -29.5 -13t-10.5 -28z" />
    <glyph glyph-name="Odieresis" unicode="&#xd6;" horiz-adv-x="805" 
d="M666 340q0 53 -15 102t-45.5 91t-83 67t-120.5 25t-120.5 -25t-83 -67t-45.5 -91t-15 -102q0 -55 15 -104t45.5 -90t83 -65t120.5 -24q69 0 121.5 24t82.5 65t45 90t15 104zM57 340q0 152 98.5 252.5t246.5 100.5q152 0 249 -96t97 -257q0 -152 -99 -252.5t-247 -100.5
q-153 0 -249 95.5t-96 257.5zM452 797q0 21 14.5 35.5t35.5 14.5t36 -14.5t15 -35.5t-15 -36t-36 -15t-35.5 15t-14.5 36zM266 797q0 21 14.5 35.5t35.5 14.5t36 -14.5t15 -35.5t-15 -36t-36 -15t-35.5 15t-14.5 36z" />
    <glyph glyph-name="multiply" unicode="&#xd7;" 
d="M120 422l135 -135l134 135l41 -42l-134 -133l135 -136l-42 -43l-134 135l-135 -135l-42 42l136 135l-135 135z" />
    <glyph glyph-name="Oslash" unicode="&#xd8;" horiz-adv-x="805" 
d="M193 160l393 394q-70 70 -184 70q-90 0 -151.5 -43.5t-87 -105.5t-25.5 -135q0 -115 55 -180zM614 522l-394 -395q71 -71 182 -71q69 0 121.5 24.5t82.5 65.5t45 90t15 104q0 108 -52 182zM55 22l82 81q-80 94 -80 237q0 153 98.5 252.5t246.5 99.5q146 0 237 -85l81 82
l29 -31l-80 -81q79 -94 79 -237q0 -152 -99 -252.5t-247 -100.5q-146 0 -237 85l-80 -81z" />
    <glyph glyph-name="Ugrave" unicode="&#xd9;" horiz-adv-x="687" 
d="M89 225v455h76v-443q0 -90 48.5 -135.5t130.5 -45.5q77 0 127.5 49t50.5 147v428h76v-429q0 -128 -72 -196t-182 -68q-122 0 -188.5 65t-66.5 173zM316 741l-118 128h98l79 -128h-59z" />
    <glyph glyph-name="Uacute" unicode="&#xda;" horiz-adv-x="687" 
d="M89 225v455h76v-443q0 -90 48.5 -135.5t130.5 -45.5q77 0 127.5 49t50.5 147v428h76v-429q0 -128 -72 -196t-182 -68q-122 0 -188.5 65t-66.5 173zM315 741l80 128h98l-118 -128h-60z" />
    <glyph glyph-name="Ucircumflex" unicode="&#xdb;" horiz-adv-x="687" 
d="M89 225v455h76v-443q0 -90 48.5 -135.5t130.5 -45.5q77 0 127.5 49t50.5 147v428h76v-429q0 -128 -72 -196t-182 -68q-122 0 -188.5 65t-66.5 173zM415 741l-60 84l-59 -84h-72l90 128h83l91 -128h-73z" />
    <glyph glyph-name="Udieresis" unicode="&#xdc;" horiz-adv-x="687" 
d="M89 225v455h76v-443q0 -90 48.5 -135.5t130.5 -45.5q77 0 127.5 49t50.5 147v428h76v-429q0 -128 -72 -196t-182 -68q-122 0 -188.5 65t-66.5 173zM384 797q0 21 14.5 35.5t35.5 14.5t36 -14.5t15 -35.5t-15 -36t-36 -15t-35.5 15t-14.5 36zM198 797q0 21 14.5 35.5
t35.5 14.5t36 -14.5t15 -35.5t-15 -36t-36 -15t-35.5 15t-14.5 36z" />
    <glyph glyph-name="Yacute" unicode="&#xdd;" horiz-adv-x="570" 
d="M250 0v278l-235 402h96l179 -335l176 335h90l-231 -402v-278h-75zM258 741l80 128h98l-118 -128h-60z" />
    <glyph glyph-name="Thorn" unicode="&#xde;" horiz-adv-x="552" 
d="M95 0v680h76v-126h97q109 0 171 -49.5t62 -151.5t-69 -156t-167 -54h-94v-143h-76zM171 208h87q164 0 164 144q0 76 -40.5 106t-116.5 30h-94v-280z" />
    <glyph glyph-name="germandbls" unicode="&#xdf;" horiz-adv-x="572" 
d="M239 2v61q26 -7 57 -7q54 0 97.5 34t43.5 112q0 65 -42 98t-109 33h-25v66h31q51 0 85 35.5t34 96.5q0 54 -35 84t-89 30q-71 0 -100 -50t-29 -123v-472h-72v475q0 96 50 163.5t157 67.5q77 0 132.5 -42t55.5 -126q0 -127 -114 -167v-2q145 -28 145 -170q0 -88 -59 -146
t-152 -58q-35 0 -62 7z" />
    <glyph glyph-name="agrave" unicode="&#xe0;" horiz-adv-x="552" 
d="M389 0v62h-2q-41 -75 -158 -75q-80 0 -124.5 39t-44.5 98q0 80 57.5 114.5t163.5 38.5l108 4v36q0 50 -26.5 77.5t-93.5 27.5q-110 0 -123 -89h-73q23 150 197 150q94 0 143 -41t49 -117v-233q0 -45 7 -92h-80zM389 164v61l-82 -3q-88 -4 -128.5 -23.5t-40.5 -70.5
q0 -39 28 -60t79 -21q55 0 99.5 30.5t44.5 86.5zM265 571l-118 128h98l79 -128h-59z" />
    <glyph glyph-name="aacute" unicode="&#xe1;" horiz-adv-x="552" 
d="M389 0v62h-2q-41 -75 -158 -75q-80 0 -124.5 39t-44.5 98q0 80 57.5 114.5t163.5 38.5l108 4v36q0 50 -26.5 77.5t-93.5 27.5q-110 0 -123 -89h-73q23 150 197 150q94 0 143 -41t49 -117v-233q0 -45 7 -92h-80zM389 164v61l-82 -3q-88 -4 -128.5 -23.5t-40.5 -70.5
q0 -39 28 -60t79 -21q55 0 99.5 30.5t44.5 86.5zM229 571l80 128h98l-118 -128h-60z" />
    <glyph glyph-name="acircumflex" unicode="&#xe2;" horiz-adv-x="552" 
d="M389 0v62h-2q-41 -75 -158 -75q-80 0 -124.5 39t-44.5 98q0 80 57.5 114.5t163.5 38.5l108 4v36q0 50 -26.5 77.5t-93.5 27.5q-110 0 -123 -89h-73q23 150 197 150q94 0 143 -41t49 -117v-233q0 -45 7 -92h-80zM389 164v61l-82 -3q-88 -4 -128.5 -23.5t-40.5 -70.5
q0 -39 28 -60t79 -21q55 0 99.5 30.5t44.5 86.5zM342 571l-60 84l-59 -84h-72l90 128h83l91 -128h-73z" />
    <glyph glyph-name="atilde" unicode="&#xe3;" horiz-adv-x="552" 
d="M389 0v62h-2q-41 -75 -158 -75q-80 0 -124.5 39t-44.5 98q0 80 57.5 114.5t163.5 38.5l108 4v36q0 50 -26.5 77.5t-93.5 27.5q-110 0 -123 -89h-73q23 150 197 150q94 0 143 -41t49 -117v-233q0 -45 7 -92h-80zM389 164v61l-82 -3q-88 -4 -128.5 -23.5t-40.5 -70.5
q0 -39 28 -60t79 -21q55 0 99.5 30.5t44.5 86.5zM177 578h-46q12 99 94 99q30 0 69 -15q50 -19 58 -19q20 0 29.5 13t10.5 28h46q-12 -99 -94 -99q-27 0 -70 15q-42 19 -57 19q-20 0 -29.5 -13t-10.5 -28z" />
    <glyph glyph-name="adieresis" unicode="&#xe4;" horiz-adv-x="552" 
d="M389 0v62h-2q-41 -75 -158 -75q-80 0 -124.5 39t-44.5 98q0 80 57.5 114.5t163.5 38.5l108 4v36q0 50 -26.5 77.5t-93.5 27.5q-110 0 -123 -89h-73q23 150 197 150q94 0 143 -41t49 -117v-233q0 -45 7 -92h-80zM389 164v61l-82 -3q-88 -4 -128.5 -23.5t-40.5 -70.5
q0 -39 28 -60t79 -21q55 0 99.5 30.5t44.5 86.5zM323 627q0 21 14.5 35.5t35.5 14.5t36 -14.5t15 -35.5t-15 -36t-36 -15t-35.5 15t-14.5 36zM137 627q0 21 14.5 35.5t35.5 14.5t36 -14.5t15 -35.5t-15 -36t-36 -15t-35.5 15t-14.5 36z" />
    <glyph glyph-name="aring" unicode="&#xe5;" horiz-adv-x="552" 
d="M389 0v62h-2q-41 -75 -158 -75q-80 0 -124.5 39t-44.5 98q0 80 57.5 114.5t163.5 38.5l108 4v36q0 50 -26.5 77.5t-93.5 27.5q-110 0 -123 -89h-73q23 150 197 150q94 0 143 -41t49 -117v-233q0 -45 7 -92h-80zM389 164v61l-82 -3q-88 -4 -128.5 -23.5t-40.5 -70.5
q0 -39 28 -60t79 -21q55 0 99.5 30.5t44.5 86.5zM184 648q0 38 27 65.5t65 27.5t65.5 -27.5t27.5 -65.5t-27.5 -65t-65.5 -27t-65 27t-27 65zM332 648q0 23 -16.5 39.5t-39.5 16.5t-39.5 -16.5t-16.5 -39.5t16.5 -39.5t39.5 -16.5t39.5 16.5t16.5 39.5z" />
    <glyph glyph-name="ae" unicode="&#xe6;" horiz-adv-x="870" 
d="M737 133l66 -26q-61 -120 -210 -120q-66 0 -107 24.5t-69 70.5h-6q-53 -95 -182 -95q-80 0 -124.5 39t-44.5 98q0 154 221 154h93v36q0 108 -105 108q-110 0 -123 -89h-73q23 150 197 150q67 0 101 -21t53 -67q61 88 175 88q98 0 154 -58.5t56 -175.5v-26h-364
q0 -76 40.5 -123.5t112.5 -47.5q97 0 139 81zM374 161v62h-67q-88 0 -128.5 -19.5t-40.5 -75.5q0 -39 28 -60t79 -21q53 0 91 28.5t38 85.5zM446 278h286q0 62 -34 102t-100 40q-134 0 -152 -142z" />
    <glyph glyph-name="ccedilla" unicode="&#xe7;" horiz-adv-x="550" 
d="M225 -95l-11 15l43 70q-92 14 -142.5 78.5t-50.5 156.5q0 118 69 188t171 70q76 0 126.5 -32t66.5 -89l-70 -19q-33 74 -124 74q-75 0 -117.5 -54t-42.5 -138q0 -72 39.5 -122t120.5 -50q91 0 125 78l72 -23q-21 -50 -70 -85.5t-128 -35.5h-4l-21 -39l1 -1q5 1 21 1
q35 0 60 -18t25 -54q0 -49 -34 -71t-82 -22q-47 0 -78 11l7 38q31 -6 61 -6q66 0 66 44q0 40 -59 40q-27 0 -40 -5z" />
    <glyph glyph-name="egrave" unicode="&#xe8;" horiz-adv-x="580" 
d="M447 133l66 -26q-61 -120 -217 -120q-60 0 -106 20.5t-73.5 55t-41.5 76.5t-14 88q0 113 66 184.5t175 71.5q99 0 158 -59t59 -175v-31h-379q0 -75 43.5 -120.5t117.5 -45.5q104 0 146 81zM141 278h301q0 61 -37.5 101.5t-103.5 40.5q-77 0 -115 -42t-45 -100zM288 571
l-118 128h98l79 -128h-59z" />
    <glyph glyph-name="eacute" unicode="&#xe9;" horiz-adv-x="580" 
d="M447 133l66 -26q-61 -120 -217 -120q-60 0 -106 20.5t-73.5 55t-41.5 76.5t-14 88q0 113 66 184.5t175 71.5q99 0 158 -59t59 -175v-31h-379q0 -75 43.5 -120.5t117.5 -45.5q104 0 146 81zM141 278h301q0 61 -37.5 101.5t-103.5 40.5q-77 0 -115 -42t-45 -100zM261 571
l80 128h98l-118 -128h-60z" />
    <glyph glyph-name="ecircumflex" unicode="&#xea;" horiz-adv-x="580" 
d="M447 133l66 -26q-61 -120 -217 -120q-60 0 -106 20.5t-73.5 55t-41.5 76.5t-14 88q0 113 66 184.5t175 71.5q99 0 158 -59t59 -175v-31h-379q0 -75 43.5 -120.5t117.5 -45.5q104 0 146 81zM141 278h301q0 61 -37.5 101.5t-103.5 40.5q-77 0 -115 -42t-45 -100zM362 571
l-60 84l-59 -84h-72l90 128h83l91 -128h-73z" />
    <glyph glyph-name="edieresis" unicode="&#xeb;" horiz-adv-x="580" 
d="M447 133l66 -26q-61 -120 -217 -120q-60 0 -106 20.5t-73.5 55t-41.5 76.5t-14 88q0 113 66 184.5t175 71.5q99 0 158 -59t59 -175v-31h-379q0 -75 43.5 -120.5t117.5 -45.5q104 0 146 81zM141 278h301q0 61 -37.5 101.5t-103.5 40.5q-77 0 -115 -42t-45 -100zM348 627
q0 21 14.5 35.5t35.5 14.5t36 -14.5t15 -35.5t-15 -36t-36 -15t-35.5 15t-14.5 36zM162 627q0 21 14.5 35.5t35.5 14.5t36 -14.5t15 -35.5t-15 -36t-36 -15t-35.5 15t-14.5 36z" />
    <glyph glyph-name="igrave" unicode="&#xec;" horiz-adv-x="261" 
d="M93 0v470h74v-470h-74zM107 571l-118 128h98l79 -128h-59z" />
    <glyph glyph-name="iacute" unicode="&#xed;" horiz-adv-x="261" 
d="M93 0v470h74v-470h-74zM101 571l80 128h98l-118 -128h-60z" />
    <glyph glyph-name="icircumflex" unicode="&#xee;" horiz-adv-x="261" 
d="M93 0v470h74v-470h-74zM187 571l-60 84l-59 -84h-72l90 128h83l91 -128h-73z" />
    <glyph glyph-name="idieresis" unicode="&#xef;" horiz-adv-x="261" 
d="M93 0v470h74v-470h-74zM158 627q0 21 14.5 35.5t35.5 14.5t36 -14.5t15 -35.5t-15 -36t-36 -15t-35.5 15t-14.5 36zM2 627q0 21 14.5 35.5t35.5 14.5t36 -14.5t15 -35.5t-15 -36t-36 -15t-35.5 15t-14.5 36z" />
    <glyph glyph-name="eth" unicode="&#xf0;" horiz-adv-x="612" 
d="M469 235q0 80 -44.5 130.5t-117.5 50.5q-75 0 -119.5 -50.5t-44.5 -130.5q0 -81 44.5 -131.5t119.5 -50.5q74 0 118 50.5t44 131.5zM216 544l-36 32l106 57q-44 34 -107 61l51 42q64 -28 117 -69l107 60l36 -35l-105 -57q163 -144 163 -384q0 -114 -61 -189t-180 -75
q-120 0 -181.5 72.5t-61.5 175.5q0 100 65.5 174t177.5 74q91 0 148 -74h2q-37 106 -133 193z" />
    <glyph glyph-name="ntilde" unicode="&#xf1;" horiz-adv-x="572" 
d="M415 0v283q0 68 -34 98t-80 30q-55 0 -98 -41t-43 -109v-261h-74v470h74v-81h1q46 87 160 87q25 0 50.5 -7t53.5 -23.5t46 -50t18 -79.5v-316h-74zM184 578h-46q12 99 94 99q30 0 69 -15q50 -19 58 -19q20 0 29.5 13t10.5 28h46q-12 -99 -94 -99q-27 0 -70 15
q-42 19 -57 19q-20 0 -29.5 -13t-10.5 -28z" />
    <glyph glyph-name="ograve" unicode="&#xf2;" horiz-adv-x="613" 
d="M549 235q0 -100 -65.5 -174t-177.5 -74q-119 0 -180.5 72.5t-61.5 175.5q0 100 65 174t177 74q120 0 181.5 -72.5t61.5 -175.5zM143 235q0 -81 44.5 -131.5t118.5 -50.5q75 0 119.5 50.5t44.5 131.5q0 80 -44.5 130.5t-119.5 50.5q-74 0 -118.5 -50.5t-44.5 -130.5z
M293 571l-118 128h98l79 -128h-59z" />
    <glyph glyph-name="oacute" unicode="&#xf3;" horiz-adv-x="613" 
d="M549 235q0 -100 -65.5 -174t-177.5 -74q-119 0 -180.5 72.5t-61.5 175.5q0 100 65 174t177 74q120 0 181.5 -72.5t61.5 -175.5zM143 235q0 -81 44.5 -131.5t118.5 -50.5q75 0 119.5 50.5t44.5 131.5q0 80 -44.5 130.5t-119.5 50.5q-74 0 -118.5 -50.5t-44.5 -130.5z
M281 571l80 128h98l-118 -128h-60z" />
    <glyph glyph-name="ocircumflex" unicode="&#xf4;" horiz-adv-x="613" 
d="M549 235q0 -100 -65.5 -174t-177.5 -74q-119 0 -180.5 72.5t-61.5 175.5q0 100 65 174t177 74q120 0 181.5 -72.5t61.5 -175.5zM143 235q0 -81 44.5 -131.5t118.5 -50.5q75 0 119.5 50.5t44.5 131.5q0 80 -44.5 130.5t-119.5 50.5q-74 0 -118.5 -50.5t-44.5 -130.5z
M373 571l-60 84l-59 -84h-72l90 128h83l91 -128h-73z" />
    <glyph glyph-name="otilde" unicode="&#xf5;" horiz-adv-x="613" 
d="M549 235q0 -100 -65.5 -174t-177.5 -74q-119 0 -180.5 72.5t-61.5 175.5q0 100 65 174t177 74q120 0 181.5 -72.5t61.5 -175.5zM143 235q0 -81 44.5 -131.5t118.5 -50.5q75 0 119.5 50.5t44.5 131.5q0 80 -44.5 130.5t-119.5 50.5q-74 0 -118.5 -50.5t-44.5 -130.5z
M208 578h-46q12 99 94 99q30 0 69 -15q50 -19 58 -19q20 0 29.5 13t10.5 28h46q-12 -99 -94 -99q-27 0 -70 15q-42 19 -57 19q-20 0 -29.5 -13t-10.5 -28z" />
    <glyph glyph-name="odieresis" unicode="&#xf6;" horiz-adv-x="613" 
d="M549 235q0 -100 -65.5 -174t-177.5 -74q-119 0 -180.5 72.5t-61.5 175.5q0 100 65 174t177 74q120 0 181.5 -72.5t61.5 -175.5zM143 235q0 -81 44.5 -131.5t118.5 -50.5q75 0 119.5 50.5t44.5 131.5q0 80 -44.5 130.5t-119.5 50.5q-74 0 -118.5 -50.5t-44.5 -130.5z
M356 627q0 21 14.5 35.5t35.5 14.5t36 -14.5t15 -35.5t-15 -36t-36 -15t-35.5 15t-14.5 36zM170 627q0 21 14.5 35.5t35.5 14.5t36 -14.5t15 -35.5t-15 -36t-36 -15t-35.5 15t-14.5 36z" />
    <glyph glyph-name="divide" unicode="&#xf7;" 
d="M206 382q0 20 14 34t35 14t34.5 -14t13.5 -34q0 -21 -13.5 -35.5t-34.5 -14.5t-35 14.5t-14 35.5zM206 110q0 20 14 34.5t35 14.5t34.5 -14t13.5 -35t-13.5 -35t-34.5 -14t-35 14.5t-14 34.5zM461 216h-412v59h412v-59z" />
    <glyph glyph-name="oslash" unicode="&#xf8;" horiz-adv-x="613" 
d="M446 337l-252 -240q44 -44 114 -44q74 0 118 50.5t44 131.5q0 60 -24 102zM168 132l252 240q-41 44 -112 44q-75 0 -119.5 -50.5t-44.5 -130.5q0 -61 24 -103zM48 17l64 61q-47 65 -47 157q0 100 65.5 174t177.5 74q101 0 167 -58l60 58l31 -30l-63 -62q46 -65 46 -156
q0 -100 -65 -174t-176 -74q-106 0 -167 59l-62 -59z" />
    <glyph glyph-name="ugrave" unicode="&#xf9;" horiz-adv-x="572" 
d="M156 470v-284q0 -68 34 -98t80 -30q56 0 99.5 41t43.5 110v261h73v-470h-73v80h-2q-46 -87 -161 -87q-25 0 -50.5 7t-53.5 23.5t-45.5 50.5t-17.5 80v316h73zM263 571l-118 128h98l79 -128h-59z" />
    <glyph glyph-name="uacute" unicode="&#xfa;" horiz-adv-x="572" 
d="M156 470v-284q0 -68 34 -98t80 -30q56 0 99.5 41t43.5 110v261h73v-470h-73v80h-2q-46 -87 -161 -87q-25 0 -50.5 7t-53.5 23.5t-45.5 50.5t-17.5 80v316h73zM248 571l80 128h98l-118 -128h-60z" />
    <glyph glyph-name="ucircumflex" unicode="&#xfb;" horiz-adv-x="572" 
d="M156 470v-284q0 -68 34 -98t80 -30q56 0 99.5 41t43.5 110v261h73v-470h-73v80h-2q-46 -87 -161 -87q-25 0 -50.5 7t-53.5 23.5t-45.5 50.5t-17.5 80v316h73zM344 571l-60 84l-59 -84h-72l90 128h83l91 -128h-73z" />
    <glyph glyph-name="udieresis" unicode="&#xfc;" horiz-adv-x="572" 
d="M156 470v-284q0 -68 34 -98t80 -30q56 0 99.5 41t43.5 110v261h73v-470h-73v80h-2q-46 -87 -161 -87q-25 0 -50.5 7t-53.5 23.5t-45.5 50.5t-17.5 80v316h73zM334 627q0 21 14.5 35.5t35.5 14.5t36 -14.5t15 -35.5t-15 -36t-36 -15t-35.5 15t-14.5 36zM148 627
q0 21 14.5 35.5t35.5 14.5t36 -14.5t15 -35.5t-15 -36t-36 -15t-35.5 15t-14.5 36z" />
    <glyph glyph-name="yacute" unicode="&#xfd;" horiz-adv-x="507" 
d="M122 -200l90 209l-186 461h85l143 -382h2l145 382h80l-279 -670h-80zM220 571l80 128h98l-118 -128h-60z" />
    <glyph glyph-name="thorn" unicode="&#xfe;" horiz-adv-x="616" 
d="M335 483q86 0 151.5 -64t65.5 -184q0 -109 -66.5 -178.5t-163.5 -69.5q-112 0 -161 88h-1v-275h-74v906h74v-319h1q13 20 31.5 39t58 38t84.5 19zM473 233q0 90 -42.5 137.5t-109.5 47.5q-64 0 -112.5 -50t-48.5 -138q0 -76 44 -126.5t116 -50.5t112.5 51.5t40.5 128.5z
" />
    <glyph glyph-name="ydieresis" unicode="&#xff;" horiz-adv-x="507" 
d="M122 -200l90 209l-186 461h85l143 -382h2l145 382h80l-279 -670h-80zM298 627q0 21 14.5 35.5t35.5 14.5t36 -14.5t15 -35.5t-15 -36t-36 -15t-35.5 15t-14.5 36zM112 627q0 21 14.5 35.5t35.5 14.5t36 -14.5t15 -35.5t-15 -36t-36 -15t-35.5 15t-14.5 36z" />
    <glyph glyph-name="Amacron" unicode="&#x100;" horiz-adv-x="633" 
d="M432 260l-115 324h-2l-119 -324h236zM16 0l263 680h79l259 -680h-90l-69 192h-288l-69 -192h-85zM199 772v53h248v-53h-248z" />
    <glyph glyph-name="amacron" unicode="&#x101;" horiz-adv-x="552" 
d="M389 0v62h-2q-41 -75 -158 -75q-80 0 -124.5 39t-44.5 98q0 80 57.5 114.5t163.5 38.5l108 4v36q0 50 -26.5 77.5t-93.5 27.5q-110 0 -123 -89h-73q23 150 197 150q94 0 143 -41t49 -117v-233q0 -45 7 -92h-80zM389 164v61l-82 -3q-88 -4 -128.5 -23.5t-40.5 -70.5
q0 -39 28 -60t79 -21q55 0 99.5 30.5t44.5 86.5zM149 602v53h248v-53h-248z" />
    <glyph glyph-name="Abreve" unicode="&#x102;" horiz-adv-x="633" 
d="M432 260l-115 324h-2l-119 -324h236zM16 0l263 680h79l259 -680h-90l-69 192h-288l-69 -192h-85zM186 869h42q2 -30 28 -50.5t69 -20.5t69 20t29 51h42q-3 -58 -38 -90.5t-102 -32.5q-65 0 -100.5 32.5t-38.5 90.5z" />
    <glyph glyph-name="abreve" unicode="&#x103;" horiz-adv-x="552" 
d="M389 0v62h-2q-41 -75 -158 -75q-80 0 -124.5 39t-44.5 98q0 80 57.5 114.5t163.5 38.5l108 4v36q0 50 -26.5 77.5t-93.5 27.5q-110 0 -123 -89h-73q23 150 197 150q94 0 143 -41t49 -117v-233q0 -45 7 -92h-80zM389 164v61l-82 -3q-88 -4 -128.5 -23.5t-40.5 -70.5
q0 -39 28 -60t79 -21q55 0 99.5 30.5t44.5 86.5zM139 699h42q2 -30 28 -50.5t69 -20.5t69 20t29 51h42q-3 -58 -38 -90.5t-102 -32.5q-65 0 -100.5 32.5t-38.5 90.5z" />
    <glyph glyph-name="Aogonek" unicode="&#x104;" horiz-adv-x="633" 
d="M546 0h-19l-69 192h-288l-69 -192h-85l263 680h79l259 -680h-27q-72 -70 -72 -118q0 -29 12.5 -39t34.5 -10q19 0 38 7l7 -37q-20 -11 -61 -11q-101 0 -101 76q0 63 98 132zM432 260l-115 324h-2l-119 -324h236z" />
    <glyph glyph-name="aogonek" unicode="&#x105;" horiz-adv-x="552" 
d="M389 0v62h-2q-41 -75 -158 -75q-80 0 -124.5 39t-44.5 98q0 80 57.5 114.5t163.5 38.5l108 4v36q0 50 -26.5 77.5t-93.5 27.5q-110 0 -123 -89h-73q23 150 197 150q94 0 143 -41t49 -117v-233q0 -45 7 -92h-13q-72 -70 -72 -118q0 -29 12.5 -39t34.5 -10q19 0 38 7l7 -37
q-20 -11 -61 -11q-101 0 -101 76q0 63 98 132h-23zM389 164v61l-82 -3q-88 -4 -128.5 -23.5t-40.5 -70.5q0 -39 28 -60t79 -21q55 0 99.5 30.5t44.5 86.5z" />
    <glyph glyph-name="Cacute" unicode="&#x106;" horiz-adv-x="723" 
d="M685 522l-73 -30q-50 133 -210 133q-68 0 -120.5 -25t-83 -67t-45.5 -91t-15 -102q0 -54 14 -102.5t43.5 -90.5t82.5 -66.5t124 -24.5q160 0 215 140l68 -34q-82 -175 -291 -175q-150 0 -243.5 95.5t-93.5 257.5q0 152 98.5 252.5t246.5 100.5q216 0 283 -171zM353 741
l80 128h98l-118 -128h-60z" />
    <glyph glyph-name="cacute" unicode="&#x107;" horiz-adv-x="550" 
d="M497 362l-70 -19q-33 74 -124 74q-75 0 -117.5 -54t-42.5 -138q0 -72 39.5 -122t120.5 -50q91 0 125 78l72 -23q-21 -50 -70 -85.5t-128 -35.5q-111 0 -174.5 67.5t-63.5 170.5q0 118 69 188t171 70q76 0 126.5 -32t66.5 -89zM263 571l80 128h98l-118 -128h-60z" />
    <glyph glyph-name="Ccircumflex" unicode="&#x108;" horiz-adv-x="723" 
d="M685 522l-73 -30q-50 133 -210 133q-68 0 -120.5 -25t-83 -67t-45.5 -91t-15 -102q0 -54 14 -102.5t43.5 -90.5t82.5 -66.5t124 -24.5q160 0 215 140l68 -34q-82 -175 -291 -175q-150 0 -243.5 95.5t-93.5 257.5q0 152 98.5 252.5t246.5 100.5q216 0 283 -171zM459 741
l-60 84l-59 -84h-72l90 128h83l91 -128h-73z" />
    <glyph glyph-name="ccircumflex" unicode="&#x109;" horiz-adv-x="550" 
d="M497 362l-70 -19q-33 74 -124 74q-75 0 -117.5 -54t-42.5 -138q0 -72 39.5 -122t120.5 -50q91 0 125 78l72 -23q-21 -50 -70 -85.5t-128 -35.5q-111 0 -174.5 67.5t-63.5 170.5q0 118 69 188t171 70q76 0 126.5 -32t66.5 -89zM367 571l-60 84l-59 -84h-72l90 128h83
l91 -128h-73z" />
    <glyph glyph-name="Cdotaccent" unicode="&#x10a;" horiz-adv-x="723" 
d="M685 522l-73 -30q-50 133 -210 133q-68 0 -120.5 -25t-83 -67t-45.5 -91t-15 -102q0 -54 14 -102.5t43.5 -90.5t82.5 -66.5t124 -24.5q160 0 215 140l68 -34q-82 -175 -291 -175q-150 0 -243.5 95.5t-93.5 257.5q0 152 98.5 252.5t246.5 100.5q216 0 283 -171zM358 797
q0 21 14.5 35.5t35.5 14.5t36 -14.5t15 -35.5t-15 -36t-36 -15t-35.5 15t-14.5 36z" />
    <glyph glyph-name="cdotaccent" unicode="&#x10b;" horiz-adv-x="550" 
d="M497 362l-70 -19q-33 74 -124 74q-75 0 -117.5 -54t-42.5 -138q0 -72 39.5 -122t120.5 -50q91 0 125 78l72 -23q-21 -50 -70 -85.5t-128 -35.5q-111 0 -174.5 67.5t-63.5 170.5q0 118 69 188t171 70q76 0 126.5 -32t66.5 -89zM244 630q0 23 16.5 39.5t39.5 16.5t39 -16.5
t16 -39.5t-16 -39t-39 -16t-39.5 16t-16.5 39z" />
    <glyph glyph-name="Ccaron" unicode="&#x10c;" horiz-adv-x="723" 
d="M685 522l-73 -30q-50 133 -210 133q-68 0 -120.5 -25t-83 -67t-45.5 -91t-15 -102q0 -54 14 -102.5t43.5 -90.5t82.5 -66.5t124 -24.5q160 0 215 140l68 -34q-82 -175 -291 -175q-150 0 -243.5 95.5t-93.5 257.5q0 152 98.5 252.5t246.5 100.5q216 0 283 -171zM367 741
l-92 128h74l59 -84l60 84h71l-89 -128h-83z" />
    <glyph glyph-name="ccaron" unicode="&#x10d;" horiz-adv-x="550" 
d="M497 362l-70 -19q-33 74 -124 74q-75 0 -117.5 -54t-42.5 -138q0 -72 39.5 -122t120.5 -50q91 0 125 78l72 -23q-21 -50 -70 -85.5t-128 -35.5q-111 0 -174.5 67.5t-63.5 170.5q0 118 69 188t171 70q76 0 126.5 -32t66.5 -89zM267 571l-92 128h74l59 -84l60 84h71
l-89 -128h-83z" />
    <glyph glyph-name="Dcaron" unicode="&#x10e;" horiz-adv-x="723" 
d="M102 680h211q78 0 139.5 -20t100.5 -52t64.5 -76.5t36 -90.5t10.5 -97q0 -65 -22.5 -125.5t-64.5 -110t-109.5 -79t-149.5 -29.5h-216v680zM178 611v-542h139q88 0 150 40.5t89 101t27 133.5q0 54 -15 100t-46 84.5t-86 60.5t-128 22h-130zM290 741l-92 128h74l59 -84
l60 84h71l-89 -128h-83z" />
    <glyph glyph-name="dcaron" unicode="&#x10f;" horiz-adv-x="616" 
d="M281 -13q-86 0 -151.5 64t-65.5 184q0 109 66.5 178.5t163.5 69.5q113 0 161 -86h2v309h72v-706h-72v82h-2q-20 -36 -65 -65.5t-109 -29.5zM143 238q0 -90 42.5 -137.5t109.5 -47.5q63 0 112.5 50.5t49.5 137.5q0 76 -44 126.5t-117 50.5q-72 0 -112.5 -51.5
t-40.5 -128.5zM629 483h-48q53 75 53 123q0 34 -22 52l63 22q25 -23 25 -64q0 -60 -71 -133z" />
    <glyph glyph-name="Dcroat" unicode="&#x110;" horiz-adv-x="723" 
d="M102 680h211q78 0 139.5 -20t100.5 -52t64.5 -76.5t36 -90.5t10.5 -97q0 -65 -22.5 -125.5t-64.5 -110t-109.5 -79t-149.5 -29.5h-216v328h-71v63h71v289zM178 611v-220h192v-63h-192v-259h139q88 0 150 40.5t89 101t27 133.5q0 54 -15 100t-46 84.5t-86 60.5t-128 22
h-130z" />
    <glyph glyph-name="dcroat" unicode="&#x111;" horiz-adv-x="616" 
d="M314 542v53h143v111h72v-111h56v-53h-56v-542h-72v82h-2q-20 -36 -65 -65.5t-109 -29.5q-86 0 -151.5 64t-65.5 184q0 109 66.5 178.5t163.5 69.5q113 0 161 -86h2v145h-143zM143 238q0 -90 42.5 -137.5t109.5 -47.5q63 0 112.5 50.5t49.5 137.5q0 76 -44 126.5
t-117 50.5q-72 0 -112.5 -51.5t-40.5 -128.5z" />
    <glyph glyph-name="Emacron" unicode="&#x112;" horiz-adv-x="542" 
d="M95 0v680h383v-69h-307v-228h298v-68h-298v-246h307v-69h-383zM155 772v53h248v-53h-248z" />
    <glyph glyph-name="emacron" unicode="&#x113;" horiz-adv-x="580" 
d="M447 133l66 -26q-61 -120 -217 -120q-60 0 -106 20.5t-73.5 55t-41.5 76.5t-14 88q0 113 66 184.5t175 71.5q99 0 158 -59t59 -175v-31h-379q0 -75 43.5 -120.5t117.5 -45.5q104 0 146 81zM141 278h301q0 61 -37.5 101.5t-103.5 40.5q-77 0 -115 -42t-45 -100zM173 602
v53h248v-53h-248z" />
    <glyph glyph-name="Ebreve" unicode="&#x114;" horiz-adv-x="542" 
d="M95 0v680h383v-69h-307v-228h298v-68h-298v-246h307v-69h-383zM140 869h42q2 -30 28 -50.5t69 -20.5t69 20t29 51h42q-3 -58 -38 -90.5t-102 -32.5q-65 0 -100.5 32.5t-38.5 90.5z" />
    <glyph glyph-name="ebreve" unicode="&#x115;" horiz-adv-x="580" 
d="M447 133l66 -26q-61 -120 -217 -120q-60 0 -106 20.5t-73.5 55t-41.5 76.5t-14 88q0 113 66 184.5t175 71.5q99 0 158 -59t59 -175v-31h-379q0 -75 43.5 -120.5t117.5 -45.5q104 0 146 81zM141 278h301q0 61 -37.5 101.5t-103.5 40.5q-77 0 -115 -42t-45 -100zM159 699
h42q2 -30 28 -50.5t69 -20.5t69 20t29 51h42q-3 -58 -38 -90.5t-102 -32.5q-65 0 -100.5 32.5t-38.5 90.5z" />
    <glyph glyph-name="Edotaccent" unicode="&#x116;" horiz-adv-x="542" 
d="M95 0v680h383v-69h-307v-228h298v-68h-298v-246h307v-69h-383zM235 797q0 21 14.5 35.5t35.5 14.5t36 -14.5t15 -35.5t-15 -36t-36 -15t-35.5 15t-14.5 36z" />
    <glyph glyph-name="edotaccent" unicode="&#x117;" horiz-adv-x="580" 
d="M447 133l66 -26q-61 -120 -217 -120q-60 0 -106 20.5t-73.5 55t-41.5 76.5t-14 88q0 113 66 184.5t175 71.5q99 0 158 -59t59 -175v-31h-379q0 -75 43.5 -120.5t117.5 -45.5q104 0 146 81zM141 278h301q0 61 -37.5 101.5t-103.5 40.5q-77 0 -115 -42t-45 -100zM247 630
q0 23 16.5 39.5t39.5 16.5t39 -16.5t16 -39.5t-16 -39t-39 -16t-39.5 16t-16.5 39z" />
    <glyph glyph-name="Eogonek" unicode="&#x118;" horiz-adv-x="542" 
d="M95 0v680h383v-69h-307v-228h298v-68h-298v-246h307v-69h-57q-72 -70 -72 -118q0 -29 12.5 -39t34.5 -10q19 0 38 7l7 -37q-20 -11 -61 -11q-101 0 -101 76q0 63 98 132h-282z" />
    <glyph glyph-name="eogonek" unicode="&#x119;" horiz-adv-x="580" 
d="M447 133l66 -26q-49 -97 -163 -115q-63 -65 -63 -110q0 -29 12.5 -39t34.5 -10q19 0 38 7l7 -37q-20 -11 -61 -11q-101 0 -101 76q0 59 80 119h-1q-60 0 -106 20.5t-73.5 55t-41.5 76.5t-14 88q0 113 66 184.5t175 71.5q99 0 158 -59t59 -175v-31h-379q0 -75 43.5 -120.5
t117.5 -45.5q104 0 146 81zM141 278h301q0 61 -37.5 101.5t-103.5 40.5q-77 0 -115 -42t-45 -100z" />
    <glyph glyph-name="Ecaron" unicode="&#x11a;" horiz-adv-x="542" 
d="M95 0v680h383v-69h-307v-228h298v-68h-298v-246h307v-69h-383zM248 741l-92 128h74l59 -84l60 84h71l-89 -128h-83z" />
    <glyph glyph-name="ecaron" unicode="&#x11b;" horiz-adv-x="580" 
d="M447 133l66 -26q-61 -120 -217 -120q-60 0 -106 20.5t-73.5 55t-41.5 76.5t-14 88q0 113 66 184.5t175 71.5q99 0 158 -59t59 -175v-31h-379q0 -75 43.5 -120.5t117.5 -45.5q104 0 146 81zM141 278h301q0 61 -37.5 101.5t-103.5 40.5q-77 0 -115 -42t-45 -100zM255 571
l-92 128h74l59 -84l60 84h71l-89 -128h-83z" />
    <glyph glyph-name="Gcircumflex" unicode="&#x11c;" horiz-adv-x="753" 
d="M385 277v68h311q-1 -71 -18.5 -132.5t-52.5 -113.5t-96.5 -82t-143.5 -30q-156 0 -242 96.5t-86 256.5q0 69 22.5 131.5t64 112.5t108 79.5t147.5 29.5q104 0 177 -51t94 -129l-72 -17q-51 129 -212 129q-117 0 -182.5 -81.5t-65.5 -207.5q0 -128 68.5 -204t179.5 -76
q60 0 105.5 21t70.5 56t37.5 70t15.5 74h-230zM441 741l-60 84l-59 -84h-72l90 128h83l91 -128h-73z" />
    <glyph glyph-name="gcircumflex" unicode="&#x11d;" horiz-adv-x="616" 
d="M455 389v81h73v-425q0 -116 -59.5 -180.5t-186.5 -64.5q-87 0 -141.5 35.5t-62.5 97.5l79 9q21 -77 126 -77q172 0 172 199v39h-2q-24 -53 -71 -78t-101 -25q-101 0 -158.5 67.5t-57.5 172.5q0 107 65.5 175t159.5 68q49 0 92.5 -24.5t70.5 -69.5h2zM455 248
q0 68 -42.5 118t-116.5 50q-66 0 -109 -44t-43 -125q0 -84 37 -133t113 -49q62 0 111.5 48t49.5 135zM380 571l-60 84l-59 -84h-72l90 128h83l91 -128h-73z" />
    <glyph glyph-name="Gbreve" unicode="&#x11e;" horiz-adv-x="753" 
d="M385 277v68h311q-1 -71 -18.5 -132.5t-52.5 -113.5t-96.5 -82t-143.5 -30q-156 0 -242 96.5t-86 256.5q0 69 22.5 131.5t64 112.5t108 79.5t147.5 29.5q104 0 177 -51t94 -129l-72 -17q-51 129 -212 129q-117 0 -182.5 -81.5t-65.5 -207.5q0 -128 68.5 -204t179.5 -76
q60 0 105.5 21t70.5 56t37.5 70t15.5 74h-230zM239 869h42q2 -30 28 -50.5t69 -20.5t69 20t29 51h42q-3 -58 -38 -90.5t-102 -32.5q-65 0 -100.5 32.5t-38.5 90.5z" />
    <glyph glyph-name="gbreve" unicode="&#x11f;" horiz-adv-x="616" 
d="M455 389v81h73v-425q0 -116 -59.5 -180.5t-186.5 -64.5q-87 0 -141.5 35.5t-62.5 97.5l79 9q21 -77 126 -77q172 0 172 199v39h-2q-24 -53 -71 -78t-101 -25q-101 0 -158.5 67.5t-57.5 172.5q0 107 65.5 175t159.5 68q49 0 92.5 -24.5t70.5 -69.5h2zM455 248
q0 68 -42.5 118t-116.5 50q-66 0 -109 -44t-43 -125q0 -84 37 -133t113 -49q62 0 111.5 48t49.5 135zM171 699h42q2 -30 28 -50.5t69 -20.5t69 20t29 51h42q-3 -58 -38 -90.5t-102 -32.5q-65 0 -100.5 32.5t-38.5 90.5z" />
    <glyph glyph-name="Gdotaccent" unicode="&#x120;" horiz-adv-x="753" 
d="M385 277v68h311q-1 -71 -18.5 -132.5t-52.5 -113.5t-96.5 -82t-143.5 -30q-156 0 -242 96.5t-86 256.5q0 69 22.5 131.5t64 112.5t108 79.5t147.5 29.5q104 0 177 -51t94 -129l-72 -17q-51 129 -212 129q-117 0 -182.5 -81.5t-65.5 -207.5q0 -128 68.5 -204t179.5 -76
q60 0 105.5 21t70.5 56t37.5 70t15.5 74h-230zM331 797q0 21 14.5 35.5t35.5 14.5t36 -14.5t15 -35.5t-15 -36t-36 -15t-35.5 15t-14.5 36z" />
    <glyph glyph-name="gdotaccent" unicode="&#x121;" horiz-adv-x="616" 
d="M455 389v81h73v-425q0 -116 -59.5 -180.5t-186.5 -64.5q-87 0 -141.5 35.5t-62.5 97.5l79 9q21 -77 126 -77q172 0 172 199v39h-2q-24 -53 -71 -78t-101 -25q-101 0 -158.5 67.5t-57.5 172.5q0 107 65.5 175t159.5 68q49 0 92.5 -24.5t70.5 -69.5h2zM455 248
q0 68 -42.5 118t-116.5 50q-66 0 -109 -44t-43 -125q0 -84 37 -133t113 -49q62 0 111.5 48t49.5 135zM247 630q0 23 16.5 39.5t39.5 16.5t39 -16.5t16 -39.5t-16 -39t-39 -16t-39.5 16t-16.5 39z" />
    <glyph glyph-name="Gcommaaccent" unicode="&#x122;" horiz-adv-x="753" 
d="M385 277v68h311q-1 -71 -18.5 -132.5t-52.5 -113.5t-96.5 -82t-143.5 -30q-156 0 -242 96.5t-86 256.5q0 69 22.5 131.5t64 112.5t108 79.5t147.5 29.5q104 0 177 -51t94 -129l-72 -17q-51 129 -212 129q-117 0 -182.5 -81.5t-65.5 -207.5q0 -128 68.5 -204t179.5 -76
q60 0 105.5 21t70.5 56t37.5 70t15.5 74h-230zM369 -250h-48q53 71 53 123q0 34 -22 52l63 22q25 -23 25 -64q0 -60 -71 -133z" />
    <glyph glyph-name="gcommaaccent" unicode="&#x123;" horiz-adv-x="616" 
d="M455 389v81h73v-425q0 -116 -59.5 -180.5t-186.5 -64.5q-87 0 -141.5 35.5t-62.5 97.5l79 9q21 -77 126 -77q172 0 172 199v39h-2q-24 -53 -71 -78t-101 -25q-101 0 -158.5 67.5t-57.5 172.5q0 107 65.5 175t159.5 68q49 0 92.5 -24.5t70.5 -69.5h2zM455 248
q0 68 -42.5 118t-116.5 50q-66 0 -109 -44t-43 -125q0 -84 37 -133t113 -49q62 0 111.5 48t49.5 135zM314 759h48q-53 -75 -53 -123q0 -34 22 -52l-63 -22q-25 23 -25 64q0 60 71 133z" />
    <glyph glyph-name="Hcircumflex" unicode="&#x124;" horiz-adv-x="714" 
d="M95 0v680h76v-297h372v297h76v-680h-76v315h-372v-315h-76zM416 741l-60 84l-59 -84h-72l90 128h83l91 -128h-73z" />
    <glyph glyph-name="hcircumflex" unicode="&#x125;" horiz-adv-x="572" 
d="M416 0v283q0 68 -34 98t-80 30q-55 0 -98.5 -41t-43.5 -109v-261h-74v706h74v-317h1q46 87 161 87q25 0 50.5 -7t53.5 -23.5t46 -50t18 -79.5v-316h-74zM348 731l-60 84l-59 -84h-72l90 128h83l91 -128h-73z" />
    <glyph glyph-name="Hbar" unicode="&#x126;" horiz-adv-x="714" 
d="M58 477v40h37v163h76v-163h372v163h76v-163h37v-40h-37v-477h-76v315h-372v-315h-76v477h-37zM171 383h372v94h-372v-94z" />
    <glyph glyph-name="hbar" unicode="&#x127;" horiz-adv-x="572" 
d="M24 542v53h62v111h74v-111h143v-53h-143v-153h1q46 87 161 87q25 0 50.5 -7t53.5 -23.5t46 -50t18 -79.5v-316h-74v283q0 68 -34 98t-80 30q-55 0 -98.5 -41t-43.5 -109v-261h-74v542h-62z" />
    <glyph glyph-name="Itilde" unicode="&#x128;" horiz-adv-x="289" 
d="M107 0v680h76v-680h-76zM38 748h-46q12 99 94 99q30 0 69 -15q50 -19 58 -19q20 0 29.5 13t10.5 28h46q-12 -99 -94 -99q-27 0 -70 15q-42 19 -57 19q-20 0 -29.5 -13t-10.5 -28z" />
    <glyph glyph-name="itilde" unicode="&#x129;" horiz-adv-x="261" 
d="M93 0v470h74v-470h-74zM21 578h-46q12 99 94 99q30 0 69 -15q50 -19 58 -19q20 0 29.5 13t10.5 28h46q-12 -99 -94 -99q-27 0 -70 15q-42 19 -57 19q-20 0 -29.5 -13t-10.5 -28z" />
    <glyph glyph-name="Imacron" unicode="&#x12a;" horiz-adv-x="289" 
d="M107 0v680h76v-680h-76zM19 772v53h248v-53h-248z" />
    <glyph glyph-name="imacron" unicode="&#x12b;" horiz-adv-x="261" 
d="M93 0v470h74v-470h-74zM6 602v53h248v-53h-248z" />
    <glyph glyph-name="Iogonek" unicode="&#x12e;" horiz-adv-x="289" 
d="M107 0v680h76v-680h-13q-72 -70 -72 -118q0 -29 12.5 -39t34.5 -10q19 0 38 7l7 -37q-20 -11 -61 -11q-101 0 -101 76q0 63 98 132h-19z" />
    <glyph glyph-name="iogonek" unicode="&#x12f;" horiz-adv-x="261" 
d="M93 0v470h74v-470q-71 -69 -71 -118q0 -29 12.5 -39t34.5 -10q19 0 38 7l7 -37q-20 -11 -61 -11q-101 0 -101 76q0 63 98 132h-31zM75 630q0 23 16.5 39.5t39.5 16.5t39 -16.5t16 -39.5t-16 -39t-39 -16t-39.5 16t-16.5 39z" />
    <glyph glyph-name="Idotaccent" unicode="&#x130;" horiz-adv-x="289" 
d="M107 0v680h76v-680h-76zM94 797q0 21 14.5 35.5t35.5 14.5t36 -14.5t15 -35.5t-15 -36t-36 -15t-35.5 15t-14.5 36z" />
    <glyph glyph-name="dotlessi" unicode="&#x131;" horiz-adv-x="261" 
d="M93 0v470h74v-470h-74z" />
    <glyph glyph-name="Jcircumflex" unicode="&#x134;" horiz-adv-x="401" 
d="M315 680v-476q0 -105 -41.5 -161t-155.5 -56q-49 0 -76 8v68q38 -7 74 -7q76 0 100 38.5t24 126.5v390h-127v69h202zM288 741l-60 84l-59 -84h-72l90 128h83l91 -128h-73z" />
    <glyph glyph-name="jcircumflex" unicode="&#x135;" horiz-adv-x="261" 
d="M5 -197v65h23q36 0 51.5 16t15.5 60v526h74v-531q0 -71 -31.5 -103.5t-109.5 -32.5h-23zM190 571l-60 84l-59 -84h-72l90 128h83l91 -128h-73z" />
    <glyph glyph-name="Kcommaaccent" unicode="&#x136;" horiz-adv-x="597" 
d="M95 0v680h76v-321h2l293 321h102l-311 -326l315 -354h-105l-294 344h-2v-344h-76zM271 -250h-48q53 71 53 123q0 34 -22 52l63 22q25 -23 25 -64q0 -60 -71 -133z" />
    <glyph glyph-name="kcommaaccent" unicode="&#x137;" horiz-adv-x="507" 
d="M384 0l-224 247v-247h-74v706h74v-444l222 208h101l-237 -215l240 -255h-102zM224 -250h-48q53 71 53 123q0 34 -22 52l63 22q25 -23 25 -64q0 -60 -71 -133z" />
    <glyph glyph-name="Lacute" unicode="&#x139;" horiz-adv-x="497" 
d="M95 0v680h76v-611h291v-69h-367zM111 741l80 128h98l-118 -128h-60z" />
    <glyph glyph-name="lacute" unicode="&#x13a;" horiz-adv-x="261" 
d="M93 0v706h74v-706h-74zM100 788l79 108h97l-117 -108h-59z" />
    <glyph glyph-name="Lcommaaccent" unicode="&#x13b;" horiz-adv-x="497" 
d="M95 0v680h76v-611h291v-69h-367zM254 -250h-48q53 71 53 123q0 34 -22 52l63 22q25 -23 25 -64q0 -60 -71 -133z" />
    <glyph glyph-name="lcommaaccent" unicode="&#x13c;" horiz-adv-x="261" 
d="M93 0v706h74v-706h-74zM109 -250h-48q53 71 53 123q0 34 -22 52l63 22q25 -23 25 -64q0 -60 -71 -133z" />
    <glyph glyph-name="Lcaron" unicode="&#x13d;" horiz-adv-x="497" 
d="M95 0v680h76v-611h291v-69h-367zM372 483h-48q53 75 53 123q0 34 -22 52l63 22q25 -23 25 -64q0 -60 -71 -133z" />
    <glyph glyph-name="lcaron" unicode="&#x13e;" horiz-adv-x="261" 
d="M93 0v706h74v-706h-74zM255 483h-48q53 75 53 123q0 34 -22 52l63 22q25 -23 25 -64q0 -60 -71 -133z" />
    <glyph glyph-name="Ldot" unicode="&#x13f;" horiz-adv-x="497" 
d="M95 0v680h76v-611h291v-69h-367zM310 393q0 23 16.5 39.5t39.5 16.5t39 -16.5t16 -39.5t-16 -39t-39 -16t-39.5 16t-16.5 39z" />
    <glyph glyph-name="ldot" unicode="&#x140;" horiz-adv-x="416" 
d="M93 0v706h74v-706h-74zM277 417q0 23 16.5 39.5t39.5 16.5t39 -16.5t16 -39.5t-16 -39t-39 -16t-39.5 16t-16.5 39z" />
    <glyph glyph-name="Lslash" unicode="&#x141;" horiz-adv-x="497" 
d="M95 0v271l-77 -46v69l77 47v339h76v-293l183 109v-68l-183 -110v-249h291v-69h-367z" />
    <glyph glyph-name="lslash" unicode="&#x142;" horiz-adv-x="261" 
d="M93 0v401l-68 -42v57l68 41v249h74v-204l69 41v-56l-69 -41v-446h-74z" />
    <glyph glyph-name="Nacute" unicode="&#x143;" horiz-adv-x="723" 
d="M95 0v680h82l374 -561h1v561h76v-680h-82l-373 560h-2v-560h-76zM322 741l80 128h98l-118 -128h-60z" />
    <glyph glyph-name="nacute" unicode="&#x144;" horiz-adv-x="572" 
d="M415 0v283q0 68 -34 98t-80 30q-55 0 -98 -41t-43 -109v-261h-74v470h74v-81h1q46 87 160 87q25 0 50.5 -7t53.5 -23.5t46 -50t18 -79.5v-316h-74zM227 571l80 128h98l-118 -128h-60z" />
    <glyph glyph-name="Ncommaaccent" unicode="&#x145;" horiz-adv-x="723" 
d="M95 0v680h82l374 -561h1v561h76v-680h-82l-373 560h-2v-560h-76zM326 -250h-48q53 71 53 123q0 34 -22 52l63 22q25 -23 25 -64q0 -60 -71 -133z" />
    <glyph glyph-name="ncommaaccent" unicode="&#x146;" horiz-adv-x="572" 
d="M415 0v283q0 68 -34 98t-80 30q-55 0 -98 -41t-43 -109v-261h-74v470h74v-81h1q46 87 160 87q25 0 50.5 -7t53.5 -23.5t46 -50t18 -79.5v-316h-74zM260 -250h-48q53 71 53 123q0 34 -22 52l63 22q25 -23 25 -64q0 -60 -71 -133z" />
    <glyph glyph-name="Ncaron" unicode="&#x147;" horiz-adv-x="723" 
d="M95 0v680h82l374 -561h1v561h76v-680h-82l-373 560h-2v-560h-76zM320 741l-92 128h74l59 -84l60 84h71l-89 -128h-83z" />
    <glyph glyph-name="ncaron" unicode="&#x148;" horiz-adv-x="572" 
d="M415 0v283q0 68 -34 98t-80 30q-55 0 -98 -41t-43 -109v-261h-74v470h74v-81h1q46 87 160 87q25 0 50.5 -7t53.5 -23.5t46 -50t18 -79.5v-316h-74zM246 571l-92 128h74l59 -84l60 84h71l-89 -128h-83z" />
    <glyph glyph-name="Omacron" unicode="&#x14c;" horiz-adv-x="805" 
d="M666 340q0 53 -15 102t-45.5 91t-83 67t-120.5 25t-120.5 -25t-83 -67t-45.5 -91t-15 -102q0 -55 15 -104t45.5 -90t83 -65t120.5 -24q69 0 121.5 24t82.5 65t45 90t15 104zM57 340q0 152 98.5 252.5t246.5 100.5q152 0 249 -96t97 -257q0 -152 -99 -252.5t-247 -100.5
q-153 0 -249 95.5t-96 257.5zM285 772v53h248v-53h-248z" />
    <glyph glyph-name="omacron" unicode="&#x14d;" horiz-adv-x="613" 
d="M549 235q0 -100 -65.5 -174t-177.5 -74q-119 0 -180.5 72.5t-61.5 175.5q0 100 65 174t177 74q120 0 181.5 -72.5t61.5 -175.5zM143 235q0 -81 44.5 -131.5t118.5 -50.5q75 0 119.5 50.5t44.5 131.5q0 80 -44.5 130.5t-119.5 50.5q-74 0 -118.5 -50.5t-44.5 -130.5z
M188 602v53h248v-53h-248z" />
    <glyph glyph-name="Obreve" unicode="&#x14e;" horiz-adv-x="805" 
d="M666 340q0 53 -15 102t-45.5 91t-83 67t-120.5 25t-120.5 -25t-83 -67t-45.5 -91t-15 -102q0 -55 15 -104t45.5 -90t83 -65t120.5 -24q69 0 121.5 24t82.5 65t45 90t15 104zM57 340q0 152 98.5 252.5t246.5 100.5q152 0 249 -96t97 -257q0 -152 -99 -252.5t-247 -100.5
q-153 0 -249 95.5t-96 257.5zM274 869h42q2 -30 28 -50.5t69 -20.5t69 20t29 51h42q-3 -58 -38 -90.5t-102 -32.5q-65 0 -100.5 32.5t-38.5 90.5z" />
    <glyph glyph-name="obreve" unicode="&#x14f;" horiz-adv-x="613" 
d="M549 235q0 -100 -65.5 -174t-177.5 -74q-119 0 -180.5 72.5t-61.5 175.5q0 100 65 174t177 74q120 0 181.5 -72.5t61.5 -175.5zM143 235q0 -81 44.5 -131.5t118.5 -50.5q75 0 119.5 50.5t44.5 131.5q0 80 -44.5 130.5t-119.5 50.5q-74 0 -118.5 -50.5t-44.5 -130.5z
M175 699h42q2 -30 28 -50.5t69 -20.5t69 20t29 51h42q-3 -58 -38 -90.5t-102 -32.5q-65 0 -100.5 32.5t-38.5 90.5z" />
    <glyph glyph-name="Ohungarumlaut" unicode="&#x150;" horiz-adv-x="805" 
d="M666 340q0 53 -15 102t-45.5 91t-83 67t-120.5 25t-120.5 -25t-83 -67t-45.5 -91t-15 -102q0 -55 15 -104t45.5 -90t83 -65t120.5 -24q69 0 121.5 24t82.5 65t45 90t15 104zM57 340q0 152 98.5 252.5t246.5 100.5q152 0 249 -96t97 -257q0 -152 -99 -252.5t-247 -100.5
q-153 0 -249 95.5t-96 257.5zM453 741l80 128h97l-117 -128h-60zM298 741l79 128h98l-118 -128h-59z" />
    <glyph glyph-name="ohungarumlaut" unicode="&#x151;" horiz-adv-x="613" 
d="M549 235q0 -100 -65.5 -174t-177.5 -74q-119 0 -180.5 72.5t-61.5 175.5q0 100 65 174t177 74q120 0 181.5 -72.5t61.5 -175.5zM143 235q0 -81 44.5 -131.5t118.5 -50.5q75 0 119.5 50.5t44.5 131.5q0 80 -44.5 130.5t-119.5 50.5q-74 0 -118.5 -50.5t-44.5 -130.5z
M355 571l80 128h97l-117 -128h-60zM200 571l79 128h98l-118 -128h-59z" />
    <glyph glyph-name="OE" unicode="&#x152;" horiz-adv-x="950" 
d="M540 680h346v-69h-271v-228h262v-68h-262v-246h271v-69h-346v107h-2q-65 -120 -199 -120q-97 0 -164 51.5t-95.5 129t-28.5 172.5q0 75 17 136t45.5 100.5t66 66t77.5 38t82 11.5q46 0 82.5 -11.5t59.5 -32t34.5 -35t22.5 -34.5h2v101zM540 351q0 130 -52.5 201.5
t-149.5 71.5q-95 0 -150.5 -77t-55.5 -196q0 -146 54.5 -220.5t152.5 -74.5q94 0 147.5 79.5t53.5 215.5z" />
    <glyph glyph-name="oe" unicode="&#x153;" horiz-adv-x="930" 
d="M797 133l66 -26q-61 -120 -207 -120q-135 0 -184 109q-50 -109 -179 -109q-61 0 -106.5 21t-71.5 56.5t-38.5 78.5t-12.5 92q0 102 59 175t170 73q131 0 183 -111q63 111 186 111q97 0 152 -58.5t55 -175.5v-31h-359q1 -76 40.5 -121t110.5 -45q94 0 136 81zM143 235
q0 -82 40 -132t113 -50q67 0 104.5 50t37.5 132q0 81 -37.5 131t-104.5 50q-73 0 -113 -50t-40 -131zM511 278h281q0 62 -33 102t-98 40q-70 0 -106.5 -42t-43.5 -100z" />
    <glyph glyph-name="Racute" unicode="&#x154;" horiz-adv-x="597" 
d="M171 360h135q70 0 110.5 31.5t40.5 92.5q0 127 -155 127h-131v-251zM471 0l-167 291h-133v-291h-76v680h211q65 0 112 -16t72 -44t36.5 -59t11.5 -67q0 -85 -44.5 -132t-110.5 -64l181 -298h-93zM233 741l80 128h98l-118 -128h-60z" />
    <glyph glyph-name="racute" unicode="&#x155;" horiz-adv-x="374" 
d="M86 0v470h72v-114h2q17 42 65.5 81t103.5 39h26v-71h-24q-72 0 -121.5 -55t-49.5 -137v-213h-74zM145 571l80 128h98l-118 -128h-60z" />
    <glyph glyph-name="Rcommaaccent" unicode="&#x156;" horiz-adv-x="597" 
d="M171 360h135q70 0 110.5 31.5t40.5 92.5q0 127 -155 127h-131v-251zM471 0l-167 291h-133v-291h-76v680h211q65 0 112 -16t72 -44t36.5 -59t11.5 -67q0 -85 -44.5 -132t-110.5 -64l181 -298h-93zM286 -250h-48q53 71 53 123q0 34 -22 52l63 22q25 -23 25 -64
q0 -60 -71 -133z" />
    <glyph glyph-name="rcommaaccent" unicode="&#x157;" horiz-adv-x="374" 
d="M86 0v470h72v-114h2q17 42 65.5 81t103.5 39h26v-71h-24q-72 0 -121.5 -55t-49.5 -137v-213h-74zM100 -250h-48q53 71 53 123q0 34 -22 52l63 22q25 -23 25 -64q0 -60 -71 -133z" />
    <glyph glyph-name="Rcaron" unicode="&#x158;" horiz-adv-x="597" 
d="M171 360h135q70 0 110.5 31.5t40.5 92.5q0 127 -155 127h-131v-251zM471 0l-167 291h-133v-291h-76v680h211q65 0 112 -16t72 -44t36.5 -59t11.5 -67q0 -85 -44.5 -132t-110.5 -64l181 -298h-93zM250 741l-92 128h74l59 -84l60 84h71l-89 -128h-83z" />
    <glyph glyph-name="rcaron" unicode="&#x159;" horiz-adv-x="374" 
d="M86 0v470h72v-114h2q17 42 65.5 81t103.5 39h26v-71h-24q-72 0 -121.5 -55t-49.5 -137v-213h-74zM128 571l-92 128h74l59 -84l60 84h71l-89 -128h-83z" />
    <glyph glyph-name="Sacute" unicode="&#x15a;" horiz-adv-x="603" 
d="M534 504h-77q-4 53 -41 87t-113 34q-73 0 -113.5 -33.5t-40.5 -84.5t32.5 -79t122.5 -45q135 -25 190 -65.5t55 -125.5t-62.5 -145t-186.5 -60q-114 0 -176 52.5t-70 148.5h77q15 -132 173 -132q81 0 122 38.5t41 89.5q0 55 -34 79.5t-127 43.5q-127 26 -180 65.5
t-53 132.5q0 83 65 135.5t164 52.5q217 0 232 -189zM254 741l80 128h98l-118 -128h-60z" />
    <glyph glyph-name="sacute" unicode="&#x15b;" horiz-adv-x="500" 
d="M443 335h-72q-9 89 -116 89q-47 0 -80 -21.5t-33 -58.5q0 -36 24 -50t93 -24q95 -14 141.5 -42.5t46.5 -96.5q0 -61 -48.5 -102.5t-150.5 -41.5q-105 0 -148.5 37t-50.5 106h74q5 -82 123 -82q58 0 93 19.5t35 58.5q0 36 -28 53.5t-110 29.5q-84 11 -125 37.5t-41 91.5
q0 71 53.5 108t138.5 37q81 0 131 -38.5t50 -109.5zM208 571l80 128h98l-118 -128h-60z" />
    <glyph glyph-name="Scircumflex" unicode="&#x15c;" horiz-adv-x="603" 
d="M534 504h-77q-4 53 -41 87t-113 34q-73 0 -113.5 -33.5t-40.5 -84.5t32.5 -79t122.5 -45q135 -25 190 -65.5t55 -125.5t-62.5 -145t-186.5 -60q-114 0 -176 52.5t-70 148.5h77q15 -132 173 -132q81 0 122 38.5t41 89.5q0 55 -34 79.5t-127 43.5q-127 26 -180 65.5
t-53 132.5q0 83 65 135.5t164 52.5q217 0 232 -189zM369 741l-60 84l-59 -84h-72l90 128h83l91 -128h-73z" />
    <glyph glyph-name="scircumflex" unicode="&#x15d;" horiz-adv-x="500" 
d="M443 335h-72q-9 89 -116 89q-47 0 -80 -21.5t-33 -58.5q0 -36 24 -50t93 -24q95 -14 141.5 -42.5t46.5 -96.5q0 -61 -48.5 -102.5t-150.5 -41.5q-105 0 -148.5 37t-50.5 106h74q5 -82 123 -82q58 0 93 19.5t35 58.5q0 36 -28 53.5t-110 29.5q-84 11 -125 37.5t-41 91.5
q0 71 53.5 108t138.5 37q81 0 131 -38.5t50 -109.5zM327 571l-60 84l-59 -84h-72l90 128h83l91 -128h-73z" />
    <glyph glyph-name="Scedilla" unicode="&#x15e;" horiz-adv-x="603" 
d="M239 -95l-11 15l42 68q-101 8 -156 59.5t-60 140.5h77q22 -132 173 -132q81 0 122 38.5t41 89.5q0 55 -34 79.5t-127 43.5q-123 25 -178 66.5t-55 123.5q0 84 64 140t165 56q207 0 232 -189h-77q-4 49 -41.5 85t-112.5 36q-76 0 -115 -37.5t-39 -90.5q0 -83 152 -112
q134 -25 191 -66.5t57 -126.5q0 -83 -59.5 -142t-177.5 -63l-21 -39l1 -1q5 1 21 1q35 0 60 -18t25 -54q0 -49 -34 -71t-82 -22q-47 0 -78 11l7 38q31 -6 61 -6q66 0 66 44q0 40 -59 40q-27 0 -40 -5z" />
    <glyph glyph-name="scedilla" unicode="&#x15f;" horiz-adv-x="500" 
d="M194 -95l-11 15l41 68q-92 3 -130 39.5t-45 102.5h74q5 -82 123 -82q128 0 128 77q0 36 -28 53t-110 29q-83 11 -124.5 38t-41.5 93q0 71 53.5 108t138.5 37q81 0 131 -38.5t50 -109.5h-72q-9 89 -116 89q-47 0 -80 -21.5t-33 -58.5q0 -36 24.5 -51t92.5 -25
q95 -14 141.5 -42.5t46.5 -95.5q0 -57 -44 -98t-136 -44l-21 -40l1 -1q5 1 21 1q35 0 60 -18t25 -54q0 -49 -34 -71t-82 -22q-47 0 -78 11l7 38q32 -6 61 -6q66 0 66 44q0 40 -59 40q-27 0 -40 -5z" />
    <glyph glyph-name="Scaron" unicode="&#x160;" horiz-adv-x="603" 
d="M534 504h-77q-4 53 -41 87t-113 34q-73 0 -113.5 -33.5t-40.5 -84.5t32.5 -79t122.5 -45q135 -25 190 -65.5t55 -125.5t-62.5 -145t-186.5 -60q-114 0 -176 52.5t-70 148.5h77q15 -132 173 -132q81 0 122 38.5t41 89.5q0 55 -34 79.5t-127 43.5q-127 26 -180 65.5
t-53 132.5q0 83 65 135.5t164 52.5q217 0 232 -189zM275 741l-92 128h74l59 -84l60 84h71l-89 -128h-83z" />
    <glyph glyph-name="scaron" unicode="&#x161;" horiz-adv-x="500" 
d="M443 335h-72q-9 89 -116 89q-47 0 -80 -21.5t-33 -58.5q0 -36 24 -50t93 -24q95 -14 141.5 -42.5t46.5 -96.5q0 -61 -48.5 -102.5t-150.5 -41.5q-105 0 -148.5 37t-50.5 106h74q5 -82 123 -82q58 0 93 19.5t35 58.5q0 36 -28 53.5t-110 29.5q-84 11 -125 37.5t-41 91.5
q0 71 53.5 108t138.5 37q81 0 131 -38.5t50 -109.5zM220 571l-92 128h74l59 -84l60 84h71l-89 -128h-83z" />
    <glyph glyph-name="Tcommaaccent" unicode="&#x162;" horiz-adv-x="524" 
d="M224 0v611h-206v69h488v-69h-206v-611h-76zM242 -250h-48q53 71 53 123q0 34 -22 52l63 22q25 -23 25 -64q0 -60 -71 -133z" />
    <glyph glyph-name="tcommaaccent" unicode="&#x163;" horiz-adv-x="343" 
d="M17 410v60h93v136h73v-136h140v-60h-140v-273q0 -77 69 -77q26 0 49 3v-64q-36 -4 -68 -4q-62 0 -92.5 29.5t-30.5 97.5v288h-93zM176 -250h-48q53 71 53 123q0 34 -22 52l63 22q25 -23 25 -64q0 -60 -71 -133z" />
    <glyph glyph-name="Tcaron" unicode="&#x164;" horiz-adv-x="524" 
d="M224 0v611h-206v69h488v-69h-206v-611h-76zM222 741l-92 128h74l59 -84l60 84h71l-89 -128h-83z" />
    <glyph glyph-name="tcaron" unicode="&#x165;" horiz-adv-x="343" 
d="M17 410v60h93v136h73v-136h140v-60h-140v-273q0 -77 69 -77q26 0 49 3v-64q-36 -4 -68 -4q-62 0 -92.5 29.5t-30.5 97.5v288h-93zM318 533h-48q53 75 53 123q0 34 -22 52l63 22q25 -23 25 -64q0 -60 -71 -133z" />
    <glyph glyph-name="Tbar" unicode="&#x166;" horiz-adv-x="524" 
d="M93 407v58h131v146h-206v69h488v-69h-206v-146h136v-58h-136v-407h-76v407h-131z" />
    <glyph glyph-name="tbar" unicode="&#x167;" horiz-adv-x="343" 
d="M24 272v44h86v94h-93v60h93v136h73v-136h140v-60h-140v-94h118v-44h-118v-135q0 -77 69 -77q26 0 49 3v-64q-36 -4 -68 -4q-62 0 -92.5 29.5t-30.5 97.5v150h-86z" />
    <glyph glyph-name="Utilde" unicode="&#x168;" horiz-adv-x="687" 
d="M89 225v455h76v-443q0 -90 48.5 -135.5t130.5 -45.5q77 0 127.5 49t50.5 147v428h76v-429q0 -128 -72 -196t-182 -68q-122 0 -188.5 65t-66.5 173zM237 748h-46q12 99 94 99q30 0 69 -15q50 -19 58 -19q20 0 29.5 13t10.5 28h46q-12 -99 -94 -99q-27 0 -70 15
q-42 19 -57 19q-20 0 -29.5 -13t-10.5 -28z" />
    <glyph glyph-name="utilde" unicode="&#x169;" horiz-adv-x="572" 
d="M156 470v-284q0 -68 34 -98t80 -30q56 0 99.5 41t43.5 110v261h73v-470h-73v80h-2q-46 -87 -161 -87q-25 0 -50.5 7t-53.5 23.5t-45.5 50.5t-17.5 80v316h73zM184 578h-46q12 99 94 99q30 0 69 -15q50 -19 58 -19q20 0 29.5 13t10.5 28h46q-12 -99 -94 -99q-27 0 -70 15
q-42 19 -57 19q-20 0 -29.5 -13t-10.5 -28z" />
    <glyph glyph-name="Umacron" unicode="&#x16a;" horiz-adv-x="687" 
d="M89 225v455h76v-443q0 -90 48.5 -135.5t130.5 -45.5q77 0 127.5 49t50.5 147v428h76v-429q0 -128 -72 -196t-182 -68q-122 0 -188.5 65t-66.5 173zM218 772v53h248v-53h-248z" />
    <glyph glyph-name="umacron" unicode="&#x16b;" horiz-adv-x="572" 
d="M156 470v-284q0 -68 34 -98t80 -30q56 0 99.5 41t43.5 110v261h73v-470h-73v80h-2q-46 -87 -161 -87q-25 0 -50.5 7t-53.5 23.5t-45.5 50.5t-17.5 80v316h73zM168 602v53h248v-53h-248z" />
    <glyph glyph-name="Ubreve" unicode="&#x16c;" horiz-adv-x="687" 
d="M89 225v455h76v-443q0 -90 48.5 -135.5t130.5 -45.5q77 0 127.5 49t50.5 147v428h76v-429q0 -128 -72 -196t-182 -68q-122 0 -188.5 65t-66.5 173zM209 869h42q2 -30 28 -50.5t69 -20.5t69 20t29 51h42q-3 -58 -38 -90.5t-102 -32.5q-65 0 -100.5 32.5t-38.5 90.5z" />
    <glyph glyph-name="ubreve" unicode="&#x16d;" horiz-adv-x="572" 
d="M156 470v-284q0 -68 34 -98t80 -30q56 0 99.5 41t43.5 110v261h73v-470h-73v80h-2q-46 -87 -161 -87q-25 0 -50.5 7t-53.5 23.5t-45.5 50.5t-17.5 80v316h73zM142 699h42q2 -30 28 -50.5t69 -20.5t69 20t29 51h42q-3 -58 -38 -90.5t-102 -32.5q-65 0 -100.5 32.5
t-38.5 90.5z" />
    <glyph glyph-name="Uring" unicode="&#x16e;" horiz-adv-x="687" 
d="M89 225v455h76v-443q0 -90 48.5 -135.5t130.5 -45.5q77 0 127.5 49t50.5 147v428h76v-429q0 -128 -72 -196t-182 -68q-122 0 -188.5 65t-66.5 173zM256 818q0 38 27 65.5t65 27.5t65.5 -27.5t27.5 -65.5t-27.5 -65t-65.5 -27t-65 27t-27 65zM404 818q0 23 -16.5 39.5
t-39.5 16.5t-39.5 -16.5t-16.5 -39.5t16.5 -39.5t39.5 -16.5t39.5 16.5t16.5 39.5z" />
    <glyph glyph-name="uring" unicode="&#x16f;" horiz-adv-x="572" 
d="M156 470v-284q0 -68 34 -98t80 -30q56 0 99.5 41t43.5 110v261h73v-470h-73v80h-2q-46 -87 -161 -87q-25 0 -50.5 7t-53.5 23.5t-45.5 50.5t-17.5 80v316h73zM200 648q0 38 27 65.5t65 27.5t65.5 -27.5t27.5 -65.5t-27.5 -65t-65.5 -27t-65 27t-27 65zM348 648
q0 23 -16.5 39.5t-39.5 16.5t-39.5 -16.5t-16.5 -39.5t16.5 -39.5t39.5 -16.5t39.5 16.5t16.5 39.5z" />
    <glyph glyph-name="Uhungarumlaut" unicode="&#x170;" horiz-adv-x="687" 
d="M89 225v455h76v-443q0 -90 48.5 -135.5t130.5 -45.5q77 0 127.5 49t50.5 147v428h76v-429q0 -128 -72 -196t-182 -68q-122 0 -188.5 65t-66.5 173zM390 741l80 128h97l-117 -128h-60zM235 741l79 128h98l-118 -128h-59z" />
    <glyph glyph-name="uhungarumlaut" unicode="&#x171;" horiz-adv-x="572" 
d="M156 470v-284q0 -68 34 -98t80 -30q56 0 99.5 41t43.5 110v261h73v-470h-73v80h-2q-46 -87 -161 -87q-25 0 -50.5 7t-53.5 23.5t-45.5 50.5t-17.5 80v316h73zM341 571l80 128h97l-117 -128h-60zM186 571l79 128h98l-118 -128h-59z" />
    <glyph glyph-name="Uogonek" unicode="&#x172;" horiz-adv-x="687" 
d="M89 225v455h76v-443q0 -90 48.5 -135.5t130.5 -45.5q77 0 127.5 49t50.5 147v428h76v-429q0 -115 -59 -181.5t-154 -79.5q-61 -61 -61 -108q0 -29 12.5 -39t34.5 -10q19 0 38 7l7 -37q-20 -11 -61 -11q-101 0 -101 76q0 59 80 119q-117 2 -181 67t-64 171z" />
    <glyph glyph-name="uogonek" unicode="&#x173;" horiz-adv-x="572" 
d="M414 0h-1v80h-2q-46 -87 -161 -87q-25 0 -50.5 7t-53.5 23.5t-45.5 50.5t-17.5 80v316h73v-284q0 -68 34 -98t80 -30q56 0 99.5 41t43.5 110v261h73v-470h-28q-72 -70 -72 -118q0 -29 12.5 -39t34.5 -10q19 0 38 7l7 -37q-20 -11 -61 -11q-101 0 -101 76q0 63 98 132z
" />
    <glyph glyph-name="Wcircumflex" unicode="&#x174;" horiz-adv-x="904" 
d="M636 0l-181 568h-2l-190 -568h-70l-170 680h83l131 -562h2l184 562h71l178 -567h1l134 567h78l-180 -680h-69zM518 741l-60 84l-59 -84h-72l90 128h83l91 -128h-73z" />
    <glyph glyph-name="wcircumflex" unicode="&#x175;" horiz-adv-x="769" 
d="M193 0l-163 470h81l118 -359h2l119 359h69l125 -359h2l116 359h78l-161 -470h-72l-121 358h-2l-123 -358h-68zM447 571l-60 84l-59 -84h-72l90 128h83l91 -128h-73z" />
    <glyph glyph-name="Ycircumflex" unicode="&#x176;" horiz-adv-x="570" 
d="M250 0v278l-235 402h96l179 -335l176 335h90l-231 -402v-278h-75zM349 741l-60 84l-59 -84h-72l90 128h83l91 -128h-73z" />
    <glyph glyph-name="ycircumflex" unicode="&#x177;" horiz-adv-x="507" 
d="M122 -200l90 209l-186 461h85l143 -382h2l145 382h80l-279 -670h-80zM311 571l-60 84l-59 -84h-72l90 128h83l91 -128h-73z" />
    <glyph glyph-name="Ydieresis" unicode="&#x178;" horiz-adv-x="570" 
d="M250 0v278l-235 402h96l179 -335l176 335h90l-231 -402v-278h-75zM333 797q0 21 14.5 35.5t35.5 14.5t36 -14.5t15 -35.5t-15 -36t-36 -15t-35.5 15t-14.5 36zM147 797q0 21 14.5 35.5t35.5 14.5t36 -14.5t15 -35.5t-15 -36t-36 -15t-35.5 15t-14.5 36z" />
    <glyph glyph-name="Zacute" unicode="&#x179;" horiz-adv-x="588" 
d="M37 0v63l418 548h-385v69h481v-63l-417 -548h407v-69h-504zM270 741l80 128h98l-118 -128h-60z" />
    <glyph glyph-name="zacute" unicode="&#x17a;" horiz-adv-x="469" 
d="M53 0v63l273 342h-264v65h354v-63l-273 -342h273v-65h-363zM213 571l80 128h98l-118 -128h-60z" />
    <glyph glyph-name="Zdotaccent" unicode="&#x17b;" horiz-adv-x="588" 
d="M37 0v63l418 548h-385v69h481v-63l-417 -548h407v-69h-504zM250 797q0 21 14.5 35.5t35.5 14.5t36 -14.5t15 -35.5t-15 -36t-36 -15t-35.5 15t-14.5 36z" />
    <glyph glyph-name="zdotaccent" unicode="&#x17c;" horiz-adv-x="469" 
d="M53 0v63l273 342h-264v65h354v-63l-273 -342h273v-65h-363zM195 630q0 23 16.5 39.5t39.5 16.5t39 -16.5t16 -39.5t-16 -39t-39 -16t-39.5 16t-16.5 39z" />
    <glyph glyph-name="Zcaron" unicode="&#x17d;" horiz-adv-x="588" 
d="M37 0v63l418 548h-385v69h481v-63l-417 -548h407v-69h-504zM272 741l-92 128h74l59 -84l60 84h71l-89 -128h-83z" />
    <glyph glyph-name="zcaron" unicode="&#x17e;" horiz-adv-x="469" 
d="M53 0v63l273 342h-264v65h354v-63l-273 -342h273v-65h-363zM200 571l-92 128h74l59 -84l60 84h71l-89 -128h-83z" />
    <glyph glyph-name="florin" unicode="&#x192;" 
d="M56 -190l8 69h24q36 0 52 19t22 69l43 349h-87l6 47h87l28 209q7 52 41 80t93 28h37l-8 -69h-21q-35 0 -49 -15.5t-22 -65.5l-23 -167h97l-5 -47h-97l-46 -359q-11 -86 -44 -116.5t-98 -30.5h-38z" />
    <glyph glyph-name="Scommaaccent" unicode="&#x218;" horiz-adv-x="603" 
d="M534 504h-77q-4 53 -41 87t-113 34q-73 0 -113.5 -33.5t-40.5 -84.5t32.5 -79t122.5 -45q135 -25 190 -65.5t55 -125.5t-62.5 -145t-186.5 -60q-114 0 -176 52.5t-70 148.5h77q15 -132 173 -132q81 0 122 38.5t41 89.5q0 55 -34 79.5t-127 43.5q-127 26 -180 65.5
t-53 132.5q0 83 65 135.5t164 52.5q217 0 232 -189zM282 -250h-48q53 71 53 123q0 34 -22 52l63 22q25 -23 25 -64q0 -60 -71 -133z" />
    <glyph glyph-name="scommaaccent" unicode="&#x219;" horiz-adv-x="500" 
d="M443 335h-72q-9 89 -116 89q-47 0 -80 -21.5t-33 -58.5q0 -36 24 -50t93 -24q95 -14 141.5 -42.5t46.5 -96.5q0 -61 -48.5 -102.5t-150.5 -41.5q-105 0 -148.5 37t-50.5 106h74q5 -82 123 -82q58 0 93 19.5t35 58.5q0 36 -28 53.5t-110 29.5q-84 11 -125 37.5t-41 91.5
q0 71 53.5 108t138.5 37q81 0 131 -38.5t50 -109.5zM230 -250h-48q53 71 53 123q0 34 -22 52l63 22q25 -23 25 -64q0 -60 -71 -133z" />
    <glyph glyph-name="uni021A" unicode="&#x21a;" horiz-adv-x="524" 
d="M224 0v611h-206v69h488v-69h-206v-611h-76zM242 -250h-48q53 71 53 123q0 34 -22 52l63 22q25 -23 25 -64q0 -60 -71 -133z" />
    <glyph glyph-name="uni021B" unicode="&#x21b;" horiz-adv-x="343" 
d="M17 410v60h93v136h73v-136h140v-60h-140v-273q0 -77 69 -77q26 0 49 3v-64q-36 -4 -68 -4q-62 0 -92.5 29.5t-30.5 97.5v288h-93zM176 -250h-48q53 71 53 123q0 34 -22 52l63 22q25 -23 25 -64q0 -60 -71 -133z" />
    <glyph glyph-name="dotlessj" unicode="&#x237;" horiz-adv-x="261" 
d="M5 -197v65h23q36 0 51.5 16t15.5 60v526h74v-531q0 -71 -31.5 -103.5t-109.5 -32.5h-23z" />
    <glyph glyph-name="circumflex" unicode="&#x2c6;" horiz-adv-x="255" 
d="M186 571l-60 84l-59 -84h-72l90 128h83l91 -128h-73z" />
    <glyph glyph-name="caron" unicode="&#x2c7;" horiz-adv-x="255" 
d="M87 571l-92 128h74l59 -84l60 84h71l-89 -128h-83z" />
    <glyph glyph-name="uni02C9" unicode="&#x2c9;" horiz-adv-x="255" 
d="M3 772v53h248v-53h-248z" />
    <glyph glyph-name="breve" unicode="&#x2d8;" horiz-adv-x="255" 
d="M-12 699h42q2 -30 28 -50.5t69 -20.5t69 20t29 51h42q-3 -58 -38 -90.5t-102 -32.5q-65 0 -100.5 32.5t-38.5 90.5z" />
    <glyph glyph-name="dotaccent" unicode="&#x2d9;" horiz-adv-x="255" 
d="M72 630q0 23 16.5 39.5t39.5 16.5t39 -16.5t16 -39.5t-16 -39t-39 -16t-39.5 16t-16.5 39z" />
    <glyph glyph-name="ring" unicode="&#x2da;" horiz-adv-x="255" 
d="M35 648q0 38 27 65.5t65 27.5t65.5 -27.5t27.5 -65.5t-27.5 -65t-65.5 -27t-65 27t-27 65zM183 648q0 23 -16.5 39.5t-39.5 16.5t-39.5 -16.5t-16.5 -39.5t16.5 -39.5t39.5 -16.5t39.5 16.5t16.5 39.5z" />
    <glyph glyph-name="ogonek" unicode="&#x2db;" horiz-adv-x="255" 
d="M156 0h44q-72 -70 -72 -118q0 -29 12.5 -39t34.5 -10q19 0 38 7l7 -37q-20 -11 -61 -11q-101 0 -101 76q0 63 98 132z" />
    <glyph glyph-name="tilde" unicode="&#x2dc;" horiz-adv-x="255" 
d="M20 578h-46q12 99 94 99q30 0 69 -15q50 -19 58 -19q20 0 29.5 13t10.5 28h46q-12 -99 -94 -99q-27 0 -70 15q-42 19 -57 19q-20 0 -29.5 -13t-10.5 -28z" />
    <glyph glyph-name="hungarumlaut" unicode="&#x2dd;" horiz-adv-x="255" 
d="M120 571l80 128h97l-117 -128h-60zM-35 571l79 128h98l-118 -128h-59z" />
    <glyph glyph-name="uni0394" unicode="&#x394;" horiz-adv-x="685" 
d="M664 0h-642l281 712h74zM568 62l-229 583l-226 -583h455z" />
    <glyph glyph-name="uni03A9" unicode="&#x3a9;" horiz-adv-x="759" 
d="M698 0h-251v181q89 15 136.5 78.5t47.5 155.5q0 107 -72.5 176t-179.5 69q-106 0 -179 -70t-73 -175q0 -91 48 -155.5t136 -78.5v-181h-251v58h197v82q-92 26 -144.5 102t-52.5 174q0 132 94 218.5t226 86.5q131 0 224.5 -86.5t93.5 -217.5q0 -99 -52 -175.5t-145 -101.5
v-82h197v-58z" />
    <glyph glyph-name="uni03BC" unicode="&#x3bc;" horiz-adv-x="574" 
d="M82 -228v698h66v-261q0 -88 28 -124.5t99 -36.5q62 0 102 48t40 132v242h66v-367q0 -45 5 -103h-71v76h-2q-22 -37 -66.5 -62.5t-90.5 -25.5q-69 0 -110 29v-245h-66z" />
    <glyph glyph-name="pi" unicode="&#x3c0;" horiz-adv-x="593" 
d="M540 60v-49q-36 -17 -64 -17q-23 0 -38.5 7t-23.5 16t-12 27t-5 31t-1 36v300h-220v-411h-64v411h-70v59h494v-59h-76v-307q0 -18 1.5 -27.5t10.5 -18t26 -8.5q21 0 42 10z" />
    <glyph glyph-name="endash" unicode="&#x2013;" 
d="M50 228v57h410v-57h-410z" />
    <glyph glyph-name="emdash" unicode="&#x2014;" horiz-adv-x="800" 
d="M50 228v57h700v-57h-700z" />
    <glyph glyph-name="quoteleft" unicode="&#x2018;" horiz-adv-x="250" 
d="M200 680l-77 -218l-73 19l104 211z" />
    <glyph glyph-name="quoteright" unicode="&#x2019;" horiz-adv-x="250" 
d="M50 474l77 218l73 -19l-104 -211z" />
    <glyph glyph-name="quotesinglbase" unicode="&#x201a;" horiz-adv-x="250" 
d="M50 -111l77 218l73 -19l-104 -211z" />
    <glyph glyph-name="quotedblleft" unicode="&#x201c;" horiz-adv-x="420" 
d="M200 680l-77 -218l-73 19l104 211zM370 680l-77 -218l-73 19l104 211z" />
    <glyph glyph-name="quotedblright" unicode="&#x201d;" horiz-adv-x="420" 
d="M220 474l77 218l73 -19l-104 -211zM50 474l77 218l73 -19l-104 -211z" />
    <glyph glyph-name="quotedblbase" unicode="&#x201e;" horiz-adv-x="420" 
d="M220 -111l77 218l73 -19l-104 -211zM50 -111l77 218l73 -19l-104 -211z" />
    <glyph glyph-name="dagger" unicode="&#x2020;" 
d="M220 -109v521h-155v69h155v199h71v-199h154v-69h-154v-521h-71z" />
    <glyph glyph-name="daggerdbl" unicode="&#x2021;" 
d="M220 134v303h-155v68h155v175h71v-175h154v-68h-154v-303h154v-69h-154v-174h-71v174h-155v69h155z" />
    <glyph glyph-name="bullet" unicode="&#x2022;" horiz-adv-x="500" 
d="M431 352q0 -75 -53 -128t-128 -53t-128 53t-53 128t53 127.5t128 52.5t128 -52.5t53 -127.5z" />
    <glyph glyph-name="ellipsis" unicode="&#x2026;" horiz-adv-x="765" 
d="M579 50q0 24 17.5 41t41.5 17t41 -17t17 -41t-17 -41.5t-41 -17.5t-41.5 17.5t-17.5 41.5zM324 50q0 24 17.5 41t41.5 17t41 -17t17 -41t-17 -41.5t-41 -17.5t-41.5 17.5t-17.5 41.5zM69 50q0 24 17.5 41t41.5 17t41 -17t17 -41t-17 -41.5t-41 -17.5t-41.5 17.5
t-17.5 41.5z" />
    <glyph glyph-name="perthousand" unicode="&#x2030;" horiz-adv-x="1190" 
d="M297 513q0 51 -20.5 82.5t-60.5 31.5t-60.5 -31.5t-20.5 -82.5q0 -52 20.5 -83.5t60.5 -31.5t60.5 32t20.5 83zM70 513q0 81 44 124t102 43q57 0 101 -43t44 -124t-44 -124.5t-101 -43.5q-58 0 -102 43.5t-44 124.5zM695 156q0 52 -20.5 83.5t-60.5 31.5t-60.5 -32
t-20.5 -83t20.5 -82.5t60.5 -31.5t60.5 31.5t20.5 82.5zM469 156q0 81 44 124.5t101 43.5q58 0 102 -43.5t44 -124.5t-44 -124t-102 -43q-57 0 -101 43t-44 124zM177 -31l419 731h57l-419 -731h-57zM1055 156q0 52 -20.5 83.5t-60.5 31.5t-60.5 -32t-20.5 -83t20.5 -82.5
t60.5 -31.5t60.5 31.5t20.5 82.5zM829 156q0 81 44 124.5t101 43.5q58 0 102 -43.5t44 -124.5t-44 -124t-102 -43q-57 0 -101 43t-44 124z" />
    <glyph glyph-name="guilsinglleft" unicode="&#x2039;" horiz-adv-x="330" 
d="M175 82l-96 167l99 162h73l-100 -162l97 -167h-73z" />
    <glyph glyph-name="guilsinglright" unicode="&#x203a;" horiz-adv-x="330" 
d="M79 82l101 163l-98 166h73l96 -166l-98 -163h-74z" />
    <glyph glyph-name="fraction" unicode="&#x2044;" horiz-adv-x="100" 
d="M-188 -31l419 731h57l-419 -731h-57z" />
    <glyph glyph-name="Euro" unicode="&#x20ac;" 
d="M379 243h-199q7 -35 20.5 -66t36 -59.5t58.5 -45.5t81 -17q38 0 64 9l18 -65q-36 -12 -83 -12q-116 0 -187 70t-87 186h-73l10 52h58q-1 8 -1 46q0 3 4 51h-69l9 52h68q22 108 91.5 178.5t182.5 70.5q50 0 81 -12l-18 -62q-22 9 -64 9q-45 0 -82 -18.5t-59.5 -48t-35 -59
t-17.5 -58.5h225l-11 -52h-223q-5 -20 -5 -48q0 -38 1 -49h217z" />
    <glyph glyph-name="afii61289" unicode="&#x2113;" horiz-adv-x="500" 
d="M391 77l24 -35q-58 -55 -130 -55q-57 0 -92 32.5t-35 95.5v98l-58 -62h-2l-26 37l86 84v259q0 82 36.5 128.5t92.5 46.5q49 0 79.5 -34.5t30.5 -93.5q0 -142 -171 -318v-134q0 -47 22 -67t53 -20q44 0 88 38h2zM340 573q0 85 -53 85q-25 0 -43 -30t-18 -86v-222
q114 132 114 253z" />
    <glyph glyph-name="trademark" unicode="&#x2122;" horiz-adv-x="900" 
d="M190 307v326h-119v47h291v-47h-119v-326h-53zM769 307v326h-2l-129 -326h-33l-129 326h-2v-326h-52v373h85l116 -292l112 292h86v-373h-52z" />
    <glyph glyph-name="Omega" unicode="&#x2126;" horiz-adv-x="759" 
d="M698 0h-251v181q89 15 136.5 78.5t47.5 155.5q0 107 -72.5 176t-179.5 69q-106 0 -179 -70t-73 -175q0 -91 48 -155.5t136 -78.5v-181h-251v58h197v82q-92 26 -144.5 102t-52.5 174q0 132 94 218.5t226 86.5q131 0 224.5 -86.5t93.5 -217.5q0 -99 -52 -175.5t-145 -101.5
v-82h197v-58z" />
    <glyph glyph-name="estimated" unicode="&#x212e;" horiz-adv-x="604" 
d="M561 259h-404v-181q59 -59 145 -59q63 0 109 28.5t84 91.5l35 -21q-46 -73 -98 -104t-130 -31q-115 0 -186.5 79t-71.5 197q0 119 71 197.5t187 78.5q115 0 187 -77t72 -199zM157 295h291v145q-63 60 -147 60t-144 -60v-145z" />
    <glyph glyph-name="partialdiff" unicode="&#x2202;" horiz-adv-x="556" 
d="M487 363q0 -50 -4.5 -96t-19.5 -99t-38.5 -91t-65.5 -63.5t-97 -25.5q-90 0 -144.5 66t-54.5 158q0 90 52.5 151.5t141.5 61.5q98 0 166 -84q0 9 0.5 26t0.5 26q0 46 -9 90.5t-28 87t-56 69t-86 26.5q-52 0 -112 -46l-36 43q67 58 145 58q68 0 118.5 -33t76.5 -88.5
t38 -114t12 -122.5zM418 278q-68 91 -155 91q-65 0 -101 -46t-36 -113q0 -66 36.5 -117.5t100.5 -51.5q41 0 72 23.5t47.5 61.5t25 75.5t10.5 76.5z" />
    <glyph glyph-name="Delta" unicode="&#x2206;" horiz-adv-x="685" 
d="M664 0h-642l281 712h74zM568 62l-229 583l-226 -583h455z" />
    <glyph glyph-name="product" unicode="&#x220f;" horiz-adv-x="741" 
d="M656 -214h-66v938h-438v-938h-66v1000h570v-1000z" />
    <glyph glyph-name="summation" unicode="&#x2211;" horiz-adv-x="648" 
d="M629 -214h-553v55l329 448l-315 441v56h527v-62h-442l309 -435l-328 -442h473v-61z" />
    <glyph glyph-name="minus" unicode="&#x2212;" 
d="M49 275h412v-59h-412v59z" />
    <glyph glyph-name="uni2215" unicode="&#x2215;" horiz-adv-x="100" 
d="M-188 -31l419 731h57l-419 -731h-57z" />
    <glyph glyph-name="uni2219" unicode="&#x2219;" horiz-adv-x="255" 
d="M69 297q0 24 17.5 41t41.5 17t41 -17t17 -41t-17 -41.5t-41 -17.5t-41.5 17.5t-17.5 41.5z" />
    <glyph glyph-name="radical" unicode="&#x221a;" horiz-adv-x="537" 
d="M526 786l-210 -1000h-66l-164 340l-46 -22l-24 50l100 48l158 -332l189 916h63z" />
    <glyph glyph-name="infinity" unicode="&#x221e;" horiz-adv-x="815" 
d="M737 252q0 -63 -38.5 -105.5t-101.5 -42.5q-52 0 -95.5 28.5t-93.5 78.5q-10 -8 -33.5 -28.5t-36.5 -30.5t-34 -23.5t-42 -19t-44 -5.5q-62 0 -101 41t-39 104t38 105.5t100 42.5q28 0 53 -8t55 -31t40 -32t44 -41l22 22t25 23.5t23 19.5t27 20t26.5 13.5t31.5 11.5t32 3
q63 0 102.5 -41t39.5 -105zM680 249q0 40 -21.5 66t-61.5 26q-9 0 -18 -1.5t-19 -6t-17.5 -8t-18.5 -11.5t-16.5 -11.5t-17 -14t-15 -13t-16 -14.5t-13.5 -13q28 -26 46.5 -41t49 -30t58.5 -15q37 0 58.5 24.5t21.5 62.5zM370 249q-98 91 -155 91q-37 0 -58.5 -26.5
t-21.5 -63.5q0 -39 22.5 -63.5t61.5 -24.5q57 0 151 87z" />
    <glyph glyph-name="integral" unicode="&#x222b;" horiz-adv-x="611" 
d="M434 736q0 -34 -37 -34q-13 0 -21 6t-11.5 14t-8.5 14t-11 6q-23 0 -28.5 -38.5t-5.5 -152.5v-504q0 -56 -4 -95.5t-15.5 -80.5t-37.5 -62.5t-65 -21.5q-24 0 -42 12t-18 35q0 14 9.5 23t23.5 9q15 0 23.5 -9.5t14 -19t12.5 -9.5q22 0 27.5 37.5t5.5 142.5v495
q0 154 25 218.5t102 64.5q26 0 44 -12t18 -38z" />
    <glyph glyph-name="approxequal" unicode="&#x2248;" 
d="M426 190h42q-16 -119 -106 -119q-39 0 -114 29q-75 28 -105 28q-25 0 -40.5 -18t-19.5 -44h-43q7 52 32.5 87t73.5 35q11 0 22.5 -1.5t25.5 -5.5t22.5 -7t26 -9.5t24.5 -8.5q78 -26 100 -26q46 0 59 60zM426 337h42q-16 -119 -106 -119q-39 0 -114 29q-75 28 -105 28
q-25 0 -40.5 -18t-19.5 -44h-43q7 52 32.5 87t73.5 35q11 0 22.5 -1.5t25.5 -5.5t22.5 -7t26 -9.5t24.5 -8.5q78 -26 100 -26q46 0 59 60z" />
    <glyph glyph-name="notequal" unicode="&#x2260;" 
d="M458 107h-227l-60 -117l-51 27l47 90h-116v59h147l47 93h-194v59h226l60 118l53 -27l-49 -91h117v-59h-148l-48 -93h196v-59z" />
    <glyph glyph-name="lessequal" unicode="&#x2264;" 
d="M458 96l-407 148v64l407 150v-65l-324 -117l324 -116v-64zM458 5h-407v59h407v-59z" />
    <glyph glyph-name="greaterequal" unicode="&#x2265;" 
d="M51 96v64l326 116l-326 117v65l407 -150v-64zM51 5v59h407v-59h-407z" />
    <glyph glyph-name="lozenge" unicode="&#x25ca;" horiz-adv-x="593" 
d="M498 356l-171 -391h-63l-169 391l169 391h63zM433 356l-137 325l-136 -325l136 -325z" />
    <glyph glyph-name="uniF8FF" unicode="&#xf8ff;" horiz-adv-x="512" 
d="M278 117h-56v67h56v-67zM271 234h-46l-2 17q0 56 13 81q15 28 46 59q30 28 40 45.5t10 37.5q0 36 -22.5 60.5t-53.5 24.5q-71 0 -82 -95l-50 8q6 69 42 103t93 34q55 0 89.5 -36t34.5 -95q0 -34 -13 -60t-50 -60q-37 -33 -43 -52q-6 -20 -6 -72zM50 50h412v617h-412v-617
zM0 718h512v-718h-512v718z" />
    <glyph glyph-name="grave.cap" horiz-adv-x="255" 
d="M153 741l-118 128h98l79 -128h-59z" />
    <glyph glyph-name="acute.cap" horiz-adv-x="255" 
d="M42 741l80 128h98l-118 -128h-60z" />
    <glyph glyph-name="circumflex.cap" horiz-adv-x="255" 
d="M186 741l-60 84l-59 -84h-72l90 128h83l91 -128h-73z" />
    <glyph glyph-name="caron.cap" horiz-adv-x="255" 
d="M87 741l-92 128h74l59 -84l60 84h71l-89 -128h-83z" />
    <glyph glyph-name="caron.alt" horiz-adv-x="255" 
d="M116 483h-48q53 75 53 123q0 34 -22 52l63 22q25 -23 25 -64q0 -60 -71 -133z" />
    <glyph glyph-name="tilde.cap" horiz-adv-x="255" 
d="M20 748h-46q12 99 94 99q30 0 69 -15q50 -19 58 -19q20 0 29.5 13t10.5 28h46q-12 -99 -94 -99q-27 0 -70 15q-42 19 -57 19q-20 0 -29.5 -13t-10.5 -28z" />
    <glyph glyph-name="dieresis.cap" horiz-adv-x="255" 
d="M170 797q0 21 14.5 35.5t35.5 14.5t36 -14.5t15 -35.5t-15 -36t-36 -15t-35.5 15t-14.5 36zM-16 797q0 21 14.5 35.5t35.5 14.5t36 -14.5t15 -35.5t-15 -36t-36 -15t-35.5 15t-14.5 36z" />
    <glyph glyph-name="macron.cap" horiz-adv-x="255" 
d="M3 772v53h248v-53h-248z" />
    <glyph glyph-name="breve.cap" horiz-adv-x="255" 
d="M-12 869h42q2 -30 28 -50.5t69 -20.5t69 20t29 51h42q-3 -58 -38 -90.5t-102 -32.5q-65 0 -100.5 32.5t-38.5 90.5z" />
    <glyph glyph-name="ring.cap" horiz-adv-x="255" 
d="M35 818q0 38 27 65.5t65 27.5t65.5 -27.5t27.5 -65.5t-27.5 -65t-65.5 -27t-65 27t-27 65zM183 818q0 23 -16.5 39.5t-39.5 16.5t-39.5 -16.5t-16.5 -39.5t16.5 -39.5t39.5 -16.5t39.5 16.5t16.5 39.5z" />
    <glyph glyph-name="hungarumlaut.cap" horiz-adv-x="255" 
d="M120 741l80 128h97l-117 -128h-60zM-35 741l79 128h98l-118 -128h-59z" />
    <glyph glyph-name="dotaccent.cap" horiz-adv-x="255" 
d="M77 797q0 21 14.5 35.5t35.5 14.5t36 -14.5t15 -35.5t-15 -36t-36 -15t-35.5 15t-14.5 36z" />
    <glyph glyph-name="commaaccent" horiz-adv-x="255" 
d="M116 -250h-48q53 71 53 123q0 34 -22 52l63 22q25 -23 25 -64q0 -60 -71 -133z" />
    <glyph glyph-name="commaaccent.alt" horiz-adv-x="255" 
d="M151 759h48q-53 -75 -53 -123q0 -34 22 -52l-63 -22q-25 23 -25 64q0 60 71 133z" />
    </font>
</defs>
</svg>
